<?xml version="1.0" encoding="utf-8"?>
<!-- Generator: Adobe Illustrator 26.0.1, SVG Export Plug-In . SVG Version: 6.00 Build 0)  -->
<svg version="1.1" id="Layer_1" xmlns="http://www.w3.org/2000/svg" xmlns:xlink="http://www.w3.org/1999/xlink" x="0px" y="0px"
	 viewBox="0 0 29 29" style="enable-background:new 0 0 29 29;" xml:space="preserve">
<style type="text/css">
	.st0{fill:#FEE102;}
	.st1{fill:#E40215;}
</style>
<g>
	<path class="st0" d="M26.95,7.29c0.65,0.76,0.92,1.71,1.26,2.6c0.76,2.01,0.83,4.13,0.66,6.24c-0.11,1.31-0.46,2.58-0.97,3.8
		c-0.28,0.66-0.62,1.29-0.95,1.93c-0.2-0.29-0.5-0.14-0.75-0.14c-8.06-0.01-16.12-0.01-24.18-0.01c-0.51-0.62-0.75-1.38-1.05-2.1
		c-0.38-0.93-0.6-1.91-0.83-2.88c-0.11-0.47-0.04-0.98-0.06-1.48c-0.11-2.35,0.28-4.58,1.26-6.74c0.19-0.43,0.39-0.84,0.64-1.23
		C10.3,7.29,18.63,7.29,26.95,7.29z"/>
	<path class="st1" d="M26.95,7.29c-8.33,0-16.65,0-24.98,0c0.31-0.65,0.75-1.21,1.2-1.76c1.14-1.42,2.48-2.6,4.09-3.48
		c5.47-2.99,10.77-2.62,15.86,0.88c1.52,1.05,2.72,2.45,3.7,4.02C26.88,7.04,26.91,7.17,26.95,7.29z"/>
	<path class="st1" d="M2.02,21.71c8.06,0,16.12,0,24.18,0.01c0.25,0,0.55-0.15,0.75,0.14c-0.93,1.49-2.03,2.79-3.43,3.9
		c-1.28,1.02-2.64,1.82-4.17,2.35c-3.95,1.38-7.81,1.1-11.52-0.77c-2.4-1.21-4.29-3.03-5.71-5.32C2.07,21.93,2.05,21.81,2.02,21.71z
		"/>
</g>
</svg>
