<?xml version="1.0" encoding="utf-8"?>
<!-- Generator: Adobe Illustrator 26.0.1, SVG Export Plug-In . SVG Version: 6.00 Build 0)  -->
<svg version="1.1" id="Layer_1" xmlns="http://www.w3.org/2000/svg" xmlns:xlink="http://www.w3.org/1999/xlink" x="0px" y="0px"
	 viewBox="0 0 29 29" style="enable-background:new 0 0 29 29;" xml:space="preserve">
<style type="text/css">
	.st0{fill:#EEECED;}
	.st1{fill:#0152B3;}
	.st2{fill:#D70027;}
</style>
<circle class="st0" cx="14.5" cy="14.5" r="14.3"/>
<path class="st1" d="M18.3,0.73c0,2.37,0,4.75,0,7.16c0.06-0.04,0.09-0.04,0.1-0.06c1.57-1.57,3.14-3.14,4.72-4.71
	C21.7,2.03,20.07,1.21,18.3,0.73z"/>
<path class="st1" d="M25.84,5.81c-1.52,1.53-3.05,3.06-4.58,4.59c-0.06,0.06-0.15,0.11-0.18,0.23c2.4,0,4.78,0,7.18,0
	C27.76,8.85,26.93,7.23,25.84,5.81z"/>
<path class="st2" d="M23.63,3.5c-1.73,1.74-3.46,3.47-5.2,5.2c-0.06,0.06-0.13,0.11-0.13,0.21c0,0.55,0,1.1,0,1.67
	c0.06-0.03,0.08-0.04,0.1-0.05c2.06-2.06,4.12-4.12,6.18-6.17C24.28,4.06,23.96,3.77,23.63,3.5z"/>
<path class="st2" d="M16.72,12.57c-0.27,0-0.35-0.07-0.35-0.34c0.01-3.64,0.01-7.27,0.01-10.91c0-0.32,0-0.65,0-0.97
	C15.76,0.26,15.14,0.2,14.5,0.2c-0.66,0-1.3,0.06-1.94,0.15c0,0.23,0,0.45,0,0.68c0,3.73,0,7.47,0.01,11.2
	c0,0.28-0.07,0.35-0.35,0.35c-3.96-0.01-7.92,0-11.88-0.01C0.26,13.19,0.2,13.84,0.2,14.5c0,0.64,0.06,1.27,0.14,1.89
	c3.96-0.01,7.92-0.01,11.88-0.02c0.28,0,0.35,0.07,0.35,0.34c-0.01,3.69-0.01,7.39-0.01,11.08c0,0.28,0,0.57,0,0.85
	c0.64,0.09,1.28,0.15,1.94,0.15c0.64,0,1.27-0.06,1.88-0.14c-0.01-3.99,0-7.98-0.01-11.97c0-0.25,0.06-0.32,0.31-0.32
	c3.71,0.01,7.43,0.01,11.14,0.01c0.28,0,0.56,0,0.83,0c0.08-0.62,0.14-1.24,0.14-1.88c0-0.66-0.06-1.31-0.15-1.94
	C24.68,12.56,20.7,12.56,16.72,12.57z"/>
<path class="st1" d="M28.27,18.31c-2.4,0-4.79,0-7.23,0c0.05,0.06,0.07,0.09,0.09,0.11c1.58,1.58,3.15,3.15,4.73,4.73
	C26.95,21.73,27.78,20.09,28.27,18.31z"/>
<path class="st1" d="M5.84,3.14c1.52,1.51,3.04,3.03,4.55,4.54c0.06,0.06,0.13,0.13,0.25,0.23c0-2.44,0-4.81,0.01-7.18
	C8.88,1.23,7.26,2.06,5.84,3.14z"/>
<path class="st2" d="M3.53,5.34c1.73,1.72,3.46,3.45,5.19,5.18c0.07,0.07,0.13,0.12,0.24,0.12c0.53-0.01,1.07,0,1.67,0
	c-0.11-0.12-0.18-0.19-0.24-0.26C9.62,9.61,8.85,8.84,8.08,8.07C6.85,6.85,5.62,5.62,4.39,4.38C4.09,4.69,3.8,5.01,3.53,5.34z"/>
<path class="st1" d="M0.74,10.64c2.37,0,4.74,0,7.12,0c0-0.04,0.01-0.05,0-0.06C6.29,9,4.71,7.42,3.14,5.84
	C2.06,7.26,1.24,8.88,0.74,10.64z"/>
<path class="st1" d="M3.11,23.12c1.53-1.54,3.07-3.08,4.61-4.61c0.05-0.05,0.15-0.09,0.13-0.2c-2.37,0-4.74,0-7.12,0
	C1.22,20.08,2.03,21.7,3.11,23.12z"/>
<path class="st1" d="M5.81,25.84c1.42,1.09,3.05,1.92,4.82,2.42c0-2.4,0-4.79,0-7.23C8.99,22.66,7.4,24.25,5.81,25.84z"/>
<path class="st1" d="M22.67,25.38c-1.44-1.44-2.87-2.87-4.37-4.37c0,0.18,0,0.28,0,0.38c0,2.14,0,4.27,0,6.41
	c0,0.16,0.01,0.32,0.01,0.47c1.78-0.49,3.42-1.32,4.85-2.41C22.99,25.71,22.83,25.54,22.67,25.38z"/>
<path class="st2" d="M20.23,18.42c-0.07-0.07-0.13-0.12-0.24-0.12c-0.53,0.01-1.06,0-1.6,0c-0.02,0.03-0.04,0.06-0.06,0.09
	c0.08,0.06,0.18,0.11,0.25,0.18c0.92,0.92,1.84,1.83,2.76,2.75c1.09,1.09,2.19,2.18,3.28,3.28c0.3-0.3,0.59-0.62,0.86-0.95
	C23.72,21.92,21.98,20.17,20.23,18.42z"/>
<path class="st2" d="M10.64,18.29c-0.49,0.49-0.91,0.93-1.34,1.35c-1.65,1.65-3.29,3.29-4.94,4.94c0.3,0.3,0.62,0.59,0.95,0.87
	c1.73-1.74,3.47-3.47,5.2-5.21c0.06-0.06,0.13-0.11,0.13-0.21C10.64,19.48,10.64,18.93,10.64,18.29z"/>
</svg>
