<?xml version="1.0" encoding="utf-8"?>
<!-- Generator: Adobe Illustrator 26.0.1, SVG Export Plug-In . SVG Version: 6.00 Build 0)  -->
<svg version="1.1" id="Layer_1" xmlns="http://www.w3.org/2000/svg" xmlns:xlink="http://www.w3.org/1999/xlink" x="0px" y="0px"
	 viewBox="0 0 215 215" style="enable-background:new 0 0 215 215;" xml:space="preserve">
<style type="text/css">
	.st0{fill:#FFB71B;}
</style>
<g>
	<path class="st0" d="M104.3,104.03h-0.14c-1.86,0-3.25-0.09-4.17-0.26c-0.92-0.17-1.77-0.51-2.57-1.03
		c-1.13-0.73-2.02-1.75-2.67-3.05c-0.65-1.3-0.98-2.75-0.98-4.34c0-1.8,0.32-3.64,0.97-5.51c0.65-1.87,1.58-3.69,2.81-5.46
		c1.22-1.77,2.71-3.44,4.45-5c2.06-1.83,4.19-3.26,6.4-4.27c2.21-1.01,4.31-1.52,6.31-1.52c1.56,0,2.82,0.37,3.76,1.12
		c0.95,0.74,1.42,1.72,1.42,2.92c0,0.56-0.07,1.1-0.2,1.62c-0.14,0.53-0.37,1.22-0.71,2.08c-0.34,0.86-0.8,1.93-1.39,3.19
		c-0.39,0.86-0.74,1.43-1.05,1.72c-0.31,0.29-0.72,0.44-1.23,0.44c-0.53,0-0.96-0.15-1.3-0.46c-0.35-0.31-0.52-0.71-0.52-1.2
		c0-0.47,0.2-1.15,0.59-2.05l0.7-1.46c0.69-1.53,1.04-2.57,1.04-3.13c0-0.37-0.11-0.66-0.33-0.85c-0.22-0.19-0.54-0.28-0.98-0.28
		c-0.72,0-1.63,0.2-2.71,0.61c-1.09,0.41-2.24,0.98-3.44,1.73c-1.21,0.75-2.32,1.57-3.32,2.46c-1.4,1.23-2.62,2.58-3.66,4.05
		c-1.04,1.47-1.86,2.99-2.43,4.56c-0.58,1.57-0.87,3.02-0.87,4.36c0,1.1,0.2,2.03,0.6,2.79c0.4,0.77,0.96,1.34,1.7,1.71
		c0.53,0.26,1.1,0.42,1.73,0.5c0.63,0.07,1.73,0.11,3.29,0.11h0.74l1.65-3.54c0.25-0.55,0.52-1.04,0.79-1.44
		c0.27-0.41,0.54-0.68,0.81-0.82c0.27-0.14,0.59-0.22,0.95-0.22c0.53,0,0.96,0.17,1.32,0.51c0.35,0.34,0.53,0.75,0.53,1.25
		c0,0.38-0.22,1.03-0.65,1.96l-4.73,10.16c-0.47,0.98-0.86,1.63-1.19,1.96c-0.33,0.33-0.78,0.5-1.33,0.5
		c-0.53,0-0.96-0.17-1.32-0.51c-0.35-0.34-0.53-0.75-0.53-1.25c0-0.41,0.21-1.05,0.63-1.94L104.3,104.03z"/>
	<path class="st0" d="M121.55,87.74c0.15-0.02,0.31-0.02,0.47-0.02c1.25,0,2.25,0.31,3.01,0.94c0.76,0.62,1.14,1.44,1.14,2.44
		c0,0.81-0.25,1.6-0.75,2.37c-0.5,0.76-1.4,1.75-2.69,2.95l-1.78,1.65c-0.93,0.84-1.4,1.5-1.4,1.98c0,0.29,0.1,0.51,0.31,0.68
		c0.21,0.16,0.49,0.25,0.84,0.25c0.71,0,1.72-0.28,3.04-0.84c1.32-0.55,2.63-1.24,3.92-2.05c0.73-0.45,1.22-0.73,1.44-0.83
		c0.22-0.1,0.46-0.16,0.72-0.16c0.42,0,0.77,0.15,1.05,0.44c0.28,0.29,0.42,0.66,0.42,1.09c0,0.48-0.21,0.94-0.63,1.4
		c-0.42,0.45-1.14,0.98-2.16,1.6c-1.62,0.96-3.12,1.65-4.49,2.08c-1.37,0.43-2.73,0.64-4.06,0.64c-1.5,0-2.69-0.34-3.55-1.01
		c-0.86-0.68-1.3-1.59-1.3-2.75c0-1.05,0.46-2.1,1.37-3.15c0.72-0.78,1.81-1.83,3.27-3.13c1.04-0.92,1.65-1.49,1.86-1.73
		c0.2-0.24,0.31-0.5,0.31-0.79c0-0.35-0.14-0.59-0.41-0.72c-0.27-0.14-0.73-0.21-1.37-0.22c-0.32,0.72-0.64,1.23-0.97,1.53
		c-0.33,0.3-0.74,0.45-1.22,0.45c-0.5,0-0.91-0.15-1.23-0.46c-0.32-0.31-0.48-0.7-0.48-1.18c0-0.35,0.19-0.95,0.59-1.8l1.3-2.77
		c0.45-0.94,0.83-1.57,1.13-1.86c0.3-0.29,0.71-0.44,1.22-0.44c0.48,0,0.89,0.15,1.22,0.45c0.33,0.3,0.49,0.69,0.49,1.17
		c0,0.35-0.18,0.9-0.54,1.67L121.55,87.74z"/>
	<path class="st0" d="M136.71,102.38c-0.99,0.77-1.81,1.28-2.47,1.55c-0.65,0.27-1.36,0.41-2.13,0.41c-1.32,0-2.37-0.42-3.14-1.25
		c-0.77-0.84-1.16-1.95-1.16-3.35c0-1.81,0.66-3.66,1.97-5.54c1.31-1.88,3.05-3.43,5.22-4.66c0.72-0.43,1.56-0.84,2.51-1.22
		c0.95-0.37,1.89-0.67,2.8-0.88c0.92-0.21,1.7-0.31,2.34-0.31c1.37,0,2.05,0.54,2.05,1.62c0,0.5-0.17,0.88-0.51,1.14
		c-0.34,0.26-0.94,0.47-1.79,0.62c-1.4,0.26-2.62,0.61-3.66,1.05c-1.04,0.45-2.05,1.03-3.03,1.75c-1.22,0.89-2.19,1.87-2.92,2.96
		c-0.73,1.09-1.09,2.06-1.09,2.92c0,0.47,0.11,0.84,0.33,1.11c0.22,0.28,0.51,0.42,0.89,0.42c0.54,0,1.1-0.21,1.68-0.64
		c0.58-0.43,1.28-1.13,2.11-2.11l0.2-0.49c0.41-0.95,0.63-1.45,0.67-1.51l0.7-1.49c0.43-0.93,0.84-1.58,1.2-1.94
		c0.37-0.36,0.82-0.54,1.36-0.54c0.48,0,0.88,0.14,1.19,0.42c0.32,0.28,0.47,0.63,0.47,1.05c0,0.39-0.2,1-0.59,1.82l-0.74,1.55
		c-0.1,0.23-0.21,0.46-0.33,0.69c-0.11,0.23-0.23,0.47-0.35,0.71c-0.37,0.75-0.56,1.28-0.56,1.58c0,0.54,0.26,0.81,0.79,0.81
		c0.33,0,0.75-0.15,1.25-0.46c0.5-0.31,1.37-0.93,2.6-1.86c0.72-0.54,1.2-0.88,1.43-1.01c0.23-0.14,0.49-0.2,0.76-0.2
		c0.39,0,0.74,0.14,1.05,0.42c0.31,0.28,0.46,0.6,0.46,0.98c0,0.92-0.94,2.02-2.81,3.31c-1.41,0.96-2.57,1.63-3.48,1.99
		c-0.91,0.37-1.82,0.55-2.74,0.55C137.78,104.34,136.93,103.69,136.71,102.38"/>
	<path class="st0" d="M152.93,89.16c0.47-0.47,1.1-0.87,1.92-1.22c0.81-0.35,1.54-0.52,2.18-0.52c0.93,0,1.69,0.27,2.26,0.81
		c0.58,0.54,0.87,1.25,0.87,2.14c0,1.13-0.42,2.52-1.26,4.17l-1.02,2.01l-0.92,1.85c-0.35,0.68-0.52,1.16-0.52,1.47
		c0,0.51,0.23,0.77,0.7,0.77c0.23,0,0.47-0.06,0.74-0.18c0.27-0.12,0.62-0.32,1.04-0.61c0.42-0.29,1.02-0.74,1.8-1.37
		c0.79-0.62,1.34-1.01,1.64-1.18c0.3-0.17,0.62-0.26,0.95-0.26c0.41,0,0.75,0.14,1.04,0.43s0.43,0.63,0.43,1.04
		c0,0.78-0.72,1.71-2.16,2.79c-2.64,2.04-4.88,3.06-6.71,3.06c-1.04,0-1.89-0.32-2.56-0.95c-0.67-0.63-1-1.47-1-2.5
		c0-0.54,0.16-1.26,0.47-2.16c0.29-0.75,0.99-2.24,2.12-4.46c0.68-1.34,1.01-2.15,1.01-2.43c0-0.42-0.22-0.63-0.65-0.63
		c-0.42,0-1.04,0.24-1.86,0.71c-0.82,0.47-1.62,1.06-2.4,1.75l-3.92,8.38c-0.45,0.95-0.82,1.57-1.11,1.86
		c-0.29,0.29-0.7,0.44-1.23,0.44c-0.49,0-0.9-0.16-1.23-0.46c-0.32-0.31-0.48-0.7-0.48-1.18c0-0.35,0.2-0.95,0.61-1.82l5.2-11.15
		c0.42-0.9,0.79-1.51,1.1-1.82c0.32-0.32,0.73-0.47,1.24-0.47s0.92,0.15,1.24,0.44c0.31,0.29,0.47,0.67,0.47,1.14V89.16z"/>
	<path class="st0" d="M173.45,91.39c-1.41,0.38-2.76,0.99-4.04,1.84c-1.28,0.85-2.32,1.8-3.1,2.86c-0.78,1.06-1.17,2.07-1.17,3.03
		c0,0.45,0.12,0.81,0.37,1.09c0.25,0.28,0.57,0.42,0.98,0.42c0.45,0,1.02-0.22,1.7-0.65c0.68-0.43,1.37-1,2.06-1.69L173.45,91.39z
		 M175.3,87.43l3.18-6.78c0.45-0.94,0.83-1.57,1.13-1.86c0.3-0.29,0.71-0.44,1.22-0.44c0.5,0,0.9,0.15,1.23,0.45
		c0.32,0.3,0.49,0.69,0.49,1.17c0,0.35-0.2,0.95-0.61,1.82l-7.59,16.29c-0.38,0.81-0.56,1.44-0.56,1.87c0,0.16,0.08,0.32,0.24,0.46
		c0.16,0.14,0.33,0.21,0.51,0.21c0.33,0,0.71-0.13,1.14-0.39c0.43-0.26,1.39-0.95,2.87-2.06c0.6-0.47,1.03-0.77,1.3-0.91
		c0.26-0.14,0.53-0.21,0.8-0.21c0.38,0,0.72,0.15,1.04,0.45c0.32,0.3,0.47,0.64,0.47,1.02c0,0.41-0.22,0.87-0.68,1.4
		c-0.45,0.53-1.16,1.12-2.12,1.8c-1.38,0.96-2.56,1.64-3.54,2.04c-0.98,0.4-1.9,0.6-2.77,0.6c-0.67,0-1.23-0.16-1.65-0.47
		c-0.43-0.32-0.75-0.81-0.98-1.49c-1.73,1.3-3.36,1.96-4.89,1.96c-1.25,0-2.26-0.42-3.04-1.27c-0.78-0.85-1.17-1.96-1.17-3.32
		c0-1.89,0.63-3.73,1.89-5.51c1.26-1.78,2.96-3.28,5.1-4.49C170.42,88.53,172.76,87.75,175.3,87.43"/>
	<path class="st0" d="M183.04,94.37c-0.42-0.79-0.63-1.56-0.63-2.31c0-2.02,1.32-3.68,3.95-4.99c0.85-0.42,1.67-0.77,2.46-1.05
		c0.79-0.28,1.34-0.42,1.67-0.42c0.48,0,0.88,0.15,1.2,0.45c0.32,0.3,0.48,0.68,0.48,1.15c0,0.49-0.21,0.9-0.63,1.21
		c-0.27,0.16-1,0.51-2.2,1.03l-1.55,0.67c-0.66,0.3-1.13,0.59-1.41,0.88c-0.28,0.28-0.42,0.62-0.42,0.99c0,0.24,0.07,0.52,0.2,0.85
		c1.53-0.72,2.54-1.08,3.03-1.08c0.4,0,0.76,0.16,1.08,0.47c0.32,0.32,0.47,0.69,0.47,1.12c0,0.39-0.12,0.72-0.35,1
		c-0.23,0.28-0.62,0.53-1.16,0.75c-0.26,0.12-0.73,0.33-1.41,0.63l-2.02,0.9c-0.82,0.37-1.42,0.72-1.79,1.02
		c-0.37,0.31-0.55,0.65-0.55,1.02c0,0.56,0.38,0.83,1.15,0.83c0.94,0,2.2-0.28,3.76-0.85c1.57-0.57,3.1-1.3,4.59-2.2
		c1.05-0.64,1.77-0.97,2.16-0.97c0.44,0,0.79,0.14,1.08,0.43c0.28,0.28,0.43,0.64,0.43,1.08c0,0.57-0.29,1.1-0.88,1.61
		c-0.58,0.5-1.65,1.14-3.21,1.92c-1.68,0.81-3.18,1.39-4.5,1.75c-1.33,0.36-2.6,0.54-3.83,0.54c-1.47,0-2.62-0.34-3.45-1.02
		c-0.83-0.68-1.25-1.61-1.25-2.8C179.53,97.14,180.7,95.6,183.04,94.37"/>
	<path class="st0" d="M43.48,77.36l-0.14,0.02l-0.43,0.02c-2.12,0.22-4.1,0.87-5.96,1.93c-1.86,1.06-3.33,2.36-4.42,3.91
		c-1.09,1.55-1.63,3.15-1.63,4.8c0,1.55,0.69,2.84,2.07,3.87c0.48,0.38,0.8,0.67,0.96,0.89c0.16,0.22,0.24,0.5,0.24,0.84
		c0,0.49-0.19,0.92-0.59,1.26c-0.39,0.35-0.87,0.52-1.44,0.52c-0.49,0-1.01-0.14-1.55-0.42c-0.54-0.28-1.08-0.69-1.62-1.23
		c-0.69-0.74-1.21-1.61-1.57-2.61c-0.35-1-0.53-2.06-0.53-3.15c0-1.8,0.49-3.59,1.45-5.35c0.97-1.76,2.27-3.32,3.92-4.67
		c1.64-1.35,3.52-2.42,5.63-3.21c2.11-0.79,4.27-1.18,6.48-1.18c1.2,0,2.11,0.2,2.73,0.61c0.62,0.41,0.92,1,0.92,1.78
		c0,0.63-0.31,1.6-0.92,2.91c-0.04,0.09-0.09,0.18-0.12,0.27c-0.04,0.09-0.09,0.2-0.15,0.32l-10.45,22.39
		c-0.44,0.96-0.83,1.61-1.18,1.96c-0.35,0.35-0.8,0.52-1.34,0.52c-0.53,0-0.97-0.17-1.32-0.51c-0.35-0.34-0.53-0.75-0.53-1.25
		c0-0.41,0.21-1.06,0.63-1.96L43.48,77.36z"/>
	<path class="st0" d="M49.86,92.56l-0.43,0.9c-0.44,0.92-0.81,1.53-1.12,1.83c-0.31,0.31-0.72,0.46-1.23,0.46
		c-0.5,0-0.91-0.15-1.23-0.46c-0.32-0.31-0.48-0.7-0.48-1.18c0-0.35,0.2-0.95,0.61-1.8l2.66-5.72c0.35-0.75,0.61-1.28,0.81-1.58
		c0.19-0.3,0.4-0.51,0.62-0.62c0.22-0.11,0.5-0.17,0.84-0.17c0.53,0,0.95,0.14,1.27,0.44c0.32,0.29,0.48,0.69,0.48,1.2
		c0,0.21-0.02,0.37-0.07,0.49l-0.27,0.95c-0.08,0.22-0.11,0.49-0.11,0.79c0,0.41,0.06,0.81,0.19,1.22c0.13,0.41,0.42,1.13,0.89,2.16
		c0.42,0.92,0.84,1.95,1.26,3.09c0.43,1.22,0.65,2.28,0.65,3.18c0,1.2-0.29,2.31-0.87,3.34c-0.58,1.02-1.37,1.82-2.38,2.4
		c-1.01,0.58-2.12,0.87-3.33,0.87c-1.08,0-2.1-0.24-3.05-0.73c-0.95-0.49-1.73-1.14-2.32-1.96c-0.59-0.82-0.89-1.66-0.89-2.53
		c0-0.63,0.18-1.14,0.55-1.54c0.37-0.4,0.84-0.6,1.41-0.6c0.77,0,1.28,0.38,1.55,1.15l0.34,0.95c0.44,1.22,1.2,1.83,2.28,1.83
		c0.86,0,1.56-0.29,2.11-0.87c0.55-0.58,0.82-1.28,0.82-2.11c0-0.7-0.41-2.09-1.22-4.14C50.04,93.3,49.92,92.89,49.86,92.56"/>
	<path class="st0" d="M57.72,97.13l7.7-16.49c0.45-0.95,0.83-1.57,1.13-1.86c0.3-0.29,0.71-0.44,1.22-0.44
		c0.5,0,0.91,0.15,1.23,0.45c0.32,0.3,0.48,0.69,0.48,1.17c0,0.39-0.2,1-0.61,1.83l-7.75,16.65c-0.3,0.65-0.45,1.11-0.45,1.4
		c0,0.48,0.23,0.72,0.7,0.72c0.37,0,0.82-0.16,1.34-0.46c0.52-0.31,1.28-0.85,2.28-1.63c0.71-0.57,1.24-0.96,1.6-1.16
		c0.36-0.2,0.67-0.31,0.92-0.31c0.41,0,0.75,0.14,1.04,0.43c0.29,0.29,0.43,0.64,0.43,1.06c0,0.73-0.7,1.67-2.1,2.79
		c-2.55,2.04-4.81,3.06-6.76,3.06c-1.05,0-1.9-0.32-2.56-0.95c-0.65-0.63-0.98-1.44-0.98-2.43c0-0.5,0.09-1.04,0.26-1.62
		C57.02,98.75,57.31,98.02,57.72,97.13"/>
	<path class="st0" d="M74.41,102.38c-0.99,0.77-1.81,1.28-2.47,1.55c-0.65,0.27-1.36,0.41-2.13,0.41c-1.32,0-2.37-0.42-3.14-1.25
		c-0.77-0.84-1.16-1.95-1.16-3.35c0-1.81,0.66-3.66,1.97-5.54c1.31-1.88,3.05-3.43,5.22-4.66c0.72-0.43,1.56-0.84,2.51-1.22
		c0.95-0.37,1.89-0.67,2.8-0.88c0.92-0.21,1.7-0.31,2.34-0.31c1.37,0,2.05,0.54,2.05,1.62c0,0.5-0.17,0.88-0.51,1.14
		c-0.34,0.26-0.94,0.47-1.79,0.62c-1.4,0.26-2.62,0.61-3.66,1.05c-1.04,0.45-2.05,1.03-3.03,1.75c-1.22,0.89-2.19,1.87-2.92,2.96
		c-0.73,1.09-1.09,2.06-1.09,2.92c0,0.47,0.11,0.84,0.33,1.11c0.22,0.28,0.51,0.42,0.89,0.42c0.54,0,1.1-0.21,1.68-0.64
		c0.58-0.43,1.28-1.13,2.11-2.11l0.2-0.49c0.41-0.95,0.63-1.45,0.67-1.51l0.7-1.49c0.43-0.93,0.84-1.58,1.2-1.94
		c0.37-0.36,0.82-0.54,1.36-0.54c0.48,0,0.88,0.14,1.19,0.42c0.32,0.28,0.47,0.63,0.47,1.05c0,0.39-0.2,1-0.59,1.82l-0.74,1.55
		c-0.1,0.23-0.21,0.46-0.33,0.69c-0.11,0.23-0.23,0.47-0.35,0.71c-0.37,0.75-0.56,1.28-0.56,1.58c0,0.54,0.26,0.81,0.79,0.81
		c0.33,0,0.75-0.15,1.25-0.46c0.5-0.31,1.37-0.93,2.6-1.86c0.72-0.54,1.2-0.88,1.43-1.01c0.23-0.14,0.49-0.2,0.75-0.2
		c0.39,0,0.74,0.14,1.05,0.42c0.31,0.28,0.46,0.6,0.46,0.98c0,0.92-0.94,2.02-2.81,3.31c-1.41,0.96-2.57,1.63-3.48,1.99
		c-0.91,0.37-1.82,0.55-2.74,0.55C75.48,104.34,74.63,103.69,74.41,102.38"/>
	<path class="st0" d="M75.27,130.69c-0.67,0.37-1.32,0.84-1.92,1.42c-0.61,0.58-1.1,1.19-1.49,1.81c-0.39,0.63-0.58,1.16-0.58,1.59
		c0,0.73,0.45,1.1,1.35,1.1c0.52,0,1.18-0.14,2-0.4c0.81-0.25,1.58-0.55,2.32-0.91l1.43-0.7c0.51-0.25,0.91-0.37,1.2-0.37
		c0.28,0,0.5,0.1,0.68,0.29c0.17,0.19,0.26,0.43,0.26,0.71c0,0.4-0.21,0.78-0.64,1.14c-0.43,0.36-1.18,0.8-2.25,1.3
		c-0.98,0.45-1.9,0.78-2.75,1.01c-0.85,0.22-1.66,0.33-2.41,0.33c-0.78,0-1.46-0.12-2.03-0.37c-0.57-0.25-1-0.61-1.3-1.1
		c-0.29-0.49-0.44-1.07-0.44-1.74c0-0.63,0.14-1.28,0.43-1.97c0.29-0.69,0.71-1.37,1.26-2.06c0.56-0.68,1.19-1.3,1.91-1.86
		c0.78-0.63,1.61-1.13,2.48-1.51c0.87-0.38,1.61-0.57,2.22-0.57c0.39,0,0.7,0.1,0.93,0.31c0.23,0.2,0.35,0.47,0.35,0.8
		c0,0.2-0.06,0.48-0.18,0.84c-0.17,0.45-0.26,0.68-0.28,0.71l-0.49,1.07l-0.31,0.67c-0.29,0.61-0.66,0.91-1.12,0.91
		c-0.32,0-0.58-0.1-0.78-0.28c-0.2-0.19-0.31-0.42-0.31-0.7C74.82,131.82,74.97,131.33,75.27,130.69"/>
	<path class="st0" d="M84.2,137.72c-0.65,0.51-1.2,0.85-1.63,1.03c-0.43,0.18-0.9,0.27-1.41,0.27c-0.88,0-1.57-0.28-2.08-0.83
		c-0.51-0.55-0.77-1.29-0.77-2.21c0-1.2,0.43-2.42,1.3-3.66c0.87-1.24,2.02-2.27,3.45-3.08c0.48-0.29,1.03-0.55,1.66-0.8
		c0.63-0.25,1.25-0.44,1.85-0.58c0.61-0.14,1.12-0.21,1.55-0.21c0.9,0,1.36,0.36,1.36,1.07c0,0.33-0.11,0.58-0.34,0.75
		c-0.22,0.17-0.62,0.31-1.18,0.41c-0.92,0.17-1.73,0.4-2.42,0.69c-0.69,0.29-1.36,0.68-2,1.15c-0.8,0.59-1.45,1.24-1.93,1.96
		c-0.48,0.72-0.72,1.36-0.72,1.93c0,0.31,0.07,0.55,0.21,0.74c0.14,0.18,0.34,0.28,0.59,0.28c0.36,0,0.73-0.14,1.11-0.43
		c0.38-0.28,0.85-0.75,1.39-1.39l0.13-0.33c0.27-0.63,0.42-0.96,0.45-1l0.46-0.98c0.29-0.62,0.55-1.04,0.8-1.28
		c0.24-0.24,0.54-0.36,0.9-0.36c0.32,0,0.58,0.09,0.79,0.28c0.21,0.18,0.31,0.41,0.31,0.69c0,0.26-0.13,0.66-0.39,1.21l-0.49,1.03
		c-0.07,0.15-0.14,0.3-0.22,0.45c-0.08,0.15-0.15,0.31-0.23,0.47c-0.25,0.49-0.37,0.84-0.37,1.04c0,0.36,0.17,0.53,0.52,0.53
		c0.22,0,0.49-0.1,0.83-0.31c0.33-0.2,0.91-0.61,1.72-1.23c0.48-0.36,0.79-0.58,0.95-0.67c0.15-0.09,0.32-0.14,0.5-0.14
		c0.26,0,0.49,0.09,0.69,0.28c0.2,0.18,0.31,0.4,0.31,0.65c0,0.61-0.62,1.34-1.86,2.19c-0.93,0.64-1.7,1.08-2.3,1.32
		c-0.6,0.24-1.2,0.37-1.81,0.37C84.91,139.01,84.35,138.58,84.2,137.72"/>
	<path class="st0" d="M94.33,132.16l-3.84,8.25c-0.31,0.65-0.5,1.08-0.57,1.29c-0.07,0.2-0.11,0.37-0.11,0.5
		c0,0.3,0.14,0.45,0.43,0.45c0.48,0,1.12-0.45,1.94-1.34c0.8-0.9,1.45-1.96,1.94-3.16c0.49-1.2,0.74-2.34,0.74-3.4
		c0-0.44-0.04-0.86-0.12-1.26C94.65,133.08,94.52,132.64,94.33,132.16 M93.61,128.04l2.17-4.69c0.29-0.62,0.54-1.02,0.75-1.22
		c0.21-0.2,0.48-0.3,0.82-0.3c0.33,0,0.6,0.1,0.81,0.3c0.21,0.2,0.32,0.46,0.32,0.78c0,0.24-0.13,0.64-0.4,1.21l-1.83,3.93h2.65
		c0.65,0,1.1,0.08,1.36,0.23c0.26,0.15,0.39,0.41,0.39,0.78c0,0.5-0.22,0.85-0.65,1.06c-0.23,0.11-0.67,0.16-1.34,0.16h-2.47
		c0.79,1.5,1.19,3.02,1.19,4.56c0,1.22-0.22,2.45-0.67,3.68c-0.45,1.23-1.03,2.33-1.76,3.3c-0.72,0.97-1.55,1.75-2.47,2.35
		c-0.92,0.59-1.82,0.89-2.72,0.89c-0.74,0-1.36-0.23-1.84-0.68c-0.48-0.45-0.72-1.03-0.72-1.72c0-0.35,0.06-0.69,0.16-1.04
		c0.11-0.34,0.34-0.91,0.7-1.69l4.51-9.65h-0.85c-0.63,0-1.06-0.06-1.28-0.19c-0.32-0.19-0.48-0.47-0.48-0.85
		c0-0.21,0.06-0.41,0.18-0.6c0.12-0.19,0.28-0.34,0.49-0.44c0.24-0.1,0.68-0.15,1.34-0.15H93.61z"/>
	<path class="st0" d="M108.96,124.15l-2.04,1.41l-0.37,0.25c-0.53,0.37-0.96,0.55-1.3,0.55c-0.28,0-0.52-0.11-0.72-0.34
		c-0.2-0.23-0.31-0.49-0.31-0.8c0-0.28,0.06-0.5,0.19-0.67c0.12-0.17,0.38-0.39,0.77-0.67l2.25-1.59c0.61-0.44,1.07-0.65,1.4-0.65
		c0.31,0,0.58,0.11,0.82,0.34c0.24,0.23,0.36,0.5,0.36,0.82c0,0.24-0.07,0.45-0.22,0.65C109.65,123.64,109.37,123.87,108.96,124.15
		 M101.24,133.41c-0.28-0.53-0.42-1.04-0.42-1.53c0-1.34,0.87-2.44,2.62-3.3c0.57-0.28,1.11-0.51,1.63-0.69s0.89-0.28,1.11-0.28
		c0.32,0,0.58,0.1,0.8,0.3c0.21,0.2,0.32,0.45,0.32,0.76c0,0.33-0.14,0.6-0.42,0.8c-0.18,0.11-0.66,0.34-1.46,0.69l-1.03,0.45
		c-0.44,0.2-0.75,0.39-0.93,0.58c-0.18,0.19-0.28,0.41-0.28,0.65c0,0.16,0.04,0.35,0.13,0.57c1.01-0.48,1.68-0.71,2.01-0.71
		c0.27,0,0.51,0.1,0.71,0.31c0.21,0.21,0.31,0.46,0.31,0.74c0,0.26-0.08,0.48-0.23,0.66c-0.15,0.18-0.41,0.35-0.77,0.5
		c-0.17,0.08-0.48,0.22-0.94,0.42l-1.34,0.59c-0.55,0.25-0.94,0.47-1.18,0.68c-0.24,0.2-0.37,0.43-0.37,0.68
		c0,0.37,0.25,0.55,0.76,0.55c0.63,0,1.46-0.19,2.49-0.57c1.04-0.38,2.05-0.86,3.04-1.46c0.69-0.43,1.17-0.64,1.43-0.64
		c0.29,0,0.53,0.1,0.71,0.29c0.19,0.19,0.28,0.43,0.28,0.71c0,0.38-0.19,0.73-0.58,1.07c-0.39,0.33-1.1,0.76-2.13,1.27
		c-1.11,0.54-2.11,0.92-2.98,1.16c-0.88,0.24-1.73,0.36-2.54,0.36c-0.97,0-1.73-0.22-2.28-0.68c-0.55-0.45-0.83-1.07-0.83-1.86
		C98.91,135.25,99.69,134.23,101.24,133.41"/>
	<path class="st0" d="M100.24,113.5c-0.54,1.18-1.43,2.34-2.46,3.17c-0.51,0.41-1.06,0.75-1.61,0.98c-0.55,0.23-1.1,0.36-1.65,0.39
		l-18.33,0.35l22.15-6.84c1.02-0.29,2.05-0.48,3.09-0.58L100.24,113.5z M151.83,132.56c-0.42-0.7-1.06-1.3-1.86-1.71l0,0
		l-37.59-21.44l-0.11-0.06c-1.7-0.82-3.49-1.39-5.32-1.72l0.66-1.41c0.42-0.9,0.03-1.98-0.88-2.39c-0.9-0.42-1.97-0.03-2.39,0.88
		l-1.2,2.58c0,0,0,0,0,0c-1.95,0-3.9,0.27-5.8,0.81l-0.04,0.01l-25.64,7.92v0c-0.67,0.19-1.27,0.62-1.65,1.16
		c-0.39,0.55-0.56,1.18-0.56,1.78c0,0.75,0.25,1.48,0.79,2.09c0.26,0.3,0.61,0.56,1,0.74c0.4,0.18,0.84,0.27,1.29,0.27l0.1,0
		l22-0.42l0.05,0c1.02-0.05,2-0.29,2.9-0.67c1.35-0.57,2.54-1.44,3.54-2.47c1-1.03,1.81-2.22,2.4-3.48l1.86-4
		c1.82,0.23,3.61,0.75,5.3,1.55l37.52,21.4l0.11,0.06c0.25,0.12,0.36,0.24,0.44,0.38c0.08,0.13,0.13,0.3,0.13,0.49
		c0,0.27-0.11,0.56-0.27,0.73c-0.08,0.09-0.17,0.16-0.28,0.2c-0.11,0.05-0.24,0.08-0.44,0.09l-31.13,0.09l-0.04,0l-0.02-0.03
		l-0.02-0.07v-0.01l0.03-0.04l6.12-5.86c0.72-0.69,0.74-1.83,0.05-2.55c-0.69-0.72-1.83-0.74-2.55-0.05l-6.11,5.86
		c-0.38,0.36-0.67,0.79-0.86,1.25c-0.19,0.46-0.28,0.94-0.28,1.41c0,0.95,0.36,1.85,1,2.55c0.32,0.35,0.72,0.64,1.18,0.85
		c0.46,0.2,0.98,0.32,1.51,0.32h0h0.01l31.13-0.09c0.68,0,1.33-0.14,1.91-0.4c0.87-0.39,1.55-1.04,2-1.78
		c0.45-0.74,0.68-1.59,0.68-2.45C152.47,134.11,152.27,133.29,151.83,132.56"/>
</g>
</svg>
