<?xml version="1.0" encoding="utf-8"?>
<!-- Generator: Adobe Illustrator 26.0.1, SVG Export Plug-In . SVG Version: 6.00 Build 0)  -->
<svg version="1.1" id="Layer_1" xmlns="http://www.w3.org/2000/svg" xmlns:xlink="http://www.w3.org/1999/xlink" x="0px" y="0px"
	 viewBox="0 0 215 215" style="enable-background:new 0 0 215 215;" xml:space="preserve">
<style type="text/css">
	.st0{fill:#80BC00;}
</style>
<g>
	<path class="st0" d="M106.62,69.5c-6.56-0.78-13.68,1.99-17.41,4.29c-20.8-11.57-48.75,4.38-49.03,14.84
		c-0.01,0.5-0.23,3.59,1.03,5.76c1.55-0.01,1.84,0.02,3.14,0.01c0.01-0.01,0-0.07,0.01-0.08C34.08,80.38,68.69,61.61,88.1,74.45
		c-17.4,10.89-23.87,31.77-43.58,40.77c-8.24-8.5-9.91-15.47-18.25-18.52c-4.99-1.94-11.63,0.58-14.38,5.12
		c-5.79,9.57,4.37,24.86,32.68,14.16c4.97,4.9,13.78,7.37,19.3,5.48c0.89-0.3,0.57-1.1-0.05-0.84c-5.88,2.45-13.55,0.17-18.79-4.85
		c10.99-5.24,18.93-11.89,27.27-21.71c1.06,0.52,3,1.5,5.37,1.42c10.18,4.55-12.82,16.05-5.72,23.06c5.95,5.41,16.4-6.9,19.92-9.9
		c1.18-1,1.11-1.95-0.03-1.22c-1.92,1.36-12.98,14.02-17.35,11.48c-7.11-4.82,16.57-16.62,5.19-23.03
		c13.9,0.23,23.48-13.17,10.05-21.75c4.61-3.4,12.13-5.62,17.52-3.91c0.74,0.23,1.39,0.58,1.69,0.7c0.47,0.19,0.64-0.3,0.2-0.59
		C108.89,70.13,107.88,69.68,106.62,69.5L106.62,69.5z M88.61,74.91c11.07,8.74-0.66,19.3-10.28,20.01
		c-2.26-1.26-5.18-1.32-5.6-1.34C77.98,88.22,81.59,81.02,88.61,74.91L88.61,74.91z M44.07,115.4c-20.91,8.83-30.23,0.15-30.46-7.75
		c0.1-6.27,6.3-9.52,12.09-8.88C33.62,99.43,37.71,109.69,44.07,115.4L44.07,115.4z M93.31,112.46
		c13.04,0.54,26.45-8.08,17.67-12.84c-6.93-3.1-14.22,3.8-18.8,7.54c-3.13,2.39-2.34,3.4-0.06,1.27c-7.34,9.32,0.11,13.3,7.94,11.05
		c5.97-1.62,11.93-6.55,15.89-10.93c0.17-0.24,0.2-0.46,0.11-0.63c-0.11-0.11-0.26-0.13-0.44-0.07c-0.63,0.33-1.31,0.98-1.96,1.62
		c-1.36,1.6-7,7.69-14.58,9.56C92.92,120.19,91.48,116.81,93.31,112.46L93.31,112.46z M93.55,111.95
		c1.24-4.84,13.18-14.92,17.38-11.97C114.99,102.65,101.66,113.01,93.55,111.95L93.55,111.95z M121.25,125.48
		c-4.11,6.53-33.26,47.76-40.53,34.73C77.24,148.37,112.31,130.33,121.25,125.48L121.25,125.48z M135.42,100.26
		c3.01,1.85-1.12,7.13-2.68,8.8c-2.69,3.12-7.1,7.57-10.81,9.23c-9.03,4.04-8.7-3.72-1.88-10.04
		C124.72,103.67,131.41,98.3,135.42,100.26L135.42,100.26z M115.71,107.59c-0.76,0.66-1.42,1.08-2.04,1.88
		c-1.01,1.44,0.64,1.04,1.47-0.09c0.22-0.22,0.42-0.41,0.59-0.57l0.11,0.11c-4.06,3.38-4.83,9.33-0.88,10.62
		c4.89,1.79,11.36-2.68,14.76-6.4l0.15,0.06c-2.54,3.41-5.15,6.92-7.62,10.39c-1.89,1.18-3.66,2.25-5.3,3.23
		c-1.66,1-3.32,1.97-4.99,2.97c-1.68,0.99-3.49,2.08-5.47,3.3c-1.98,1.2-4.21,2.6-6.74,4.22c-1.75,1.14-3.6,2.4-5.56,3.78
		c-1.96,1.36-3.9,2.82-5.8,4.33c-1.9,1.53-3.66,3.06-5.25,4.63c-1.61,1.55-2.92,3.08-3.93,4.59c-1.03,1.49-1.65,2.91-1.85,4.24
		c-0.17,1.24,0,2.2,0.48,2.88c2.66,3.65,9.33,1.09,12.37-0.54c16.31-8.62,27.4-24.72,37.89-39.38c6.78-4.04,12.35-7.86,18.79-12.38
		c0.4-0.4,0.84-0.61,1.15-1.12c0.5-0.89-0.94-0.39-1.38,0.08c-3.13,2.81-11.3,8.02-17.68,11.69c1.49-2.84,12.37-17.18,15.51-20.19
		c0.28-0.7-3.61-0.46-3.86-0.12c-3.29,3.62-3.99,4.93-4.53,5.55c1.49-2.35,1.28-4.57-0.88-5.59
		C129.5,97.39,120.84,103.09,115.71,107.59L115.71,107.59z M171.23,84.99c-1.07-0.02-1.97,0.13-2.75,0.42
		c-0.78,0.31-1.33,0.87-1.68,1.68c-0.28,0.74-0.39,1.48-0.35,2.18c0.02,0.7,0.18,1.24,0.46,1.59c0.39,0,0.9-0.13,1.55-0.39
		c0.65-0.24,1.29-0.59,1.96-1.03c0.66-0.46,1.24-0.98,1.7-1.57c0.65-0.85,0.85-1.53,0.65-2.07c-0.2-0.52-0.68-0.79-1.42-0.81H171.23
		L171.23,84.99z M155.19,103.36c-2.77,2.85-14.42,12.56-7.46,16.26c5.09,2.48,13.44-6.5,17.44-10.21c0.13-0.12,0.31-0.29,0.53-0.53
		c0.24-0.24,0.42-0.46,0.59-0.7c0.16-0.24,0.18-0.41,0.09-0.53c-0.15-0.17-0.37-0.15-0.63,0.04c-2.73,2.78-12.1,13.46-16.39,10.79
		c-3.86-3.32,10.66-14.51,13.06-18.33c0.03-0.61-3.95-0.43-4.61,0.07c-3.11,1.73-7.33,5.38-11.28,8.32
		c-0.18,0.16-1.69,1.31-1.24,1.7c0.35,0.21,1.37-0.6,1.68-0.86c0.56-0.5,1.21-0.92,1.86-1.45c0.65-0.53,1.37-1.12,2.2-1.79
		c0.57-0.46,1.16-0.9,1.81-1.38c0.63-0.46,1.53-1.14,2.07-1.49C155.28,102.98,155.33,103.28,155.19,103.36L155.19,103.36z
		 M170.53,104.74c-1.46,2.27-9.88,10.05-6.55,14.16c7.91,8.02,23.95-14.42,28.42-18.19c0.28-0.23,0.24-0.57,0.13-0.68
		c-0.19-0.13-0.44-0.18-0.81,0.13c-1.8,1.03-17.4,23.77-24.37,18.71c-6.04-3.94,32.13-40.52,37.32-48.04c0-0.18-0.15-0.35-0.42-0.52
		c-0.28-0.17-0.68-0.24-1.24-0.26c-0.72,0-1.38,0.17-2.03,0.48c-6.87,7.48-20.79,22.67-28.5,30.82c-2.37,2.59-5.69,5.15-8.14,7.73
		c-0.11,0.17-0.2,0.26-0.17,0.43c0.11,0.17,0.26,0.22,0.44,0.17c0.18-0.05,0.44-0.22,0.77-0.5c1.66-1.51,3.33-3.14,5.08-4.48
		L170.53,104.74L170.53,104.74z"/>
	<path class="st0" d="M109.88,72.5c-0.07,0.49-0.22,0.92-0.55,1.49c-0.52,0.89-1.16,1.57-1.99,1.95c-0.72,0.35-1.52,0.22-1.73,0.09
		c-0.06-0.05-0.02-0.19,0.15-0.16c0.2,0.09,0.79,0.17,1.52-0.23c1.27-0.7,2.7-2.76,1.98-4.2c-0.84-1.82-5.15-0.63-7.53,2.01
		c-1.71,1.67-3.91,6.08-1.6,7.89c2.26,1.71,6.24-0.43,7.56-2.38l0.21-0.28l0.3-0.5c0.07-0.12,0.11-0.27,0.17-0.39
		c0.02-0.05,0.06-0.07,0.11-0.09l0.15,0.07c-0.13,1.8-5.8,7.11-9.58,4.59c-2.96-2.81,0.08-7.24,2.24-9.24
		c1.41-1.3,3.23-2.62,5.13-3.07C108.36,69.58,110.21,70.2,109.88,72.5L109.88,72.5z M118.14,79.17v0.11l-0.06,0.13l-0.09,0.09
		l-0.36,0.46l-0.06,0.11l-0.26,0.26l-0.32,0.35l-0.32,0.35l-0.19,0.24l-0.43,0.41c-0.22,0.2-0.4,0.37-0.55,0.5
		c-0.15,0.13-0.26,0.23-0.33,0.28c-0.47,0.35-0.84,0.52-1.12,0.52c-0.32,0.03-0.56-0.05-0.75-0.24c-0.19-0.19-0.28-0.46-0.28-0.81
		v-0.44l0.15-0.52l-0.32,0.33l-0.4,0.39l-0.32,0.33c-0.52,0.47-0.97,0.76-1.35,0.89c-0.15,0.04-0.3,0.07-0.45,0.07
		c-0.35,0-0.64-0.11-0.85-0.34c-0.22-0.23-0.33-0.54-0.33-0.95c0-0.73,0.22-1.43,0.66-2.11c0.51-0.8,1.31-1.56,2.39-2.29
		c0.34-0.22,0.68-0.41,1.03-0.57c0.34-0.16,0.62-0.26,0.83-0.29c0.21-0.04,0.36-0.05,0.45-0.05c0.37,0,0.65,0.09,0.84,0.26
		c0.19,0.17,0.27,0.39,0.24,0.63l0.51-0.78h1.43l-2.91,4.36l-0.17,0.31c-0.07,0.14-0.13,0.28-0.18,0.4
		c-0.05,0.12-0.07,0.26-0.07,0.4c0,0.29,0.13,0.45,0.38,0.48c0.09,0,0.28-0.08,0.58-0.24c0.1-0.06,0.2-0.14,0.32-0.24
		c0.03-0.01,0.15-0.13,0.36-0.35l0.43-0.44l0.47-0.5l0.08-0.09l0.21-0.24l0.34-0.39l0.45-0.61l0.13-0.17l0.11-0.04L118.14,79.17
		L118.14,79.17z M115.17,77.5c0.01-0.06,0.02-0.15,0.02-0.26c0-0.41-0.21-0.61-0.63-0.61c-0.27,0-0.56,0.12-0.88,0.36
		c-0.32,0.24-0.8,0.72-1.45,1.43l-0.34,0.39l-0.17,0.2l-0.38,0.57c-0.14,0.19-0.29,0.4-0.43,0.64c-0.15,0.24-0.23,0.38-0.25,0.43
		c-0.11,0.23-0.19,0.43-0.23,0.6c-0.04,0.17-0.05,0.3-0.04,0.4c0.04,0.42,0.27,0.63,0.67,0.63c0.15,0,0.31-0.03,0.45-0.09
		c0.15-0.06,0.34-0.19,0.57-0.38c0.23-0.2,0.55-0.52,0.94-0.97l0.3-0.35c0.16-0.2,0.26-0.33,0.3-0.39c0.14-0.19,0.23-0.32,0.26-0.39
		l0.38-0.59l0.24-0.35c0.31-0.48,0.5-0.78,0.58-0.9C115.13,77.73,115.17,77.61,115.17,77.5L115.17,77.5z M130.76,70.89
		c-0.13,0.33-0.37,0.57-0.73,0.7c-0.05,0.01-0.11,0.01-0.17,0l0.02-0.09l0.06-0.22c0.03-0.07,0.01-0.2-0.04-0.38
		c-0.05-0.18-0.22-0.27-0.49-0.27c-0.17,0-0.38,0.05-0.62,0.14c-0.24,0.1-0.51,0.27-0.79,0.51c-0.28,0.25-0.63,0.62-1.03,1.11
		c-0.19,0.23-0.33,0.43-0.45,0.59c-0.34,0.47-0.75,1.07-1.22,1.81l-0.64,1.02l-0.38,0.68h1.99l-0.13,0.28h-2.05l-0.8,1.24
		l-0.69,1.07l-0.37,0.62l-0.38,0.64l-0.24,0.33l-1.18,1.78c-0.96,1.41-1.74,2.4-2.35,2.99c-0.61,0.58-1.35,1.04-2.22,1.38
		c-0.33,0.12-0.63,0.21-0.92,0.28c-0.28,0.07-0.53,0.11-0.73,0.11h-0.4h-0.34h-0.24c-0.12,0-0.23-0.02-0.36-0.05
		c-0.13-0.04-0.27-0.09-0.43-0.17c-0.3-0.18-0.45-0.41-0.45-0.69c0-0.19,0.09-0.38,0.26-0.56l0.26-0.16
		c0.14-0.03,0.23-0.04,0.28-0.04c0.2,0,0.33,0.09,0.41,0.27c0,0.13-0.01,0.21-0.02,0.24l-0.11,0.11c-0.08,0.09-0.13,0.19-0.13,0.31
		c0,0.17,0.11,0.32,0.32,0.42c0.19,0.12,0.45,0.18,0.79,0.18c0.43,0,0.87-0.11,1.31-0.33c0.45-0.22,0.92-0.59,1.42-1.1
		c0.21-0.23,0.41-0.47,0.58-0.72c0.17-0.25,0.47-0.71,0.89-1.38l0.32-0.5l0.89-1.45l1.7-2.54l0.43-0.66l1-1.59l-1.37,0l0.13-0.28
		h1.41l0.58-0.89c0.66-0.99,1.22-1.76,1.69-2.32c0.47-0.56,0.93-1.01,1.39-1.36c0.9-0.71,1.72-1.18,2.46-1.42
		c0.4-0.13,0.76-0.2,1.07-0.2c0.19,0,0.37,0.01,0.57,0.04c0.19,0.03,0.29,0.15,0.29,0.37C130.8,70.75,130.79,70.8,130.76,70.89
		L130.76,70.89z M132.48,79.07v0.17l-1.63,1.9l-0.37,0.35c-0.47,0.41-0.87,0.7-1.2,0.87c-0.33,0.17-0.72,0.3-1.16,0.39
		c-0.17,0.03-0.32,0.04-0.43,0.04c-0.08,0-0.27-0.02-0.56-0.05c-0.28-0.04-0.54-0.2-0.76-0.48c-0.22-0.28-0.34-0.64-0.34-1.06
		c0-0.19,0.01-0.33,0.02-0.44c0.01-0.1,0.06-0.25,0.15-0.46c0.2-0.49,0.5-1,0.91-1.52c0.41-0.52,0.9-0.99,1.47-1.42
		c0.58-0.43,1.1-0.73,1.57-0.91c0.58-0.22,1.05-0.33,1.39-0.33c0.09,0,0.27,0.03,0.53,0.08c0.27,0.05,0.41,0.24,0.41,0.58
		c0,0.2-0.07,0.42-0.21,0.65c-0.16,0.2-0.37,0.41-0.64,0.63c-0.35,0.28-0.81,0.55-1.35,0.83c-0.24,0.12-0.5,0.23-0.76,0.33
		c-0.26,0.1-0.5,0.18-0.72,0.24L128,79.72c-0.03,0.01-0.11,0.19-0.26,0.52c-0.19,0.41-0.29,0.68-0.32,0.81
		c-0.03,0.13-0.04,0.23-0.04,0.31c0,0.57,0.38,0.85,1.13,0.85c0.24,0,0.51-0.07,0.82-0.22c0.31-0.15,0.61-0.34,0.91-0.59l0.43-0.37
		l0.19-0.22l0.94-1.07l0.45-0.54l0.17-0.26l0.06,0.04V79.07L132.48,79.07z M131.61,77.19c0.03-0.06,0.05-0.13,0.06-0.22
		c0.02-0.07,0.02-0.14,0.02-0.2c0-0.2-0.06-0.32-0.18-0.36c-0.12-0.04-0.19-0.05-0.22-0.05c-0.14,0-0.27,0.03-0.37,0.09
		c-0.11,0.06-0.25,0.16-0.42,0.31c-0.27,0.23-0.49,0.43-0.66,0.59c-0.17,0.16-0.36,0.35-0.58,0.57c-0.3,0.31-0.6,0.68-0.9,1.13
		l-0.28,0.39l0.3-0.04c0.11-0.02,0.19-0.03,0.23-0.04c0.07-0.03,0.14-0.06,0.21-0.09c0.37-0.13,0.69-0.26,0.95-0.39
		c0.26-0.13,0.53-0.31,0.79-0.52c0.26-0.22,0.48-0.41,0.64-0.59C131.38,77.58,131.51,77.39,131.61,77.19L131.61,77.19z M133.6,71.78
		c0,0.36-0.15,0.75-0.45,1.14c-0.3,0.4-0.77,0.79-1.41,1.17c-0.82,0.49-1.35,0.74-1.56,0.74c-0.06,0-0.08-0.04-0.08-0.13
		c0.27-0.16,0.57-0.37,0.89-0.63c0.33-0.26,0.63-0.59,0.9-0.98c0.07-0.1,0.29-0.52,0.66-1.24c0.24-0.47,0.43-0.7,0.58-0.7
		c0.19,0,0.31,0.05,0.37,0.14C133.56,71.39,133.6,71.55,133.6,71.78L133.6,71.78z"/>
</g>
</svg>
