<?xml version="1.0" encoding="utf-8"?>
<!-- Generator: Adobe Illustrator 26.0.1, SVG Export Plug-In . SVG Version: 6.00 Build 0)  -->
<svg version="1.1" id="Layer_1" xmlns="http://www.w3.org/2000/svg" xmlns:xlink="http://www.w3.org/1999/xlink" x="0px" y="0px"
	 viewBox="0 0 215 215" style="enable-background:new 0 0 215 215;" xml:space="preserve">
<style type="text/css">
	.st0{fill:#80BC00;}
	.st1{fill:#FFFFFF;}
	.st2{fill:none;stroke:#FFFFFF;stroke-width:0.55;stroke-miterlimit:10;}
</style>
<g>
	<polygon class="st0" points="160.68,160.68 156.82,159.3 153.54,160.92 150.25,159.3 146.97,160.92 143.68,159.3 140.39,160.92 
		137.11,159.3 133.82,160.92 130.53,159.3 127.25,160.92 123.96,159.3 120.67,160.92 117.39,159.3 114.1,160.92 110.82,159.3 
		107.54,160.92 104.25,159.3 100.96,160.92 97.68,159.3 94.39,160.92 91.1,159.3 87.81,160.92 84.52,159.3 81.23,160.92 
		77.94,159.3 74.65,160.92 71.36,159.3 68.07,160.92 64.78,159.3 61.49,160.92 58.19,159.3 54.32,160.68 55.7,156.82 54.08,153.54 
		55.7,150.25 54.08,146.97 55.7,143.68 54.08,140.39 55.7,137.11 54.08,133.82 55.7,130.53 54.08,127.25 55.7,123.96 54.08,120.67 
		55.7,117.39 54.08,114.1 55.7,110.82 54.08,107.54 55.7,104.25 54.08,100.96 55.7,97.68 54.08,94.39 55.7,91.1 54.08,87.81 
		55.7,84.52 54.08,81.23 55.7,77.94 54.08,74.65 55.7,71.36 54.08,68.07 55.7,64.78 54.08,61.49 55.7,58.19 54.32,54.32 58.18,55.7 
		61.46,54.08 64.75,55.7 68.03,54.08 71.32,55.7 74.61,54.08 77.89,55.7 81.18,54.08 84.47,55.7 87.75,54.08 91.04,55.7 
		94.33,54.08 97.61,55.7 100.9,54.08 104.18,55.7 107.46,54.08 110.75,55.7 114.04,54.08 117.32,55.7 120.61,54.08 123.9,55.7 
		127.19,54.08 130.48,55.7 133.77,54.08 137.06,55.7 140.35,54.08 143.64,55.7 146.93,54.08 150.22,55.7 153.51,54.08 156.81,55.7 
		160.68,54.32 159.3,58.18 160.92,61.46 159.3,64.75 160.92,68.03 159.3,71.32 160.92,74.61 159.3,77.89 160.92,81.18 159.3,84.47 
		160.92,87.75 159.3,91.04 160.92,94.33 159.3,97.61 160.92,100.9 159.3,104.18 160.92,107.46 159.3,110.75 160.92,114.04 
		159.3,117.32 160.92,120.61 159.3,123.9 160.92,127.19 159.3,130.48 160.92,133.77 159.3,137.06 160.92,140.35 159.3,143.64 
		160.92,146.93 159.3,150.22 160.92,153.51 159.3,156.87 	"/>
	<path class="st1" d="M64.94,122.52h5.52c0.6,0,1.18,0.06,1.74,0.17c0.56,0.15,1.12,0.45,1.69,0.9c0.48,0.34,0.87,0.83,1.17,1.46
		c0.31,0.61,0.47,1.34,0.47,2.18c0,1.13-0.4,2.16-1.19,3.09c-0.82,0.98-2.01,1.48-3.58,1.51h-3.51v5.95h-2.31V122.52z M67.25,129.63
		h3.42c0.86-0.01,1.5-0.28,1.93-0.8c0.41-0.5,0.62-1.06,0.62-1.67c0-0.51-0.08-0.94-0.25-1.29c-0.17-0.31-0.42-0.56-0.73-0.74
		c-0.47-0.3-1.03-0.44-1.65-0.43h-3.34V129.63z"/>
	<path class="st1" d="M77.64,122.52h5.95c1.27,0,2.3,0.34,3.11,1c0.97,0.76,1.47,1.84,1.52,3.25c-0.03,2.07-1.01,3.48-2.95,4.22
		l3.53,6.77h-2.75l-3.15-6.52h-2.95v6.52h-2.31V122.52z M79.95,129.21h3.49c0.86-0.01,1.51-0.27,1.95-0.75
		c0.42-0.45,0.64-1.01,0.64-1.67c-0.01-0.8-0.27-1.37-0.76-1.73c-0.39-0.31-0.96-0.47-1.69-0.47h-3.62V129.21z"/>
	<path class="st1" d="M90.18,130.15c0-1.77,0.05-2.96,0.16-3.56c0.11-0.6,0.28-1.08,0.51-1.45c0.37-0.7,0.96-1.33,1.78-1.88
		c0.8-0.56,1.8-0.84,3-0.86c1.21,0.01,2.22,0.3,3.03,0.86c0.8,0.55,1.38,1.18,1.74,1.88c0.26,0.37,0.44,0.85,0.53,1.45
		c0.09,0.6,0.14,1.79,0.14,3.56c0,1.74-0.05,2.92-0.14,3.54c-0.1,0.61-0.28,1.1-0.53,1.47c-0.36,0.71-0.93,1.32-1.74,1.86
		c-0.81,0.56-1.82,0.85-3.03,0.88c-1.2-0.03-2.2-0.32-3-0.88c-0.82-0.54-1.41-1.16-1.78-1.86c-0.11-0.23-0.21-0.45-0.3-0.66
		c-0.08-0.22-0.15-0.49-0.21-0.81C90.23,133.07,90.18,131.89,90.18,130.15 M92.5,130.15c0,1.5,0.06,2.51,0.17,3.04
		c0.1,0.53,0.3,0.96,0.6,1.29c0.24,0.31,0.56,0.57,0.96,0.76c0.39,0.23,0.86,0.34,1.4,0.34c0.55,0,1.03-0.11,1.43-0.34
		c0.38-0.19,0.69-0.45,0.92-0.76c0.3-0.33,0.51-0.76,0.62-1.29c0.1-0.53,0.16-1.54,0.16-3.04c0-1.5-0.05-2.52-0.16-3.07
		c-0.11-0.51-0.32-0.94-0.62-1.27c-0.23-0.31-0.54-0.57-0.92-0.78c-0.4-0.2-0.88-0.31-1.43-0.32c-0.54,0.01-1.01,0.12-1.4,0.32
		c-0.4,0.21-0.72,0.47-0.96,0.78c-0.3,0.33-0.5,0.75-0.6,1.27C92.56,127.63,92.5,128.65,92.5,130.15"/>
	<path class="st1" d="M103.77,122.52h5.33c2.06,0.01,3.61,0.87,4.64,2.57c0.37,0.57,0.6,1.17,0.7,1.8c0.08,0.63,0.12,1.71,0.12,3.25
		c0,1.64-0.06,2.78-0.18,3.43c-0.06,0.33-0.14,0.62-0.25,0.88c-0.12,0.25-0.26,0.51-0.43,0.78c-0.45,0.72-1.07,1.31-1.86,1.78
		c-0.79,0.5-1.75,0.75-2.9,0.75h-5.18V122.52z M106.08,135.59h2.76c1.3,0,2.24-0.44,2.82-1.33c0.26-0.33,0.42-0.74,0.49-1.24
		c0.06-0.49,0.09-1.42,0.09-2.78c0-1.32-0.03-2.27-0.09-2.84c-0.08-0.57-0.28-1.04-0.6-1.39c-0.64-0.89-1.55-1.32-2.72-1.29h-2.76
		V135.59z"/>
	<rect x="117.26" y="122.52" class="st1" width="2.31" height="15.25"/>
	<path class="st1" d="M127.73,129.37h5.42v3.11c-0.03,1.53-0.55,2.81-1.57,3.84c-1.03,1.02-2.31,1.55-3.87,1.58
		c-1.2-0.03-2.2-0.32-3-0.88c-0.81-0.54-1.41-1.16-1.78-1.86c-0.11-0.23-0.21-0.45-0.3-0.66c-0.08-0.22-0.15-0.49-0.21-0.82
		c-0.1-0.61-0.16-1.79-0.16-3.54c0-1.77,0.05-2.96,0.16-3.56c0.11-0.6,0.28-1.08,0.51-1.45c0.37-0.7,0.96-1.33,1.78-1.88
		c0.8-0.56,1.8-0.84,3-0.86c1.47,0.01,2.67,0.45,3.6,1.31c0.93,0.86,1.51,1.94,1.76,3.21h-2.45c-0.19-0.61-0.53-1.14-1.03-1.57
		c-0.52-0.41-1.14-0.62-1.88-0.64c-0.54,0.01-1.01,0.12-1.4,0.32c-0.4,0.21-0.72,0.47-0.96,0.78c-0.3,0.33-0.5,0.75-0.6,1.27
		c-0.11,0.54-0.17,1.57-0.17,3.06c0,1.5,0.06,2.51,0.17,3.04c0.1,0.53,0.3,0.96,0.6,1.29c0.24,0.31,0.56,0.57,0.96,0.76
		c0.39,0.23,0.86,0.34,1.4,0.34c0.9,0,1.64-0.31,2.23-0.92c0.59-0.59,0.88-1.36,0.9-2.31v-0.79h-3.11V129.37z"/>
	<rect x="135.84" y="122.52" class="st1" width="2.31" height="15.25"/>
	<path class="st1" d="M140.84,130.15c0-1.77,0.05-2.96,0.16-3.56c0.11-0.6,0.28-1.08,0.51-1.45c0.37-0.7,0.96-1.33,1.78-1.88
		c0.8-0.56,1.8-0.84,3-0.86c1.21,0.01,2.22,0.3,3.03,0.86c0.8,0.55,1.38,1.18,1.74,1.88c0.26,0.37,0.44,0.85,0.53,1.45
		c0.09,0.6,0.14,1.79,0.14,3.56c0,1.74-0.05,2.92-0.14,3.54c-0.1,0.61-0.28,1.1-0.53,1.47c-0.36,0.71-0.93,1.32-1.74,1.86
		c-0.81,0.56-1.82,0.85-3.03,0.88c-1.2-0.03-2.2-0.32-3-0.88c-0.81-0.54-1.41-1.16-1.78-1.86c-0.11-0.23-0.21-0.45-0.3-0.66
		c-0.08-0.22-0.15-0.49-0.21-0.81C140.9,133.07,140.84,131.89,140.84,130.15 M143.17,130.15c0,1.5,0.06,2.51,0.17,3.04
		c0.1,0.53,0.3,0.96,0.6,1.29c0.24,0.31,0.56,0.57,0.96,0.76c0.39,0.23,0.86,0.34,1.4,0.34c0.55,0,1.03-0.11,1.43-0.34
		c0.38-0.19,0.69-0.45,0.92-0.76c0.3-0.33,0.51-0.76,0.62-1.29c0.1-0.53,0.16-1.54,0.16-3.04c0-1.5-0.05-2.52-0.16-3.07
		c-0.11-0.51-0.32-0.94-0.62-1.27c-0.23-0.31-0.54-0.57-0.92-0.78c-0.4-0.2-0.88-0.31-1.43-0.32c-0.54,0.01-1.01,0.12-1.4,0.32
		c-0.4,0.21-0.72,0.47-0.96,0.78c-0.3,0.33-0.5,0.75-0.6,1.27C143.22,127.63,143.17,128.65,143.17,130.15"/>
	<path class="st1" d="M79.67,148.27c-0.16,0.68-0.47,1.21-0.92,1.58c-0.47,0.36-1.02,0.55-1.66,0.55c-0.58-0.01-1.06-0.15-1.45-0.42
		c-0.39-0.26-0.68-0.56-0.86-0.9c-0.05-0.11-0.1-0.22-0.15-0.32c-0.04-0.1-0.07-0.24-0.1-0.39c-0.05-0.3-0.08-0.86-0.08-1.71
		c0-0.86,0.02-1.43,0.08-1.72c0.05-0.29,0.14-0.52,0.25-0.7c0.18-0.34,0.47-0.64,0.86-0.91c0.39-0.27,0.87-0.41,1.45-0.42
		c0.71,0.01,1.29,0.22,1.74,0.63c0.45,0.42,0.73,0.93,0.85,1.55h-1.18c-0.09-0.3-0.26-0.55-0.49-0.76c-0.25-0.2-0.55-0.3-0.91-0.31
		c-0.26,0.01-0.49,0.06-0.68,0.16c-0.19,0.1-0.35,0.23-0.46,0.38c-0.15,0.16-0.24,0.36-0.29,0.61c-0.05,0.26-0.08,0.76-0.08,1.48
		c0,0.72,0.03,1.21,0.08,1.47c0.05,0.26,0.14,0.46,0.29,0.62c0.12,0.15,0.27,0.27,0.46,0.37c0.19,0.11,0.42,0.17,0.68,0.17
		c0.63,0,1.09-0.34,1.4-1.01H79.67z"/>
	<path class="st1" d="M84.85,148.68h-2.79l-0.57,1.65h-1.18l2.68-7.36h0.93l2.68,7.36h-1.18L84.85,148.68z M84.53,147.69l-1.07-3.22
		h-0.02l-1.07,3.22H84.53z"/>
	<polygon class="st1" points="88,142.96 92.71,142.96 92.71,144.02 89.12,144.02 89.12,146.19 92.18,146.19 92.18,147.18 
		89.12,147.18 89.12,150.33 88,150.33 	"/>
	<path class="st1" d="M94.18,142.96h4.7v1.06H95.3v2.1h3.06v0.99H95.3v2.16h3.59v1.06h-4.7V142.96z M96.79,141.09h1.39l-1.47,1.51
		h-0.87L96.79,141.09z"/>
	<polygon class="st1" points="107.69,147.11 104.77,147.11 104.77,150.33 103.66,150.33 103.66,142.96 104.77,142.96 104.77,146.12 
		107.69,146.12 107.69,142.96 108.8,142.96 108.8,150.33 107.69,150.33 	"/>
	<polygon class="st1" points="110.98,142.96 115.68,142.96 115.68,144.02 112.1,144.02 112.1,146.12 115.16,146.12 115.16,147.11 
		112.1,147.11 112.1,149.27 115.68,149.27 115.68,150.33 110.98,150.33 	"/>
	<path class="st1" d="M117.35,142.96h2.87c0.61,0,1.11,0.16,1.5,0.49c0.47,0.37,0.71,0.89,0.73,1.57c-0.01,1-0.49,1.68-1.42,2.04
		l1.71,3.27h-1.33l-1.52-3.15h-1.42v3.15h-1.12V142.96z M118.47,146.19h1.69c0.42-0.01,0.73-0.13,0.94-0.36
		c0.21-0.22,0.31-0.49,0.31-0.81c-0.01-0.38-0.13-0.66-0.37-0.83c-0.19-0.15-0.46-0.23-0.82-0.23h-1.75V146.19z"/>
	<path class="st1" d="M124.28,142.96h2.85c0.72,0.01,1.27,0.19,1.63,0.55c0.37,0.36,0.55,0.84,0.55,1.43
		c0.01,0.3-0.07,0.59-0.22,0.87c-0.08,0.13-0.19,0.26-0.33,0.37c-0.15,0.12-0.32,0.24-0.54,0.34v0.02c0.4,0.1,0.7,0.31,0.91,0.63
		c0.19,0.33,0.29,0.68,0.29,1.07c-0.01,0.64-0.21,1.14-0.6,1.51c-0.39,0.39-0.87,0.58-1.45,0.58h-3.1V142.96z M125.4,143.96v2.11
		h1.61c0.41,0,0.71-0.11,0.9-0.32c0.2-0.2,0.29-0.44,0.29-0.74c0-0.3-0.1-0.55-0.29-0.75c-0.19-0.19-0.49-0.29-0.9-0.3H125.4z
		 M125.4,147.06v2.21h1.72c0.41-0.01,0.72-0.12,0.91-0.34c0.19-0.22,0.29-0.47,0.29-0.77c0-0.3-0.1-0.56-0.29-0.78
		c-0.19-0.21-0.49-0.32-0.91-0.33H125.4z"/>
	<path class="st1" d="M134.98,148.68h-2.79l-0.57,1.65h-1.18l2.68-7.36h0.93l2.68,7.36h-1.18L134.98,148.68z M134.67,147.69
		l-1.07-3.22h-0.02l-1.07,3.22H134.67z"/>
	<polygon class="st1" points="138.14,142.96 139.26,142.96 139.26,149.27 142.84,149.27 142.84,150.33 138.14,150.33 	"/>
	<path class="st1" d="M115.27,97.59c5.29-5.29,7.17-12.7,5.64-19.5c-0.17-0.73-0.71-1.32-1.45-1.49c-0.03-0.01-0.05-0.01-0.08-0.02
		c0,0,0,0,0,0c-0.05-0.01-0.09-0.02-0.14-0.03c-0.06-0.01-0.13-0.03-0.19-0.04c-0.17-0.03-0.34-0.07-0.5-0.1
		c-0.06-0.01-0.12-0.02-0.18-0.03c-0.22-0.04-0.44-0.07-0.66-0.1c0,0-0.01,0-0.01,0c-0.24-0.03-0.47-0.06-0.71-0.09
		c-0.03,0-0.05,0-0.08-0.01c-0.21-0.02-0.41-0.04-0.62-0.05c-0.04,0-0.08-0.01-0.13-0.01c-0.21-0.01-0.41-0.02-0.62-0.03
		c-0.02,0-0.05,0-0.08,0c-0.24-0.01-0.47-0.01-0.71-0.01c-5.38,0-10.76,2.05-14.86,6.15c-0.16,0.16-0.31,0.32-0.46,0.48
		c-0.04,0.05-0.08,0.09-0.13,0.14c-0.12,0.12-0.23,0.25-0.34,0.38c-0.04,0.04-0.07,0.08-0.11,0.13c-0.14,0.17-0.28,0.33-0.42,0.5
		c-0.02,0.02-0.04,0.05-0.06,0.08c-0.12,0.15-0.23,0.29-0.35,0.44c-0.04,0.05-0.07,0.1-0.11,0.15c-0.1,0.14-0.21,0.28-0.31,0.42
		c-0.02,0.04-0.05,0.07-0.08,0.11c-0.12,0.18-0.25,0.35-0.36,0.53c-0.02,0.04-0.05,0.08-0.07,0.12c-0.1,0.15-0.19,0.29-0.28,0.44
		c-0.03,0.05-0.06,0.1-0.09,0.15c-0.1,0.17-0.2,0.34-0.29,0.5c-0.01,0.02-0.02,0.03-0.03,0.05c-0.1,0.19-0.21,0.38-0.31,0.57
		c-0.02,0.04-0.04,0.09-0.07,0.13c-0.08,0.15-0.15,0.31-0.23,0.46c-0.02,0.05-0.04,0.09-0.07,0.14c-0.18,0.39-0.35,0.78-0.51,1.18
		c-0.02,0.04-0.03,0.09-0.05,0.13c-0.07,0.17-0.13,0.34-0.19,0.51c-0.01,0.03-0.02,0.07-0.04,0.1c-0.07,0.21-0.14,0.41-0.21,0.62
		c0,0.01-0.01,0.02-0.01,0.03c-0.06,0.19-0.12,0.39-0.17,0.58c-0.01,0.04-0.02,0.08-0.03,0.12c-0.05,0.2-0.11,0.39-0.15,0.59
		c0,0.01-0.01,0.02-0.01,0.03c-0.05,0.22-0.1,0.43-0.15,0.65c0,0.02-0.01,0.04-0.01,0.05c-0.04,0.2-0.08,0.39-0.12,0.59
		c-0.01,0.03-0.01,0.06-0.02,0.09c-0.08,0.43-0.14,0.87-0.19,1.3c0,0.02,0,0.04-0.01,0.06c-0.02,0.21-0.04,0.41-0.06,0.62
		c0,0.02,0,0.04,0,0.05c-0.04,0.44-0.06,0.89-0.06,1.33l0,0.11c-0.01,0.64,0.02,1.28,0.07,1.92c0.06,0.7,0.15,1.4,0.28,2.09l0,0.02
		c0.08,0.45,0.18,0.9,0.29,1.34c0,0,0,0,0,0.01c0.94,3.73,2.93,7.26,5.95,10.12h0c1.31-0.23,2.61-0.53,3.88-0.9
		c-0.73-0.54-1.42-1.13-2.07-1.78c-1.76-1.76-3.1-3.82-3.99-6.07c0.74,0.08,1.49,0.12,2.24,0.12
		C105.79,103.75,111.17,101.7,115.27,97.59 M117.72,87.04c-0.78,3.13-2.4,6-4.7,8.3c-3.37,3.37-7.84,5.22-12.6,5.22
		c-1.07,0-2.14-0.1-3.19-0.29c-0.45-2.48-0.37-5.04,0.24-7.5c0.68-2.73,2-5.27,3.86-7.4c0.01-0.01,0.02-0.02,0.03-0.04
		c0.11-0.12,0.22-0.25,0.33-0.37c0.03-0.03,0.06-0.06,0.09-0.09c0.13-0.13,0.25-0.27,0.39-0.4c3.37-3.37,7.84-5.22,12.6-5.22
		c0.05,0,0.11,0,0.16,0c0.11,0,0.22,0,0.34,0.01c0.09,0,0.17,0,0.26,0.01c0.1,0,0.21,0.01,0.31,0.02c0.15,0.01,0.29,0.02,0.44,0.03
		c0.06,0,0.11,0.01,0.17,0.02l0.02,0c0.9,0.09,1.62,0.82,1.71,1.72C118.35,83.06,118.2,85.09,117.72,87.04"/>
	<path class="st2" d="M115.27,97.59c5.29-5.29,7.17-12.7,5.64-19.5c-0.17-0.73-0.71-1.32-1.45-1.49c-0.03-0.01-0.05-0.01-0.08-0.02
		c0,0,0,0,0,0c-0.05-0.01-0.09-0.02-0.14-0.03c-0.06-0.01-0.13-0.03-0.19-0.04c-0.17-0.03-0.34-0.07-0.5-0.1
		c-0.06-0.01-0.12-0.02-0.18-0.03c-0.22-0.04-0.44-0.07-0.66-0.1c0,0-0.01,0-0.01,0c-0.24-0.03-0.47-0.06-0.71-0.09
		c-0.03,0-0.05,0-0.08-0.01c-0.21-0.02-0.41-0.04-0.62-0.05c-0.04,0-0.08-0.01-0.13-0.01c-0.21-0.01-0.41-0.02-0.62-0.03
		c-0.02,0-0.05,0-0.08,0c-0.24-0.01-0.47-0.01-0.71-0.01c-5.38,0-10.76,2.05-14.86,6.15c-0.16,0.16-0.31,0.32-0.46,0.48
		c-0.04,0.05-0.08,0.09-0.13,0.14c-0.12,0.12-0.23,0.25-0.34,0.38c-0.04,0.04-0.07,0.08-0.11,0.13c-0.14,0.17-0.28,0.33-0.42,0.5
		c-0.02,0.02-0.04,0.05-0.06,0.08c-0.12,0.15-0.23,0.29-0.35,0.44c-0.04,0.05-0.07,0.1-0.11,0.15c-0.1,0.14-0.21,0.28-0.31,0.42
		c-0.02,0.04-0.05,0.07-0.08,0.11c-0.12,0.18-0.25,0.35-0.36,0.53c-0.02,0.04-0.05,0.08-0.07,0.12c-0.1,0.15-0.19,0.29-0.28,0.44
		c-0.03,0.05-0.06,0.1-0.09,0.15c-0.1,0.17-0.2,0.34-0.29,0.5c-0.01,0.02-0.02,0.03-0.03,0.05c-0.1,0.19-0.21,0.38-0.31,0.57
		c-0.02,0.04-0.04,0.09-0.07,0.13c-0.08,0.15-0.15,0.31-0.23,0.46c-0.02,0.05-0.04,0.09-0.07,0.14c-0.18,0.39-0.35,0.78-0.51,1.18
		c-0.02,0.04-0.03,0.09-0.05,0.13c-0.07,0.17-0.13,0.34-0.19,0.51c-0.01,0.03-0.02,0.07-0.04,0.1c-0.07,0.21-0.14,0.41-0.21,0.62
		c0,0.01-0.01,0.02-0.01,0.03c-0.06,0.19-0.12,0.39-0.17,0.58c-0.01,0.04-0.02,0.08-0.03,0.12c-0.05,0.2-0.11,0.39-0.15,0.59
		c0,0.01-0.01,0.02-0.01,0.03c-0.05,0.22-0.1,0.43-0.15,0.65c0,0.02-0.01,0.04-0.01,0.05c-0.04,0.2-0.08,0.39-0.12,0.59
		c-0.01,0.03-0.01,0.06-0.02,0.09c-0.08,0.43-0.14,0.87-0.19,1.3c0,0.02,0,0.04-0.01,0.06c-0.02,0.21-0.04,0.41-0.06,0.62
		c0,0.02,0,0.04,0,0.05c-0.04,0.44-0.06,0.89-0.06,1.33l0,0.11c-0.01,0.64,0.02,1.28,0.07,1.92c0.06,0.7,0.15,1.4,0.28,2.09l0,0.02
		c0.08,0.45,0.18,0.9,0.29,1.34c0,0,0,0,0,0.01c0.94,3.73,2.93,7.26,5.95,10.12h0c1.31-0.23,2.61-0.53,3.88-0.9
		c-0.73-0.54-1.42-1.13-2.07-1.78c-1.76-1.76-3.1-3.82-3.99-6.07c0.74,0.08,1.49,0.12,2.24,0.12
		C105.79,103.75,111.17,101.7,115.27,97.59z M117.72,87.04c-0.78,3.13-2.4,6-4.7,8.3c-3.37,3.37-7.84,5.22-12.6,5.22
		c-1.07,0-2.14-0.1-3.19-0.29c-0.45-2.48-0.37-5.04,0.24-7.5c0.68-2.73,2-5.27,3.86-7.4c0.01-0.01,0.02-0.02,0.03-0.04
		c0.11-0.12,0.22-0.25,0.33-0.37c0.03-0.03,0.06-0.06,0.09-0.09c0.13-0.13,0.25-0.27,0.39-0.4c3.37-3.37,7.84-5.22,12.6-5.22
		c0.05,0,0.11,0,0.16,0c0.11,0,0.22,0,0.34,0.01c0.09,0,0.17,0,0.26,0.01c0.1,0,0.21,0.01,0.31,0.02c0.15,0.01,0.29,0.02,0.44,0.03
		c0.06,0,0.11,0.01,0.17,0.02l0.02,0c0.9,0.09,1.62,0.82,1.71,1.72C118.35,83.06,118.2,85.09,117.72,87.04z"/>
	<path class="st1" d="M108.52,68.55c12,0,21.72,9.72,21.72,21.72s-9.72,21.72-21.72,21.72c-12,0-21.72-9.72-21.72-21.72
		S96.52,68.55,108.52,68.55 M108.52,64.62c-14.14,0-25.64,11.5-25.64,25.64s11.5,25.64,25.64,25.64c14.14,0,25.64-11.5,25.64-25.64
		S122.66,64.62,108.52,64.62"/>
</g>
</svg>
