<?xml version="1.0" encoding="utf-8"?>
<!-- Generator: Adobe Illustrator 26.0.1, SVG Export Plug-In . SVG Version: 6.00 Build 0)  -->
<svg version="1.1" id="Layer_1" xmlns="http://www.w3.org/2000/svg" xmlns:xlink="http://www.w3.org/1999/xlink" x="0px" y="0px"
	 viewBox="0 0 215 215" style="enable-background:new 0 0 215 215;" xml:space="preserve">
<style type="text/css">
	.st0{fill:#FFFFFF;}
	.st1{fill:#231F20;}
	.st2{fill:#8C734B;}
	.st3{fill-rule:evenodd;clip-rule:evenodd;fill:#FFFFFF;}
	.st4{fill-rule:evenodd;clip-rule:evenodd;fill:#CE0E2D;}
	.st5{fill-rule:evenodd;clip-rule:evenodd;fill:#8C734B;}
	.st6{fill-rule:evenodd;clip-rule:evenodd;fill:#932949;}
	.st7{fill-rule:evenodd;clip-rule:evenodd;fill:#AC646C;}
</style>
<g>
	<path class="st0" d="M60.23,149.8c-0.92,0-1.75-0.14-2.47-0.42c-0.74-0.28-1.3-0.64-1.69-1.06l-0.1-0.11l0.03-0.14
		c0.16-0.81,0.3-1.55,0.42-2.22c0.11-0.67,0.21-1.41,0.29-2.18l0.03-0.25h0.97l0.03,0.25c0.06,0.48,0.18,0.95,0.35,1.38
		c0.17,0.43,0.39,0.81,0.64,1.13c0.25,0.32,0.56,0.56,0.91,0.74c0.35,0.18,0.76,0.27,1.2,0.27c0.89,0,1.53-0.3,1.94-0.92
		c0.43-0.65,0.65-1.44,0.65-2.35c0-0.82-0.17-1.5-0.49-2.01c-0.34-0.53-0.78-1.01-1.29-1.41c-0.53-0.42-1.12-0.84-1.74-1.24
		c-0.66-0.42-1.27-0.93-1.82-1.53c-0.56-0.6-1.03-1.35-1.41-2.23c-0.37-0.88-0.56-2.02-0.56-3.37c0-1.24,0.16-2.35,0.47-3.3
		c0.31-0.96,0.74-1.78,1.27-2.43c0.53-0.66,1.15-1.16,1.85-1.51c0.7-0.34,1.45-0.52,2.23-0.52c0.92,0,1.74,0.16,2.44,0.48
		c0.7,0.32,1.3,0.76,1.8,1.33l0.1,0.12l-0.04,0.15c-0.15,0.53-0.27,1.04-0.38,1.54l-0.45,2.12h-0.82l-0.05-0.21
		c-0.49-1.88-1.37-2.79-2.7-2.79c-0.67,0-1.2,0.27-1.62,0.83c-0.44,0.57-0.66,1.26-0.66,2.03c0,0.8,0.17,1.46,0.5,1.95
		c0.35,0.52,0.8,1,1.33,1.42c0.54,0.43,1.14,0.85,1.77,1.26c0.66,0.42,1.28,0.94,1.85,1.54c0.58,0.61,1.06,1.37,1.44,2.24
		c0.38,0.88,0.58,2.02,0.58,3.37c0,1.19-0.16,2.29-0.48,3.28c-0.32,1-0.79,1.86-1.38,2.57c-0.6,0.72-1.32,1.27-2.15,1.65
		C62.18,149.61,61.25,149.8,60.23,149.8L60.23,149.8z"/>
	<path class="st1" d="M61.92,124.65c0.88,0,1.66,0.15,2.32,0.45c0.66,0.3,1.23,0.72,1.71,1.26c-0.15,0.54-0.28,1.05-0.38,1.55
		c-0.11,0.5-0.24,1.13-0.41,1.9H64.8c-0.52-2-1.52-3-2.97-3c-0.75,0-1.37,0.32-1.84,0.94c-0.47,0.63-0.71,1.36-0.71,2.2
		c0,0.86,0.19,1.57,0.55,2.11c0.37,0.55,0.83,1.04,1.39,1.48c0.56,0.44,1.16,0.87,1.79,1.27c0.64,0.41,1.24,0.91,1.79,1.5
		c0.56,0.59,1.02,1.31,1.39,2.16c0.37,0.85,0.55,1.94,0.55,3.26c0,1.16-0.16,2.23-0.47,3.19c-0.31,0.96-0.75,1.79-1.33,2.47
		c-0.57,0.69-1.26,1.21-2.05,1.57c-0.8,0.36-1.68,0.54-2.67,0.54c-0.89,0-1.68-0.13-2.37-0.4c-0.7-0.27-1.23-0.6-1.59-0.99
		c0.16-0.81,0.3-1.56,0.42-2.23c0.11-0.67,0.21-1.41,0.29-2.2h0.47c0.06,0.51,0.19,0.99,0.37,1.45c0.18,0.45,0.41,0.85,0.69,1.2
		c0.28,0.35,0.62,0.62,1.01,0.82c0.39,0.2,0.83,0.3,1.33,0.3c0.98,0,1.71-0.35,2.18-1.05c0.47-0.7,0.7-1.53,0.7-2.51
		c0-0.88-0.18-1.6-0.54-2.16c-0.36-0.56-0.81-1.05-1.35-1.48c-0.54-0.43-1.13-0.85-1.77-1.26c-0.64-0.4-1.23-0.9-1.77-1.48
		c-0.54-0.58-0.99-1.3-1.35-2.14c-0.36-0.85-0.54-1.94-0.54-3.26c0-1.21,0.15-2.28,0.45-3.21c0.3-0.93,0.71-1.71,1.22-2.34
		c0.51-0.63,1.09-1.1,1.76-1.43C60.48,124.82,61.18,124.65,61.92,124.65 M61.92,124.09c-0.82,0-1.61,0.18-2.35,0.55
		c-0.74,0.36-1.39,0.89-1.95,1.58c-0.55,0.68-0.99,1.52-1.31,2.52c-0.32,0.98-0.48,2.12-0.48,3.38c0,1.4,0.2,2.57,0.58,3.48
		c0.38,0.9,0.87,1.68,1.46,2.31c0.57,0.61,1.2,1.14,1.88,1.58c0.62,0.39,1.2,0.81,1.72,1.22c0.49,0.39,0.9,0.84,1.23,1.35
		c0.3,0.46,0.45,1.09,0.45,1.86c0,0.86-0.2,1.6-0.61,2.2c-0.36,0.53-0.92,0.8-1.71,0.8c-0.41,0-0.76-0.08-1.07-0.24
		c-0.32-0.16-0.59-0.38-0.82-0.67c-0.24-0.3-0.45-0.66-0.6-1.06c-0.16-0.41-0.27-0.85-0.33-1.31l-0.06-0.49h-0.5h-0.47h-0.51
		l-0.05,0.51c-0.08,0.77-0.18,1.5-0.29,2.16c-0.11,0.66-0.25,1.4-0.42,2.21l-0.06,0.28l0.19,0.21c0.42,0.46,1.02,0.84,1.8,1.14
		c0.76,0.29,1.62,0.44,2.57,0.44c1.06,0,2.03-0.2,2.9-0.59c0.87-0.39,1.63-0.97,2.25-1.72c0.61-0.73,1.1-1.63,1.43-2.66
		c0.33-1.02,0.49-2.15,0.49-3.36c0-1.4-0.2-2.57-0.6-3.49c-0.39-0.91-0.9-1.69-1.5-2.32c-0.58-0.62-1.23-1.16-1.9-1.59
		c-0.62-0.4-1.21-0.81-1.75-1.24c-0.51-0.4-0.94-0.86-1.27-1.36c-0.3-0.45-0.46-1.05-0.46-1.8c0-0.72,0.2-1.32,0.6-1.86
		c0.37-0.49,0.81-0.72,1.39-0.72c0.43,0,1.75,0,2.43,2.58l0.11,0.42h0.43h0.37h0.46l0.09-0.45l0.41-1.9c0.1-0.48,0.23-1,0.37-1.52
		l0.08-0.29l-0.2-0.23c-0.52-0.59-1.16-1.06-1.9-1.39C63.74,124.26,62.88,124.09,61.92,124.09L61.92,124.09z"/>
	<g>
		<path class="st0" d="M69.35,149.05c0.06-1.44,0.1-2.91,0.13-4.41c0.03-1.5,0.04-3.21,0.04-5.14v-4.74c0-1.93-0.02-3.64-0.04-5.14
			c-0.03-1.5-0.07-3-0.13-4.51l-0.01-0.3l0.3,0.01c0.74,0.02,1.47,0.06,2.2,0.1c0.7,0.05,1.43,0.07,2.17,0.07
			c1.2,0,2.28-0.02,3.22-0.05c0.93-0.03,1.56-0.07,1.87-0.12l0.39-0.06l-0.07,0.38c-0.06,0.35-0.09,0.83-0.09,1.42
			c0,0.36,0.01,0.64,0.02,0.85c0.02,0.21,0.04,0.43,0.07,0.68l0.04,0.35l-0.35-0.04c-0.47-0.04-0.99-0.09-1.56-0.14
			c-0.57-0.05-1.12-0.09-1.65-0.14c-0.53-0.05-1.01-0.08-1.43-0.11c-0.25-0.01-0.46-0.02-0.63-0.03c-0.06,1.16-0.09,2.34-0.1,3.52
			c-0.01,1.16-0.01,2.33-0.01,3.51c0.95-0.02,1.81-0.05,2.59-0.1c0.86-0.05,1.75-0.1,2.69-0.17l0.34-0.02l-0.04,0.34
			c-0.05,0.39-0.08,0.69-0.1,0.89c-0.02,0.2-0.02,0.42-0.02,0.64c0,0.17,0.01,0.35,0.04,0.54c0.03,0.2,0.05,0.49,0.09,0.87
			l0.03,0.34l-0.34-0.04c-1.75-0.2-3.52-0.3-5.26-0.31c0,0.65,0,1.3-0.01,1.95c-0.01,0.74-0.01,1.49-0.01,2.23
			c0,1.41,0.02,2.78,0.06,4.08c0.84-0.01,1.68-0.04,2.51-0.1c0.92-0.07,1.86-0.19,2.8-0.34l0.38-0.07l-0.05,0.38
			c-0.03,0.25-0.06,0.48-0.07,0.68c-0.02,0.21-0.02,0.49-0.02,0.85c0,0.36,0.01,0.65,0.02,0.85c0.01,0.19,0.04,0.35,0.07,0.48
			l0.09,0.37l-0.38-0.02c-0.44-0.02-0.98-0.04-1.62-0.05c-0.65-0.01-1.53-0.02-2.66-0.02h-3.89c-0.36,0-0.63,0-0.82,0.02
			c-0.18,0.01-0.33,0.03-0.45,0.05l-0.35,0.06L69.35,149.05z"/>
		<path class="st1" d="M79.15,125.11c-0.07,0.37-0.1,0.86-0.1,1.47c0,0.37,0.01,0.66,0.02,0.87c0.02,0.21,0.04,0.44,0.07,0.7
			c-0.48-0.05-1-0.09-1.56-0.14c-0.57-0.05-1.11-0.09-1.65-0.14c-0.53-0.05-1.01-0.08-1.44-0.11c-0.43-0.02-0.73-0.04-0.91-0.04
			c-0.07,1.28-0.1,2.55-0.11,3.8c-0.01,1.25-0.01,2.52-0.01,3.8c1.07-0.02,2.03-0.06,2.89-0.11c0.86-0.05,1.76-0.1,2.69-0.17
			c-0.05,0.39-0.08,0.7-0.1,0.91c-0.02,0.21-0.02,0.43-0.02,0.66c0,0.18,0.01,0.38,0.04,0.57c0.02,0.2,0.05,0.48,0.09,0.85
			c-1.87-0.21-3.73-0.31-5.58-0.31c0,0.74,0,1.49-0.01,2.23c-0.01,0.74-0.01,1.49-0.01,2.23c0,1.51,0.02,2.96,0.07,4.36
			c0.93,0,1.87-0.03,2.8-0.1s1.88-0.19,2.83-0.35c-0.03,0.26-0.06,0.49-0.07,0.7c-0.02,0.21-0.02,0.5-0.02,0.87
			c0,0.37,0.01,0.66,0.02,0.87c0.02,0.21,0.04,0.38,0.07,0.53c-0.44-0.02-0.99-0.04-1.63-0.05C76.86,149,75.98,149,74.85,149
			c-1,0-1.81,0-2.43,0c-0.61,0-1.09,0-1.46,0c-0.37,0-0.65,0-0.84,0.02c-0.19,0.01-0.35,0.03-0.48,0.05
			c0.06-1.44,0.1-2.91,0.13-4.41c0.03-1.5,0.04-3.21,0.04-5.14v-4.74c0-1.93-0.02-3.64-0.04-5.14c-0.03-1.5-0.07-3-0.13-4.52
			c0.74,0.02,1.47,0.06,2.19,0.11c0.72,0.05,1.45,0.07,2.19,0.07c1.21,0,2.29-0.02,3.23-0.05
			C78.18,125.19,78.82,125.15,79.15,125.11 M79.84,124.43l-0.77,0.11c-0.3,0.04-0.92,0.08-1.84,0.12c-0.94,0.03-2.02,0.05-3.21,0.05
			c-0.73,0-1.45-0.02-2.15-0.07c-0.71-0.04-1.45-0.08-2.2-0.11l-0.6-0.02l0.02,0.6c0.06,1.59,0.1,3.06,0.13,4.5
			c0.03,1.54,0.04,3.27,0.04,5.13v4.74c0,1.87-0.02,3.59-0.04,5.13c-0.03,1.43-0.07,2.91-0.13,4.4l-0.03,0.7l0.69-0.13
			c0.1-0.02,0.24-0.03,0.42-0.04c0.17-0.01,0.43-0.02,0.8-0.02h1.46h2.43c1.13,0,2.01,0,2.66,0.02c0.67,0.01,1.2,0.03,1.61,0.05
			l0.75,0.04l-0.17-0.73c-0.03-0.11-0.05-0.26-0.06-0.43c-0.01-0.19-0.02-0.47-0.02-0.83c0-0.36,0.01-0.63,0.02-0.83
			c0.02-0.2,0.04-0.43,0.07-0.67l0.1-0.76l-0.75,0.13c-0.93,0.16-1.86,0.27-2.77,0.34c-0.73,0.05-1.47,0.09-2.21,0.1
			c-0.04-1.21-0.06-2.49-0.06-3.79c0-0.74,0-1.48,0.01-2.22c0.01-0.56,0.01-1.11,0.01-1.67c1.64,0.02,3.3,0.12,4.95,0.31l0.69,0.08
			l-0.06-0.69c-0.03-0.38-0.06-0.67-0.09-0.87c-0.02-0.16-0.03-0.33-0.03-0.5c0-0.22,0.01-0.43,0.02-0.62
			c0.02-0.2,0.05-0.49,0.1-0.88l0.08-0.68l-0.69,0.05c-0.92,0.07-1.82,0.13-2.68,0.17c-0.69,0.04-1.46,0.07-2.29,0.09
			c0-1.08,0-2.15,0.01-3.22c0.01-1.07,0.04-2.16,0.08-3.22c0.1,0,0.22,0.01,0.34,0.02c0.42,0.02,0.89,0.06,1.42,0.1
			c0.53,0.05,1.08,0.09,1.65,0.14c0.56,0.05,1.08,0.09,1.55,0.14l0.71,0.07l-0.09-0.7c-0.03-0.24-0.05-0.47-0.07-0.67
			c-0.01-0.2-0.02-0.47-0.02-0.83c0-0.57,0.03-1.03,0.09-1.37L79.84,124.43L79.84,124.43z"/>
	</g>
	<g>
		<path class="st0" d="M95.45,149.34c-0.37-0.04-0.73-0.07-1.07-0.07h-2.22c-0.35,0-0.72,0.02-1.08,0.07l-0.22,0.03l-4.16-10.38
			v0.52c0,1.98,0.02,3.66,0.05,5.14c0.03,1.44,0.08,2.92,0.15,4.41l0.02,0.35l-0.34-0.06c-0.26-0.04-0.55-0.07-0.86-0.07h-2.21
			c-0.31,0-0.6,0.02-0.86,0.07l-0.34,0.06l0.02-0.35c0.06-1.4,0.11-2.88,0.15-4.41c0.03-1.51,0.05-3.24,0.05-5.14v-4.74
			c0-1.89-0.02-3.62-0.05-5.14c-0.03-1.5-0.08-3-0.15-4.51l-0.02-0.35l0.35,0.06c0.27,0.05,0.57,0.08,0.89,0.12
			c0.32,0.03,0.68,0.05,1.08,0.05c0.44,0,0.94-0.03,1.48-0.08c0.59-0.06,1.3-0.09,2.13-0.09c0.62,0,1.17,0.02,1.63,0.07
			c0.46,0.05,0.86,0.12,1.19,0.22c0.35,0.1,0.65,0.24,0.91,0.4c0.25,0.16,0.49,0.35,0.72,0.58c0.52,0.54,0.93,1.21,1.23,2
			c0.3,0.78,0.45,1.73,0.45,2.8c0,1.74-0.34,3.19-1.02,4.3c-0.64,1.04-1.55,1.81-2.7,2.28c0.75,1.88,1.57,3.77,2.42,5.63
			c0.9,1.97,1.8,3.91,2.7,5.84l0.22,0.46L95.45,149.34z M86.73,136.35c0.08,0.01,0.15,0.02,0.22,0.02c0.99,0,1.73-0.37,2.25-1.12
			c0.54-0.77,0.81-1.98,0.81-3.59c0-1-0.07-1.8-0.21-2.37c-0.14-0.55-0.34-0.97-0.6-1.25c-0.26-0.27-0.6-0.45-1.03-0.53
			c-0.4-0.08-0.87-0.12-1.4-0.13c-0.04,3.01-0.07,6.02-0.07,8.97C86.7,136.35,86.72,136.35,86.73,136.35z"/>
		<path class="st1" d="M88.21,125.11c0.62,0,1.16,0.02,1.6,0.07c0.44,0.05,0.82,0.12,1.14,0.21c0.32,0.09,0.6,0.21,0.84,0.37
			c0.24,0.15,0.46,0.33,0.68,0.54c0.49,0.51,0.88,1.15,1.17,1.9c0.29,0.76,0.43,1.66,0.43,2.7c0,1.7-0.33,3.08-0.98,4.15
			c-0.66,1.07-1.6,1.82-2.83,2.27c0.79,1.98,1.63,3.95,2.53,5.91c0.9,1.97,1.8,3.91,2.7,5.84c-0.38-0.05-0.75-0.07-1.11-0.07
			c-0.36,0-0.73,0-1.11,0c-0.38,0-0.75,0-1.12,0c-0.37,0-0.74,0.02-1.12,0.07l-4.4-10.99h-0.22v1.43c0,1.93,0.02,3.64,0.05,5.14
			c0.03,1.5,0.08,2.97,0.15,4.41c-0.28-0.05-0.58-0.07-0.91-0.07c-0.33,0-0.7,0-1.11,0c-0.41,0-0.78,0-1.11,0
			c-0.33,0-0.63,0.02-0.91,0.07c0.06-1.44,0.11-2.91,0.15-4.41c0.03-1.5,0.05-3.21,0.05-5.14v-4.74c0-1.93-0.02-3.64-0.05-5.14
			c-0.03-1.5-0.08-3-0.15-4.52c0.28,0.05,0.58,0.09,0.91,0.12c0.33,0.03,0.7,0.05,1.11,0.05c0.44,0,0.95-0.03,1.51-0.09
			C86.68,125.14,87.38,125.11,88.21,125.11 M86.96,136.65c1.08,0,1.91-0.41,2.48-1.24c0.57-0.82,0.86-2.07,0.86-3.75
			c0-1.02-0.07-1.84-0.22-2.44c-0.15-0.6-0.37-1.06-0.68-1.38c-0.3-0.31-0.7-0.52-1.18-0.61c-0.48-0.09-1.06-0.14-1.73-0.14
			c-0.05,3.16-0.07,6.32-0.07,9.49c0.1,0.02,0.19,0.04,0.28,0.05C86.79,136.64,86.88,136.65,86.96,136.65 M81.99,124.43l0.03,0.7
			c0.06,1.47,0.11,2.98,0.15,4.5c0.03,1.51,0.05,3.24,0.05,5.13v4.74c0,1.89-0.02,3.62-0.05,5.13c-0.03,1.52-0.08,3-0.15,4.4
			l-0.03,0.7l0.69-0.11c0.25-0.04,0.52-0.06,0.82-0.06h1.11h1.11c0.29,0,0.57,0.02,0.82,0.06l0.69,0.11l-0.03-0.7
			c-0.07-1.48-0.12-2.96-0.15-4.4c-0.03-1.23-0.04-2.61-0.05-4.18l3.53,8.82l0.16,0.4l0.43-0.05c0.36-0.04,0.71-0.07,1.05-0.07h1.12
			h1.11c0.33,0,0.68,0.02,1.04,0.07l1.01,0.12L96,148.83c-0.9-1.93-1.8-3.87-2.7-5.84c-0.81-1.77-1.59-3.57-2.31-5.37
			c1.09-0.5,1.95-1.27,2.58-2.28c0.71-1.16,1.07-2.65,1.07-4.45c0-1.11-0.16-2.08-0.47-2.9c-0.31-0.83-0.75-1.53-1.29-2.09
			c-0.25-0.25-0.51-0.45-0.78-0.62c-0.28-0.18-0.61-0.32-0.98-0.43c-0.35-0.1-0.77-0.18-1.24-0.23c-0.47-0.05-1.03-0.07-1.66-0.07
			c-0.83,0-1.56,0.03-2.16,0.09c-0.54,0.06-1.02,0.08-1.45,0.08c-0.39,0-0.74-0.02-1.05-0.05c-0.32-0.03-0.62-0.07-0.87-0.12
			L81.99,124.43L81.99,124.43z M86.98,136.08c0-2.77,0.02-5.59,0.06-8.41c0.4,0.02,0.76,0.06,1.07,0.12
			c0.37,0.07,0.66,0.22,0.88,0.45c0.23,0.24,0.41,0.61,0.53,1.12c0.14,0.55,0.2,1.33,0.2,2.31c0,1.55-0.25,2.7-0.76,3.43
			C88.52,135.75,87.86,136.08,86.98,136.08L86.98,136.08z"/>
	</g>
	<g>
		<path class="st0" d="M110.46,149.34c-0.37-0.04-0.73-0.07-1.07-0.07h-2.22c-0.35,0-0.72,0.02-1.08,0.07l-0.22,0.03l-4.16-10.38
			v0.52c0,1.92,0.02,3.65,0.05,5.14c0.03,1.43,0.08,2.87,0.15,4.41l0.02,0.35l-0.34-0.06c-0.26-0.04-0.55-0.07-0.86-0.07h-2.21
			c-0.31,0-0.6,0.02-0.86,0.07l-0.34,0.06l0.02-0.35c0.06-1.39,0.11-2.87,0.15-4.41c0.03-1.49,0.05-3.22,0.05-5.14v-4.74
			c0-1.92-0.02-3.65-0.05-5.14c-0.03-1.5-0.08-3-0.15-4.51l-0.01-0.35l0.34,0.06c0.27,0.05,0.57,0.08,0.89,0.12
			c0.32,0.03,0.68,0.05,1.08,0.05c0.44,0,0.94-0.03,1.48-0.08c0.59-0.06,1.3-0.09,2.13-0.09c0.62,0,1.17,0.02,1.63,0.07
			c0.46,0.05,0.86,0.12,1.19,0.22c0.35,0.1,0.65,0.24,0.91,0.4c0.25,0.16,0.49,0.35,0.72,0.58c0.52,0.54,0.93,1.21,1.23,2
			c0.3,0.78,0.45,1.73,0.45,2.8c0,1.74-0.34,3.19-1.02,4.3c-0.64,1.04-1.55,1.81-2.7,2.28c0.75,1.88,1.57,3.77,2.42,5.63
			c0.9,1.97,1.8,3.91,2.7,5.84l0.22,0.46L110.46,149.34z M101.75,136.35c0.08,0.01,0.15,0.02,0.22,0.02c0.99,0,1.73-0.37,2.25-1.12
			c0.54-0.77,0.81-1.98,0.81-3.59c0-1-0.07-1.8-0.21-2.37c-0.14-0.55-0.34-0.97-0.6-1.25c-0.26-0.27-0.61-0.45-1.03-0.53
			c-0.39-0.08-0.87-0.12-1.4-0.13c-0.04,3.01-0.07,6.02-0.07,8.97C101.71,136.35,101.74,136.35,101.75,136.35z"/>
		<path class="st1" d="M103.23,125.11c0.62,0,1.16,0.02,1.6,0.07c0.44,0.05,0.82,0.12,1.14,0.21c0.32,0.09,0.6,0.21,0.84,0.37
			c0.24,0.15,0.46,0.33,0.68,0.54c0.49,0.51,0.88,1.15,1.17,1.9c0.29,0.76,0.43,1.66,0.43,2.7c0,1.7-0.33,3.08-0.98,4.15
			c-0.66,1.07-1.6,1.82-2.83,2.27c0.79,1.98,1.63,3.95,2.53,5.91c0.9,1.97,1.8,3.91,2.7,5.84c-0.38-0.05-0.75-0.07-1.11-0.07
			c-0.36,0-0.73,0-1.1,0c-0.38,0-0.75,0-1.12,0c-0.37,0-0.74,0.02-1.12,0.07l-4.4-10.99h-0.22v1.43c0,1.93,0.02,3.64,0.05,5.14
			c0.03,1.5,0.08,2.97,0.15,4.41c-0.28-0.05-0.58-0.07-0.91-0.07c-0.33,0-0.7,0-1.1,0c-0.41,0-0.78,0-1.11,0
			c-0.33,0-0.63,0.02-0.91,0.07c0.07-1.44,0.12-2.91,0.15-4.41c0.03-1.5,0.05-3.21,0.05-5.14v-4.74c0-1.93-0.02-3.64-0.05-5.14
			c-0.03-1.5-0.08-3-0.15-4.52c0.28,0.05,0.58,0.09,0.91,0.12c0.33,0.03,0.7,0.05,1.11,0.05c0.44,0,0.94-0.03,1.51-0.09
			C101.69,125.14,102.39,125.11,103.23,125.11 M101.97,136.65c1.08,0,1.91-0.41,2.48-1.24c0.57-0.82,0.86-2.07,0.86-3.75
			c0-1.02-0.07-1.84-0.22-2.44c-0.15-0.6-0.37-1.06-0.67-1.38c-0.3-0.31-0.7-0.52-1.18-0.61c-0.48-0.09-1.06-0.14-1.73-0.14
			c-0.05,3.16-0.07,6.32-0.07,9.49c0.1,0.02,0.19,0.04,0.28,0.05C101.81,136.64,101.89,136.65,101.97,136.65 M97,124.43l0.03,0.7
			c0.06,1.46,0.11,2.97,0.15,4.5c0.03,1.49,0.05,3.22,0.05,5.13v4.74c0,1.92-0.02,3.64-0.05,5.13c-0.03,1.53-0.08,3.01-0.15,4.4
			l-0.03,0.7l0.69-0.11c0.25-0.04,0.52-0.06,0.82-0.06h1.11h1.1c0.3,0,0.57,0.02,0.82,0.06l0.69,0.11l-0.03-0.7
			c-0.07-1.54-0.12-2.98-0.15-4.4c-0.03-1.24-0.04-2.64-0.05-4.19l3.53,8.82l0.16,0.4l0.43-0.05c0.36-0.04,0.71-0.07,1.05-0.07h1.12
			h1.1c0.33,0,0.68,0.02,1.04,0.07l1.01,0.12l-0.43-0.92c-0.9-1.93-1.8-3.87-2.7-5.84c-0.81-1.77-1.59-3.57-2.31-5.37
			c1.09-0.5,1.95-1.27,2.58-2.28c0.71-1.16,1.07-2.65,1.07-4.45c0-1.11-0.16-2.08-0.47-2.9c-0.31-0.83-0.75-1.53-1.29-2.09
			c-0.25-0.25-0.51-0.45-0.78-0.62c-0.28-0.18-0.61-0.32-0.98-0.43c-0.35-0.1-0.77-0.18-1.24-0.23c-0.47-0.05-1.02-0.07-1.66-0.07
			c-0.84,0-1.56,0.03-2.16,0.09c-0.54,0.06-1.02,0.08-1.45,0.08c-0.39,0-0.74-0.02-1.05-0.05c-0.33-0.03-0.61-0.07-0.87-0.12
			L97,124.43L97,124.43z M102,136.08c0-2.77,0.02-5.59,0.06-8.41c0.4,0.02,0.76,0.06,1.07,0.12c0.37,0.07,0.66,0.22,0.88,0.45
			c0.23,0.24,0.41,0.62,0.54,1.12c0.13,0.55,0.2,1.33,0.2,2.31c0,1.55-0.26,2.7-0.76,3.43C103.53,135.75,102.88,136.08,102,136.08
			L102,136.08z"/>
	</g>
	<g>
		<path class="st0" d="M110.7,148.98c0.2-0.6,0.46-1.44,0.79-2.51c0.33-1.07,0.69-2.28,1.08-3.63l1.26-4.34
			c0.45-1.55,0.9-3.11,1.35-4.69l1.33-4.67c0.43-1.53,0.83-2.96,1.19-4.29l0.07-0.27l0.28,0.08c0.16,0.05,0.31,0.09,0.46,0.12
			c0.12,0.03,0.26,0.04,0.4,0.04c0.14,0,0.28-0.02,0.4-0.04c0.14-0.03,0.29-0.07,0.45-0.12l0.28-0.08l1.76,6.63
			c0.6,2.26,1.2,4.47,1.81,6.64c0.6,2.17,1.2,4.23,1.77,6.19c0.56,1.93,1.09,3.59,1.57,4.94l0.15,0.43l-0.45-0.05
			c-0.38-0.04-0.75-0.07-1.08-0.07h-2.09c-0.34,0-0.67,0.02-1.01,0.07l-0.25,0.03l-0.06-0.25c-0.26-1.14-0.53-2.3-0.81-3.49
			c-0.26-1.12-0.54-2.23-0.83-3.35c-0.45-0.02-0.91-0.03-1.36-0.04c-0.52-0.01-1.04-0.02-1.56-0.02c-0.42,0-0.85,0.01-1.27,0.02
			c-0.35,0.01-0.71,0.03-1.07,0.04c-0.3,1.11-0.59,2.24-0.85,3.35c-0.28,1.17-0.53,2.34-0.76,3.48l-0.06,0.29l-0.28-0.07
			c-0.18-0.04-0.35-0.06-0.51-0.06h-1.17c-0.18,0-0.37,0.02-0.58,0.06l-0.47,0.1L110.7,148.98z M119.79,139.68
			c-0.33-1.3-0.66-2.57-0.98-3.82c-0.27-1.05-0.56-2.12-0.86-3.19c-0.32,1.07-0.63,2.15-0.92,3.2c-0.35,1.25-0.68,2.52-1.02,3.81
			H119.79z"/>
		<path class="st1" d="M119.84,124.93c0.53,1.98,1.09,4.09,1.68,6.35c0.6,2.26,1.2,4.47,1.81,6.64c0.6,2.17,1.19,4.24,1.77,6.19
			c0.57,1.95,1.1,3.6,1.57,4.95c-0.39-0.05-0.77-0.07-1.12-0.07c-0.35,0-0.7,0-1.04,0c-0.35,0-0.69,0-1.05,0
			c-0.35,0-0.7,0.02-1.04,0.07c-0.26-1.14-0.53-2.3-0.81-3.49c-0.28-1.19-0.57-2.37-0.88-3.56c-0.53-0.02-1.05-0.04-1.57-0.05
			c-0.53-0.01-1.05-0.02-1.57-0.02c-0.43,0-0.85,0.01-1.28,0.02c-0.43,0.01-0.85,0.03-1.28,0.05c-0.33,1.19-0.63,2.37-0.91,3.56
			c-0.28,1.19-0.53,2.35-0.76,3.49c-0.2-0.05-0.39-0.07-0.58-0.07c-0.19,0-0.38,0-0.58,0c-0.2,0-0.39,0-0.59,0
			c-0.2,0-0.41,0.02-0.64,0.07c0.19-0.6,0.46-1.44,0.79-2.51c0.33-1.07,0.69-2.28,1.08-3.63c0.39-1.35,0.81-2.8,1.26-4.34
			c0.45-1.55,0.9-3.11,1.35-4.69c0.45-1.58,0.89-3.14,1.33-4.67c0.43-1.53,0.83-2.96,1.19-4.29c0.16,0.05,0.32,0.09,0.47,0.12
			c0.15,0.03,0.3,0.05,0.47,0.05c0.16,0,0.32-0.02,0.47-0.05C119.52,125.02,119.67,124.98,119.84,124.93 M115.66,139.96h4.5
			c-0.36-1.42-0.72-2.81-1.07-4.17c-0.35-1.36-0.72-2.74-1.12-4.13c-0.43,1.39-0.83,2.77-1.2,4.13
			C116.39,137.15,116.02,138.54,115.66,139.96 M120.24,124.23l-0.55,0.16c-0.16,0.04-0.3,0.08-0.44,0.12
			c-0.1,0.02-0.21,0.03-0.33,0.03c-0.12,0-0.24-0.01-0.34-0.04c-0.13-0.03-0.28-0.07-0.44-0.12l-0.55-0.16l-0.15,0.55
			c-0.36,1.32-0.76,2.75-1.19,4.28c-0.44,1.53-0.88,3.09-1.33,4.67c-0.45,1.58-0.9,3.14-1.35,4.69l-1.26,4.34
			c-0.41,1.39-0.76,2.58-1.08,3.62c-0.33,1.06-0.59,1.9-0.78,2.5l-0.3,0.92l0.94-0.19c0.19-0.04,0.37-0.06,0.53-0.06h0.59h0.58
			c0.14,0,0.3,0.02,0.45,0.06l0.57,0.13l0.11-0.57c0.23-1.13,0.48-2.3,0.76-3.47c0.24-1.05,0.51-2.1,0.79-3.14
			c0.29-0.01,0.57-0.02,0.86-0.03c0.42-0.01,0.84-0.02,1.26-0.02c0.52,0,1.04,0.01,1.56,0.02c0.38,0.01,0.76,0.02,1.14,0.04
			c0.27,1.05,0.53,2.11,0.77,3.14c0.28,1.19,0.55,2.35,0.81,3.49l0.12,0.5l0.51-0.07c0.32-0.04,0.64-0.07,0.97-0.07h1.05h1.04
			c0.33,0,0.68,0.02,1.05,0.07l0.9,0.1l-0.3-0.85c-0.47-1.35-1-3-1.56-4.92c-0.59-2.01-1.18-4.09-1.77-6.18
			c-0.61-2.2-1.22-4.44-1.81-6.64l-1.06-4l-0.62-2.35L120.24,124.23L120.24,124.23z M116.39,139.4c0.3-1.17,0.61-2.33,0.92-3.45
			c0.21-0.74,0.42-1.49,0.64-2.24c0.2,0.74,0.4,1.49,0.59,2.24c0.29,1.13,0.59,2.29,0.89,3.46H116.39L116.39,139.4z"/>
	</g>
	<g>
		<path class="st0" d="M129.53,149.34c-0.16-0.04-0.33-0.06-0.49-0.06h-0.54c-0.34,0-0.69,0.02-1.04,0.07l-0.38,0.05l0.06-0.38
			c0.02-0.1,0.05-0.49,0.11-1.95c0.05-1.14,0.1-2.53,0.15-4.16c0.05-1.64,0.1-3.42,0.14-5.33c0.04-2.01,0.06-3.82,0.06-5.52
			c0-1.58-0.01-2.93-0.05-4.04c-0.03-1.09-0.05-2.06-0.07-2.9l-0.01-0.38l0.36,0.1c0.41,0.11,0.74,0.16,0.98,0.16
			c0.24,0,0.57-0.06,0.98-0.16l0.21-0.06l0.11,0.18c1.69,2.81,3.37,5.58,5.03,8.3c1.49,2.45,3.01,4.93,4.57,7.45v-5.43
			c0-1.14-0.01-2.26-0.01-3.36l-0.02-3.05c-0.01-0.93-0.02-1.73-0.05-2.4c-0.03-0.82-0.06-1.18-0.08-1.33l-0.05-0.42l0.41,0.11
			c0.41,0.11,0.73,0.16,0.98,0.16c0.24,0,0.57-0.06,0.98-0.16l0.37-0.1l-0.01,0.38c-0.08,2.12-0.14,4.03-0.19,5.74
			c-0.05,1.71-0.08,3.32-0.12,4.83c-0.03,1.51-0.05,3-0.06,4.48c-0.01,1.47-0.01,3.05-0.01,4.72v4.51l-0.32-0.05
			c-0.3-0.04-0.6-0.07-0.92-0.07c-0.32,0-0.61,0.02-0.86,0.07l-0.19,0.03l-0.1-0.17c-3.04-5.29-6.29-10.68-9.69-16.05
			c-0.01,0.36-0.01,0.72-0.01,1.09c-0.01,0.67-0.01,1.36-0.01,2.05v4.05c0,1.39,0,2.58,0.01,3.56c0.01,0.98,0.02,1.8,0.03,2.47
			c0.01,0.67,0.03,1.22,0.05,1.65c0.01,0.43,0.03,0.77,0.05,1.02l0.02,0.38L129.53,149.34z"/>
		<path class="st1" d="M141.94,125.11c-0.08,2.12-0.14,4.03-0.19,5.74c-0.05,1.71-0.09,3.32-0.12,4.83
			c-0.03,1.51-0.05,3.01-0.06,4.48c-0.01,1.48-0.01,3.05-0.01,4.73v4.19c-0.31-0.05-0.63-0.07-0.96-0.07
			c-0.34,0-0.64,0.02-0.91,0.07c-3.2-5.58-6.6-11.2-10.2-16.85c-0.02,0.67-0.03,1.35-0.04,2.02c-0.01,0.68-0.01,1.36-0.01,2.06v4.05
			c0,1.4,0,2.58,0.01,3.56c0.01,0.98,0.02,1.8,0.04,2.48c0.01,0.68,0.03,1.23,0.05,1.66c0.01,0.43,0.03,0.77,0.05,1.03
			c-0.19-0.05-0.37-0.07-0.56-0.07c-0.19,0-0.37,0-0.54,0c-0.36,0-0.72,0.02-1.07,0.07c0.03-0.19,0.07-0.85,0.12-1.99
			c0.05-1.14,0.1-2.53,0.15-4.17c0.05-1.64,0.1-3.42,0.14-5.34c0.04-1.92,0.06-3.76,0.06-5.53c0-1.6-0.02-2.95-0.05-4.04
			c-0.03-1.09-0.05-2.06-0.07-2.89c0.44,0.12,0.79,0.17,1.05,0.17c0.27,0,0.61-0.06,1.05-0.17c1.69,2.81,3.37,5.58,5.03,8.3
			c1.66,2.72,3.35,5.49,5.1,8.3v-3.03v-3.38c0-1.14-0.01-2.26-0.01-3.37c-0.01-1.1-0.01-2.12-0.02-3.05
			c-0.01-0.93-0.03-1.73-0.05-2.41c-0.02-0.67-0.05-1.13-0.08-1.36c0.44,0.12,0.79,0.17,1.05,0.17
			C141.15,125.28,141.5,125.22,141.94,125.11 M139.17,124.34l0.11,0.84c0.02,0.15,0.05,0.5,0.08,1.31c0.03,0.68,0.04,1.49,0.05,2.39
			c0.01,0.93,0.01,1.95,0.02,3.05c0.01,1.1,0.01,2.23,0.01,3.36v3.38v1.05c-1.36-2.2-2.71-4.41-4.05-6.61
			c-1.7-2.79-3.39-5.58-5.03-8.3l-0.22-0.36l-0.41,0.11c-0.48,0.13-0.76,0.16-0.9,0.16c-0.15,0-0.43-0.03-0.9-0.16l-0.73-0.19
			l0.01,0.75c0.02,0.84,0.04,1.81,0.07,2.9c0.03,1.1,0.05,2.46,0.05,4.03c0,1.7-0.02,3.51-0.06,5.52c-0.04,1.91-0.09,3.7-0.14,5.33
			c-0.05,1.64-0.1,3.03-0.15,4.16c-0.06,1.51-0.1,1.84-0.11,1.92l-0.12,0.75l0.75-0.1c0.33-0.04,0.67-0.07,1-0.07h0.54
			c0.14,0,0.28,0.02,0.42,0.05l0.75,0.19l-0.05-0.77c-0.02-0.25-0.03-0.59-0.04-1.01c-0.01-0.43-0.03-0.98-0.05-1.65
			c-0.02-0.67-0.03-1.5-0.04-2.47c-0.01-0.98-0.01-2.16-0.01-3.55v-4.05c0-0.69,0-1.38,0.01-2.05c0-0.05,0-0.09,0-0.14
			c3.21,5.1,6.29,10.21,9.17,15.23l0.2,0.34l0.39-0.07c0.23-0.04,0.51-0.06,0.81-0.06c0.3,0,0.59,0.02,0.88,0.06l0.65,0.1v-0.65
			v-4.19c0-1.67,0-3.25,0.01-4.72c0.01-1.5,0.03-3,0.06-4.47c0.03-1.51,0.07-3.12,0.12-4.83c0.05-1.75,0.11-3.68,0.19-5.73
			l0.03-0.76l-0.74,0.2c-0.48,0.13-0.75,0.15-0.9,0.15c-0.15,0-0.43-0.03-0.9-0.15L139.17,124.34L139.17,124.34z"/>
	</g>
	<g>
		<path class="st0" d="M151.75,149.8c-1.23,0-2.4-0.24-3.49-0.7c-1.09-0.47-2.06-1.24-2.87-2.28c-0.8-1.03-1.44-2.37-1.9-3.97
			c-0.46-1.59-0.69-3.51-0.69-5.71c0-1.74,0.21-3.4,0.64-4.92c0.42-1.54,1.03-2.9,1.8-4.06c0.78-1.17,1.74-2.1,2.84-2.77
			c1.12-0.68,2.38-1.02,3.74-1.02c1.25,0,2.43,0.27,3.52,0.8c1.08,0.53,2.03,1.33,2.83,2.38c0.79,1.05,1.42,2.39,1.88,3.98
			c0.45,1.59,0.68,3.46,0.68,5.57c0,1.76-0.22,3.43-0.66,4.96c-0.44,1.54-1.06,2.89-1.84,4.04c-0.79,1.16-1.74,2.07-2.83,2.72
			C154.3,149.47,153.07,149.8,151.75,149.8L151.75,149.8z M151.75,126.92c-0.71,0-1.33,0.25-1.89,0.78
			c-0.58,0.54-1.09,1.29-1.49,2.22c-0.42,0.95-0.73,2.09-0.95,3.37c-0.22,1.29-0.32,2.69-0.32,4.16c0,1.84,0.13,3.4,0.38,4.65
			c0.25,1.25,0.59,2.26,1.02,3.01c0.41,0.73,0.89,1.27,1.43,1.59c0.53,0.32,1.09,0.48,1.67,0.48c0.62,0,1.23-0.21,1.79-0.61
			c0.58-0.42,1.1-1.06,1.54-1.92c0.45-0.88,0.82-2.02,1.09-3.38c0.27-1.37,0.42-3.02,0.42-4.9c0-1.48-0.12-2.83-0.36-4.01
			c-0.24-1.17-0.57-2.17-0.99-2.98c-0.41-0.79-0.91-1.41-1.49-1.84C153.02,127.13,152.42,126.92,151.75,126.92L151.75,126.92z"/>
		<path class="st1" d="M151.82,124.65c1.22,0,2.35,0.26,3.39,0.77c1.05,0.51,1.96,1.28,2.73,2.3c0.77,1.02,1.38,2.32,1.83,3.89
			c0.45,1.57,0.67,3.4,0.67,5.49c0,1.74-0.22,3.37-0.65,4.88c-0.43,1.51-1.03,2.83-1.8,3.96c-0.77,1.13-1.68,2-2.74,2.63
			c-1.06,0.63-2.23,0.94-3.51,0.94c-1.2,0-2.32-0.23-3.38-0.68c-1.05-0.45-1.97-1.18-2.75-2.2c-0.78-1.01-1.4-2.3-1.85-3.87
			c-0.46-1.57-0.68-3.45-0.68-5.63c0-1.72,0.21-3.34,0.63-4.85c0.42-1.51,1.01-2.84,1.76-3.98c0.76-1.14,1.68-2.03,2.75-2.68
			C149.3,124.98,150.5,124.65,151.82,124.65 M151.59,147.46c0.68,0,1.34-0.22,1.96-0.66c0.62-0.44,1.16-1.12,1.63-2.02
			c0.46-0.91,0.84-2.06,1.12-3.45c0.28-1.4,0.42-3.05,0.42-4.95c0-1.51-0.12-2.87-0.36-4.06c-0.24-1.19-0.58-2.21-1.01-3.05
			c-0.43-0.84-0.96-1.48-1.57-1.94c-0.61-0.45-1.29-0.68-2.01-0.68c-0.77,0-1.47,0.28-2.08,0.85c-0.62,0.57-1.13,1.34-1.56,2.32
			c-0.42,0.98-0.75,2.12-0.97,3.44c-0.22,1.31-0.33,2.72-0.33,4.2c0,1.86,0.13,3.43,0.39,4.71c0.26,1.28,0.61,2.31,1.05,3.09
			c0.44,0.78,0.95,1.34,1.52,1.69C150.34,147.29,150.95,147.46,151.59,147.46 M151.82,124.09c-1.42,0-2.73,0.36-3.89,1.06
			c-1.14,0.69-2.13,1.65-2.93,2.85c-0.79,1.18-1.41,2.58-1.84,4.14c-0.43,1.55-0.65,3.23-0.65,5c0,2.23,0.24,4.17,0.71,5.79
			c0.47,1.63,1.13,3,1.95,4.06c0.84,1.08,1.84,1.88,2.98,2.37c1.12,0.48,2.33,0.73,3.6,0.73c1.37,0,2.65-0.34,3.79-1.02
			c1.13-0.67,2.11-1.61,2.92-2.8c0.8-1.17,1.43-2.56,1.88-4.12c0.44-1.55,0.67-3.25,0.67-5.04c0-2.14-0.23-4.04-0.69-5.65
			c-0.47-1.63-1.12-3-1.93-4.07c-0.83-1.09-1.81-1.92-2.93-2.47C154.33,124.37,153.11,124.09,151.82,124.09L151.82,124.09z
			 M151.59,146.9c-0.53,0-1.04-0.15-1.53-0.44c-0.49-0.3-0.94-0.8-1.32-1.48c-0.41-0.72-0.74-1.7-0.98-2.92
			c-0.25-1.23-0.38-2.78-0.38-4.6c0-1.45,0.11-2.83,0.32-4.11c0.21-1.26,0.52-2.37,0.93-3.3c0.39-0.9,0.87-1.62,1.43-2.13
			c0.51-0.47,1.06-0.7,1.7-0.7c0.61,0,1.16,0.19,1.68,0.57c0.54,0.4,1.01,0.99,1.4,1.74c0.4,0.78,0.73,1.76,0.96,2.9
			c0.23,1.16,0.35,2.49,0.35,3.95c0,1.86-0.14,3.49-0.41,4.84c-0.27,1.34-0.63,2.45-1.07,3.31c-0.42,0.82-0.91,1.43-1.45,1.82
			C152.69,146.71,152.16,146.9,151.59,146.9L151.59,146.9z"/>
	</g>
	<polygon class="st2" points="170.88,151.33 44.15,151.3 42.67,153.93 172.35,153.97 	"/>
	<polygon class="st1" points="172.83,154.82 42.14,154.87 40.67,157.51 174.31,157.45 	"/>
	<polygon class="st2" points="174.83,158.39 40.17,158.4 38.7,161.04 176.3,161.02 	"/>
	<polygon class="st2" points="71.93,121.54 108.17,56.02 143.32,121.54 146.31,121.54 108.2,50.51 68.92,121.54 	"/>
	<polygon class="st1" points="67.86,121.54 108.17,48.78 147.31,121.54 150.3,121.54 108.2,43.29 64.85,121.54 	"/>
	<polygon class="st2" points="63.73,121.54 108.17,41.77 151.51,121.54 154.51,121.54 108.2,36.3 60.71,121.54 	"/>
	<g>
		<path class="st0" d="M59.89,164.69c-0.14-0.11-0.29-0.21-0.46-0.29c-0.17-0.08-0.36-0.15-0.56-0.2c-0.21-0.05-0.42-0.08-0.66-0.08
			c-0.38,0-0.73,0.06-1.06,0.18c-0.33,0.12-0.61,0.3-0.86,0.54c-0.24,0.24-0.43,0.55-0.57,0.92c-0.14,0.37-0.21,0.81-0.21,1.32
			c0,0.45,0.06,0.85,0.18,1.21c0.12,0.36,0.3,0.67,0.54,0.92c0.24,0.25,0.52,0.44,0.86,0.57c0.34,0.13,0.73,0.2,1.15,0.2
			c0.13,0,0.26-0.01,0.4-0.02c0.14-0.01,0.28-0.03,0.41-0.06c0.13-0.02,0.25-0.06,0.37-0.09c0.11-0.04,0.21-0.08,0.29-0.13
			c0.01-0.18,0.01-0.37,0.01-0.55c0-0.18,0-0.37,0-0.56c0-0.21,0-0.43-0.01-0.64c-0.01-0.21-0.02-0.42-0.03-0.62
			c0.15,0.03,0.3,0.05,0.44,0.05c0.07,0,0.13,0,0.2-0.01c0.07-0.01,0.13-0.02,0.19-0.04c-0.01,0.14-0.02,0.36-0.03,0.67
			c-0.01,0.3-0.01,0.7-0.01,1.2c0,0.12,0,0.25,0,0.37c0,0.13,0,0.25,0,0.37c-0.13,0.05-0.29,0.1-0.48,0.15
			c-0.19,0.05-0.4,0.1-0.62,0.13c-0.22,0.03-0.44,0.06-0.65,0.09c-0.22,0.03-0.42,0.04-0.59,0.04c-0.55,0-1.04-0.07-1.48-0.2
			c-0.44-0.13-0.81-0.34-1.12-0.61c-0.31-0.28-0.54-0.62-0.71-1.03c-0.17-0.41-0.25-0.89-0.25-1.43c0-0.52,0.09-0.99,0.26-1.39
			c0.17-0.41,0.41-0.75,0.73-1.03c0.31-0.28,0.69-0.5,1.14-0.64c0.44-0.15,0.94-0.22,1.48-0.22c0.31,0,0.59,0.02,0.83,0.05
			c0.24,0.03,0.46,0.08,0.64,0.13c0.19,0.06,0.35,0.11,0.49,0.17c0.14,0.06,0.27,0.12,0.38,0.17c-0.05,0.09-0.09,0.2-0.13,0.33
			c-0.04,0.14-0.07,0.26-0.08,0.38h-0.11C60.14,164.91,60.03,164.8,59.89,164.69z"/>
		<path class="st0" d="M62.1,165.07c-0.02-0.39-0.03-0.78-0.05-1.18c0.28,0.01,0.55,0.02,0.82,0.03c0.27,0.01,0.55,0.01,0.82,0.01
			c0.28,0,0.55,0,0.82-0.01c0.27-0.01,0.54-0.02,0.82-0.03c-0.02,0.09-0.03,0.18-0.03,0.28c0,0.09,0.01,0.18,0.03,0.28
			c-0.2-0.01-0.38-0.02-0.54-0.04c-0.16-0.01-0.33-0.02-0.51-0.04c-0.18-0.01-0.38-0.02-0.59-0.03c-0.21-0.01-0.47-0.01-0.77-0.01
			c-0.01,0.2-0.01,0.38-0.02,0.56c-0.01,0.18-0.01,0.38-0.01,0.61c0,0.24,0,0.47,0,0.7c0,0.23,0,0.4,0,0.51c0.27,0,0.51,0,0.73-0.01
			c0.21-0.01,0.41-0.01,0.59-0.02c0.18-0.01,0.34-0.02,0.49-0.03c0.15-0.01,0.29-0.02,0.43-0.03c-0.02,0.09-0.03,0.19-0.03,0.29
			c0,0.09,0.01,0.18,0.03,0.28c-0.16-0.02-0.35-0.03-0.56-0.05c-0.21-0.01-0.42-0.02-0.63-0.02c-0.21,0-0.41-0.01-0.6-0.01
			c-0.19,0-0.34,0-0.45,0c0,0.06,0,0.12,0,0.18c0,0.06,0,0.15,0,0.24v0.36v0.55c0,0.35,0,0.64,0,0.87c0,0.23,0.01,0.4,0.01,0.52
			c0.2,0,0.42,0,0.64,0c0.23,0,0.46,0,0.69-0.01c0.22-0.01,0.44-0.02,0.63-0.04c0.2-0.01,0.37-0.04,0.52-0.07
			c-0.01,0.04-0.02,0.09-0.02,0.14c0,0.05,0,0.1,0,0.14c0,0.1,0.01,0.18,0.03,0.24c-0.28-0.01-0.55-0.02-0.82-0.02
			c-0.27,0-0.55,0-0.83,0c-0.28,0-0.56,0-0.84,0s-0.56,0.01-0.84,0.02c0.02-0.39,0.04-0.78,0.05-1.17c0.02-0.39,0.02-0.79,0.02-1.19
			v-1.58C62.12,165.87,62.11,165.47,62.1,165.07z"/>
		<path class="st0" d="M69.65,167.83c-0.8-0.86-1.59-1.71-2.39-2.55c-0.01,0.17-0.01,0.4-0.02,0.69c-0.01,0.29-0.01,0.68-0.01,1.18
			c0,0.13,0,0.29,0,0.48c0,0.19,0.01,0.39,0.01,0.6c0,0.21,0.01,0.42,0.01,0.64c0.01,0.21,0.01,0.41,0.02,0.6
			c0.01,0.18,0.01,0.34,0.02,0.48c0.01,0.14,0.01,0.23,0.02,0.28c-0.1-0.01-0.21-0.02-0.32-0.02c-0.12,0-0.24,0.01-0.34,0.02
			c0.01-0.06,0.03-0.17,0.04-0.34c0.02-0.17,0.03-0.36,0.04-0.59c0.01-0.23,0.03-0.48,0.04-0.75c0.02-0.27,0.03-0.54,0.04-0.81
			c0.01-0.27,0.02-0.53,0.02-0.79c0.01-0.26,0.01-0.49,0.01-0.69c0-0.59,0-1.09,0-1.52c0-0.42-0.01-0.74-0.02-0.95h0.15
			c0.37,0.4,0.77,0.84,1.2,1.3c0.43,0.46,0.85,0.92,1.27,1.37c0.42,0.45,0.82,0.88,1.2,1.28c0.38,0.4,0.71,0.74,0.99,1.03v-1.25
			c0-0.64,0-1.27-0.01-1.88c-0.01-0.61-0.03-1.18-0.06-1.72c0.12,0.03,0.23,0.05,0.31,0.05c0.07,0,0.17-0.02,0.29-0.05
			c-0.01,0.14-0.03,0.34-0.04,0.61c-0.02,0.27-0.03,0.56-0.05,0.86c-0.02,0.31-0.03,0.61-0.04,0.9c-0.01,0.29-0.02,0.53-0.02,0.71
			c0,0.15,0,0.34,0,0.55c0,0.21,0,0.43,0,0.65c0,0.23,0.01,0.46,0.01,0.69c0,0.23,0.01,0.44,0.01,0.64c0,0.2,0,0.37,0,0.52
			c0,0.13,0,0.24,0,0.3H71.9C71.2,169.52,70.44,168.68,69.65,167.83z"/>
		<path class="st0" d="M78.66,164.87c-0.01-0.47-0.02-0.8-0.05-0.98c0.07,0.01,0.13,0.02,0.19,0.03c0.06,0.01,0.12,0.01,0.18,0.01
			c0.08,0,0.17-0.02,0.28-0.05c-0.02,0.21-0.04,0.47-0.06,0.77c-0.02,0.3-0.03,0.62-0.05,0.96c-0.01,0.34-0.02,0.69-0.04,1.05
			c-0.01,0.36-0.02,0.71-0.03,1.04c-0.01,0.41-0.07,0.78-0.19,1.1c-0.12,0.33-0.29,0.6-0.51,0.83c-0.22,0.23-0.49,0.4-0.81,0.52
			c-0.32,0.12-0.69,0.17-1.11,0.17c-0.92,0-1.59-0.21-2.01-0.63c-0.42-0.42-0.63-1.08-0.63-1.98c0-0.29,0.01-0.54,0.02-0.77
			c0.02-0.22,0.02-0.45,0.02-0.69c0-0.52-0.01-0.97-0.02-1.37c-0.01-0.4-0.02-0.74-0.04-1.01c0.07,0.01,0.15,0.02,0.24,0.03
			c0.09,0.01,0.17,0.01,0.24,0.01c0.07,0,0.13,0,0.2-0.01c0.06-0.01,0.13-0.02,0.2-0.03c-0.01,0.14-0.02,0.31-0.04,0.53
			c-0.01,0.22-0.02,0.46-0.04,0.74c-0.01,0.28-0.02,0.57-0.03,0.89c-0.01,0.32-0.01,0.65-0.01,0.99c0,0.21,0,0.42,0.01,0.65
			c0.01,0.22,0.03,0.44,0.06,0.65c0.04,0.21,0.1,0.41,0.18,0.61c0.08,0.19,0.2,0.36,0.35,0.51c0.15,0.14,0.35,0.26,0.58,0.34
			c0.23,0.08,0.52,0.12,0.86,0.12c0.34,0,0.62-0.05,0.85-0.15c0.23-0.1,0.42-0.23,0.57-0.39c0.15-0.16,0.26-0.34,0.34-0.55
			c0.08-0.21,0.14-0.43,0.18-0.65c0.04-0.23,0.06-0.45,0.06-0.68c0.01-0.23,0.01-0.44,0.01-0.63
			C78.67,166.02,78.67,165.34,78.66,164.87z"/>
		<path class="st0" d="M81.01,165.09c-0.02-0.39-0.03-0.79-0.05-1.19c0.08,0.01,0.16,0.02,0.23,0.03c0.07,0.01,0.15,0.01,0.22,0.01
			c0.07,0,0.15,0,0.22-0.01c0.07-0.01,0.15-0.02,0.23-0.03c-0.02,0.4-0.04,0.8-0.05,1.19c-0.02,0.39-0.02,0.79-0.02,1.19v1.58
			c0,0.4,0.01,0.8,0.02,1.2c0.02,0.39,0.03,0.78,0.05,1.16c-0.14-0.01-0.29-0.02-0.45-0.02s-0.31,0.01-0.45,0.02
			c0.02-0.38,0.04-0.77,0.05-1.16c0.02-0.39,0.02-0.79,0.02-1.2v-1.58C81.04,165.87,81.03,165.48,81.01,165.09z"/>
		<path class="st0" d="M86.52,167.83c-0.8-0.86-1.59-1.71-2.39-2.55c-0.01,0.17-0.01,0.4-0.02,0.69c-0.01,0.29-0.01,0.68-0.01,1.18
			c0,0.13,0,0.29,0,0.48c0,0.19,0.01,0.39,0.01,0.6c0,0.21,0.01,0.42,0.01,0.64c0.01,0.21,0.01,0.41,0.02,0.6
			c0.01,0.18,0.01,0.34,0.02,0.48c0.01,0.14,0.01,0.23,0.02,0.28c-0.1-0.01-0.21-0.02-0.32-0.02c-0.12,0-0.24,0.01-0.34,0.02
			c0.01-0.06,0.03-0.17,0.04-0.34c0.02-0.17,0.03-0.36,0.04-0.59c0.01-0.23,0.03-0.48,0.04-0.75c0.02-0.27,0.03-0.54,0.04-0.81
			c0.01-0.27,0.02-0.53,0.02-0.79c0.01-0.26,0.01-0.49,0.01-0.69c0-0.59,0-1.09,0-1.52c0-0.42-0.01-0.74-0.02-0.95h0.15
			c0.37,0.4,0.77,0.84,1.2,1.3c0.43,0.46,0.85,0.92,1.27,1.37c0.42,0.45,0.82,0.88,1.2,1.28c0.38,0.4,0.71,0.74,0.99,1.03v-1.25
			c0-0.64,0-1.27-0.01-1.88c-0.01-0.61-0.03-1.18-0.06-1.72c0.12,0.03,0.23,0.05,0.31,0.05c0.07,0,0.17-0.02,0.29-0.05
			c-0.01,0.14-0.03,0.34-0.04,0.61c-0.02,0.27-0.03,0.56-0.05,0.86c-0.02,0.31-0.03,0.61-0.04,0.9c-0.01,0.29-0.02,0.53-0.02,0.71
			c0,0.15,0,0.34,0,0.55c0,0.21,0,0.43,0,0.65c0,0.23,0.01,0.46,0.01,0.69c0,0.23,0.01,0.44,0.01,0.64c0,0.2,0,0.37,0,0.52
			c0,0.13,0,0.24,0,0.3h-0.13C88.07,169.52,87.32,168.68,86.52,167.83z"/>
		<path class="st0" d="M90.49,165.68c0.17-0.41,0.4-0.75,0.71-1.03c0.3-0.28,0.67-0.5,1.09-0.64c0.42-0.15,0.89-0.22,1.39-0.22
			c0.51,0,0.98,0.07,1.4,0.22c0.42,0.15,0.79,0.36,1.09,0.64c0.3,0.28,0.54,0.63,0.71,1.03c0.17,0.41,0.25,0.87,0.25,1.39
			s-0.08,0.99-0.25,1.39c-0.17,0.41-0.4,0.75-0.71,1.03c-0.3,0.28-0.67,0.49-1.09,0.63c-0.42,0.14-0.89,0.21-1.4,0.21
			c-0.5,0-0.97-0.07-1.39-0.21c-0.42-0.14-0.79-0.35-1.09-0.63c-0.3-0.28-0.54-0.63-0.71-1.03c-0.17-0.41-0.25-0.87-0.25-1.39
			S90.32,166.08,90.49,165.68z M96.03,165.75c-0.13-0.37-0.31-0.68-0.54-0.92c-0.23-0.24-0.5-0.42-0.81-0.54
			c-0.31-0.12-0.65-0.18-1.01-0.18c-0.36,0-0.69,0.06-1,0.18c-0.31,0.12-0.58,0.3-0.81,0.54c-0.23,0.24-0.41,0.55-0.54,0.92
			c-0.13,0.37-0.19,0.81-0.19,1.32s0.06,0.95,0.19,1.32c0.13,0.37,0.31,0.68,0.54,0.92c0.23,0.24,0.5,0.42,0.81,0.54
			c0.31,0.12,0.64,0.18,1,0.18c0.36,0,0.7-0.06,1.01-0.18c0.31-0.12,0.58-0.3,0.81-0.54c0.23-0.24,0.41-0.55,0.54-0.92
			c0.13-0.37,0.19-0.81,0.19-1.32S96.16,166.12,96.03,165.75z"/>
		<path class="st0" d="M100.95,165.09c-0.02-0.39-0.03-0.79-0.05-1.19c0.23,0.01,0.46,0.02,0.69,0.03c0.23,0.01,0.46,0.01,0.69,0.01
			c0.23,0,0.46-0.01,0.69-0.02c0.23-0.02,0.46-0.02,0.69-0.02c0.54,0,1,0.07,1.38,0.21c0.38,0.14,0.7,0.34,0.94,0.6
			c0.25,0.26,0.43,0.58,0.54,0.96c0.11,0.38,0.17,0.8,0.17,1.27c0,0.61-0.11,1.13-0.32,1.55c-0.21,0.42-0.48,0.76-0.81,1.02
			c-0.33,0.26-0.69,0.44-1.09,0.55c-0.4,0.11-0.77,0.16-1.14,0.16c-0.21,0-0.41,0-0.62-0.01c-0.2-0.01-0.41-0.01-0.62-0.01
			c-0.21,0-0.41,0-0.62,0c-0.2,0-0.41,0.01-0.62,0.02c0.02-0.38,0.04-0.77,0.05-1.16c0.02-0.39,0.02-0.79,0.02-1.2v-1.58
			C100.97,165.87,100.96,165.48,100.95,165.09z M101.78,169.81c0.13,0.03,0.3,0.05,0.52,0.07c0.22,0.02,0.45,0.02,0.68,0.02
			c0.34,0,0.67-0.04,1.01-0.12c0.34-0.08,0.64-0.23,0.91-0.45c0.27-0.22,0.48-0.52,0.65-0.91c0.17-0.38,0.25-0.88,0.25-1.49
			c0-0.53-0.07-0.97-0.2-1.32c-0.13-0.34-0.31-0.61-0.54-0.81s-0.5-0.34-0.82-0.41c-0.32-0.08-0.67-0.11-1.05-0.11
			c-0.28,0-0.53,0.01-0.77,0.03c-0.24,0.02-0.45,0.04-0.64,0.06c-0.02,0.29-0.03,0.6-0.04,0.92c-0.01,0.32-0.01,0.65-0.01,0.98v1.58
			C101.73,168.52,101.74,169.17,101.78,169.81z"/>
		<path class="st0" d="M108.11,165.07c-0.02-0.39-0.03-0.78-0.05-1.18c0.28,0.01,0.55,0.02,0.82,0.03c0.27,0.01,0.55,0.01,0.82,0.01
			c0.28,0,0.55,0,0.82-0.01c0.27-0.01,0.54-0.02,0.82-0.03c-0.02,0.09-0.03,0.18-0.03,0.28c0,0.09,0.01,0.18,0.03,0.28
			c-0.2-0.01-0.38-0.02-0.54-0.04c-0.16-0.01-0.33-0.02-0.52-0.04c-0.18-0.01-0.38-0.02-0.59-0.03c-0.21-0.01-0.47-0.01-0.77-0.01
			c-0.01,0.2-0.01,0.38-0.02,0.56c-0.01,0.18-0.01,0.38-0.01,0.61c0,0.24,0,0.47,0,0.7c0,0.23,0,0.4,0,0.51c0.27,0,0.51,0,0.73-0.01
			c0.22-0.01,0.41-0.01,0.59-0.02c0.18-0.01,0.34-0.02,0.49-0.03c0.15-0.01,0.29-0.02,0.43-0.03c-0.02,0.09-0.03,0.19-0.03,0.29
			c0,0.09,0.01,0.18,0.03,0.28c-0.16-0.02-0.34-0.03-0.56-0.05c-0.21-0.01-0.42-0.02-0.64-0.02c-0.21,0-0.41-0.01-0.6-0.01
			s-0.34,0-0.45,0c0,0.06,0,0.12,0,0.18c0,0.06,0,0.15,0,0.24v0.36v0.55c0,0.35,0,0.64,0,0.87c0,0.23,0.01,0.4,0.01,0.52
			c0.2,0,0.42,0,0.64,0c0.23,0,0.46,0,0.69-0.01c0.22-0.01,0.44-0.02,0.63-0.04c0.2-0.01,0.37-0.04,0.52-0.07
			c-0.01,0.04-0.02,0.09-0.02,0.14c0,0.05,0,0.1,0,0.14c0,0.1,0.01,0.18,0.03,0.24c-0.28-0.01-0.55-0.02-0.82-0.02
			c-0.27,0-0.55,0-0.83,0s-0.56,0-0.84,0c-0.28,0-0.55,0.01-0.84,0.02c0.02-0.39,0.03-0.78,0.05-1.17c0.01-0.39,0.02-0.79,0.02-1.19
			v-1.58C108.13,165.87,108.12,165.47,108.11,165.07z"/>
		<path class="st0" d="M117.16,166.32c0.43,0.82,0.88,1.67,1.36,2.53c0.06-0.12,0.15-0.28,0.27-0.5c0.12-0.22,0.25-0.47,0.4-0.75
			c0.15-0.28,0.32-0.59,0.49-0.92c0.17-0.33,0.35-0.66,0.53-1c0.18-0.34,0.36-0.67,0.54-0.99c0.18-0.33,0.34-0.63,0.5-0.91h0.12
			c0.07,0.59,0.13,1.16,0.19,1.71c0.06,0.55,0.12,1.09,0.18,1.62c0.06,0.53,0.12,1.06,0.18,1.57c0.06,0.52,0.13,1.03,0.2,1.54
			c-0.07-0.01-0.15-0.02-0.22-0.02s-0.14,0-0.22,0c-0.07,0-0.15,0-0.22,0c-0.07,0-0.14,0.01-0.22,0.02
			c-0.07-0.82-0.13-1.61-0.2-2.37c-0.07-0.77-0.15-1.55-0.25-2.35h-0.02c-0.42,0.77-0.84,1.54-1.25,2.3
			c-0.41,0.76-0.8,1.56-1.16,2.4h-0.08c-0.37-0.77-0.75-1.55-1.15-2.32c-0.4-0.78-0.81-1.57-1.21-2.38h-0.02
			c-0.04,0.38-0.09,0.79-0.14,1.24c-0.05,0.44-0.1,0.88-0.14,1.32c-0.04,0.43-0.08,0.84-0.11,1.22c-0.03,0.38-0.05,0.7-0.05,0.94
			c-0.1-0.01-0.21-0.02-0.32-0.02c-0.12,0-0.22,0.01-0.32,0.02c0.08-0.5,0.16-1.02,0.25-1.57c0.09-0.55,0.17-1.11,0.25-1.66
			c0.08-0.56,0.15-1.11,0.22-1.65c0.07-0.54,0.13-1.06,0.17-1.55h0.16C116.3,164.65,116.72,165.49,117.16,166.32z"/>
		<path class="st0" d="M123.2,165.68c0.17-0.41,0.4-0.75,0.71-1.03c0.3-0.28,0.67-0.5,1.09-0.64c0.42-0.15,0.89-0.22,1.39-0.22
			c0.51,0,0.98,0.07,1.4,0.22c0.42,0.15,0.79,0.36,1.09,0.64c0.3,0.28,0.54,0.63,0.71,1.03c0.17,0.41,0.25,0.87,0.25,1.39
			s-0.08,0.99-0.25,1.39c-0.17,0.41-0.4,0.75-0.71,1.03c-0.3,0.28-0.67,0.49-1.09,0.63c-0.42,0.14-0.89,0.21-1.4,0.21
			c-0.5,0-0.97-0.07-1.39-0.21c-0.42-0.14-0.79-0.35-1.09-0.63c-0.3-0.28-0.54-0.63-0.71-1.03c-0.17-0.41-0.25-0.87-0.25-1.39
			S123.03,166.08,123.2,165.68z M128.74,165.75c-0.13-0.37-0.31-0.68-0.54-0.92c-0.23-0.24-0.5-0.42-0.81-0.54
			c-0.31-0.12-0.65-0.18-1.01-0.18c-0.36,0-0.69,0.06-1,0.18c-0.31,0.12-0.58,0.3-0.81,0.54c-0.23,0.24-0.41,0.55-0.54,0.92
			c-0.13,0.37-0.19,0.81-0.19,1.32s0.06,0.95,0.19,1.32c0.13,0.37,0.31,0.68,0.54,0.92c0.23,0.24,0.5,0.42,0.81,0.54
			c0.31,0.12,0.64,0.18,1,0.18c0.36,0,0.7-0.06,1.01-0.18c0.31-0.12,0.58-0.3,0.81-0.54c0.23-0.24,0.41-0.55,0.54-0.92
			c0.13-0.37,0.19-0.81,0.19-1.32S128.87,166.12,128.74,165.75z"/>
		<path class="st0" d="M134.05,167.83c-0.8-0.86-1.59-1.71-2.39-2.55c-0.01,0.17-0.01,0.4-0.02,0.69c-0.01,0.29-0.01,0.68-0.01,1.18
			c0,0.13,0,0.29,0,0.48c0,0.19,0,0.39,0.01,0.6c0,0.21,0.01,0.42,0.01,0.64c0.01,0.21,0.01,0.41,0.02,0.6
			c0.01,0.18,0.01,0.34,0.02,0.48c0.01,0.14,0.01,0.23,0.02,0.28c-0.1-0.01-0.21-0.02-0.32-0.02c-0.12,0-0.24,0.01-0.34,0.02
			c0.01-0.06,0.03-0.17,0.04-0.34c0.02-0.17,0.03-0.36,0.04-0.59c0.01-0.23,0.03-0.48,0.04-0.75c0.01-0.27,0.03-0.54,0.04-0.81
			c0.01-0.27,0.02-0.53,0.02-0.79c0.01-0.26,0.01-0.49,0.01-0.69c0-0.59,0-1.09,0-1.52c0-0.42-0.01-0.74-0.02-0.95h0.15
			c0.37,0.4,0.77,0.84,1.2,1.3c0.43,0.46,0.85,0.92,1.27,1.37c0.42,0.45,0.82,0.88,1.2,1.28s0.71,0.74,0.99,1.03v-1.25
			c0-0.64,0-1.27-0.01-1.88c-0.01-0.61-0.03-1.18-0.06-1.72c0.12,0.03,0.23,0.05,0.31,0.05c0.07,0,0.17-0.02,0.29-0.05
			c-0.01,0.14-0.03,0.34-0.04,0.61c-0.01,0.27-0.03,0.56-0.05,0.86c-0.01,0.31-0.03,0.61-0.04,0.9c-0.01,0.29-0.02,0.53-0.02,0.71
			c0,0.15,0,0.34,0,0.55c0,0.21,0,0.43,0,0.65c0,0.23,0.01,0.46,0.01,0.69c0,0.23,0.01,0.44,0.01,0.64c0,0.2,0,0.37,0,0.52
			c0,0.13,0,0.24,0,0.3h-0.13C135.6,169.52,134.85,168.68,134.05,167.83z"/>
		<path class="st0" d="M139.53,164.37c-0.16,0-0.33,0-0.5,0c-0.17,0-0.35,0.01-0.52,0.02c-0.17,0.01-0.34,0.02-0.51,0.03
			c-0.16,0.01-0.31,0.03-0.44,0.05c0.03-0.11,0.05-0.21,0.05-0.29c0-0.07-0.01-0.16-0.05-0.29c0.4,0.01,0.8,0.02,1.19,0.03
			c0.39,0.01,0.78,0.01,1.19,0.01c0.4,0,0.8,0,1.19-0.01c0.39-0.01,0.78-0.02,1.19-0.03c-0.03,0.12-0.05,0.22-0.05,0.29
			c0,0.08,0.01,0.17,0.05,0.29c-0.13-0.02-0.27-0.03-0.44-0.05c-0.16-0.01-0.33-0.02-0.51-0.03c-0.17-0.01-0.35-0.02-0.52-0.02
			c-0.17,0-0.34,0-0.5,0c-0.02,0.63-0.03,1.27-0.03,1.9v1.58c0,0.4,0.01,0.8,0.02,1.2c0.02,0.39,0.03,0.78,0.05,1.16
			c-0.14-0.01-0.29-0.02-0.45-0.02s-0.31,0.01-0.45,0.02c0.02-0.38,0.04-0.77,0.05-1.16c0.01-0.39,0.02-0.79,0.02-1.2v-1.58
			C139.56,165.64,139.55,165.01,139.53,164.37z"/>
		<path class="st0" d="M147.79,170.22c-0.09-0.01-0.17-0.02-0.24-0.02c-0.08,0-0.16,0-0.24,0c-0.09,0-0.17,0-0.24,0
			c-0.08,0-0.16,0.01-0.24,0.02c-0.04-0.14-0.1-0.31-0.17-0.51s-0.15-0.41-0.24-0.63c-0.09-0.22-0.18-0.44-0.27-0.66
			c-0.09-0.22-0.18-0.44-0.26-0.64c-0.2-0.01-0.39-0.01-0.6-0.01c-0.2,0-0.4,0-0.61,0c-0.19,0-0.38,0-0.56,0
			c-0.18,0-0.37,0.01-0.56,0.01c-0.2,0.48-0.38,0.93-0.53,1.37c-0.16,0.43-0.28,0.79-0.36,1.07c-0.1-0.01-0.22-0.02-0.34-0.02
			c-0.12,0-0.24,0.01-0.34,0.02c0.5-1.07,0.98-2.14,1.45-3.2c0.47-1.06,0.95-2.14,1.43-3.24h0.17c0.15,0.36,0.31,0.74,0.48,1.15
			c0.17,0.41,0.35,0.83,0.53,1.26c0.18,0.42,0.36,0.84,0.53,1.26c0.18,0.42,0.35,0.81,0.5,1.16c0.16,0.36,0.3,0.68,0.42,0.96
			S147.71,170.07,147.79,170.22z M143.72,167.36c0.16,0,0.32,0,0.5,0.01c0.17,0.01,0.34,0.01,0.5,0.01c0.17,0,0.34,0,0.52,0
			c0.17,0,0.34-0.01,0.52-0.01l-1.02-2.34L143.72,167.36z"/>
		<path class="st0" d="M151.78,167.83c-0.8-0.86-1.59-1.71-2.39-2.55c-0.01,0.17-0.01,0.4-0.02,0.69s-0.01,0.68-0.01,1.18
			c0,0.13,0,0.29,0,0.48c0,0.19,0.01,0.39,0.01,0.6c0,0.21,0.01,0.42,0.01,0.64c0.01,0.21,0.01,0.41,0.02,0.6
			c0.01,0.18,0.01,0.34,0.02,0.48c0.01,0.14,0.01,0.23,0.02,0.28c-0.1-0.01-0.21-0.02-0.32-0.02c-0.12,0-0.24,0.01-0.34,0.02
			c0.01-0.06,0.03-0.17,0.04-0.34c0.01-0.17,0.03-0.36,0.04-0.59c0.01-0.23,0.03-0.48,0.04-0.75c0.01-0.27,0.03-0.54,0.04-0.81
			c0.01-0.27,0.02-0.53,0.02-0.79c0.01-0.26,0.01-0.49,0.01-0.69c0-0.59,0-1.09,0-1.52c0-0.42-0.01-0.74-0.02-0.95h0.15
			c0.38,0.4,0.77,0.84,1.2,1.3c0.43,0.46,0.85,0.92,1.27,1.37c0.42,0.45,0.82,0.88,1.2,1.28c0.38,0.4,0.71,0.74,0.99,1.03v-1.25
			c0-0.64,0-1.27-0.01-1.88c-0.01-0.61-0.03-1.18-0.06-1.72c0.12,0.03,0.23,0.05,0.31,0.05c0.07,0,0.17-0.02,0.3-0.05
			c-0.01,0.14-0.03,0.34-0.04,0.61c-0.02,0.27-0.03,0.56-0.05,0.86c-0.02,0.31-0.03,0.61-0.04,0.9c-0.01,0.29-0.02,0.53-0.02,0.71
			c0,0.15,0,0.34,0,0.55c0,0.21,0,0.43,0,0.65c0,0.23,0.01,0.46,0.01,0.69c0,0.23,0.01,0.44,0.01,0.64c0,0.2,0,0.37,0,0.52
			c0,0.13,0,0.24,0,0.3h-0.13C153.33,169.52,152.57,168.68,151.78,167.83z M150.26,162.91c0.05-0.11,0.11-0.21,0.19-0.3
			c0.08-0.09,0.17-0.17,0.28-0.23c0.11-0.06,0.24-0.09,0.39-0.09c0.1,0,0.2,0.02,0.29,0.05c0.08,0.03,0.21,0.09,0.39,0.17
			c0.17,0.09,0.3,0.14,0.37,0.17c0.08,0.03,0.15,0.04,0.23,0.04c0.14,0,0.25-0.05,0.34-0.14c0.09-0.09,0.15-0.2,0.18-0.32h0.27
			c-0.01,0.07-0.04,0.17-0.07,0.28c-0.04,0.11-0.09,0.22-0.17,0.33c-0.08,0.11-0.18,0.2-0.3,0.27c-0.12,0.07-0.28,0.11-0.46,0.11
			c-0.08,0-0.18-0.02-0.29-0.05c-0.11-0.03-0.23-0.09-0.37-0.17c-0.16-0.09-0.28-0.14-0.36-0.17c-0.08-0.03-0.16-0.04-0.23-0.04
			c-0.14,0-0.24,0.03-0.31,0.09c-0.06,0.06-0.12,0.17-0.18,0.33h-0.28C150.19,163.13,150.22,163.02,150.26,162.91z"/>
		<path class="st0" d="M161.09,170.22c-0.09-0.01-0.17-0.02-0.24-0.02c-0.08,0-0.16,0-0.24,0c-0.09,0-0.17,0-0.24,0
			c-0.08,0-0.16,0.01-0.24,0.02c-0.04-0.14-0.1-0.31-0.17-0.51s-0.15-0.41-0.24-0.63c-0.09-0.22-0.18-0.44-0.27-0.66
			c-0.09-0.22-0.18-0.44-0.26-0.64c-0.2-0.01-0.4-0.01-0.6-0.01c-0.2,0-0.41,0-0.61,0c-0.19,0-0.38,0-0.56,0
			c-0.18,0-0.37,0.01-0.56,0.01c-0.2,0.48-0.37,0.93-0.53,1.37c-0.16,0.43-0.28,0.79-0.36,1.07c-0.1-0.01-0.22-0.02-0.34-0.02
			c-0.12,0-0.24,0.01-0.34,0.02c0.5-1.07,0.98-2.14,1.45-3.2c0.47-1.06,0.95-2.14,1.43-3.24h0.18c0.15,0.36,0.31,0.74,0.48,1.15
			c0.17,0.41,0.35,0.83,0.52,1.26c0.18,0.42,0.36,0.84,0.53,1.26c0.18,0.42,0.34,0.81,0.5,1.16c0.16,0.36,0.3,0.68,0.42,0.96
			C160.9,169.85,161.01,170.07,161.09,170.22z M157.01,167.36c0.16,0,0.33,0,0.5,0.01c0.17,0.01,0.34,0.01,0.5,0.01
			c0.17,0,0.34,0,0.52,0c0.17,0,0.34-0.01,0.52-0.01l-1.02-2.34L157.01,167.36z"/>
	</g>
	<g>
		<path class="st2" d="M80.73,116.95c-0.06-0.11-0.14-0.2-0.25-0.27v-0.06c0.32-0.13,0.64-0.27,0.97-0.42
			c0.33-0.15,0.64-0.3,0.92-0.44l0.06,0.04c-0.02,0.36-0.04,0.73-0.05,1.08c-0.01,0.36-0.02,0.72-0.02,1.08v1.39
			c0,0.37,0.01,0.72,0.02,1.07c0.01,0.35,0.03,0.7,0.05,1.03c-0.07-0.01-0.13-0.01-0.19-0.01c-0.06,0-0.13,0-0.19,0
			c-0.07,0-0.13,0-0.19,0c-0.06,0-0.13,0-0.2,0.01c0.03-0.34,0.05-0.69,0.05-1.04c0.01-0.35,0.01-0.7,0.01-1.07v-2.95L80.73,116.95z
			"/>
		<path class="st2" d="M84.78,117.62c0.07-0.35,0.18-0.65,0.33-0.9c0.15-0.26,0.35-0.46,0.6-0.61c0.25-0.15,0.55-0.23,0.91-0.23
			c0.4,0,0.72,0.08,0.97,0.23c0.25,0.15,0.45,0.36,0.59,0.61c0.14,0.26,0.24,0.56,0.29,0.9c0.05,0.35,0.08,0.72,0.08,1.11
			c0,0.38-0.04,0.74-0.12,1.08c-0.08,0.34-0.2,0.64-0.35,0.91c-0.16,0.26-0.36,0.46-0.6,0.61c-0.24,0.15-0.53,0.22-0.87,0.22
			c-0.4,0-0.72-0.07-0.97-0.22c-0.25-0.14-0.45-0.34-0.59-0.6c-0.14-0.26-0.24-0.56-0.29-0.9c-0.05-0.35-0.08-0.71-0.08-1.11
			C84.68,118.34,84.71,117.97,84.78,117.62z M85.42,119.75c0.04,0.31,0.11,0.59,0.21,0.82c0.1,0.23,0.23,0.41,0.39,0.55
			c0.16,0.13,0.36,0.2,0.6,0.2c0.24,0,0.44-0.07,0.6-0.2c0.16-0.13,0.29-0.32,0.39-0.55c0.1-0.23,0.17-0.51,0.21-0.82
			c0.04-0.31,0.06-0.66,0.06-1.02c0-0.37-0.02-0.71-0.06-1.02c-0.04-0.32-0.11-0.59-0.21-0.82c-0.1-0.23-0.23-0.41-0.39-0.55
			c-0.16-0.13-0.36-0.2-0.6-0.2c-0.24,0-0.44,0.06-0.6,0.18c-0.16,0.12-0.29,0.3-0.39,0.52c-0.1,0.23-0.17,0.5-0.21,0.82
			c-0.04,0.32-0.06,0.68-0.06,1.07C85.36,119.09,85.38,119.43,85.42,119.75z"/>
		<path class="st2" d="M89.39,117.62c0.07-0.35,0.17-0.65,0.33-0.9c0.15-0.26,0.35-0.46,0.6-0.61c0.25-0.15,0.55-0.23,0.91-0.23
			c0.4,0,0.72,0.08,0.97,0.23c0.25,0.15,0.45,0.36,0.59,0.61c0.14,0.26,0.24,0.56,0.3,0.9c0.05,0.35,0.08,0.72,0.08,1.11
			c0,0.38-0.04,0.74-0.12,1.08c-0.08,0.34-0.19,0.64-0.35,0.91c-0.16,0.26-0.36,0.46-0.6,0.61c-0.25,0.15-0.53,0.22-0.87,0.22
			c-0.4,0-0.72-0.07-0.97-0.22c-0.25-0.14-0.45-0.34-0.59-0.6c-0.14-0.26-0.24-0.56-0.29-0.9c-0.05-0.35-0.08-0.71-0.08-1.11
			C89.29,118.34,89.32,117.97,89.39,117.62z M90.03,119.75c0.04,0.31,0.11,0.59,0.21,0.82c0.1,0.23,0.23,0.41,0.39,0.55
			c0.16,0.13,0.36,0.2,0.6,0.2c0.24,0,0.44-0.07,0.6-0.2c0.16-0.13,0.29-0.32,0.39-0.55c0.1-0.23,0.17-0.51,0.21-0.82
			c0.04-0.31,0.06-0.66,0.06-1.02c0-0.37-0.02-0.71-0.06-1.02c-0.04-0.32-0.11-0.59-0.21-0.82c-0.1-0.23-0.23-0.41-0.39-0.55
			c-0.16-0.13-0.36-0.2-0.6-0.2c-0.24,0-0.44,0.06-0.6,0.18c-0.16,0.12-0.29,0.3-0.39,0.52c-0.1,0.23-0.17,0.5-0.21,0.82
			c-0.04,0.32-0.06,0.68-0.06,1.07C89.97,119.09,89.99,119.43,90.03,119.75z"/>
		<path class="st2" d="M93.98,116.71c0.06-0.16,0.15-0.31,0.27-0.43c0.12-0.13,0.26-0.22,0.42-0.29c0.17-0.07,0.35-0.1,0.55-0.1
			c0.2,0,0.38,0.03,0.55,0.1c0.17,0.07,0.31,0.17,0.42,0.29c0.12,0.12,0.21,0.27,0.27,0.43c0.06,0.16,0.09,0.35,0.09,0.55
			s-0.03,0.38-0.09,0.55c-0.06,0.17-0.15,0.31-0.27,0.44c-0.12,0.12-0.26,0.22-0.42,0.29c-0.17,0.07-0.35,0.11-0.55,0.11
			c-0.2,0-0.38-0.03-0.55-0.11c-0.16-0.07-0.31-0.17-0.42-0.29c-0.12-0.12-0.21-0.27-0.27-0.44c-0.07-0.17-0.1-0.35-0.1-0.55
			S93.91,116.87,93.98,116.71z M94.54,117.7c0.03,0.14,0.07,0.27,0.13,0.37c0.06,0.11,0.14,0.19,0.23,0.26
			c0.09,0.07,0.2,0.1,0.32,0.1c0.13,0,0.24-0.03,0.32-0.1c0.09-0.07,0.16-0.15,0.23-0.26c0.06-0.11,0.1-0.23,0.13-0.37
			c0.03-0.14,0.04-0.29,0.04-0.44c0-0.15-0.01-0.3-0.04-0.44c-0.03-0.14-0.07-0.27-0.13-0.37c-0.06-0.11-0.14-0.2-0.23-0.26
			c-0.09-0.07-0.2-0.1-0.32-0.1c-0.12,0-0.23,0.03-0.32,0.1c-0.09,0.07-0.16,0.15-0.23,0.26c-0.06,0.11-0.1,0.23-0.13,0.37
			c-0.03,0.14-0.04,0.29-0.04,0.44C94.49,117.41,94.51,117.56,94.54,117.7z M98.76,115.73c0.04,0,0.11-0.02,0.19-0.04l-3.09,6.06
			c-0.08-0.03-0.15-0.04-0.19-0.04c-0.05,0-0.12,0.01-0.2,0.04l3.09-6.06C98.64,115.71,98.71,115.73,98.76,115.73z M97.98,119.66
			c0.06-0.17,0.15-0.31,0.27-0.44c0.12-0.12,0.26-0.22,0.42-0.29c0.16-0.07,0.35-0.1,0.55-0.1c0.2,0,0.38,0.03,0.55,0.1
			c0.16,0.07,0.31,0.17,0.42,0.29c0.12,0.12,0.21,0.27,0.27,0.44c0.06,0.17,0.1,0.35,0.1,0.55c0,0.2-0.03,0.38-0.1,0.55
			c-0.06,0.17-0.15,0.31-0.27,0.43c-0.12,0.12-0.26,0.21-0.42,0.27c-0.17,0.06-0.35,0.09-0.55,0.09c-0.2,0-0.38-0.03-0.55-0.09
			c-0.17-0.06-0.31-0.15-0.42-0.27c-0.12-0.12-0.21-0.26-0.27-0.43c-0.06-0.17-0.1-0.35-0.1-0.55
			C97.89,120.01,97.92,119.82,97.98,119.66z M98.54,120.65c0.03,0.14,0.07,0.27,0.13,0.37c0.06,0.11,0.14,0.19,0.23,0.26
			c0.09,0.07,0.2,0.1,0.32,0.1c0.13,0,0.23-0.03,0.32-0.1c0.09-0.07,0.16-0.15,0.22-0.26c0.06-0.11,0.1-0.23,0.13-0.37
			c0.03-0.14,0.04-0.29,0.04-0.44s-0.02-0.3-0.04-0.44c-0.03-0.14-0.07-0.27-0.13-0.37c-0.06-0.11-0.14-0.19-0.22-0.26
			c-0.09-0.07-0.2-0.1-0.32-0.1c-0.12,0-0.23,0.03-0.32,0.1c-0.09,0.07-0.17,0.15-0.23,0.26c-0.06,0.11-0.11,0.23-0.13,0.37
			c-0.03,0.14-0.04,0.29-0.04,0.44S98.51,120.51,98.54,120.65z"/>
		<path class="st2" d="M108.29,121.46c-0.08-0.01-0.15-0.01-0.22-0.01c-0.07,0-0.15,0-0.22,0c-0.08,0-0.15,0-0.22,0
			c-0.07,0-0.14,0-0.22,0.01c-0.04-0.13-0.09-0.28-0.16-0.46c-0.07-0.18-0.14-0.37-0.22-0.56c-0.08-0.2-0.16-0.39-0.24-0.6
			c-0.08-0.2-0.16-0.39-0.23-0.58c-0.18,0-0.36-0.01-0.54-0.01c-0.18,0-0.37,0-0.55,0c-0.17,0-0.34,0-0.5,0
			c-0.17,0-0.34,0.01-0.51,0.01c-0.18,0.43-0.34,0.84-0.48,1.23c-0.14,0.39-0.25,0.71-0.32,0.97c-0.09-0.01-0.2-0.01-0.3-0.01
			c-0.11,0-0.22,0-0.31,0.01c0.45-0.97,0.88-1.93,1.31-2.88c0.43-0.96,0.85-1.93,1.29-2.92h0.16c0.13,0.32,0.28,0.67,0.43,1.04
			c0.15,0.37,0.31,0.75,0.47,1.13c0.16,0.38,0.32,0.76,0.48,1.14c0.16,0.38,0.31,0.73,0.45,1.05c0.14,0.32,0.27,0.61,0.38,0.87
			C108.13,121.14,108.22,121.33,108.29,121.46z M104.62,118.89c0.14,0,0.29,0,0.45,0.01c0.15,0.01,0.3,0.01,0.45,0.01
			c0.15,0,0.31,0,0.46,0c0.15,0,0.31-0.01,0.46-0.01l-0.92-2.11L104.62,118.89z"/>
		<path class="st2" d="M109.23,116.84c-0.01-0.35-0.03-0.71-0.04-1.07c0.16,0.01,0.32,0.02,0.47,0.03c0.15,0.01,0.31,0.01,0.47,0.01
			c0.16,0,0.32-0.01,0.47-0.02c0.15-0.01,0.31-0.02,0.47-0.02c0.23,0,0.45,0.02,0.66,0.07c0.21,0.04,0.39,0.12,0.55,0.22
			c0.16,0.1,0.28,0.24,0.37,0.4c0.09,0.17,0.14,0.37,0.14,0.62c0,0.27-0.06,0.49-0.18,0.68c-0.12,0.19-0.26,0.35-0.44,0.47
			c-0.17,0.12-0.35,0.22-0.55,0.29c-0.2,0.07-0.38,0.12-0.54,0.14c0.07,0.08,0.16,0.2,0.27,0.35c0.12,0.15,0.25,0.31,0.39,0.49
			c0.14,0.18,0.29,0.37,0.45,0.56c0.15,0.2,0.3,0.38,0.45,0.56c0.14,0.18,0.28,0.34,0.41,0.49c0.13,0.15,0.23,0.26,0.31,0.34
			c-0.08-0.01-0.17-0.01-0.25-0.01c-0.08,0-0.17,0-0.25,0c-0.08,0-0.16,0-0.24,0c-0.08,0-0.16,0-0.24,0.01
			c-0.08-0.11-0.21-0.29-0.38-0.52c-0.17-0.23-0.35-0.48-0.56-0.75c-0.2-0.27-0.41-0.53-0.63-0.79c-0.21-0.26-0.41-0.48-0.58-0.67
			h-0.32v0.6c0,0.37,0,0.73,0.02,1.08c0.01,0.35,0.03,0.7,0.05,1.04c-0.13-0.01-0.26-0.01-0.41-0.01c-0.14,0-0.28,0-0.41,0.01
			c0.02-0.34,0.03-0.69,0.04-1.04c0.01-0.35,0.02-0.71,0.02-1.08v-1.43C109.25,117.55,109.24,117.19,109.23,116.84z M110.18,118.42
			c0.09,0,0.19,0.01,0.3,0.01c0.17,0,0.35-0.02,0.53-0.06c0.19-0.04,0.35-0.11,0.51-0.2c0.15-0.09,0.28-0.23,0.38-0.39
			c0.1-0.16,0.15-0.37,0.15-0.62c0-0.22-0.04-0.39-0.12-0.53c-0.08-0.14-0.18-0.25-0.31-0.34c-0.13-0.08-0.27-0.14-0.42-0.17
			c-0.15-0.03-0.3-0.05-0.44-0.05c-0.19,0-0.35,0-0.48,0.01c-0.13,0.01-0.24,0.02-0.32,0.03c-0.01,0.3-0.02,0.61-0.03,0.9
			c-0.01,0.3-0.02,0.6-0.02,0.9v0.47C110,118.41,110.09,118.42,110.18,118.42z"/>
		<path class="st2" d="M116.83,116.7c0.15,0.37,0.31,0.75,0.47,1.13c0.16,0.38,0.32,0.76,0.48,1.14c0.16,0.38,0.31,0.73,0.45,1.05
			c0.14,0.32,0.27,0.61,0.38,0.87c0.11,0.25,0.2,0.45,0.28,0.58c-0.08-0.01-0.15-0.01-0.22-0.01c-0.07,0-0.14,0-0.22,0
			c-0.08,0-0.15,0-0.22,0c-0.07,0-0.14,0-0.22,0.01c-0.04-0.13-0.09-0.28-0.16-0.46c-0.07-0.18-0.14-0.37-0.22-0.56
			c-0.08-0.2-0.16-0.39-0.24-0.6c-0.08-0.2-0.16-0.39-0.23-0.58c-0.18,0-0.36-0.01-0.54-0.01c-0.18,0-0.37,0-0.55,0
			c-0.17,0-0.34,0-0.51,0c-0.17,0-0.33,0.01-0.51,0.01c-0.18,0.43-0.34,0.84-0.48,1.23c-0.14,0.39-0.25,0.71-0.32,0.97
			c-0.09-0.01-0.2-0.01-0.31-0.01c-0.11,0-0.21,0-0.31,0.01c0.45-0.97,0.88-1.93,1.31-2.88c0.43-0.96,0.86-1.93,1.29-2.92h0.16
			C116.53,115.98,116.67,116.33,116.83,116.7z M115.22,118.89c0.14,0,0.29,0,0.45,0.01c0.15,0.01,0.3,0.01,0.45,0.01
			c0.15,0,0.31,0,0.46,0c0.15,0,0.31-0.01,0.46-0.01l-0.92-2.11L115.22,118.89z M117.29,113.95c0.06,0,0.11,0.02,0.18,0.07
			c0.06,0.05,0.09,0.11,0.09,0.2c0,0.1-0.03,0.18-0.1,0.23c-0.07,0.06-0.13,0.11-0.2,0.15l-1.22,0.78h-0.35l1.22-1.23
			C117.05,114.02,117.18,113.95,117.29,113.95z"/>
		<path class="st2" d="M119.82,116.83c-0.01-0.35-0.03-0.71-0.05-1.06c0.15,0.01,0.29,0.02,0.44,0.03c0.15,0.01,0.29,0.01,0.44,0.01
			s0.29-0.01,0.44-0.02c0.15-0.01,0.3-0.02,0.44-0.02c0.24,0,0.46,0.02,0.67,0.05c0.21,0.04,0.4,0.1,0.56,0.19
			c0.16,0.09,0.28,0.21,0.38,0.37c0.09,0.15,0.14,0.35,0.14,0.58c0,0.41-0.13,0.73-0.39,0.96c-0.26,0.23-0.59,0.4-1.01,0.49v0.02
			c0.49,0.02,0.88,0.14,1.17,0.36c0.28,0.22,0.43,0.56,0.43,1.04c0,0.31-0.07,0.57-0.19,0.78c-0.13,0.21-0.29,0.38-0.5,0.51
			c-0.2,0.13-0.43,0.22-0.67,0.27c-0.25,0.05-0.49,0.08-0.73,0.08c-0.13,0-0.27,0-0.4-0.01c-0.13-0.01-0.27-0.01-0.4-0.01
			c-0.13,0-0.27,0-0.4,0c-0.13,0-0.27,0-0.4,0.01c0.02-0.35,0.03-0.7,0.05-1.06c0.02-0.35,0.02-0.71,0.02-1.07v-1.43
			C119.85,117.54,119.84,117.18,119.82,116.83z M121.55,118.26c0.19-0.04,0.36-0.1,0.51-0.19c0.15-0.09,0.27-0.21,0.36-0.37
			c0.09-0.15,0.13-0.34,0.13-0.58c0-0.23-0.04-0.41-0.12-0.54c-0.08-0.14-0.19-0.24-0.31-0.32c-0.13-0.07-0.27-0.12-0.43-0.15
			c-0.16-0.02-0.32-0.04-0.48-0.04c-0.14,0-0.27,0-0.37,0.01c-0.1,0.01-0.19,0.02-0.26,0.03c-0.01,0.27-0.02,0.53-0.03,0.79
			c-0.01,0.26-0.02,0.52-0.02,0.79v0.62h0.45C121.17,118.31,121.36,118.3,121.55,118.26z M120.54,120.31
			c0.01,0.28,0.02,0.55,0.03,0.83c0.1,0.01,0.23,0.02,0.37,0.03c0.14,0.01,0.29,0.01,0.44,0.01c0.18,0,0.35-0.03,0.51-0.09
			c0.16-0.06,0.3-0.15,0.43-0.27c0.12-0.12,0.22-0.27,0.29-0.44c0.07-0.17,0.11-0.37,0.11-0.6c0-0.24-0.04-0.43-0.13-0.58
			c-0.09-0.15-0.21-0.27-0.37-0.36c-0.16-0.09-0.35-0.15-0.58-0.18c-0.22-0.03-0.47-0.05-0.75-0.05h-0.37v0.84
			C120.53,119.75,120.53,120.03,120.54,120.31z"/>
		<path class="st2" d="M124.89,116.84c-0.01-0.35-0.03-0.71-0.05-1.07c0.07,0.01,0.14,0.02,0.21,0.03c0.07,0.01,0.13,0.01,0.2,0.01
			c0.07,0,0.13,0,0.2-0.01c0.07-0.01,0.14-0.02,0.21-0.03c-0.02,0.37-0.03,0.72-0.04,1.07c-0.02,0.35-0.02,0.71-0.02,1.07v1.43
			c0,0.37,0.01,0.73,0.02,1.08c0.01,0.35,0.03,0.7,0.04,1.04c-0.13-0.01-0.26-0.01-0.41-0.01c-0.14,0-0.28,0-0.41,0.01
			c0.02-0.34,0.03-0.69,0.05-1.04c0.02-0.35,0.02-0.71,0.02-1.08v-1.43C124.91,117.55,124.91,117.19,124.89,116.84z"/>
		<path class="st2" d="M131.27,121.27c-0.11,0.05-0.24,0.1-0.39,0.14c-0.15,0.04-0.32,0.08-0.51,0.11
			c-0.19,0.03-0.38,0.05-0.59,0.05c-0.44,0-0.84-0.06-1.21-0.19c-0.37-0.13-0.69-0.31-0.96-0.57c-0.27-0.25-0.48-0.57-0.63-0.93
			c-0.15-0.37-0.23-0.79-0.23-1.26c0-0.47,0.08-0.89,0.23-1.26c0.15-0.37,0.37-0.68,0.64-0.93c0.27-0.25,0.6-0.45,0.98-0.58
			c0.38-0.13,0.8-0.2,1.26-0.2c0.36,0,0.7,0.04,1,0.11c0.3,0.07,0.57,0.16,0.8,0.27c-0.04,0.08-0.08,0.18-0.11,0.32
			c-0.03,0.13-0.05,0.24-0.07,0.33l-0.05,0.02c-0.06-0.07-0.13-0.14-0.23-0.22c-0.1-0.08-0.22-0.16-0.35-0.24
			c-0.13-0.08-0.28-0.14-0.45-0.19c-0.17-0.05-0.35-0.08-0.55-0.08c-0.33,0-0.63,0.05-0.91,0.16c-0.28,0.1-0.52,0.27-0.73,0.48
			c-0.21,0.22-0.37,0.5-0.49,0.83c-0.12,0.33-0.17,0.73-0.17,1.19c0,0.46,0.06,0.85,0.17,1.19c0.12,0.33,0.28,0.61,0.49,0.83
			c0.21,0.22,0.45,0.38,0.73,0.48c0.28,0.1,0.58,0.16,0.91,0.16c0.2,0,0.38-0.03,0.55-0.08c0.17-0.05,0.33-0.11,0.46-0.18
			c0.14-0.07,0.27-0.15,0.38-0.23c0.11-0.08,0.21-0.15,0.29-0.21l0.03,0.03l-0.07,0.49C131.45,121.17,131.37,121.22,131.27,121.27z"
			/>
		<path class="st2" d="M136.95,121.46c-0.08-0.01-0.15-0.01-0.22-0.01c-0.07,0-0.14,0-0.22,0c-0.08,0-0.15,0-0.22,0
			c-0.07,0-0.14,0-0.22,0.01c-0.04-0.13-0.09-0.28-0.16-0.46c-0.07-0.18-0.14-0.37-0.22-0.56c-0.08-0.2-0.16-0.39-0.25-0.6
			c-0.08-0.2-0.16-0.39-0.23-0.58c-0.18,0-0.36-0.01-0.54-0.01c-0.18,0-0.37,0-0.55,0c-0.17,0-0.34,0-0.5,0
			c-0.17,0-0.34,0.01-0.51,0.01c-0.18,0.43-0.34,0.84-0.48,1.23c-0.14,0.39-0.25,0.71-0.32,0.97c-0.09-0.01-0.2-0.01-0.31-0.01
			c-0.11,0-0.21,0-0.31,0.01c0.45-0.97,0.89-1.93,1.31-2.88c0.43-0.96,0.86-1.93,1.29-2.92h0.16c0.14,0.32,0.28,0.67,0.43,1.04
			c0.15,0.37,0.31,0.75,0.47,1.13c0.16,0.38,0.32,0.76,0.48,1.14c0.16,0.38,0.31,0.73,0.45,1.05c0.14,0.32,0.27,0.61,0.38,0.87
			C136.79,121.14,136.88,121.33,136.95,121.46z M133.28,118.89c0.14,0,0.29,0,0.45,0.01c0.16,0.01,0.31,0.01,0.45,0.01
			c0.16,0,0.31,0,0.47,0c0.16,0,0.31-0.01,0.46-0.01l-0.92-2.11L133.28,118.89z"/>
	</g>
	<path class="st3" d="M139.49,63.53c0,0,6.66-3.64,15.79-2.28c0,0,2.93,0.47,4.63,1.54c-3.54,0.88-9.15,3.16-11.44,7.25
		c4.92,1.02,7.58,3.24,8.84,4.5c1.3,1.31,2.54,3.1,3.01,4.23c-11.38-2.08-17.16,0.61-22.92,5.7c-1.28,1.13-2.03,1.82-2.8,0.47
		c-0.77-1.35-5.19-9.63-5.19-9.63s-4.77-0.72-10.07,0.25c-5.3,0.96-10.13,3.78-12.64,4.64c-2.51,0.86-9.19,3.12-15.62,1.88
		c-6.43-1.24-9.2-2.83-9.59-3.57c0,0-0.03-1.02-0.02-1.9c-2.47,1.34-10.65,8.51-12.08,9.5c-0.05-1.72,0.1-3.85,0.61-6.35
		c0.54-2.66,1.95-6.07,4.84-8.7c0,0-0.85-1.32-6.58-1.29c-2.15,0.01-3.41-0.12-5.85,0.09c0,0,1.37-1.29,2.92-2.47
		c1.3-0.99,8.15-5.6,13.28-7.95c5.52-2.52,12.51-4.39,18.03-1.35c0,0,1,0.6,0.38,1.98c-0.52,1.15-2.57,5.83-2.57,5.83
		s3.56,0.26,9.12-1.66c5.69-1.97,12.16-5.77,20.34-5.53c0,0,6.57-0.05,13.55,1.91c0,0,1.98,0.38,2.02,1.43
		C139.48,62.93,139.49,63.53,139.49,63.53z"/>
	<path class="st4" d="M82.19,63.27l0.32,14.47c0,0,4.19,3.06,11.2,3.31c7.01,0.25,10.51-1.34,13.84-2.71
		c3.87-1.6,8.98-5.18,20.43-4.51c0,0,4.76,0.18,10.71,3.49L138.18,62c0,0-9.23-3.77-19.97-1.83c0,0-4.37,0.88-10.07,3.27
		c-5.7,2.4-9.86,3.7-14.62,3.35C93.53,66.79,86.52,66.65,82.19,63.27z"/>
	<path class="st5" d="M95,61.51l-2.01,4.2c0,0-4-0.11-7.96-2.1l-2.78-1.68c0,0,0.17-1.64,2.89-0.61
		C87.85,62.34,92.55,63.35,95,61.51z"/>
	<path class="st5" d="M131.08,75.58l2.85,5.63c0,0,0.25-1.63,1.44-1.49c1.19,0.13,3.53,0.87,3.28-1.16
		C138.64,78.56,134.94,76.16,131.08,75.58z"/>
	<path class="st6" d="M65.18,68.81c2.7-0.25,10.1-0.26,10.87,2.25c0,0-3.61,3.24-4.73,7.5c-0.71,2.72-0.98,5.5-0.98,5.5
		s6.9-5.92,11.12-8.86l-0.17-13.8c0,0,0.55-2.04,3.49-1.06c2.94,0.98,9.24,2.63,10.51-0.83c0.1-0.29,0.61-0.87-1.69-1.6
		c-2.3-0.72-8.23-1.08-15.63,2.85C70.54,64.71,67.56,67.03,65.18,68.81z"/>
	<path class="st4" d="M83.96,59.25c0.35,0.05,0.71,0.12,1.09,0.25c5.44,1.81,8.51,1.71,9.42-0.29c-0.17-0.11-0.49-0.28-1.14-0.48
		C91.72,58.23,88.33,57.99,83.96,59.25z M78.37,61.53L78.37,61.53c-4.27,2.26-6.7,3.91-8.65,5.24c-0.58,0.39-1.09,0.73-1.6,1.06
		c0.28,0.03,1.36,0.08,1.36,0.08c2.29,0.04,6.55,0.11,7.4,2.9l0.15,0.51l-0.38,0.37c-0.04,0.04-3.45,3.21-4.49,7.06
		c-0.37,1.38-0.48,2.32-0.63,3.15c2.24-1.88,6.13-5.08,9.04-7.15c-0.01-0.85-0.17-13.47-0.17-13.47l0.03-0.12
		c0.02-0.06,0.15-0.42,0.44-0.82C80.07,60.69,79.23,61.07,78.37,61.53z"/>
	<path class="st6" d="M139.42,64.55l0.39,14.41c0,0-0.28,1.73-1.93,1.97c-1.65,0.24-2.99-0.51-3.11,1.34l1.1,1.85
		c0,0,5-5,10.43-6.34c4.47-1.1,8.58-1.08,11.98-0.47c0,0-4.17-5.95-11.73-6.42c0,0,3.03-6.62,10.16-8.19
		C156.71,62.7,150.01,60.34,139.42,64.55z"/>
	<path class="st4" d="M140.31,65.15c0.03,1.14,0.36,13.98,0.35,14c1.66-1.03,3.62-1.81,5.6-2.35c3.67-0.98,7.42-0.9,9.77-0.69
		c-1.77-1.69-5.03-4.07-9.54-4.35l-1.27-0.08l0.53-1.15c0.11-0.24,2.38-5.03,7.52-7.53C150.5,62.78,146.01,62.99,140.31,65.15z
		 M136.53,81.79c-0.3-0.01-0.66-0.11-0.76-0.05c-0.13,0.08-0.15,0.21-0.08,0.34c0.09,0.15,0.19,0.32,0.38,0.63
		c0.27-0.25,0.79-0.64,1.17-0.98C136.94,81.81,136.53,81.79,136.53,81.79z"/>
	<path class="st7" d="M135.73,81.89"/>
	<g>
		<path class="st0" d="M88.83,69.47c-0.39-0.04-0.72,0.02-0.96,0.2c-0.24,0.18-0.36,0.42-0.36,0.71c0.01,0.3,0.11,0.56,0.31,0.78
			c0.2,0.22,0.44,0.42,0.74,0.61c0.29,0.19,0.61,0.37,0.95,0.54c0.34,0.17,0.65,0.37,0.95,0.59c0.3,0.22,0.54,0.48,0.74,0.79
			c0.2,0.3,0.3,0.68,0.31,1.14c0,0.4-0.07,0.77-0.23,1.1c-0.16,0.33-0.38,0.61-0.68,0.83c-0.29,0.22-0.64,0.38-1.05,0.47
			c-0.41,0.09-0.87,0.1-1.37,0.04c-0.46-0.06-0.86-0.17-1.22-0.33c-0.36-0.16-0.64-0.33-0.83-0.5c0.08-0.27,0.14-0.51,0.2-0.73
			c0.05-0.22,0.1-0.47,0.13-0.74c0.08,0.02,0.16,0.03,0.24,0.04c0.04,0.19,0.11,0.37,0.2,0.54c0.1,0.17,0.22,0.33,0.37,0.48
			c0.14,0.15,0.32,0.27,0.53,0.37c0.2,0.1,0.43,0.16,0.69,0.19c0.51,0.06,0.88-0.02,1.12-0.25c0.24-0.22,0.35-0.5,0.35-0.84
			c-0.01-0.31-0.1-0.56-0.29-0.77c-0.19-0.21-0.43-0.4-0.71-0.58c-0.28-0.18-0.59-0.36-0.93-0.55c-0.34-0.19-0.65-0.41-0.93-0.66
			c-0.28-0.25-0.53-0.54-0.72-0.88c-0.2-0.33-0.3-0.73-0.31-1.2c-0.01-0.42,0.06-0.78,0.21-1.07c0.15-0.29,0.36-0.52,0.62-0.69
			c0.26-0.17,0.56-0.29,0.91-0.35c0.35-0.06,0.71-0.07,1.1-0.03c0.46,0.05,0.87,0.14,1.22,0.27c0.35,0.13,0.65,0.29,0.91,0.49
			c-0.07,0.18-0.14,0.36-0.19,0.53c-0.05,0.17-0.12,0.39-0.2,0.65l-0.19-0.01C90.12,69.94,89.6,69.56,88.83,69.47z"/>
		<path class="st0" d="M92.86,71.29c-0.02-0.51-0.05-1.03-0.09-1.54c0.36,0,0.72,0,1.08,0c0.35,0,0.72-0.02,1.08-0.04
			c0.6-0.04,1.13-0.1,1.59-0.17c0.46-0.07,0.78-0.12,0.94-0.16c-0.03,0.13-0.05,0.3-0.05,0.51c0,0.13,0.01,0.23,0.01,0.3
			c0.01,0.07,0.02,0.15,0.04,0.23c-0.24,0.02-0.49,0.03-0.77,0.05c-0.28,0.02-0.55,0.03-0.81,0.04c-0.26,0.01-0.5,0.02-0.71,0.03
			c-0.21,0.01-0.36,0.02-0.45,0.02c-0.03,0.44-0.04,0.87-0.04,1.3c0,0.43,0,0.86,0.01,1.3c0.52-0.05,0.99-0.1,1.41-0.16
			c0.42-0.06,0.86-0.13,1.32-0.22c-0.02,0.14-0.04,0.24-0.05,0.32c-0.01,0.07-0.01,0.15-0.01,0.23l0.02,0.2
			c0.01,0.06,0.03,0.16,0.05,0.28c-0.91,0.05-1.82,0.12-2.73,0.18c0,0.26,0.01,0.51,0.01,0.76c0,0.26,0,0.51,0,0.76
			c0.01,0.52,0.02,1.01,0.05,1.49c0.45-0.03,0.9-0.09,1.36-0.16c0.45-0.07,0.91-0.17,1.37-0.29c-0.02,0.09-0.03,0.17-0.04,0.24
			c-0.01,0.07-0.01,0.17-0.01,0.3c0,0.13,0,0.23,0.01,0.3c0.01,0.07,0.02,0.13,0.04,0.17c-0.21,0.02-0.48,0.05-0.79,0.09
			c-0.31,0.03-0.75,0.08-1.29,0.13c-0.48,0.04-0.88,0.07-1.18,0.09c-0.29,0.02-0.53,0.03-0.71,0.03c-0.18,0.01-0.31,0.01-0.4,0.02
			c-0.09,0-0.17,0.01-0.23,0.02c0.02-0.49,0.03-1,0.04-1.51c0-0.51,0-1.1-0.01-1.76c-0.01-0.54-0.02-1.08-0.03-1.62
			C92.9,72.39,92.88,71.8,92.86,71.29z"/>
		<path class="st0" d="M99.26,70.78c-0.03-0.51-0.07-1.02-0.12-1.53c0.14-0.01,0.29-0.03,0.45-0.05c0.16-0.02,0.34-0.05,0.55-0.09
			c0.2-0.04,0.38-0.09,0.54-0.13c0.16-0.05,0.31-0.1,0.45-0.14c-0.02,0.52-0.03,1.04-0.04,1.56c-0.01,0.52,0,1.1,0.02,1.76
			c0.01,0.54,0.02,1.08,0.03,1.62c0.01,0.45,0.02,0.89,0.03,1.31c0.01,0.42,0.03,0.78,0.04,1.09c0.45-0.1,0.9-0.22,1.35-0.36
			c0.45-0.14,0.91-0.29,1.37-0.47c-0.02,0.09-0.03,0.17-0.03,0.25c0,0.07-0.01,0.17-0.01,0.3c0,0.12,0.01,0.22,0.02,0.3
			c0.01,0.07,0.02,0.12,0.04,0.17c-0.21,0.05-0.48,0.11-0.79,0.19c-0.31,0.08-0.74,0.18-1.29,0.31c-0.48,0.11-0.87,0.2-1.17,0.27
			c-0.29,0.06-0.53,0.11-0.71,0.15c-0.18,0.04-0.31,0.07-0.4,0.09c-0.09,0.02-0.17,0.04-0.23,0.06c0.02-0.5,0.03-1.01,0.03-1.52
			c0-0.51-0.01-1.1-0.02-1.76c-0.01-0.54-0.03-1.08-0.04-1.62C99.31,71.88,99.29,71.29,99.26,70.78z"/>
		<path class="st0" d="M105.05,69.05c-0.02-0.51-0.05-1.02-0.08-1.53c0.36-0.09,0.72-0.18,1.08-0.27c0.35-0.08,0.72-0.18,1.08-0.29
			c0.6-0.17,1.13-0.34,1.59-0.49c0.46-0.15,0.78-0.26,0.94-0.32c-0.03,0.14-0.05,0.31-0.05,0.52c0,0.13,0,0.23,0.01,0.3
			c0.01,0.07,0.02,0.15,0.04,0.23c-0.23,0.05-0.49,0.11-0.77,0.18c-0.28,0.07-0.55,0.13-0.81,0.19c-0.26,0.06-0.5,0.12-0.71,0.17
			c-0.21,0.05-0.36,0.09-0.45,0.12c-0.03,0.45-0.04,0.89-0.04,1.32c0,0.43,0,0.87,0,1.31c0.52-0.16,0.99-0.31,1.41-0.45
			c0.42-0.14,0.86-0.29,1.31-0.45c-0.02,0.15-0.04,0.25-0.05,0.32c-0.01,0.08-0.01,0.15-0.01,0.23l0.02,0.19
			c0.01,0.06,0.03,0.16,0.04,0.28c-0.91,0.2-1.82,0.44-2.72,0.7c0,0.25,0,0.51,0,0.77c0,0.26,0,0.51,0,0.77
			c0,0.52,0.02,1.01,0.05,1.48c0.45-0.13,0.9-0.27,1.36-0.43c0.45-0.16,0.91-0.33,1.37-0.53c-0.01,0.09-0.03,0.18-0.04,0.25
			c-0.01,0.08-0.01,0.18-0.01,0.3c0,0.13,0,0.23,0.01,0.3c0.01,0.07,0.02,0.13,0.04,0.17c-0.21,0.06-0.48,0.13-0.79,0.22
			c-0.31,0.09-0.74,0.22-1.29,0.38c-0.48,0.14-0.87,0.25-1.17,0.34c-0.29,0.08-0.53,0.15-0.71,0.2c-0.18,0.05-0.31,0.09-0.4,0.12
			c-0.09,0.03-0.17,0.06-0.23,0.08c0.02-0.5,0.04-1.01,0.04-1.53c0.01-0.52,0.01-1.11,0-1.77c-0.01-0.54-0.01-1.08-0.02-1.62
			C105.08,70.15,105.07,69.56,105.05,69.05z"/>
		<path class="st0" d="M117.59,71.19c-0.05,0.19-0.09,0.36-0.11,0.54c-0.65,0.49-1.46,0.87-2.43,1.14c-0.69,0.19-1.3,0.27-1.84,0.23
			c-0.54-0.04-1-0.18-1.37-0.42c-0.38-0.24-0.66-0.58-0.86-1.01c-0.2-0.43-0.29-0.93-0.29-1.49c0-0.83,0.13-1.57,0.4-2.23
			c0.26-0.66,0.61-1.23,1.06-1.72c0.44-0.49,0.96-0.91,1.54-1.25c0.58-0.34,1.19-0.59,1.83-0.77c0.21-0.06,0.43-0.1,0.67-0.13
			c0.23-0.03,0.46-0.05,0.67-0.05c0.22,0,0.42,0.01,0.62,0.03c0.2,0.02,0.36,0.06,0.5,0.1c-0.09,0.22-0.15,0.44-0.2,0.65
			c-0.05,0.21-0.08,0.43-0.1,0.64l-0.17,0.04c-0.3-0.31-0.61-0.5-0.93-0.58c-0.32-0.08-0.7-0.06-1.13,0.06
			c-0.32,0.09-0.65,0.25-0.98,0.49c-0.33,0.24-0.63,0.54-0.89,0.92c-0.27,0.37-0.49,0.81-0.65,1.32c-0.17,0.51-0.26,1.08-0.26,1.72
			c0,0.62,0.07,1.12,0.24,1.5c0.17,0.39,0.38,0.68,0.64,0.88c0.26,0.2,0.57,0.31,0.9,0.35c0.34,0.03,0.67,0,1.01-0.09
			c0.19-0.05,0.38-0.13,0.58-0.23c0.2-0.1,0.39-0.21,0.58-0.34c0.19-0.13,0.37-0.27,0.55-0.42c0.17-0.15,0.32-0.32,0.45-0.49
			l0.15,0.06C117.69,70.83,117.64,71.01,117.59,71.19z"/>
		<path class="st0" d="M120.8,64.54c0.01-0.19,0-0.33-0.01-0.41c-0.12,0.02-0.27,0.05-0.45,0.09c-0.18,0.04-0.37,0.09-0.57,0.14
			c-0.2,0.05-0.41,0.11-0.62,0.18c-0.21,0.06-0.41,0.13-0.59,0.19c0.02-0.09,0.04-0.18,0.06-0.28c0.02-0.09,0.03-0.18,0.03-0.27
			c0-0.09,0-0.18-0.01-0.26c-0.01-0.08-0.02-0.17-0.03-0.25c0.27-0.05,0.52-0.1,0.75-0.14c0.22-0.04,0.45-0.08,0.68-0.12
			c0.23-0.04,0.48-0.08,0.75-0.13c0.27-0.05,0.6-0.1,0.98-0.16c0.38-0.06,0.71-0.11,0.98-0.16c0.27-0.04,0.52-0.08,0.75-0.11
			c0.23-0.03,0.45-0.07,0.66-0.1c0.21-0.03,0.45-0.06,0.7-0.1c-0.02,0.09-0.04,0.18-0.06,0.27c-0.02,0.09-0.03,0.18-0.03,0.27
			c-0.01,0.09,0,0.18,0,0.26c0.01,0.09,0.02,0.17,0.03,0.26c-0.16-0.01-0.34-0.01-0.54-0.01c-0.2,0-0.4,0.01-0.6,0.02
			c-0.2,0.01-0.39,0.03-0.56,0.04c-0.18,0.02-0.33,0.03-0.45,0.05c-0.01,0.04-0.02,0.1-0.03,0.17c-0.01,0.07-0.01,0.16-0.02,0.25
			c-0.01,0.21-0.02,0.42-0.03,0.64c-0.05,1-0.1,2.01-0.16,3.01c-0.03,0.67-0.06,1.26-0.07,1.77c-0.01,0.51-0.01,1.02-0.01,1.51
			c-0.14,0-0.28,0.02-0.44,0.04c-0.16,0.03-0.34,0.05-0.54,0.09c-0.2,0.03-0.38,0.06-0.54,0.09c-0.16,0.03-0.31,0.06-0.44,0.1
			c0.05-0.5,0.1-1.01,0.14-1.53c0.04-0.52,0.08-1.11,0.11-1.78c0.05-1,0.1-2.01,0.14-3.01C120.78,64.95,120.79,64.73,120.8,64.54z"
			/>
		<path class="st0" d="M125.02,65.48c0.26-0.54,0.6-1.01,1.04-1.42c0.43-0.41,0.94-0.74,1.53-0.96c0.59-0.23,1.24-0.32,1.94-0.28
			c0.64,0.04,1.23,0.18,1.78,0.42c0.54,0.24,1,0.58,1.37,1c0.38,0.42,0.66,0.93,0.85,1.52c0.19,0.59,0.25,1.24,0.18,1.95
			c-0.06,0.59-0.22,1.13-0.49,1.6c-0.27,0.47-0.63,0.86-1.06,1.18c-0.43,0.32-0.94,0.55-1.5,0.7c-0.57,0.15-1.19,0.21-1.85,0.18
			c-0.62-0.03-1.2-0.12-1.74-0.27c-0.54-0.15-1-0.39-1.39-0.72c-0.38-0.33-0.67-0.75-0.87-1.28c-0.2-0.52-0.28-1.16-0.23-1.91
			C124.62,66.58,124.77,66.01,125.02,65.48z M131.7,65.67c-0.09-0.43-0.24-0.8-0.44-1.12c-0.2-0.32-0.46-0.57-0.77-0.75
			c-0.31-0.19-0.66-0.29-1.05-0.31c-0.41-0.02-0.79,0.06-1.13,0.25c-0.34,0.19-0.64,0.45-0.89,0.79c-0.25,0.34-0.45,0.74-0.6,1.19
			c-0.15,0.46-0.24,0.94-0.28,1.45c-0.05,0.64-0.02,1.18,0.08,1.62c0.11,0.44,0.26,0.79,0.47,1.05c0.21,0.27,0.46,0.46,0.75,0.59
			c0.29,0.13,0.6,0.19,0.93,0.21c0.36,0.02,0.7-0.04,1.04-0.16c0.34-0.13,0.64-0.33,0.91-0.61c0.27-0.28,0.49-0.65,0.68-1.11
			c0.19-0.46,0.31-1.01,0.37-1.67C131.82,66.57,131.8,66.1,131.7,65.67z"/>
	</g>
	<g>
		<path class="st0" d="M96.69,112c-0.21,0.1-0.46,0.19-0.75,0.27c-0.29,0.08-0.62,0.15-0.98,0.21c-0.36,0.06-0.74,0.09-1.13,0.09
			c-0.84,0-1.61-0.12-2.32-0.36c-0.71-0.24-1.32-0.6-1.83-1.09c-0.51-0.48-0.92-1.08-1.21-1.78c-0.29-0.7-0.44-1.51-0.44-2.41
			s0.15-1.7,0.44-2.41c0.29-0.7,0.7-1.3,1.22-1.79c0.52-0.49,1.15-0.86,1.88-1.11c0.73-0.25,1.54-0.38,2.41-0.38
			c0.7,0,1.34,0.07,1.91,0.22c0.58,0.14,1.09,0.31,1.53,0.52c-0.09,0.15-0.15,0.35-0.21,0.6c-0.05,0.25-0.09,0.47-0.13,0.63
			l-0.1,0.03c-0.11-0.13-0.25-0.27-0.44-0.43c-0.19-0.16-0.41-0.31-0.67-0.46c-0.25-0.15-0.54-0.27-0.86-0.37
			c-0.32-0.1-0.67-0.15-1.05-0.15c-0.62,0-1.2,0.1-1.74,0.3c-0.53,0.2-1,0.51-1.4,0.93c-0.4,0.42-0.71,0.95-0.93,1.59
			c-0.22,0.64-0.33,1.4-0.33,2.28c0,0.88,0.11,1.64,0.33,2.28c0.22,0.64,0.53,1.17,0.93,1.59c0.4,0.42,0.86,0.73,1.4,0.93
			c0.53,0.2,1.11,0.3,1.74,0.3c0.38,0,0.73-0.05,1.06-0.14c0.32-0.1,0.62-0.21,0.89-0.34c0.27-0.13,0.51-0.28,0.73-0.43
			c0.22-0.15,0.4-0.29,0.55-0.4l0.06,0.06l-0.14,0.94C97.05,111.81,96.9,111.9,96.69,112z"/>
		<path class="st0" d="M108.23,112.37c-0.15-0.02-0.29-0.03-0.42-0.03c-0.13,0-0.27,0-0.42,0c-0.15,0-0.29,0-0.42,0
			c-0.13,0-0.27,0.01-0.42,0.03c-0.08-0.24-0.18-0.54-0.3-0.88c-0.13-0.34-0.27-0.7-0.42-1.08c-0.15-0.38-0.31-0.76-0.47-1.14
			c-0.16-0.39-0.31-0.76-0.44-1.1c-0.34-0.01-0.68-0.02-1.03-0.02c-0.35,0-0.7-0.01-1.05-0.01c-0.33,0-0.65,0-0.97,0.01
			c-0.32,0-0.64,0.01-0.97,0.02c-0.34,0.83-0.65,1.61-0.92,2.36c-0.28,0.75-0.48,1.36-0.62,1.85c-0.18-0.02-0.38-0.03-0.59-0.03
			c-0.21,0-0.41,0.01-0.59,0.03c0.86-1.85,1.69-3.69,2.51-5.52c0.82-1.83,1.64-3.7,2.46-5.59h0.3c0.25,0.61,0.53,1.28,0.83,1.99
			c0.29,0.71,0.6,1.44,0.9,2.17c0.31,0.73,0.61,1.45,0.92,2.18c0.31,0.72,0.6,1.39,0.87,2.01c0.27,0.62,0.51,1.17,0.73,1.66
			C107.91,111.75,108.09,112.12,108.23,112.37z M101.19,107.43c0.27,0,0.56,0.01,0.86,0.02c0.3,0.01,0.58,0.02,0.86,0.02
			c0.3,0,0.59,0,0.89-0.01c0.3,0,0.59-0.01,0.89-0.02l-1.76-4.03L101.19,107.43z"/>
		<path class="st0" d="M110.66,103.52c-0.03-0.67-0.06-1.36-0.09-2.06c0.48,0.02,0.95,0.04,1.42,0.06c0.47,0.02,0.95,0.02,1.42,0.02
			c0.48,0,0.96-0.01,1.44-0.02c0.49-0.02,1.02-0.03,1.59-0.06c-0.03,0.16-0.05,0.32-0.05,0.48c0,0.16,0.02,0.32,0.05,0.48
			c-0.29-0.03-0.63-0.06-1.03-0.09c-0.4-0.03-0.81-0.05-1.23-0.06c-0.42-0.02-0.82-0.03-1.21-0.04c-0.39-0.01-0.7-0.02-0.96-0.02
			c-0.01,0.37-0.02,0.73-0.03,1.06c0,0.34-0.01,0.68-0.01,1.02c0,0.37,0,0.71,0.01,1.02c0.01,0.31,0.01,0.64,0.01,0.98
			c0.7,0,1.39-0.01,2.07-0.03c0.68-0.02,1.36-0.06,2.02-0.13c-0.04,0.16-0.06,0.32-0.06,0.47c0,0.16,0.02,0.32,0.06,0.48
			c-0.26-0.03-0.56-0.06-0.9-0.07c-0.33-0.02-0.68-0.03-1.04-0.04c-0.36-0.01-0.73-0.02-1.09-0.02c-0.37,0-0.73,0-1.06,0v1.35
			c0,0.7,0.01,1.39,0.04,2.06c0.03,0.68,0.06,1.35,0.09,2c-0.24-0.02-0.5-0.03-0.78-0.03c-0.28,0-0.53,0.01-0.78,0.03
			c0.03-0.66,0.06-1.32,0.09-2c0.03-0.68,0.04-1.36,0.04-2.06v-2.73C110.7,104.88,110.69,104.19,110.66,103.52z"/>
		<path class="st0" d="M119.25,103.5c-0.03-0.68-0.06-1.36-0.09-2.03c0.48,0.02,0.95,0.04,1.42,0.06c0.47,0.02,0.95,0.02,1.42,0.02
			c0.48,0,0.95-0.01,1.41-0.02c0.47-0.02,0.94-0.03,1.41-0.06c-0.03,0.16-0.05,0.32-0.05,0.48c0,0.16,0.02,0.32,0.05,0.48
			c-0.34-0.02-0.65-0.04-0.93-0.06c-0.28-0.02-0.58-0.04-0.89-0.07c-0.31-0.02-0.65-0.04-1.02-0.05c-0.37-0.02-0.82-0.02-1.33-0.02
			c-0.01,0.34-0.03,0.66-0.04,0.97c-0.02,0.31-0.03,0.65-0.03,1.05c0,0.41,0,0.82,0.01,1.21c0,0.39,0.01,0.69,0.01,0.89
			c0.47,0,0.88,0,1.25-0.02c0.37-0.01,0.71-0.02,1.02-0.04c0.31-0.02,0.59-0.03,0.85-0.05c0.26-0.02,0.51-0.04,0.74-0.06
			c-0.03,0.16-0.05,0.32-0.05,0.49c0,0.16,0.02,0.32,0.05,0.48c-0.27-0.03-0.6-0.06-0.96-0.08c-0.36-0.02-0.73-0.03-1.09-0.04
			c-0.37,0-0.71-0.01-1.03-0.02c-0.32-0.01-0.58-0.01-0.77-0.01c0,0.09,0,0.2-0.01,0.31c-0.01,0.11-0.01,0.25-0.01,0.42v0.62v0.95
			c0,0.6,0,1.1,0.01,1.49c0,0.39,0.01,0.69,0.02,0.89c0.35,0,0.72,0,1.11,0c0.4,0,0.8-0.01,1.18-0.02c0.39-0.02,0.75-0.04,1.1-0.06
			c0.34-0.03,0.64-0.07,0.9-0.12c-0.02,0.07-0.04,0.16-0.04,0.25c-0.01,0.09-0.01,0.17-0.01,0.24c0,0.17,0.02,0.31,0.05,0.41
			c-0.48-0.02-0.95-0.03-1.42-0.03c-0.47,0-0.95,0-1.44,0c-0.49,0-0.97,0-1.45,0c-0.48,0-0.96,0.01-1.44,0.03
			c0.03-0.68,0.06-1.35,0.09-2.02c0.03-0.67,0.04-1.36,0.04-2.06v-2.73C119.29,104.86,119.28,104.17,119.25,103.5z M123.93,97.99
			c0.11,0,0.22,0.04,0.34,0.13c0.12,0.08,0.18,0.21,0.18,0.38c0,0.19-0.06,0.34-0.19,0.45c-0.13,0.11-0.25,0.21-0.38,0.29
			l-2.33,1.49h-0.67l2.33-2.36C123.47,98.11,123.71,97.99,123.93,97.99z"/>
	</g>
</g>
</svg>
