<?xml version="1.0" encoding="utf-8"?>
<!-- Generator: Adobe Illustrator 26.0.1, SVG Export Plug-In . SVG Version: 6.00 Build 0)  -->
<svg version="1.1" id="Layer_1" xmlns="http://www.w3.org/2000/svg" xmlns:xlink="http://www.w3.org/1999/xlink" x="0px" y="0px"
	 viewBox="0 0 215 215" style="enable-background:new 0 0 215 215;" xml:space="preserve">
<style type="text/css">
	.st0{fill:#857225;}
	.st1{fill:#FFFFFF;}
</style>
<g>
	<path class="st0" d="M76.74,126.73c8.79,0,16-2.93,26.84-16.34c10.84-13.42,14.97-23.23,28.39-30.28
		c7.56-3.97,14.78-3.51,19.31-2.52c-10-12.25-26.02-20.18-44.09-20.18c-30.31,0-54.88,22.34-54.88,49.89
		c0,4.04,0.54,7.96,1.54,11.72C58.59,121.54,67.54,126.73,76.74,126.73"/>
	<path class="st0" d="M137.67,87.96c-8.75,0.79-15.97,3.09-26.67,16.62c-10.7,13.53-14.73,23.38-28.07,30.57
		c-7.52,4.05-14.75,3.66-19.29,2.72c10.13,12.14,26.23,19.92,44.3,19.73c30.31-0.31,54.65-22.9,54.37-50.45
		c-0.04-4.04-0.62-7.95-1.66-11.7C155.87,92.96,146.29,87.18,137.67,87.96"/>
	<path class="st1" d="M28.42,111.47c0.4,0,1.85,0.03,4.36,0.1c1.85-0.07,2.98-0.1,3.39-0.1l-0.09,0.49
		c-0.54,0.03-1.25,0.13-2.13,0.29c-0.04,0.13-0.09,1.05-0.15,2.79c0.06,2.2,0.09,3.38,0.09,3.54c-2.46,0.55-4.61,0.82-6.46,0.82
		c-1.88,0-3.52-0.24-4.92-0.72c-1.4-0.48-2.54-1.13-3.44-1.95c-0.89-0.82-1.55-1.73-1.97-2.73c-0.42-1-0.64-2.04-0.65-3.12
		c0-1.07,0.2-2.15,0.62-3.23c0.41-1.08,1.05-2.08,1.93-2.98c0.88-0.91,2.04-1.64,3.47-2.19c1.44-0.55,3.14-0.83,5.09-0.83
		c1.58,0,3.34,0.19,5.28,0.58c0.29-1.38,0.44-2.12,0.44-2.22l0.56-0.15c-0.04,0.18-0.1,1.01-0.19,2.47
		c-0.09,1.46-0.14,2.76-0.17,3.87c0.03,0.28,0.05,0.66,0.05,1.14l-0.58-0.29c0-0.14-0.03-0.47-0.1-1.02
		c-0.07-0.55-0.12-0.93-0.17-1.16c-0.37-0.48-0.87-0.9-1.5-1.26c-0.63-0.36-1.34-0.63-2.13-0.82c-0.79-0.19-1.58-0.29-2.38-0.29
		c-2.17,0-3.86,0.59-5.06,1.77c-1.46,1.35-2.22,3.07-2.28,5.14c0.03,1.58,0.43,3.06,1.21,4.46c0.78,1.39,1.83,2.51,3.14,3.35
		c1.32,0.84,2.75,1.29,4.29,1.33c0.78-0.02,1.49-0.12,2.1-0.29c0.62-0.17,0.92-0.29,0.92-0.36c0.06-0.81,0.09-1.74,0.09-2.79
		c0-1.08-0.03-2.03-0.09-2.84c-0.09-0.01-0.45-0.05-1.1-0.12c-0.65-0.07-1.1-0.12-1.35-0.17L28.42,111.47z"/>
	<path class="st1" d="M37.28,102.89c-0.18-0.05-0.42-0.09-0.69-0.14c-0.28-0.05-0.52-0.08-0.73-0.12l-0.08-0.34
		c0.25,0.01,0.69,0.02,1.3,0.04c0.61,0.01,1.07,0.02,1.37,0.04c0.36-0.01,0.91-0.02,1.65-0.03c0.74-0.01,1.24-0.03,1.5-0.04
		l-0.11,0.34c-0.19,0.03-0.56,0.08-1.11,0.15c-0.54,0.07-0.81,0.12-0.81,0.15c-0.05,1.56-0.07,2.7-0.07,3.44
		c0,0.37,0.01,0.91,0.02,1.63c0.01,0.72,0.02,1.27,0.02,1.64c0,1.09,0.12,1.99,0.36,2.69c0.24,0.7,0.55,1.22,0.92,1.57
		c0.38,0.35,0.78,0.58,1.19,0.69c0.42,0.11,0.86,0.17,1.31,0.17c0.87-0.01,1.57-0.21,2.1-0.58c0.53-0.38,0.91-0.9,1.14-1.57
		s0.36-1.49,0.39-2.45c0.02-0.6,0.04-1.49,0.04-2.69c0-1.44-0.04-2.96-0.11-4.57c-0.26-0.04-0.57-0.08-0.95-0.12
		c-0.37-0.05-0.71-0.08-1.01-0.09l-0.15-0.38c0.32,0,0.87,0.02,1.64,0.05c0.78,0.03,1.27,0.05,1.47,0.06
		c0.98-0.05,1.67-0.09,2.07-0.11l-0.09,0.38c-0.75,0.12-1.19,0.21-1.3,0.25c-0.01,0.15-0.02,0.44-0.04,0.86
		c-0.01,0.42-0.03,0.73-0.04,0.93v3.18c0,1.11-0.01,1.91-0.04,2.42c-0.08,1.48-0.55,2.67-1.42,3.59c-0.87,0.91-2.06,1.42-3.57,1.53
		c-0.12,0.01-0.3,0.02-0.54,0.02c-0.73,0-1.42-0.1-2.07-0.29c-0.65-0.2-1.23-0.5-1.74-0.92c-0.51-0.41-0.92-0.95-1.22-1.61
		c-0.3-0.66-0.47-1.43-0.5-2.32c0-1.64-0.01-2.8-0.04-3.5C37.35,104.51,37.33,103.2,37.28,102.89"/>
	<path class="st1" d="M48.9,115.25l0.07-0.41c0.03-0.01,0.28-0.05,0.76-0.12c0.48-0.08,0.75-0.13,0.81-0.15
		c0.07-0.1,0.32-0.67,0.74-1.71c0.42-1.04,0.9-2.26,1.44-3.64c0.54-1.39,1.04-2.7,1.51-3.94c0.47-1.24,0.76-2.03,0.88-2.39
		c-0.07-0.08-0.55-0.16-1.42-0.26l-0.04-0.38c0.36,0.03,1.24,0.07,2.65,0.11c1.53-0.05,2.48-0.09,2.85-0.11l-0.04,0.38
		c-0.85,0.13-1.31,0.22-1.39,0.26c0.35,1.12,0.84,2.56,1.47,4.31c0.63,1.75,1.23,3.34,1.79,4.76c0.57,1.42,0.95,2.29,1.17,2.61
		c0.01,0.01,0.26,0.05,0.75,0.13c0.49,0.07,0.76,0.11,0.82,0.11l0.08,0.4c0.01,0-1.04-0.02-3.15-0.07
		c-0.34,0.01-0.87,0.02-1.59,0.03c-0.73,0.01-1.19,0.03-1.4,0.04l0.11-0.4c0.38-0.01,0.78-0.06,1.2-0.13
		c0.42-0.07,0.63-0.11,0.65-0.11c-0.07-0.27-0.38-1.16-0.92-2.67c-0.54-1.51-0.88-2.41-1-2.68c-1.27,0-2.68,0.07-4.22,0.2
		c-0.07,0.13-0.21,0.59-0.42,1.36c-0.21,0.78-0.41,1.56-0.59,2.33c-0.18,0.78-0.27,1.26-0.27,1.45c0.49,0.16,1,0.24,1.53,0.24
		l0.11,0.4c-0.58-0.05-1.39-0.07-2.43-0.07C49.99,115.14,49.15,115.18,48.9,115.25 M53.69,108.58c0.48,0.02,1.23,0.03,2.25,0.05
		c1.02,0.02,1.55,0.03,1.61,0.04c0-0.01-0.08-0.24-0.23-0.69c-0.15-0.45-0.37-1.08-0.65-1.91c-0.28-0.82-0.49-1.42-0.62-1.8
		c-0.13-0.38-0.25-0.74-0.37-1.08h-0.02c-0.17,0.45-0.53,1.41-1.06,2.86C54.07,107.5,53.77,108.35,53.69,108.58"/>
	<path class="st1" d="M63.69,115.21l0.07-0.36c0.04-0.01,0.18-0.03,0.44-0.06c0.25-0.04,0.48-0.07,0.66-0.1
		c0.19-0.04,0.33-0.07,0.44-0.11c0.15-0.6,0.32-4.47,0.5-11.61c-0.07-0.03-0.37-0.08-0.9-0.13c-0.52-0.06-0.89-0.08-1.1-0.08
		l-0.11-0.38c0.53-0.03,0.94-0.05,1.25-0.06c0.31-0.01,0.78-0.02,1.42-0.04c0.64-0.02,1.14-0.04,1.51-0.05
		c0.57,0.81,1.28,1.73,2.12,2.77c0.84,1.04,1.75,2.14,2.75,3.3c0.99,1.16,1.81,2.12,2.46,2.87c0.65,0.75,1.01,1.18,1.07,1.29
		c-0.02-0.68-0.04-1.8-0.05-3.36c-0.01-1.56-0.04-2.83-0.09-3.8c-0.04-0.98-0.13-1.77-0.26-2.38c-0.16-0.02-0.46-0.07-0.9-0.14
		c-0.44-0.07-0.75-0.11-0.95-0.12l-0.11-0.34c0.29,0.01,0.72,0.02,1.3,0.04c0.58,0.01,1.01,0.02,1.3,0.04
		c0.28-0.01,0.7-0.02,1.24-0.04c0.55-0.01,0.94-0.02,1.19-0.04l-0.08,0.34c-0.07,0.01-0.31,0.06-0.71,0.15
		c-0.4,0.09-0.63,0.13-0.68,0.15c-0.08,0.21-0.16,0.78-0.22,1.7c-0.06,0.92-0.11,1.89-0.15,2.91c-0.04,1.02-0.08,2.5-0.14,4.45
		c-0.06,1.94-0.1,3.31-0.13,4.09c-1.01-1.14-1.85-2.1-2.53-2.88c-0.68-0.78-1.52-1.75-2.53-2.92c-1.01-1.17-1.96-2.29-2.85-3.35
		c-0.89-1.06-1.72-2.06-2.49-2.99c0.02,2.07,0.07,4.27,0.15,6.6c0.08,2.33,0.16,3.68,0.25,4.04c0.12,0.05,0.46,0.11,1.01,0.17
		c0.55,0.06,0.88,0.1,0.98,0.1l0.07,0.36c-0.25-0.01-0.7-0.02-1.34-0.04c-0.64-0.01-1.12-0.02-1.43-0.04
		c-0.27,0.01-0.68,0.02-1.23,0.04S63.94,115.2,63.69,115.21"/>
	<path class="st1" d="M79.76,105.7c0.16-1.65,0.24-3.2,0.24-4.64c0.24,0.05,0.39,0.07,0.44,0.07c0.04,0.72,0.08,1.13,0.11,1.23
		c1.11,0.08,3.03,0.14,5.74,0.18c2.99-0.05,5.08-0.11,6.29-0.18c0-0.03,0.04-0.2,0.12-0.53c0.08-0.33,0.13-0.53,0.14-0.62
		c0.05-0.01,0.12-0.03,0.23-0.04c0.1-0.02,0.18-0.02,0.23-0.03c-0.07,0.39-0.14,0.84-0.2,1.35c-0.07,0.52-0.14,1.19-0.24,2
		c-0.1,0.82-0.15,1.27-0.16,1.36c-0.15-0.07-0.28-0.11-0.4-0.11c0-0.11,0.01-0.34,0.02-0.67c0.01-0.33,0.02-0.6,0.02-0.79v-0.38
		c-0.13-0.14-0.48-0.27-1.05-0.39c-0.57-0.12-1.22-0.22-1.94-0.29c-0.72-0.07-1.31-0.11-1.78-0.11c-0.02,0.14-0.04,0.42-0.05,0.84
		c-0.01,0.41-0.02,0.93-0.03,1.54c-0.01,0.61-0.02,1.34-0.03,2.19c0.05,4.33,0.09,6.63,0.11,6.89c1.03,0.12,1.81,0.2,2.34,0.24
		l0.08,0.4c-0.32-0.05-1.4-0.07-3.24-0.07c-0.74,0-1.48,0.01-2.22,0.02c-0.74,0.02-1.3,0.03-1.68,0.05l0.11-0.37
		c0.11-0.01,0.5-0.06,1.15-0.13c0.66-0.07,1.05-0.12,1.17-0.14c0.06-2.28,0.09-4.36,0.09-6.25c0-2.41-0.03-4.14-0.09-5.21
		c-2.36,0-3.93,0.25-4.72,0.75c-0.06,0.1-0.14,0.38-0.23,0.84c-0.09,0.46-0.15,0.75-0.17,0.88c0,0.01-0.06,0.03-0.19,0.07
		C79.84,105.67,79.77,105.7,79.76,105.7"/>
	<path class="st1" d="M91.54,115.25l0.07-0.41c0.03-0.01,0.28-0.05,0.76-0.12c0.48-0.08,0.75-0.13,0.81-0.15
		c0.07-0.1,0.32-0.67,0.74-1.71s0.9-2.26,1.44-3.64c0.54-1.39,1.04-2.7,1.51-3.94c0.47-1.24,0.76-2.03,0.88-2.39
		c-0.07-0.08-0.55-0.16-1.42-0.26l-0.04-0.38c0.36,0.03,1.24,0.07,2.65,0.11c1.53-0.05,2.48-0.09,2.85-0.11l-0.04,0.38
		c-0.85,0.13-1.31,0.22-1.39,0.26c0.35,1.12,0.84,2.56,1.47,4.31c0.63,1.75,1.23,3.34,1.79,4.76c0.57,1.42,0.95,2.29,1.17,2.61
		c0.01,0.01,0.26,0.05,0.75,0.13c0.49,0.07,0.76,0.11,0.82,0.11l0.08,0.4c0.01,0-1.04-0.02-3.15-0.07
		c-0.34,0.01-0.87,0.02-1.59,0.03c-0.73,0.01-1.19,0.03-1.4,0.04l0.11-0.4c0.38-0.01,0.78-0.06,1.2-0.13
		c0.42-0.07,0.63-0.11,0.65-0.11c-0.07-0.27-0.38-1.16-0.92-2.67c-0.54-1.51-0.88-2.41-1-2.68c-1.27,0-2.68,0.07-4.22,0.2
		c-0.07,0.13-0.21,0.59-0.42,1.36c-0.21,0.78-0.41,1.56-0.59,2.33c-0.18,0.78-0.27,1.26-0.27,1.45c0.49,0.16,1,0.24,1.53,0.24
		l0.11,0.4c-0.58-0.05-1.39-0.07-2.43-0.07C92.63,115.14,91.79,115.18,91.54,115.25 M96.33,108.58c0.48,0.02,1.23,0.03,2.25,0.05
		c1.02,0.02,1.55,0.03,1.61,0.04c0-0.01-0.08-0.24-0.23-0.69c-0.15-0.45-0.37-1.08-0.65-1.91c-0.28-0.82-0.49-1.42-0.62-1.8
		c-0.13-0.38-0.25-0.74-0.37-1.08h-0.02c-0.17,0.45-0.53,1.41-1.06,2.86C96.71,107.5,96.41,108.35,96.33,108.58"/>
	<path class="st1" d="M106.33,115.21l0.07-0.36c0.04-0.01,0.18-0.03,0.44-0.06c0.25-0.04,0.48-0.07,0.66-0.1
		c0.19-0.04,0.33-0.07,0.44-0.11c0.15-0.6,0.32-4.47,0.5-11.61c-0.08-0.03-0.37-0.08-0.9-0.13c-0.53-0.06-0.89-0.08-1.1-0.08
		l-0.11-0.38c0.53-0.03,0.94-0.05,1.25-0.06c0.31-0.01,0.78-0.02,1.42-0.04c0.64-0.02,1.14-0.04,1.51-0.05
		c0.57,0.81,1.28,1.73,2.12,2.77c0.84,1.04,1.75,2.14,2.75,3.3c0.99,1.16,1.81,2.12,2.46,2.87c0.65,0.75,1.01,1.18,1.07,1.29
		c-0.02-0.68-0.04-1.8-0.05-3.36c-0.01-1.56-0.04-2.83-0.08-3.8c-0.04-0.98-0.13-1.77-0.26-2.38c-0.16-0.02-0.46-0.07-0.9-0.14
		c-0.44-0.07-0.76-0.11-0.95-0.12l-0.11-0.34c0.29,0.01,0.72,0.02,1.3,0.04c0.58,0.01,1.01,0.02,1.3,0.04
		c0.28-0.01,0.7-0.02,1.24-0.04c0.55-0.01,0.94-0.02,1.19-0.04l-0.08,0.34c-0.07,0.01-0.31,0.06-0.71,0.15
		c-0.4,0.09-0.63,0.13-0.68,0.15c-0.08,0.21-0.16,0.78-0.22,1.7c-0.07,0.92-0.12,1.89-0.15,2.91c-0.04,1.02-0.08,2.5-0.14,4.45
		c-0.05,1.94-0.1,3.31-0.13,4.09c-1.01-1.14-1.85-2.1-2.53-2.88c-0.68-0.78-1.52-1.75-2.53-2.92c-1.01-1.17-1.96-2.29-2.85-3.35
		c-0.89-1.06-1.72-2.06-2.49-2.99c0.02,2.07,0.07,4.27,0.15,6.6c0.08,2.33,0.16,3.68,0.25,4.04c0.12,0.05,0.46,0.11,1.01,0.17
		c0.55,0.06,0.88,0.1,0.98,0.1l0.07,0.36c-0.25-0.01-0.7-0.02-1.34-0.04c-0.64-0.01-1.12-0.02-1.44-0.04
		c-0.27,0.01-0.68,0.02-1.23,0.04C106.98,115.19,106.58,115.2,106.33,115.21"/>
	<path class="st1" d="M121.18,115.25l0.07-0.41c0.03-0.01,0.28-0.05,0.76-0.12c0.48-0.08,0.75-0.13,0.81-0.15
		c0.08-0.1,0.32-0.67,0.74-1.71s0.9-2.26,1.44-3.64c0.54-1.39,1.04-2.7,1.51-3.94c0.47-1.24,0.76-2.03,0.88-2.39
		c-0.07-0.08-0.55-0.16-1.42-0.26l-0.04-0.38c0.36,0.03,1.24,0.07,2.65,0.11c1.53-0.05,2.48-0.09,2.85-0.11l-0.04,0.38
		c-0.85,0.13-1.31,0.22-1.39,0.26c0.35,1.12,0.84,2.56,1.47,4.31c0.63,1.75,1.23,3.34,1.79,4.76c0.57,1.42,0.95,2.29,1.17,2.61
		c0.01,0.01,0.26,0.05,0.75,0.13c0.49,0.07,0.76,0.11,0.82,0.11l0.08,0.4c0.01,0-1.04-0.02-3.15-0.07
		c-0.34,0.01-0.87,0.02-1.59,0.03c-0.73,0.01-1.19,0.03-1.4,0.04l0.11-0.4c0.38-0.01,0.78-0.06,1.2-0.13
		c0.42-0.07,0.63-0.11,0.65-0.11c-0.07-0.27-0.38-1.16-0.92-2.67c-0.54-1.51-0.88-2.41-1-2.68c-1.27,0-2.68,0.07-4.22,0.2
		c-0.07,0.13-0.21,0.59-0.42,1.36c-0.21,0.78-0.41,1.56-0.59,2.33c-0.18,0.78-0.27,1.26-0.27,1.45c0.49,0.16,1,0.24,1.53,0.24
		l0.11,0.4c-0.58-0.05-1.39-0.07-2.43-0.07C122.26,115.14,121.43,115.18,121.18,115.25 M125.97,108.58
		c0.48,0.02,1.23,0.03,2.25,0.05c1.02,0.02,1.56,0.03,1.61,0.04c0-0.01-0.08-0.24-0.23-0.69c-0.15-0.45-0.37-1.08-0.65-1.91
		c-0.28-0.82-0.49-1.42-0.62-1.8c-0.13-0.38-0.25-0.74-0.37-1.08h-0.02c-0.17,0.45-0.53,1.41-1.06,2.86
		C126.35,107.5,126.04,108.35,125.97,108.58"/>
	<path class="st1" d="M137.87,102.63l-0.11-0.34c0.15,0.01,0.57,0.02,1.24,0.04c0.68,0.01,1.16,0.02,1.45,0.03
		c0.28-0.01,0.77-0.02,1.47-0.03c0.7-0.01,1.11-0.02,1.24-0.04l-0.08,0.34c-0.16,0.01-0.41,0.06-0.77,0.14
		c-0.35,0.08-0.56,0.12-0.62,0.12c0.37,1.16,0.81,2.43,1.32,3.81c0.51,1.39,0.97,2.61,1.39,3.65c0.41,1.04,0.63,1.57,0.66,1.57
		c0.04-0.07,0.22-0.49,0.56-1.25c0.33-0.77,0.71-1.65,1.13-2.65c0.42-1,0.82-1.98,1.2-2.93c0.38-0.95,0.66-1.67,0.83-2.16
		c-0.31-0.13-0.73-0.22-1.26-0.25l-0.07-0.38c0.27,0.01,0.72,0.02,1.36,0.04c0.64,0.01,1.11,0.02,1.4,0.04
		c0.25-0.01,0.64-0.02,1.18-0.03c0.54-0.01,0.9-0.02,1.06-0.04l-0.07,0.38c-0.15,0-0.66,0.07-1.53,0.22c0.2,1,0.4,2,0.6,3.02
		c0.19,1.02,0.39,1.99,0.57,2.93c0.19,0.94,0.37,1.84,0.56,2.71c0.19,0.87,0.42,1.88,0.7,3.03c0.16,0.07,0.66,0.16,1.5,0.27
		l0.11,0.4c-0.28-0.03-1.3-0.07-3.03-0.11c-1.49,0.05-2.47,0.07-2.96,0.07l0.07-0.36c0.16-0.03,0.52-0.07,1.1-0.14
		c0.58-0.06,0.87-0.1,0.89-0.1c0-0.15-0.06-0.54-0.17-1.17c-0.11-0.63-0.29-1.56-0.53-2.79c-0.24-1.23-0.45-2.33-0.63-3.31
		c-0.18-0.98-0.36-1.97-0.53-2.98H149l-4.62,10.97c-0.24-0.65-0.49-1.29-0.74-1.93c-0.25-0.64-0.66-1.71-1.24-3.21
		c-0.58-1.5-1.01-2.63-1.3-3.38c-0.28-0.75-0.59-1.58-0.91-2.49h-0.07c-0.18,0.98-0.4,2.16-0.64,3.57c-0.24,1.4-0.45,2.68-0.62,3.82
		c-0.17,1.15-0.26,1.98-0.27,2.5l0.07,0.37c0.23,0.06,0.76,0.15,1.61,0.27l0.07,0.36c-0.23,0-1.16-0.02-2.8-0.07
		c-0.22,0.01-0.56,0.02-1.01,0.04c-0.45,0.01-0.77,0.02-0.94,0.04l0.15-0.36c0.03-0.01,0.2-0.04,0.51-0.09
		c0.32-0.05,0.57-0.1,0.76-0.15c0.08-0.23,0.31-1.13,0.68-2.71c0.37-1.58,0.76-3.27,1.16-5.05c0.4-1.79,0.68-3.1,0.85-3.95
		c-0.08,0-0.36-0.03-0.83-0.1C138.39,102.73,138.06,102.67,137.87,102.63"/>
	<path class="st1" d="M157.87,102.93c-0.34-0.08-0.98-0.18-1.92-0.3l-0.07-0.35c0.37,0.01,1.01,0.02,1.93,0.04
		c0.92,0.01,1.6,0.02,2.03,0.04c2.95-0.04,4.51-0.09,4.68-0.15c0.01-0.01,0.02-0.11,0.05-0.31c0.03-0.2,0.05-0.38,0.08-0.55
		l0.44-0.08c-0.06,0.43-0.14,1.17-0.24,2.23c-0.1,1.06-0.15,1.59-0.16,1.6c0.01-0.01,0.02-0.02,0.04-0.04l-0.38-0.15v-1.28
		c-0.07-0.15-0.34-0.29-0.83-0.41c-0.49-0.12-1.06-0.21-1.69-0.28c-0.64-0.07-1.18-0.1-1.62-0.1c-0.07,1.76-0.11,3.51-0.11,5.24
		c2.09-0.07,3.35-0.17,3.78-0.31c0.09-0.27,0.15-0.53,0.18-0.79l0.41-0.04c-0.03,0.13-0.11,0.61-0.22,1.42
		c-0.12,0.81-0.22,1.48-0.29,2l-0.35-0.15c0.01,0,0.02-0.19,0.04-0.57c0.01-0.39,0.02-0.59,0.04-0.63
		c-0.54-0.28-1.74-0.42-3.58-0.42c0,0.26-0.01,0.48-0.04,0.68c0.02,0.6,0.04,1.29,0.07,2.06c0.02,0.78,0.04,1.43,0.06,1.96
		c0.01,0.53,0.02,0.97,0.02,1.33c2.3-0.04,3.76-0.25,4.39-0.66c0.09-0.25,0.23-0.78,0.4-1.59l0.42-0.11
		c-0.13,0.68-0.25,1.46-0.38,2.35c-0.12,0.88-0.2,1.5-0.23,1.86l-0.38-0.07v-1.1c-0.09-0.02-0.41-0.05-0.95-0.07
		c-0.55-0.02-1.13-0.04-1.76-0.06c-0.63-0.02-1.5-0.03-2.61-0.05c-1.71,0.05-2.78,0.08-3.21,0.11l0.11-0.41
		c0.82-0.06,1.45-0.14,1.88-0.24c0.01-0.32,0.02-0.79,0.03-1.41c0.02-0.62,0.03-1.23,0.04-1.82c0.01-0.6,0.02-1.16,0.03-1.68
		c0.01-0.53,0.01-1.11,0.01-1.75C157.98,106.17,157.94,104.49,157.87,102.93"/>
	<path class="st1" d="M171.66,109.25c0,1.93,0.04,3.7,0.11,5.32c0.17,0.06,0.54,0.12,1.09,0.18c0.56,0.06,0.84,0.09,0.85,0.09
		l0.07,0.36c-0.22-0.01-0.64-0.02-1.25-0.04c-0.61-0.01-1.06-0.02-1.36-0.03c-2.31,0.05-3.52,0.08-3.64,0.11l0.07-0.44
		c0.32,0,0.7-0.03,1.14-0.1c0.44-0.06,0.7-0.11,0.78-0.14c0.02-0.29,0.04-1,0.05-2.14c0.01-1.14,0.02-2.34,0.02-3.62
		c0-3.14-0.02-5.12-0.07-5.92c-0.37-0.06-1.03-0.13-1.95-0.22l-0.04-0.35c0.32,0,1.01-0.01,2.07-0.02c1.06-0.01,1.82-0.02,2.28-0.02
		h0.9c2.24,0,3.7,0.26,4.37,0.77c0.68,0.52,1.03,1.12,1.06,1.82c0,0.65-0.29,1.32-0.87,2.01c-0.58,0.69-1.16,1.18-1.75,1.46
		c0.44,0.77,0.99,1.65,1.64,2.64c0.65,0.99,1.29,1.91,1.93,2.76c0.63,0.85,1.14,1.46,1.52,1.84l-0.79,0.15
		c-0.34-0.21-0.78-0.56-1.31-1.05c-0.53-0.49-1.11-1.07-1.74-1.73c-0.63-0.67-1.23-1.33-1.81-1.98c-0.58-0.65-1.12-1.26-1.62-1.83
		C172.79,109.22,172.21,109.25,171.66,109.25 M171.66,108.67c0.61,0,1.21-0.07,1.82-0.22c0.6-0.14,1.15-0.44,1.63-0.87
		c0.48-0.44,0.78-1.05,0.89-1.83c0-0.49-0.12-0.96-0.37-1.4s-0.69-0.82-1.31-1.11c-0.63-0.3-1.46-0.45-2.5-0.45h-0.07
		c0,0.57,0,1.11-0.01,1.61c-0.01,0.5-0.02,1.02-0.03,1.56c-0.01,0.55-0.02,1.01-0.03,1.39
		C171.66,107.72,171.66,108.16,171.66,108.67"/>
	<path class="st1" d="M178.8,119.1l0.09-0.54c0.04-0.01,0.37-0.06,1.01-0.16c0.64-0.1,1-0.17,1.07-0.2c0.1-0.13,0.43-0.88,0.98-2.26
		c0.56-1.38,1.19-2.99,1.9-4.83c0.71-1.84,1.38-3.58,2-5.22c0.62-1.64,1.01-2.69,1.17-3.17c-0.09-0.1-0.72-0.22-1.88-0.34
		l-0.05-0.51c0.48,0.04,1.65,0.09,3.51,0.15c2.03-0.07,3.29-0.11,3.78-0.15l-0.05,0.51c-1.13,0.18-1.74,0.29-1.84,0.34
		c0.46,1.49,1.11,3.39,1.94,5.71c0.84,2.32,1.62,4.43,2.38,6.31c0.75,1.88,1.26,3.03,1.54,3.45c0.02,0.02,0.35,0.07,0.99,0.17
		c0.64,0.1,1.01,0.14,1.09,0.14l0.1,0.53c0.01,0-1.38-0.03-4.17-0.09c-0.45,0.01-1.15,0.03-2.11,0.04
		c-0.96,0.02-1.58,0.03-1.86,0.05l0.14-0.53c0.51-0.02,1.04-0.08,1.59-0.17c0.55-0.09,0.84-0.14,0.86-0.14
		c-0.09-0.36-0.5-1.53-1.22-3.54c-0.72-2.01-1.16-3.19-1.33-3.55c-1.69,0-3.55,0.09-5.59,0.27c-0.09,0.18-0.28,0.78-0.56,1.81
		c-0.28,1.03-0.54,2.06-0.78,3.09c-0.24,1.03-0.36,1.67-0.36,1.93c0.65,0.21,1.32,0.31,2.03,0.31l0.14,0.53
		c-0.77-0.06-1.84-0.09-3.22-0.09C180.24,118.95,179.13,119,178.8,119.1 M185.15,110.26c0.64,0.02,1.63,0.04,2.98,0.07
		c1.35,0.03,2.06,0.04,2.13,0.05c0-0.02-0.1-0.32-0.3-0.92c-0.2-0.59-0.49-1.44-0.86-2.52c-0.37-1.09-0.65-1.88-0.82-2.39
		c-0.17-0.5-0.33-0.98-0.49-1.44h-0.02c-0.23,0.6-0.7,1.86-1.4,3.79C185.65,108.83,185.25,109.95,185.15,110.26"/>
</g>
</svg>
