<?xml version="1.0" encoding="utf-8"?>
<!-- Generator: Adobe Illustrator 26.0.1, SVG Export Plug-In . SVG Version: 6.00 Build 0)  -->
<svg version="1.1" id="Layer_1" xmlns="http://www.w3.org/2000/svg" xmlns:xlink="http://www.w3.org/1999/xlink" x="0px" y="0px"
	 viewBox="0 0 299 390" style="enable-background:new 0 0 299 390;" xml:space="preserve">
<style type="text/css">
	.st0{fill:#FFFFFF;}
	.st1{fill:#AE841F;}
</style>
<g>
	<g>
		<path class="st0" d="M57,234.84c0.28-0.54,0.64-0.95,1.08-1.23c0.44-0.28,0.97-0.44,1.65-0.44c1.11,0,1.82,0.42,2.36,1.07
			c0.53,0.64,0.85,1.54,1,2.45c0.02,0.17,0.05,0.32,0.1,0.46c0.09,0.23,0.27,0.43,0.49,0.54c0.22,0.11,0.46,0.14,0.71,0.14h5.78
			c0.17,0,0.34-0.02,0.49-0.09c0.23-0.09,0.42-0.27,0.51-0.47c0.09-0.2,0.12-0.4,0.12-0.6c0-0.08,0-0.15-0.01-0.23
			c-0.06-2.99-1.03-5.79-2.96-7.84c-1.93-2.05-4.81-3.33-8.59-3.33c-4.04,0-7.09,1.4-9.08,3.88c-1.99,2.48-2.93,5.98-2.93,10.15
			v13.46c0,4.16,0.94,7.67,2.93,10.15c1.99,2.48,5.04,3.89,9.08,3.88c3.77,0,6.66-1.27,8.59-3.32c1.93-2.05,2.9-4.85,2.96-7.84
			c0-0.08,0.01-0.15,0.01-0.23c0-0.26-0.04-0.54-0.24-0.79c-0.09-0.12-0.23-0.22-0.38-0.28c-0.15-0.06-0.32-0.09-0.49-0.09h-5.78
			c-0.17,0-0.33,0.01-0.49,0.06c-0.23,0.06-0.46,0.2-0.6,0.41c-0.14,0.2-0.2,0.43-0.22,0.68c-0.15,0.91-0.47,1.81-1,2.46
			c-0.54,0.64-1.25,1.06-2.36,1.06c-0.68,0-1.2-0.16-1.65-0.44c-0.66-0.42-1.14-1.14-1.45-2.13c-0.32-0.99-0.46-2.22-0.46-3.58
			v-13.46C56.17,237.5,56.43,235.91,57,234.84"/>
		<path class="st0" d="M98.95,225.96c-0.26-0.15-0.57-0.2-0.91-0.2h-5.46c-0.23,0-0.43,0.02-0.63,0.08
			c-0.29,0.08-0.56,0.27-0.7,0.54c-0.15,0.26-0.2,0.57-0.2,0.91v16.37v9.11c0,1.82-0.24,3.41-0.8,4.48
			c-0.28,0.54-0.63,0.95-1.07,1.23c-0.43,0.28-0.96,0.43-1.64,0.44c-0.68,0-1.2-0.16-1.65-0.44c-0.66-0.42-1.14-1.14-1.45-2.13
			c-0.31-0.99-0.45-2.22-0.45-3.58v-6.04v-19.44c0-0.23-0.02-0.43-0.08-0.63c-0.08-0.29-0.27-0.56-0.54-0.7
			c-0.26-0.15-0.57-0.2-0.9-0.2h-5.41c-0.22,0-0.43,0.02-0.62,0.08c-0.29,0.08-0.56,0.27-0.7,0.54c-0.15,0.26-0.2,0.57-0.2,0.91
			v16.42v9.06c0,4.17,0.94,7.67,2.93,10.15c1.99,2.48,5.04,3.89,9.08,3.88c4.02,0,7.07-1.4,9.06-3.88c2-2.48,2.95-5.98,2.96-10.15
			v-5.72v-19.76c0-0.23-0.02-0.43-0.08-0.63C99.4,226.38,99.21,226.11,98.95,225.96"/>
		<path class="st0" d="M112.49,249.55c0-0.18,0.01-0.32,0.03-0.4c0.01-0.06,0.03-0.09,0.04-0.1c0.01-0.02,0.02-0.03,0.09-0.06
			c0.08-0.02,0.22-0.04,0.42-0.04h1.96c1.1,0,1.99,0.37,2.63,1.08c0.64,0.71,1.04,1.81,1.04,3.33v0.95c0,1.49-0.42,2.58-1.06,3.31
			c-0.65,0.72-1.54,1.1-2.61,1.1h-1.96c-0.18,0-0.31-0.01-0.39-0.03c-0.06-0.02-0.09-0.03-0.1-0.04c-0.01-0.01-0.03-0.02-0.05-0.09
			c-0.02-0.08-0.04-0.22-0.04-0.42V249.55z M117.97,237.67c0,1.22-0.34,2.14-0.88,2.74c-0.53,0.6-1.25,0.92-2.1,0.93h-1.91
			c-0.18,0-0.31-0.01-0.39-0.03c-0.06-0.01-0.09-0.03-0.1-0.04c-0.01-0.01-0.03-0.02-0.05-0.09c-0.02-0.08-0.04-0.22-0.04-0.42
			v-6.57c0-0.24,0.01-0.42,0.04-0.53c0.02-0.09,0.04-0.14,0.06-0.17c0.02-0.03,0.02-0.03,0.09-0.06c0.07-0.02,0.2-0.04,0.41-0.04
			h1.91c0.88,0,1.59,0.32,2.12,0.92c0.52,0.6,0.86,1.52,0.86,2.74V237.67z M122.46,245.04c2.06-1.59,3.81-4.53,3.81-8.21v-0.64
			c0-2.85-1.03-5.46-2.82-7.36c-1.79-1.89-4.35-3.07-7.34-3.07h-10.54c-0.23,0-0.43,0.02-0.63,0.08c-0.29,0.09-0.56,0.27-0.7,0.54
			c-0.15,0.26-0.2,0.57-0.2,0.91v37.51c0,0.23,0.02,0.43,0.08,0.63c0.08,0.29,0.27,0.55,0.54,0.7c0.26,0.15,0.57,0.19,0.91,0.19
			h10.7c3.36,0,6.1-1.2,7.99-3.19c1.89-1.99,2.91-4.77,2.91-7.87v-0.79c0-2.16-0.49-4.19-1.4-5.9
			C124.97,247.08,123.85,245.85,122.46,245.04"/>
		<path class="st0" d="M142.54,241.81l2.08,10.44v0.05l0,0.06h-0.01h-4.13l-0.03,0l0.01-0.05l0-0.01L142.54,241.81z M155.45,264.76
			l-8.96-37.61c-0.06-0.25-0.13-0.46-0.23-0.65c-0.15-0.28-0.4-0.5-0.68-0.6c-0.28-0.1-0.58-0.12-0.92-0.12h-4.29
			c-0.23,0-0.43,0.01-0.63,0.04c-0.29,0.05-0.59,0.18-0.79,0.43c-0.21,0.24-0.33,0.54-0.42,0.91l-8.95,37.61
			c-0.04,0.17-0.07,0.32-0.07,0.47c0,0.18,0.03,0.35,0.1,0.5c0.11,0.23,0.31,0.4,0.51,0.48c0.21,0.09,0.43,0.12,0.64,0.12h5.56
			c0.19,0,0.38-0.01,0.56-0.06c0.27-0.06,0.53-0.21,0.72-0.44c0.19-0.23,0.31-0.52,0.4-0.87v-0.01l1.01-4.55
			c0.03-0.14,0.07-0.24,0.1-0.29l0.05-0.07c0.01-0.01,0.03-0.03,0.11-0.05c0.08-0.01,0.21-0.02,0.4-0.02h5.67
			c0.16,0,0.28,0,0.36,0.02c0.06,0.01,0.1,0.02,0.12,0.03c0.03,0.01,0.03,0.02,0.07,0.07c0.03,0.05,0.07,0.15,0.11,0.31l1.01,4.55
			v0.01c0.06,0.24,0.13,0.44,0.23,0.62c0.15,0.27,0.36,0.49,0.62,0.6c0.26,0.12,0.53,0.15,0.83,0.15h5.56
			c0.29,0,0.59-0.05,0.85-0.23c0.13-0.09,0.24-0.22,0.32-0.37c0.07-0.15,0.1-0.32,0.1-0.5
			C155.52,265.08,155.49,264.92,155.45,264.76z"/>
		<path class="st0" d="M167.2,234.84c0.28-0.54,0.64-0.95,1.08-1.23c0.44-0.28,0.97-0.44,1.65-0.44c1.11,0,1.82,0.42,2.36,1.07
			c0.53,0.64,0.85,1.54,1,2.45c0.02,0.17,0.05,0.32,0.1,0.46c0.09,0.23,0.27,0.43,0.49,0.54c0.22,0.11,0.46,0.14,0.71,0.14h5.78
			c0.17,0,0.34-0.02,0.49-0.09c0.23-0.09,0.42-0.27,0.51-0.47c0.09-0.2,0.12-0.4,0.12-0.6c0-0.08,0-0.15-0.01-0.23
			c-0.06-2.99-1.03-5.79-2.96-7.84c-1.93-2.05-4.81-3.33-8.59-3.33c-4.04,0-7.09,1.4-9.08,3.88c-1.99,2.48-2.93,5.98-2.93,10.15
			v13.46c0,4.16,0.94,7.67,2.93,10.15c1.99,2.48,5.04,3.89,9.08,3.88c3.77,0,6.66-1.27,8.59-3.32c1.93-2.05,2.9-4.85,2.96-7.84
			c0-0.08,0.01-0.15,0.01-0.23c0-0.26-0.04-0.54-0.24-0.79c-0.09-0.12-0.23-0.22-0.38-0.28c-0.15-0.06-0.32-0.09-0.49-0.09h-5.78
			c-0.17,0-0.33,0.01-0.49,0.06c-0.23,0.06-0.46,0.2-0.6,0.41c-0.14,0.2-0.2,0.43-0.22,0.68c-0.15,0.91-0.47,1.81-1,2.46
			c-0.54,0.64-1.25,1.06-2.36,1.06c-0.68,0-1.2-0.16-1.65-0.44c-0.66-0.42-1.14-1.14-1.45-2.13c-0.32-0.99-0.46-2.22-0.46-3.58
			v-13.46C166.38,237.5,166.63,235.91,167.2,234.84"/>
		<path class="st0" d="M196.9,241.81l2.08,10.44v0.05l0,0.06h-0.01h-4.13l-0.03,0l0.01-0.05l0-0.01L196.9,241.81z M209.81,264.76
			l-8.95-37.61c-0.06-0.25-0.13-0.46-0.24-0.65c-0.15-0.28-0.4-0.5-0.69-0.6c-0.28-0.1-0.58-0.12-0.92-0.12h-4.29
			c-0.23,0-0.43,0.01-0.63,0.04c-0.29,0.05-0.59,0.18-0.79,0.43c-0.21,0.24-0.33,0.54-0.42,0.91l-8.95,37.61
			c-0.04,0.17-0.07,0.32-0.07,0.47c0,0.18,0.03,0.35,0.1,0.5c0.11,0.23,0.31,0.4,0.51,0.48c0.21,0.09,0.43,0.12,0.64,0.12h5.56
			c0.19,0,0.38-0.01,0.56-0.06c0.27-0.06,0.53-0.21,0.72-0.44c0.19-0.23,0.31-0.52,0.4-0.87v0l1.01-4.55
			c0.03-0.14,0.07-0.24,0.1-0.29l0.05-0.07c0.01-0.01,0.03-0.03,0.11-0.05c0.08-0.01,0.21-0.02,0.4-0.02h5.67
			c0.16,0,0.28,0,0.36,0.02c0.06,0.01,0.1,0.02,0.12,0.03c0.03,0.01,0.03,0.02,0.07,0.07c0.03,0.05,0.07,0.15,0.11,0.31l1,4.55
			l0,0.01c0.06,0.24,0.13,0.44,0.23,0.62c0.15,0.27,0.36,0.49,0.62,0.6c0.26,0.12,0.53,0.15,0.83,0.15h5.56
			c0.29,0,0.59-0.05,0.85-0.23c0.13-0.09,0.24-0.22,0.32-0.37c0.07-0.15,0.1-0.32,0.1-0.5
			C209.88,265.08,209.85,264.92,209.81,264.76z"/>
		<path class="st0" d="M230.82,225.96c-0.26-0.15-0.57-0.2-0.91-0.2H214.6c-0.23,0-0.43,0.02-0.63,0.08
			c-0.29,0.08-0.56,0.27-0.7,0.54c-0.15,0.26-0.2,0.57-0.2,0.91v37.51c0,0.23,0.02,0.43,0.08,0.63c0.08,0.29,0.27,0.55,0.54,0.7
			c0.26,0.15,0.57,0.19,0.91,0.19h5.4c0.23,0,0.43-0.02,0.63-0.08c0.29-0.08,0.55-0.27,0.7-0.54c0.15-0.27,0.19-0.57,0.19-0.91
			v-14.68c0-0.18,0.01-0.31,0.03-0.39c0.02-0.06,0.03-0.09,0.04-0.1c0.01-0.02,0.02-0.03,0.09-0.05c0.08-0.02,0.22-0.04,0.42-0.04
			h5.14c0.23,0,0.43-0.02,0.63-0.08c0.29-0.08,0.56-0.27,0.7-0.54c0.15-0.26,0.2-0.57,0.2-0.91v-4.55c0-0.23-0.02-0.43-0.08-0.63
			c-0.08-0.29-0.27-0.56-0.54-0.7c-0.26-0.15-0.57-0.2-0.91-0.2h-5.14c-0.18,0-0.31-0.01-0.39-0.03c-0.06-0.01-0.09-0.03-0.1-0.04
			c-0.01-0.02-0.03-0.02-0.05-0.1c-0.02-0.08-0.04-0.22-0.04-0.42v-7.36c0-0.18,0.01-0.31,0.03-0.39c0.02-0.06,0.03-0.09,0.04-0.1
			c0.01-0.02,0.02-0.03,0.09-0.05c0.08-0.02,0.22-0.04,0.42-0.04h7.79c0.23,0,0.43-0.02,0.63-0.08c0.29-0.08,0.56-0.27,0.7-0.54
			c0.15-0.26,0.19-0.57,0.2-0.91v-4.55c0-0.23-0.02-0.43-0.08-0.63C231.28,226.38,231.09,226.11,230.82,225.96"/>
		<path class="st0" d="M237.15,220.43"/>
		<path class="st0" d="M238.89,222.97L238.89,222.97c0.16,0.24,0.3,0.43,0.49,0.59c0.18,0.16,0.43,0.26,0.68,0.26
			c0.32,0,0.59-0.13,0.88-0.31l0,0l9.6-6.47h0c0.21-0.15,0.39-0.29,0.54-0.46c0.15-0.17,0.26-0.4,0.25-0.64
			c0-0.17-0.04-0.33-0.1-0.48c-0.07-0.15-0.15-0.3-0.26-0.47v0l-1.7-2.55l0,0c-0.16-0.23-0.3-0.41-0.49-0.57
			c-0.17-0.15-0.42-0.26-0.67-0.26c-0.33,0-0.6,0.14-0.9,0.34l-9.59,6.41h0c-0.23,0.16-0.42,0.31-0.57,0.49
			c-0.15,0.18-0.26,0.42-0.26,0.68c0,0.33,0.15,0.6,0.35,0.9L238.89,222.97z"/>
		<path class="st0" d="M243.5,233.57c0.01-0.06,0.03-0.09,0.04-0.1c0.01-0.01,0.01-0.03,0.09-0.05c0.08-0.02,0.22-0.04,0.42-0.04
			h7.63c0.23,0,0.43-0.02,0.63-0.08c0.29-0.08,0.56-0.27,0.7-0.54c0.15-0.27,0.19-0.57,0.2-0.91v-4.56c0-0.23-0.02-0.43-0.08-0.63
			c-0.08-0.29-0.27-0.56-0.54-0.7c-0.26-0.15-0.57-0.19-0.91-0.2h-15.15c-0.23,0-0.43,0.02-0.63,0.08c-0.29,0.09-0.55,0.27-0.7,0.54
			c-0.15,0.27-0.19,0.57-0.19,0.91v37.51c0,0.23,0.02,0.43,0.08,0.63c0.08,0.29,0.27,0.56,0.54,0.7c0.27,0.15,0.57,0.19,0.91,0.2
			h15.15c0.23,0,0.43-0.02,0.63-0.08c0.29-0.09,0.56-0.27,0.7-0.54c0.15-0.27,0.19-0.57,0.2-0.91v-4.56c0-0.22-0.02-0.43-0.08-0.63
			c-0.08-0.29-0.27-0.55-0.54-0.7c-0.26-0.15-0.57-0.2-0.91-0.2h-7.63c-0.18,0-0.31-0.01-0.39-0.03c-0.06-0.01-0.09-0.03-0.1-0.04
			c-0.02-0.01-0.03-0.02-0.05-0.09c-0.02-0.08-0.04-0.22-0.04-0.42v-8c0-0.18,0.01-0.31,0.03-0.39c0.01-0.06,0.03-0.09,0.04-0.1
			c0.01-0.01,0.01-0.03,0.09-0.05c0.08-0.02,0.22-0.04,0.42-0.04h7.63c0.23,0,0.43-0.02,0.63-0.08c0.29-0.08,0.56-0.27,0.7-0.54
			c0.15-0.26,0.19-0.57,0.2-0.91v-4.55c0-0.23-0.02-0.43-0.08-0.63c-0.08-0.29-0.27-0.56-0.54-0.7c-0.26-0.15-0.57-0.19-0.91-0.2
			h-7.63c-0.18,0-0.31-0.01-0.39-0.03c-0.06-0.01-0.09-0.03-0.1-0.04c-0.02-0.01-0.03-0.02-0.05-0.1c-0.02-0.08-0.04-0.22-0.04-0.42
			v-7.36C243.47,233.79,243.48,233.65,243.5,233.57"/>
	</g>
	<g>
		<path class="st1" d="M0,314.52v-32c0-0.68,0.27-0.95,0.95-0.95h1.22c0.68,0,0.9,0.45,1.04,0.95l7,26.12
			c0.09,0.27,0.45,0.27,0.54,0l7.05-26.12c0.14-0.5,0.36-0.95,1.04-0.95h1.17c0.68,0,0.95,0.27,0.95,0.95v32
			c0,0.68-0.27,0.95-0.95,0.95h-1.49c-0.68,0-0.95-0.27-0.95-0.95v-19.66c0-0.41-0.45-0.45-0.54-0.05l-5.2,19.75
			c-0.18,0.72-0.45,0.9-1.17,0.9h-0.32c-0.72,0-0.99-0.18-1.17-0.9l-5.2-19.75c-0.09-0.41-0.54-0.36-0.54,0.05v19.66
			c0,0.68-0.27,0.95-0.95,0.95H0.95C0.27,315.47,0,315.2,0,314.52z"/>
		<path class="st1" d="M31.74,282.48c0.14-0.77,0.45-0.9,1.18-0.9h1.26c0.72,0,0.99,0.14,1.18,0.9l6.78,32.09
			c0.14,0.68-0.18,0.9-0.68,0.9h-1.67c-0.59,0-0.86-0.23-0.99-0.9l-1.4-6.64c-0.14-0.54-0.32-0.63-0.9-0.63h-5.88
			c-0.59,0-0.81,0.09-0.9,0.63l-1.4,6.64c-0.14,0.68-0.41,0.9-0.99,0.9h-1.67c-0.5,0-0.81-0.23-0.68-0.9L31.74,282.48z
			 M30.84,304.26h5.42c0.27,0,0.41-0.13,0.36-0.49l-2.8-14.51c-0.09-0.32-0.5-0.32-0.54,0l-2.8,14.51
			C30.39,304.13,30.61,304.26,30.84,304.26z"/>
		<path class="st1" d="M49.52,295.54c0,0.68,0.18,0.86,0.86,0.86h6.64c0.68,0,0.95,0.27,0.95,0.95v1.13c0,0.68-0.27,0.95-0.95,0.95
			h-6.64c-0.68,0-0.86,0.18-0.86,0.86v11.3c0,0.68,0.18,0.86,0.86,0.86h6.64c0.68,0,0.95,0.27,0.95,0.95v1.13
			c0,0.68-0.27,0.95-0.95,0.95h-9.99c-0.68,0-0.95-0.27-0.95-0.95v-32c0-0.68,0.27-0.95,0.95-0.95h9.99c0.68,0,0.95,0.27,0.95,0.95
			v1.13c0,0.68-0.27,0.95-0.95,0.95h-6.64c-0.68,0-0.86,0.18-0.86,0.86V295.54z"/>
		<path class="st1" d="M70.45,315.83c-4.52,0-7.86-3.39-8.04-7.59c0-0.41,0.04-0.81,0.59-0.81h1.81c0.5,0,0.77,0.18,0.81,0.63
			c0.32,2.49,2.12,4.7,4.88,4.7c2.62,0,4.52-1.99,4.56-4.79C75.2,300.96,63,296.45,63,288.36c0-4.07,3.03-7.14,7.14-7.14
			c4.16,0,6.82,3.12,7.14,6.73c0.05,0.45-0.05,0.81-0.59,0.81h-1.85c-0.5,0-0.68-0.13-0.77-0.59c-0.41-2.21-1.76-3.84-3.84-3.84
			c-2.17,0-3.84,1.72-3.79,3.93c0.18,5.7,12.07,10.89,12.07,19.48C78.5,312.63,74.66,315.83,70.45,315.83z"/>
		<path class="st1" d="M95.73,282.53v1.13c0,0.68-0.27,0.95-0.95,0.95h-3.84c-0.68,0-0.86,0.18-0.86,0.86v29.06
			c0,0.68-0.27,0.95-0.95,0.95H87.6c-0.68,0-0.95-0.27-0.95-0.95v-29.06c0-0.68-0.18-0.86-0.86-0.86h-3.84
			c-0.68,0-0.95-0.27-0.95-0.95v-1.13c0-0.68,0.27-0.95,0.95-0.95h12.84C95.46,281.58,95.73,281.85,95.73,282.53z"/>
		<path class="st1" d="M114.82,315.47h-1.94c-0.54,0-0.86-0.18-1.04-0.63l-5.06-13.11h-0.09h-2.67c-0.68,0-0.86,0.18-0.86,0.86
			v11.93c0,0.68-0.27,0.95-0.95,0.95h-1.54c-0.68,0-0.95-0.27-0.95-0.95v-32c0-0.68,0.27-0.95,0.95-0.95h6.01
			c4.29,0,7.37,2.98,7.37,8.5v3.16c0,3.98-1.58,6.6-4.07,7.82l5.33,13.51C115.54,315.11,115.31,315.47,114.82,315.47z
			 M104.02,298.62h2.49c2.08,0,4.16-1.54,4.16-5.29v-3.39c0-3.75-2.08-5.33-4.16-5.33h-2.49c-0.68,0-0.86,0.18-0.86,0.86v12.29
			C103.16,298.44,103.34,298.62,104.02,298.62z"/>
		<path class="st1" d="M118.85,307.02v-16.99c0-5.69,2.89-8.81,7.55-8.81c4.61,0,7.5,3.12,7.5,8.81v16.99c0,5.69-2.89,8.81-7.5,8.81
			C121.74,315.83,118.85,312.71,118.85,307.02z M130.51,307.02v-16.99c0-3.8-1.85-5.6-4.11-5.6c-2.26,0-4.11,1.8-4.11,5.6v16.99
			c0,3.8,1.85,5.6,4.11,5.6C128.66,312.63,130.51,310.82,130.51,307.02z"/>
		<path class="st1" d="M146.39,315.83c-4.52,0-7.86-3.39-8.04-7.59c0-0.41,0.04-0.81,0.59-0.81h1.81c0.5,0,0.77,0.18,0.81,0.63
			c0.32,2.49,2.12,4.7,4.88,4.7c2.62,0,4.52-1.99,4.56-4.79c0.14-7.01-12.07-11.52-12.07-19.61c0-4.07,3.03-7.14,7.14-7.14
			c4.16,0,6.82,3.12,7.14,6.73c0.05,0.45-0.05,0.81-0.59,0.81h-1.85c-0.5,0-0.68-0.13-0.77-0.59c-0.41-2.21-1.76-3.84-3.84-3.84
			c-2.17,0-3.84,1.72-3.79,3.93c0.18,5.7,12.07,10.89,12.07,19.48C154.43,312.63,150.59,315.83,146.39,315.83z"/>
		<path class="st1" d="M184.51,290.8v15.45c0,6.1-2.89,9.22-8.32,9.22h-5.96c-0.68,0-0.95-0.27-0.95-0.95v-32
			c0-0.68,0.27-0.95,0.95-0.95h5.96C181.62,281.58,184.51,284.69,184.51,290.8z M181.12,290.57c0-4.16-1.85-5.96-5.06-5.96h-2.49
			c-0.68,0-0.86,0.18-0.86,0.86v26.12c0,0.68,0.18,0.86,0.86,0.86h2.49c3.21,0,5.06-1.81,5.06-5.97V290.57z"/>
		<path class="st1" d="M193.02,295.54c0,0.68,0.18,0.86,0.86,0.86h6.64c0.68,0,0.95,0.27,0.95,0.95v1.13c0,0.68-0.27,0.95-0.95,0.95
			h-6.64c-0.68,0-0.86,0.18-0.86,0.86v11.3c0,0.68,0.18,0.86,0.86,0.86h6.64c0.68,0,0.95,0.27,0.95,0.95v1.13
			c0,0.68-0.27,0.95-0.95,0.95h-9.99c-0.68,0-0.95-0.27-0.95-0.95v-32c0-0.68,0.27-0.95,0.95-0.95h9.99c0.68,0,0.95,0.27,0.95,0.95
			v1.13c0,0.68-0.27,0.95-0.95,0.95h-6.64c-0.68,0-0.86,0.18-0.86,0.86V295.54z"/>
		<path class="st1" d="M218.52,313.39v1.13c0,0.68-0.27,0.95-0.95,0.95h-10.12c-0.68,0-0.95-0.27-0.95-0.95v-32
			c0-0.68,0.27-0.95,0.95-0.95h1.54c0.68,0,0.95,0.27,0.95,0.95v29.06c0,0.68,0.18,0.86,0.86,0.86h6.78
			C218.25,312.45,218.52,312.71,218.52,313.39z"/>
		<path class="st1" d="M231.87,307.02v-16.99c0-5.69,2.89-8.81,7.55-8.81c4.29,0,6.87,2.8,7.23,6.82c0.04,0.41-0.05,0.82-0.59,0.82
			h-1.9c-0.5,0-0.68-0.14-0.77-0.59c-0.41-2.26-1.85-3.84-3.93-3.84c-2.3,0-4.16,1.8-4.16,5.6v16.99c0,3.8,1.85,5.6,4.16,5.6
			c2.08,0,3.53-1.58,3.93-3.84c0.09-0.45,0.27-0.59,0.77-0.59h1.9c0.54,0,0.63,0.41,0.59,0.81c-0.36,4.02-2.94,6.82-7.23,6.82
			C234.76,315.83,231.87,312.71,231.87,307.02z"/>
		<path class="st1" d="M256.74,282.48c0.14-0.77,0.45-0.9,1.18-0.9h1.26c0.72,0,0.99,0.14,1.18,0.9l6.78,32.09
			c0.14,0.68-0.18,0.9-0.68,0.9h-1.67c-0.59,0-0.86-0.23-0.99-0.9l-1.4-6.64c-0.14-0.54-0.32-0.63-0.9-0.63h-5.88
			c-0.59,0-0.81,0.09-0.9,0.63l-1.4,6.64c-0.14,0.68-0.41,0.9-0.99,0.9h-1.67c-0.5,0-0.81-0.23-0.68-0.9L256.74,282.48z
			 M255.83,304.26h5.42c0.27,0,0.41-0.13,0.36-0.49l-2.8-14.51c-0.09-0.32-0.5-0.32-0.54,0l-2.8,14.51
			C255.38,304.13,255.61,304.26,255.83,304.26z"/>
		<path class="st1" d="M283.01,282.53v1.13c0,0.68-0.27,0.95-0.95,0.95h-6.69c-0.68,0-0.86,0.18-0.86,0.86v10.08
			c0,0.68,0.18,0.86,0.86,0.86h4.43c0.68,0,0.95,0.27,0.95,0.95v1.13c0,0.68-0.27,0.95-0.95,0.95h-4.43c-0.68,0-0.86,0.18-0.86,0.86
			v14.24c0,0.68-0.27,0.95-0.95,0.95h-1.54c-0.68,0-0.95-0.27-0.95-0.95v-32c0-0.68,0.27-0.95,0.95-0.95h10.03
			C282.74,281.58,283.01,281.85,283.01,282.53z"/>
		<path class="st1" d="M290.43,295.54c0,0.68,0.18,0.86,0.86,0.86h6.64c0.68,0,0.95,0.27,0.95,0.95v1.13c0,0.68-0.27,0.95-0.95,0.95
			h-6.64c-0.68,0-0.86,0.18-0.86,0.86v11.3c0,0.68,0.18,0.86,0.86,0.86h6.64c0.68,0,0.95,0.27,0.95,0.95v1.13
			c0,0.68-0.27,0.95-0.95,0.95h-9.99c-0.68,0-0.95-0.27-0.95-0.95v-32c0-0.68,0.27-0.95,0.95-0.95h9.99c0.68,0,0.95,0.27,0.95,0.95
			v1.13c0,0.68-0.27,0.95-0.95,0.95h-6.64c-0.68,0-0.86,0.18-0.86,0.86V295.54z M297.21,274.21l-6.87,4.57
			c-0.59,0.41-0.86,0.27-1.26-0.32l-0.5-0.72c-0.41-0.59-0.27-0.86,0.32-1.27l6.87-4.56c0.59-0.41,0.86-0.27,1.26,0.31l0.5,0.72
			C297.93,273.53,297.8,273.8,297.21,274.21z"/>
	</g>
	<g>
		<path class="st0" d="M33.45,341.01c0,0.39,0.11,0.5,0.5,0.5h3.78c0.39,0,0.55,0.16,0.55,0.55v1.84c0,0.39-0.16,0.55-0.55,0.55
			h-3.78c-0.39,0-0.5,0.11-0.5,0.5v4.65c0,0.39,0.11,0.5,0.5,0.5h3.78c0.39,0,0.55,0.16,0.55,0.55v1.84c0,0.39-0.16,0.55-0.55,0.55
			H30.7c-0.39,0-0.55-0.16-0.55-0.55v-18.59c0-0.39,0.16-0.55,0.55-0.55h7.03c0.39,0,0.55,0.16,0.55,0.55v1.84
			c0,0.39-0.16,0.55-0.55,0.55h-3.78c-0.39,0-0.5,0.11-0.5,0.5V341.01z"/>
		<path class="st0" d="M56.64,343.11v9.37c0,0.39-0.16,0.55-0.55,0.55h-2.02c-0.39,0-0.55-0.16-0.55-0.55v-8.9
			c0-1.52-0.84-2.05-1.63-2.02c-0.79,0.03-1.57,0.63-1.57,2.07v8.85c0,0.39-0.16,0.55-0.55,0.55h-1.99c-0.39,0-0.55-0.16-0.55-0.55
			v-8.9c0-1.52-0.87-2.05-1.65-2.02c-0.81,0.03-1.57,0.63-1.57,2.02v8.9c0,0.39-0.16,0.55-0.55,0.55h-1.99
			c-0.39,0-0.55-0.16-0.55-0.55v-12.92c0-0.39,0.16-0.55,0.55-0.55h1.47c0.39,0,0.52,0.18,0.6,0.58l0.18,0.81
			c0.53-0.68,1.29-1.34,2.36-1.55c1.44-0.26,2.91,0.39,3.68,1.81c0.6-0.84,1.5-1.57,2.63-1.81
			C54.51,338.46,56.64,340.04,56.64,343.11z"/>
		<path class="st0" d="M68.72,343.11v5.83c0,3.07-2.18,4.65-4.3,4.25c-0.89-0.18-1.6-0.68-2.13-1.23v5.99
			c0,0.39-0.16,0.55-0.55,0.55h-1.99c-0.39,0-0.55-0.16-0.55-0.55v-18.38c0-0.39,0.16-0.55,0.55-0.55h1.47
			c0.39,0,0.52,0.18,0.6,0.58l0.18,0.84c0.55-0.71,1.34-1.37,2.42-1.57C66.54,338.46,68.72,340.04,68.72,343.11z M65.62,343.58
			c0-1.52-0.92-2.05-1.71-2.02c-0.81,0.03-1.63,0.63-1.63,2.02v4.38v0.5c0,1.39,0.81,1.99,1.63,2.02c0.79,0.03,1.71-0.5,1.71-2.02
			V343.58z"/>
		<path class="st0" d="M77.51,339.41v1.97c0,0.39-0.16,0.55-0.55,0.55c-1.55,0-2.7,0.79-2.7,2.68v7.88c0,0.39-0.16,0.55-0.55,0.55
			h-1.99c-0.39,0-0.55-0.16-0.55-0.55v-12.92c0-0.39,0.16-0.55,0.55-0.55h1.47c0.39,0,0.52,0.18,0.6,0.58l0.16,0.73
			c0.87-1.05,1.92-1.47,3.02-1.47C77.36,338.86,77.51,339.01,77.51,339.41z"/>
		<path class="st0" d="M88.39,344.05v0.45c0,0.55-0.03,0.87-0.08,1.37c-0.03,0.39-0.16,0.55-0.55,0.55h-5.38
			c-0.21,0-0.26,0.05-0.26,0.26v1.84c0,1.44,0.92,1.97,1.71,1.97c0.79,0,1.29-0.53,1.5-1.13c0.08-0.24,0.21-0.31,0.45-0.31h2.02
			c0.32,0,0.37,0.24,0.34,0.47c-0.32,2.81-2.42,3.75-4.31,3.75c-2.28,0-4.73-1.37-4.73-5.72v-3.05c0-4.36,2.44-5.72,4.73-5.72
			C85.92,338.78,88.39,339.96,88.39,344.05z M83.9,341.4c-0.76,0-1.79,0.53-1.79,2.02V344c0,0.21,0.05,0.26,0.26,0.26h3.05
			c0.21,0,0.26-0.05,0.26-0.26v-0.58C85.68,341.93,84.66,341.4,83.9,341.4z"/>
		<path class="st0" d="M90.44,349.51c-0.03-0.24,0.03-0.47,0.34-0.47h2.07c0.24,0,0.39,0.08,0.45,0.31
			c0.21,0.76,0.68,1.29,1.47,1.29c0.73,0,1.37-0.45,1.37-1.26c0.08-2.31-5.28-2.55-5.51-6.56c-0.13-2.44,1.76-4.04,4.07-4.04
			c1.94,0,3.99,1.18,4.07,3.75c0.03,0.24-0.03,0.47-0.34,0.47h-1.89c-0.24,0-0.39-0.08-0.45-0.31c-0.13-0.58-0.47-1.26-1.26-1.29
			c-0.73-0.03-1.23,0.53-1.23,1.1c-0.05,2.05,5.78,2.65,5.7,6.85c-0.05,2.49-2.1,3.91-4.44,3.91
			C92.48,353.27,90.78,351.88,90.44,349.51z"/>
		<path class="st0" d="M101.18,348.94c0-3.83,3.1-4.57,6.3-4.94v-0.81c0-1.23-0.76-1.79-1.6-1.79c-0.81,0-1.34,0.53-1.5,1.29
			c-0.05,0.24-0.21,0.31-0.45,0.31h-1.89c-0.32,0-0.34-0.24-0.34-0.47c0.08-2.63,2.15-3.75,4.36-3.75c2.26,0,4.49,1.34,4.49,4.94
			l0.03,6.27c0,1.31,0.11,1.84,0.24,2.52c0.08,0.39-0.13,0.53-0.53,0.53h-1.89c-0.39,0-0.5-0.13-0.6-0.97
			c-0.58,0.63-1.39,1.02-2.23,1.15C103.41,353.58,101.18,352.09,101.18,348.94z M107.48,348.46v-2.6c-2.07,0.31-3.26,0.81-3.2,2.78
			c0.03,1.31,0.81,1.89,1.63,1.84C106.69,350.46,107.48,349.85,107.48,348.46z"/>
		<path class="st0" d="M128.2,333.89v18.59c0,0.39-0.16,0.55-0.55,0.55h-1.5c-0.39,0-0.5-0.18-0.58-0.58l-0.18-0.87
			c-0.55,0.71-1.34,1.39-2.42,1.6c-2.15,0.39-4.31-1.18-4.31-4.25v-5.83c0-3.07,2.15-4.65,4.31-4.25c0.89,0.18,1.6,0.68,2.13,1.26
			v-6.22c0-0.39,0.16-0.55,0.55-0.55h2C128.04,333.34,128.2,333.5,128.2,333.89z M125.1,348.46v-4.38v-0.5
			c0-1.39-0.84-1.99-1.63-2.02c-0.79-0.03-1.71,0.5-1.71,2.02v4.88c0,1.5,0.92,2.05,1.71,2.02
			C124.26,350.46,125.1,349.85,125.1,348.46z"/>
		<path class="st0" d="M139.93,344.05v0.45c0,0.55-0.03,0.87-0.08,1.37c-0.03,0.39-0.16,0.55-0.55,0.55h-5.38
			c-0.21,0-0.26,0.05-0.26,0.26v1.84c0,1.44,0.92,1.97,1.71,1.97c0.79,0,1.29-0.53,1.5-1.13c0.08-0.24,0.21-0.31,0.45-0.31h2.02
			c0.32,0,0.37,0.24,0.34,0.47c-0.32,2.81-2.42,3.75-4.31,3.75c-2.28,0-4.73-1.37-4.73-5.72v-3.05c0-4.36,2.44-5.72,4.73-5.72
			C137.47,338.78,139.93,339.96,139.93,344.05z M135.44,341.4c-0.76,0-1.79,0.53-1.79,2.02V344c0,0.21,0.05,0.26,0.26,0.26h3.05
			c0.21,0,0.26-0.05,0.26-0.26v-0.58C137.23,341.93,136.21,341.4,135.44,341.4z"/>
		<path class="st0" d="M157.79,333.89v1.84c0,0.39-0.16,0.55-0.55,0.55h-2.31c-0.39,0-0.5,0.11-0.5,0.5v15.7
			c0,0.39-0.16,0.55-0.55,0.55h-2.18c-0.39,0-0.55-0.16-0.55-0.55v-15.7c0-0.39-0.11-0.5-0.5-0.5h-2.31c-0.39,0-0.55-0.16-0.55-0.55
			v-1.84c0-0.39,0.16-0.55,0.55-0.55h8.9C157.63,333.34,157.79,333.5,157.79,333.89z"/>
		<path class="st0" d="M158.71,347.99v-3.94c0-3.86,2.52-5.28,4.75-5.28c2.26,0,4.78,1.42,4.78,5.28v3.94
			c0,3.86-2.52,5.28-4.78,5.28C161.23,353.27,158.71,351.85,158.71,347.99z M163.46,341.56c-0.76,0-1.65,0.5-1.65,2.02v4.88
			c0,1.5,0.89,2.02,1.65,2.02c0.76,0,1.68-0.53,1.68-2.02v-4.88C165.14,342.06,164.22,341.56,163.46,341.56z"/>
		<path class="st0" d="M177.04,339.41v1.97c0,0.39-0.16,0.55-0.55,0.55c-1.55,0-2.7,0.79-2.7,2.68v7.88c0,0.39-0.16,0.55-0.55,0.55
			h-2c-0.39,0-0.55-0.16-0.55-0.55v-12.92c0-0.39,0.16-0.55,0.55-0.55h1.47c0.39,0,0.53,0.18,0.6,0.58l0.16,0.73
			c0.87-1.05,1.92-1.47,3.02-1.47C176.88,338.86,177.04,339.01,177.04,339.41z"/>
		<path class="st0" d="M185.1,339.41v1.97c0,0.39-0.16,0.55-0.55,0.55c-1.55,0-2.7,0.79-2.7,2.68v7.88c0,0.39-0.16,0.55-0.55,0.55
			h-1.99c-0.39,0-0.55-0.16-0.55-0.55v-12.92c0-0.39,0.16-0.55,0.55-0.55h1.47c0.39,0,0.52,0.18,0.6,0.58l0.16,0.73
			c0.87-1.05,1.92-1.47,3.02-1.47C184.94,338.86,185.1,339.01,185.1,339.41z"/>
		<path class="st0" d="M195.97,344.05v0.45c0,0.55-0.03,0.87-0.08,1.37c-0.03,0.39-0.16,0.55-0.55,0.55h-5.38
			c-0.21,0-0.26,0.05-0.26,0.26v1.84c0,1.44,0.92,1.97,1.71,1.97c0.79,0,1.29-0.53,1.5-1.13c0.08-0.24,0.21-0.31,0.45-0.31h2.02
			c0.31,0,0.37,0.24,0.34,0.47c-0.31,2.81-2.42,3.75-4.31,3.75c-2.28,0-4.72-1.37-4.72-5.72v-3.05c0-4.36,2.44-5.72,4.72-5.72
			C193.5,338.78,195.97,339.96,195.97,344.05z M191.48,341.4c-0.76,0-1.78,0.53-1.78,2.02V344c0,0.21,0.05,0.26,0.26,0.26h3.04
			c0.21,0,0.26-0.05,0.26-0.26v-0.58C193.27,341.93,192.24,341.4,191.48,341.4z"/>
		<path class="st0" d="M199.26,352.48v-10.55c0-0.31-0.08-0.39-0.39-0.39h-0.5c-0.39,0-0.55-0.16-0.55-0.55v-1.42
			c0-0.39,0.16-0.55,0.55-0.55h0.52c0.32,0,0.39-0.08,0.39-0.34v-1.44c0-2.7,1.63-3.89,4.7-3.89c0.39,0,0.55,0.16,0.55,0.55v1.55
			c0,0.39-0.16,0.55-0.55,0.55c-1.08,0-1.68,0.45-1.68,1.23v1.44c0,0.24,0.08,0.34,0.34,0.34h1.34c0.39,0,0.55,0.16,0.55,0.55v1.42
			c0,0.39-0.16,0.55-0.55,0.55h-1.21c-0.32,0-0.42,0.08-0.42,0.39v10.55c0,0.39-0.16,0.55-0.55,0.55h-1.99
			C199.41,353.03,199.26,352.87,199.26,352.48z"/>
		<path class="st0" d="M206.35,348.94c0-3.83,3.1-4.57,6.3-4.94v-0.81c0-1.23-0.76-1.79-1.6-1.79c-0.81,0-1.34,0.53-1.5,1.29
			c-0.05,0.24-0.21,0.31-0.45,0.31h-1.89c-0.32,0-0.34-0.24-0.34-0.47c0.08-2.63,2.15-3.75,4.36-3.75c2.26,0,4.49,1.34,4.49,4.94
			l0.03,6.27c0,1.31,0.11,1.84,0.24,2.52c0.08,0.39-0.13,0.53-0.52,0.53h-1.89c-0.39,0-0.5-0.13-0.6-0.97
			c-0.58,0.63-1.39,1.02-2.23,1.15C208.58,353.58,206.35,352.09,206.35,348.94z M212.65,348.46v-2.6c-2.07,0.31-3.26,0.81-3.2,2.78
			c0.03,1.31,0.81,1.89,1.63,1.84C211.86,350.46,212.65,349.85,212.65,348.46z"/>
		<path class="st0" d="M226.88,349.51c-0.31,2.81-2.39,3.75-4.3,3.75c-2.39,0-4.65-1.37-4.65-5.28v-3.94c0-3.91,2.26-5.28,4.65-5.28
			c1.92,0,3.99,0.95,4.3,3.75c0.03,0.24-0.03,0.47-0.34,0.47h-1.94c-0.24,0-0.37-0.08-0.45-0.31c-0.21-0.63-0.68-1.13-1.47-1.13
			c-0.79,0-1.65,0.53-1.65,1.97v4.99c0,1.44,0.87,1.97,1.65,1.97c0.79,0,1.29-0.53,1.47-1.13c0.08-0.24,0.21-0.31,0.45-0.31h1.94
			C226.85,349.04,226.91,349.28,226.88,349.51z"/>
		<path class="st0" d="M238.14,349.51c-0.32,2.81-2.39,3.75-4.31,3.75c-2.39,0-4.65-1.37-4.65-5.28v-3.94
			c0-3.91,2.26-5.28,4.65-5.28c1.92,0,3.99,0.95,4.31,3.75c0.03,0.24-0.03,0.47-0.34,0.47h-1.94c-0.24,0-0.37-0.08-0.45-0.31
			c-0.21-0.63-0.68-1.13-1.47-1.13c-0.79,0-1.65,0.53-1.65,1.97v4.99c0,1.44,0.87,1.97,1.65,1.97c0.79,0,1.29-0.53,1.47-1.13
			c0.08-0.24,0.21-0.31,0.45-0.31h1.94C238.12,349.04,238.17,349.28,238.14,349.51z"/>
		<path class="st0" d="M240.2,334.37c0-1.05,0.87-1.92,1.94-1.92c1.05,0,1.89,0.87,1.89,1.92c0,1.05-0.84,1.92-1.89,1.92
			C241.06,336.28,240.2,335.42,240.2,334.37z M243.69,339.56v12.92c0,0.39-0.16,0.55-0.55,0.55h-2c-0.39,0-0.55-0.16-0.55-0.55
			v-12.92c0-0.39,0.16-0.55,0.55-0.55h2C243.53,339.01,243.69,339.17,243.69,339.56z"/>
		<path class="st0" d="M246.1,347.99v-3.94c0-3.86,2.52-5.28,4.75-5.28c2.26,0,4.78,1.42,4.78,5.28v3.94c0,3.86-2.52,5.28-4.78,5.28
			C248.62,353.27,246.1,351.85,246.1,347.99z M251.62,331.69c0.29-0.29,0.5-0.29,0.79,0l1,1.05c0.29,0.29,0.29,0.47,0,0.76
			l-3.44,3.26c-0.29,0.29-0.52,0.26-0.79,0l-1.05-1.02c-0.26-0.26-0.26-0.53,0-0.79L251.62,331.69z M250.86,341.56
			c-0.76,0-1.65,0.5-1.65,2.02v4.88c0,1.5,0.89,2.02,1.65,2.02c0.76,0,1.68-0.53,1.68-2.02v-4.88
			C252.54,342.06,251.62,341.56,250.86,341.56z"/>
		<path class="st0" d="M267.61,343.11v9.37c0,0.39-0.16,0.55-0.55,0.55h-1.99c-0.39,0-0.55-0.16-0.55-0.55v-8.9
			c0-1.52-0.92-2.05-1.71-2.02c-0.81,0.03-1.63,0.63-1.63,2.02v8.9c0,0.39-0.16,0.55-0.55,0.55h-1.99c-0.39,0-0.55-0.16-0.55-0.55
			v-12.92c0-0.39,0.16-0.55,0.55-0.55h1.47c0.39,0,0.52,0.18,0.6,0.58l0.18,0.84c0.55-0.71,1.34-1.37,2.42-1.57
			C265.43,338.46,267.61,340.04,267.61,343.11z"/>
	</g>
	<g>
		<path class="st0" d="M15.05,389.45v-1.68c0-0.39,0.16-0.52,0.55-0.55c0.84-0.08,1.68-0.24,2-1.26c0.52-1.71,0.52-1.92,0.26-2.7
			l-3.7-12.21c-0.08-0.34,0.05-0.53,0.34-0.53h2.18c0.34,0,0.53,0.18,0.6,0.53l2.13,8.01c0.05,0.18,0.26,0.18,0.32,0l2.07-8.01
			c0.1-0.34,0.26-0.53,0.6-0.53h2.18c0.29,0,0.47,0.18,0.34,0.53l-5.04,16.35c-0.63,2.07-2.55,2.6-4.28,2.6
			C15.2,390,15.05,389.82,15.05,389.45z"/>
		<path class="st0" d="M32.27,378.45v-7.51c0-3.88,1.81-6.33,5.38-6.33c3.33,0,5.07,2.23,5.17,4.96c0,0.26-0.03,0.47-0.34,0.47
			h-2.39c-0.29,0-0.42-0.1-0.45-0.37c-0.18-1.08-0.79-1.99-1.99-1.99c-1.42,0-2.07,1.31-2.07,3.26v7.51c0,1.94,0.66,3.26,2.07,3.26
			c1.21,0,1.81-0.92,1.99-1.99c0.03-0.26,0.16-0.37,0.45-0.37h2.39c0.32,0,0.34,0.21,0.34,0.47c-0.1,2.73-1.84,4.96-5.17,4.96
			C34.08,384.78,32.27,382.34,32.27,378.45z"/>
		<path class="st0" d="M45.27,379.5v-3.94c0-3.86,2.52-5.28,4.75-5.28c2.26,0,4.78,1.42,4.78,5.28v3.94c0,3.86-2.52,5.28-4.78,5.28
			C47.79,384.78,45.27,383.36,45.27,379.5z M50.02,373.07c-0.76,0-1.65,0.5-1.65,2.02v4.88c0,1.5,0.89,2.02,1.65,2.02
			c0.76,0,1.68-0.52,1.68-2.02v-4.88C51.7,373.57,50.78,373.07,50.02,373.07z"/>
		<path class="st0" d="M73,374.62v9.37c0,0.39-0.16,0.55-0.55,0.55h-2.02c-0.39,0-0.55-0.16-0.55-0.55v-8.9
			c0-1.52-0.84-2.05-1.63-2.02c-0.79,0.03-1.57,0.63-1.57,2.07v8.85c0,0.39-0.16,0.55-0.55,0.55h-1.99c-0.39,0-0.55-0.16-0.55-0.55
			v-8.9c0-1.52-0.87-2.05-1.65-2.02c-0.81,0.03-1.57,0.63-1.57,2.02v8.9c0,0.39-0.16,0.55-0.55,0.55H57.8
			c-0.39,0-0.55-0.16-0.55-0.55v-12.92c0-0.39,0.16-0.55,0.55-0.55h1.47c0.39,0,0.52,0.18,0.6,0.58l0.18,0.81
			c0.53-0.68,1.29-1.34,2.36-1.55c1.44-0.26,2.91,0.39,3.68,1.81c0.6-0.84,1.5-1.57,2.63-1.81C70.87,369.97,73,371.55,73,374.62z"/>
		<path class="st0" d="M84.71,375.56v0.45c0,0.55-0.03,0.87-0.08,1.37c-0.03,0.39-0.16,0.55-0.55,0.55H78.7
			c-0.21,0-0.26,0.05-0.26,0.26v1.84c0,1.44,0.92,1.97,1.71,1.97c0.79,0,1.29-0.52,1.5-1.13c0.08-0.24,0.21-0.31,0.45-0.31h2.02
			c0.32,0,0.37,0.24,0.34,0.47c-0.32,2.81-2.42,3.75-4.31,3.75c-2.28,0-4.73-1.36-4.73-5.72v-3.05c0-4.36,2.44-5.72,4.73-5.72
			C82.24,370.29,84.71,371.47,84.71,375.56z M80.22,372.91c-0.76,0-1.79,0.53-1.79,2.02v0.58c0,0.21,0.05,0.26,0.26,0.26h3.05
			c0.21,0,0.26-0.05,0.26-0.26v-0.58C82.01,373.44,80.98,372.91,80.22,372.91z"/>
		<path class="st0" d="M93.51,370.92v1.97c0,0.39-0.16,0.55-0.55,0.55c-1.55,0-2.7,0.79-2.7,2.68v7.88c0,0.39-0.16,0.55-0.55,0.55
			h-2c-0.39,0-0.55-0.16-0.55-0.55v-12.92c0-0.39,0.16-0.55,0.55-0.55h1.47c0.39,0,0.53,0.18,0.6,0.58l0.16,0.73
			c0.87-1.05,1.92-1.47,3.02-1.47C93.35,370.36,93.51,370.52,93.51,370.92z"/>
		<path class="st0" d="M104.04,381.02c-0.31,2.81-2.39,3.75-4.3,3.75c-2.39,0-4.65-1.36-4.65-5.28v-3.94c0-3.91,2.26-5.28,4.65-5.28
			c1.92,0,3.99,0.95,4.3,3.75c0.03,0.24-0.03,0.47-0.34,0.47h-1.94c-0.24,0-0.37-0.08-0.45-0.31c-0.21-0.63-0.68-1.13-1.47-1.13
			c-0.79,0-1.65,0.53-1.65,1.97v4.99c0,1.44,0.87,1.97,1.65,1.97c0.79,0,1.29-0.52,1.47-1.13c0.08-0.24,0.21-0.31,0.45-0.31h1.94
			C104.01,380.55,104.06,380.79,104.04,381.02z"/>
		<path class="st0" d="M106.09,365.88c0-1.05,0.87-1.92,1.94-1.92c1.05,0,1.89,0.87,1.89,1.92c0,1.05-0.84,1.92-1.89,1.92
			C106.95,367.79,106.09,366.92,106.09,365.88z M109.58,371.07v12.92c0,0.39-0.16,0.55-0.55,0.55h-1.99c-0.39,0-0.55-0.16-0.55-0.55
			v-12.92c0-0.39,0.16-0.55,0.55-0.55h1.99C109.42,370.52,109.58,370.68,109.58,371.07z"/>
		<path class="st0" d="M112,380.45c0-3.83,3.1-4.57,6.3-4.94v-0.81c0-1.23-0.76-1.79-1.6-1.79c-0.81,0-1.34,0.53-1.5,1.29
			c-0.05,0.24-0.21,0.31-0.45,0.31h-1.89c-0.32,0-0.34-0.24-0.34-0.47c0.08-2.63,2.15-3.75,4.36-3.75c2.26,0,4.49,1.34,4.49,4.94
			l0.03,6.27c0,1.31,0.11,1.84,0.24,2.52c0.08,0.39-0.13,0.52-0.53,0.52h-1.89c-0.39,0-0.5-0.13-0.6-0.97
			c-0.58,0.63-1.39,1.02-2.23,1.16C114.23,385.09,112,383.6,112,380.45z M118.3,379.97v-2.6c-2.07,0.31-3.26,0.81-3.2,2.78
			c0.03,1.31,0.81,1.89,1.63,1.84C117.51,381.97,118.3,381.36,118.3,379.97z"/>
		<path class="st0" d="M128.77,382.44v1.55c0,0.39-0.16,0.55-0.55,0.55c-3.26,0-4.52-1.23-4.52-4.59V365.4
			c0-0.39,0.16-0.55,0.55-0.55h1.99c0.39,0,0.55,0.16,0.55,0.55v14.83c0,1.18,0.63,1.63,1.42,1.65
			C128.62,381.91,128.77,382.05,128.77,382.44z"/>
		<path class="st0" d="M130.35,365.88c0-1.05,0.87-1.92,1.94-1.92c1.05,0,1.89,0.87,1.89,1.92c0,1.05-0.84,1.92-1.89,1.92
			C131.22,367.79,130.35,366.92,130.35,365.88z M133.84,371.07v12.92c0,0.39-0.16,0.55-0.55,0.55h-1.99c-0.39,0-0.55-0.16-0.55-0.55
			v-12.92c0-0.39,0.16-0.55,0.55-0.55h1.99C133.69,370.52,133.84,370.68,133.84,371.07z"/>
		<path class="st0" d="M135.89,382.57c0-0.24,0.05-0.42,0.18-0.66l4.49-8.56c0.08-0.11,0.03-0.24-0.11-0.24h-4.02
			c-0.39,0-0.55-0.16-0.55-0.55v-1.5c0-0.39,0.16-0.55,0.55-0.55h7.04c0.42,0,0.55,0.16,0.55,0.55v1.39c0,0.24-0.03,0.45-0.18,0.68
			l-4.49,8.56c-0.05,0.11-0.03,0.24,0.13,0.24h3.99c0.39,0,0.55,0.16,0.55,0.55v1.5c0,0.39-0.16,0.55-0.55,0.55h-7.04
			c-0.42,0-0.55-0.16-0.55-0.55V382.57z"/>
		<path class="st0" d="M145.98,380.45c0-3.83,3.1-4.57,6.3-4.94v-0.81c0-1.23-0.76-1.79-1.6-1.79c-0.81,0-1.34,0.53-1.5,1.29
			c-0.05,0.24-0.21,0.31-0.45,0.31h-1.89c-0.32,0-0.34-0.24-0.34-0.47c0.08-2.63,2.15-3.75,4.36-3.75c2.26,0,4.49,1.34,4.49,4.94
			l0.03,6.27c0,1.31,0.11,1.84,0.24,2.52c0.08,0.39-0.13,0.52-0.52,0.52h-1.89c-0.39,0-0.5-0.13-0.6-0.97
			c-0.58,0.63-1.39,1.02-2.23,1.16C148.21,385.09,145.98,383.6,145.98,380.45z M152.28,379.97v-2.6c-2.07,0.31-3.26,0.81-3.2,2.78
			c0.03,1.31,0.81,1.89,1.63,1.84C151.49,381.97,152.28,381.36,152.28,379.97z"/>
		<path class="st0" d="M166.51,381.02c-0.32,2.81-2.39,3.75-4.31,3.75c-2.39,0-4.65-1.36-4.65-5.28v-3.94
			c0-3.91,2.26-5.28,4.65-5.28c1.92,0,3.99,0.95,4.31,3.75c0.03,0.24-0.03,0.47-0.34,0.47h-1.94c-0.24,0-0.37-0.08-0.45-0.31
			c-0.21-0.63-0.68-1.13-1.47-1.13c-0.79,0-1.65,0.53-1.65,1.97v4.99c0,1.44,0.87,1.97,1.65,1.97c0.79,0,1.29-0.52,1.47-1.13
			c0.08-0.24,0.21-0.31,0.45-0.31h1.94C166.48,380.55,166.54,380.79,166.51,381.02z"/>
		<path class="st0" d="M168.56,365.88c0-1.05,0.87-1.92,1.94-1.92c1.05,0,1.89,0.87,1.89,1.92c0,1.05-0.84,1.92-1.89,1.92
			C169.43,367.79,168.56,366.92,168.56,365.88z M172.05,371.07v12.92c0,0.39-0.16,0.55-0.55,0.55h-2c-0.39,0-0.55-0.16-0.55-0.55
			v-12.92c0-0.39,0.16-0.55,0.55-0.55h2C171.89,370.52,172.05,370.68,172.05,371.07z"/>
		<path class="st0" d="M174.47,379.5v-3.94c0-3.86,2.52-5.28,4.75-5.28c2.26,0,4.78,1.42,4.78,5.28v3.94c0,3.86-2.52,5.28-4.78,5.28
			C176.99,384.78,174.47,383.36,174.47,379.5z M179.98,363.2c0.29-0.29,0.5-0.29,0.79,0l1,1.05c0.29,0.29,0.29,0.47,0,0.76
			l-3.44,3.26c-0.29,0.29-0.52,0.26-0.79,0l-1.05-1.02c-0.26-0.26-0.26-0.53,0-0.79L179.98,363.2z M179.22,373.07
			c-0.76,0-1.65,0.5-1.65,2.02v4.88c0,1.5,0.89,2.02,1.65,2.02c0.76,0,1.68-0.52,1.68-2.02v-4.88
			C180.9,373.57,179.98,373.07,179.22,373.07z"/>
		<path class="st0" d="M195.97,374.62v9.37c0,0.39-0.16,0.55-0.55,0.55h-1.99c-0.39,0-0.55-0.16-0.55-0.55v-8.9
			c0-1.52-0.92-2.05-1.71-2.02c-0.81,0.03-1.63,0.63-1.63,2.02v8.9c0,0.39-0.16,0.55-0.55,0.55H187c-0.39,0-0.55-0.16-0.55-0.55
			v-12.92c0-0.39,0.16-0.55,0.55-0.55h1.47c0.39,0,0.52,0.18,0.6,0.58l0.18,0.84c0.55-0.71,1.34-1.37,2.42-1.57
			C193.79,369.97,195.97,371.55,195.97,374.62z"/>
		<path class="st0" d="M213.86,365.4v18.59c0,0.39-0.16,0.55-0.55,0.55h-1.5c-0.39,0-0.5-0.18-0.58-0.58l-0.18-0.87
			c-0.55,0.71-1.34,1.39-2.42,1.6c-2.15,0.39-4.31-1.18-4.31-4.25v-5.83c0-3.07,2.15-4.65,4.31-4.25c0.89,0.18,1.6,0.68,2.13,1.26
			v-6.22c0-0.39,0.16-0.55,0.55-0.55h1.99C213.7,364.85,213.86,365.01,213.86,365.4z M210.76,379.97v-4.38v-0.5
			c0-1.39-0.84-1.99-1.63-2.02c-0.79-0.03-1.71,0.5-1.71,2.02v4.88c0,1.5,0.92,2.05,1.71,2.02
			C209.92,381.97,210.76,381.36,210.76,379.97z"/>
		<path class="st0" d="M225.59,375.56v0.45c0,0.55-0.03,0.87-0.08,1.37c-0.03,0.39-0.16,0.55-0.55,0.55h-5.38
			c-0.21,0-0.26,0.05-0.26,0.26v1.84c0,1.44,0.92,1.97,1.71,1.97c0.79,0,1.29-0.52,1.5-1.13c0.08-0.24,0.21-0.31,0.45-0.31h2.02
			c0.32,0,0.37,0.24,0.34,0.47c-0.32,2.81-2.42,3.75-4.31,3.75c-2.28,0-4.73-1.36-4.73-5.72v-3.05c0-4.36,2.44-5.72,4.73-5.72
			C223.13,370.29,225.59,371.47,225.59,375.56z M221.11,372.91c-0.76,0-1.79,0.53-1.79,2.02v0.58c0,0.21,0.05,0.26,0.26,0.26h3.05
			c0.21,0,0.26-0.05,0.26-0.26v-0.58C222.89,373.44,221.87,372.91,221.11,372.91z"/>
		<path class="st0" d="M233.95,378.45v-7.51c0-3.88,1.81-6.33,5.38-6.33c3.34,0,5.07,2.23,5.17,4.96c0,0.26-0.03,0.47-0.34,0.47
			h-2.39c-0.29,0-0.42-0.1-0.45-0.37c-0.18-1.08-0.79-1.99-2-1.99c-1.42,0-2.07,1.31-2.07,3.26v7.51c0,1.94,0.66,3.26,2.07,3.26
			c1.21,0,1.81-0.92,2-1.99c0.03-0.26,0.16-0.37,0.45-0.37h2.39c0.31,0,0.34,0.21,0.34,0.47c-0.11,2.73-1.84,4.96-5.17,4.96
			C235.76,384.78,233.95,382.34,233.95,378.45z"/>
		<path class="st0" d="M246.95,380.45c0-3.83,3.1-4.57,6.3-4.94v-0.81c0-1.23-0.76-1.79-1.6-1.79c-0.81,0-1.34,0.53-1.5,1.29
			c-0.05,0.24-0.21,0.31-0.45,0.31h-1.89c-0.32,0-0.34-0.24-0.34-0.47c0.08-2.63,2.15-3.75,4.36-3.75c2.26,0,4.49,1.34,4.49,4.94
			l0.03,6.27c0,1.31,0.11,1.84,0.24,2.52c0.08,0.39-0.13,0.52-0.52,0.52h-1.89c-0.39,0-0.5-0.13-0.6-0.97
			c-0.58,0.63-1.39,1.02-2.23,1.16C249.18,385.09,246.95,383.6,246.95,380.45z M253.25,379.97v-2.6c-2.07,0.31-3.26,0.81-3.2,2.78
			c0.03,1.31,0.81,1.89,1.63,1.84C252.46,381.97,253.25,381.36,253.25,379.97z"/>
		<path class="st0" d="M259.5,383.99v-10.55c0-0.31-0.08-0.39-0.39-0.39h-0.5c-0.39,0-0.55-0.16-0.55-0.55v-1.42
			c0-0.39,0.16-0.55,0.55-0.55h0.52c0.32,0,0.39-0.08,0.39-0.34v-1.44c0-2.7,1.63-3.89,4.7-3.89c0.39,0,0.55,0.16,0.55,0.55v1.55
			c0,0.39-0.16,0.55-0.55,0.55c-1.08,0-1.68,0.45-1.68,1.23v1.44c0,0.24,0.08,0.34,0.34,0.34h1.34c0.39,0,0.55,0.16,0.55,0.55v1.42
			c0,0.39-0.16,0.55-0.55,0.55h-1.21c-0.32,0-0.42,0.08-0.42,0.39v10.55c0,0.39-0.16,0.55-0.55,0.55h-1.99
			C259.66,384.54,259.5,384.38,259.5,383.99z"/>
		<path class="st0" d="M275.88,375.56v0.45c0,0.55-0.03,0.87-0.08,1.37c-0.03,0.39-0.16,0.55-0.55,0.55h-5.38
			c-0.21,0-0.26,0.05-0.26,0.26v1.84c0,1.44,0.92,1.97,1.71,1.97c0.79,0,1.29-0.52,1.5-1.13c0.08-0.24,0.21-0.31,0.45-0.31h2.02
			c0.31,0,0.37,0.24,0.34,0.47c-0.31,2.81-2.42,3.75-4.31,3.75c-2.28,0-4.72-1.36-4.72-5.72v-3.05c0-4.36,2.44-5.72,4.72-5.72
			C273.41,370.29,275.88,371.47,275.88,375.56z M272.1,363.2c0.29-0.29,0.5-0.29,0.79,0l1,1.05c0.29,0.29,0.29,0.47,0,0.76
			l-3.44,3.26c-0.29,0.29-0.53,0.26-0.79,0l-1.05-1.02c-0.26-0.26-0.26-0.53,0-0.79L272.1,363.2z M271.39,372.91
			c-0.76,0-1.78,0.53-1.78,2.02v0.58c0,0.21,0.05,0.26,0.26,0.26h3.04c0.21,0,0.26-0.05,0.26-0.26v-0.58
			C273.18,373.44,272.15,372.91,271.39,372.91z"/>
	</g>
	<path class="st0" d="M292.91,130.83c-0.21-2.05-0.75-4.14-1.63-6.12c-0.88-1.98-2.15-3.81-3.61-5.32c-2.97-3.01-6.4-4.8-9.69-6.3
		c-13.12-5.49-26.84-8.56-40.62-10.05c-13.77-1.37-27.46-2.18-41.28-1.95c-6.89,0.13-13.78,0.46-20.65,1.04
		c-3.43,0.29-6.86,0.65-10.27,1.01c-3.44,0.38-6.77,0.8-10.09,1.03c-1.66,0.11-3.32,0.21-4.94,0.19c-0.61,0-1.21-0.02-1.81-0.05
		c0.33-0.16,0.67-0.32,1-0.46c2.93-1.29,6.09-2.35,9.29-3.36c3.21-1.01,6.47-1.94,9.81-2.91c1.68-0.51,3.35-1.01,5.17-1.74
		c0.94-0.42,1.82-0.7,3.19-1.79c0.35-0.3,0.77-0.68,1.23-1.46c0.23-0.41,0.44-0.92,0.54-1.57c0.1-0.64,0.03-1.37-0.16-1.96
		c-0.41-1.21-1.02-1.76-1.43-2.15c-0.43-0.38-0.81-0.63-1.13-0.81c-1.26-0.72-2.27-1.02-3.05-1.3l-2.49-0.86
		c-1.66-0.58-3.35-1.06-5.03-1.59c-6.77-1.95-13.72-3.43-20.76-4.29c-11.59-1.42-23.2-1.19-34.63-0.32
		c8.16-1.84,16.45-3.19,24.82-4.08c13.17-1.36,26.52-1.77,39.78-0.71c13.27,0.98,26.48,3.35,39.37,7.1
		c6.45,1.87,12.82,4.08,19.1,6.56c6.27,2.51,12.44,5.34,18.62,8.23c3.11,1.44,6.17,2.91,9.45,4.25c3.35,1.34,6.93,2.19,10.56,2.26
		c3.62,0.09,7.28-0.58,10.6-2.11c3.3-1.52,6.27-4,8.03-7.28c3.3-6.57,3.05-14.12,1-20.76c-1.02-3.35-2.46-6.55-4.27-9.52
		c-1.79-2.97-3.86-5.7-6.22-8.35l0.01,0.01c-0.01-0.01-0.02-0.02-0.03-0.03c0-0.01-0.01-0.01-0.01-0.02l0,0
		c-4.51-5.18-9.5-9.93-14.86-14.21c-5.33-4.37-11.08-8.18-16.99-11.71c-5.93-3.51-12.12-6.57-18.44-9.34
		c-6.34-2.73-12.83-5.11-19.44-7.17c-26.48-8.03-54.7-10.86-82.66-8c-13.96,1.51-27.9,4.38-41.32,9.16
		c-6.72,2.35-13.31,5.16-19.73,8.38c-6.37,3.31-12.59,7.03-18.46,11.32c-11.72,8.57-22.29,19.3-29.92,32.34
		c-3.81,6.5-6.87,13.56-8.81,20.98C8.07,92.45,7.2,100.2,7.48,107.9c0.52,15.47,6.03,30.49,14.42,42.94
		c8.41,12.52,19.42,22.74,31.48,30.86c24.24,16.27,52.34,24.88,80.52,27.86c14.13,1.47,28.35,1.53,42.44,0.16
		c14.08-1.43,28.07-4.14,41.53-8.64c13.46-4.43,26.46-10.45,38.34-18.29c5.94-3.91,11.61-8.27,16.85-13.1l1.92-1.8
		c0.64-0.62,1.33-1.27,1.96-1.92c1.29-1.3,2.53-2.65,3.71-4.05c2.38-2.8,4.55-5.8,6.42-9.01c1.87-3.21,3.46-6.65,4.56-10.33
		C292.72,138.9,293.34,134.95,292.91,130.83z M160.41,193.37c-8.3,0-16.7-0.53-24.96-1.57c-12.98-1.67-25.58-4.67-37.45-8.94
		c-12.47-4.47-23.81-10.27-33.72-17.24c-10.93-7.75-19.61-16.45-25.79-25.86c-6.79-10.21-10.64-21.51-11.12-32.68
		c-0.59-11.21,2.24-22.77,8.18-33.44c5.46-9.84,13.56-19.05,24.09-27.38c4.77-3.78,10.05-7.35,15.68-10.61
		c5.59-3.26,11.36-6.15,17.17-8.6c12.12-5.08,24.66-8.84,37.26-11.18c12.04-2.28,24.29-3.43,36.43-3.43c0.95,0,1.89,0.01,2.84,0.02
		c6.64,0.1,13.3,0.53,19.81,1.29c6.42,0.78,13,1.96,19.56,3.52c13.16,3.07,25.66,7.8,37.18,14.06c12.33,6.75,22.8,14.99,31.12,24.49
		c0.03,0.04,0.07,0.08,0.11,0.11c4.72,5.43,7.89,10.93,9.43,16.36c0.91,3.18,1.29,6.25,1.14,9.15c-0.16,3.28-0.92,6.18-2.19,8.39
		c-1.27,2.18-3.43,3.99-6.1,5.11c-2.06,0.88-4.37,1.33-6.88,1.33c-0.51,0-1.02-0.02-1.53-0.05c-2.85-0.2-5.7-0.97-8.48-2.29
		c-2.31-1.14-4.74-2.48-7.08-3.77l-1.71-0.94c-10.02-5.58-23.34-12.67-37.42-18.02c-13.43-5.12-27.13-8.77-40.69-10.84
		c-10.37-1.56-20.87-2.35-31.2-2.35c-3.69,0-7.41,0.1-11.07,0.3c-6.71,0.35-13.83,1.11-21.15,2.26c-7.06,1.17-14.08,2.72-20.88,4.61
		C77.22,69.03,63.9,74.5,51.4,81.42l-4.58,2.59l-4.53,2.64c-0.98,0.58-1.88,1.16-2.76,1.77c-1,0.72-2.07,1.52-3.36,2.85l-0.21,0.23
		c-0.62,0.7-1.38,1.56-2.2,3.21c-0.24,0.5-0.46,1.06-0.64,1.61c-0.21,0.71-0.36,1.43-0.44,2.13c-0.06,0.72-0.1,1.59,0.04,2.55
		c0.11,0.83,0.32,1.65,0.61,2.4c0.29,0.78,0.61,1.36,0.92,1.88c0.35,0.56,0.65,0.96,1.01,1.4c0.62,0.69,1.15,1.22,1.92,1.78
		c0.93,0.66,1.88,1.14,2.84,1.44c1.07,0.35,1.89,0.45,2.62,0.5c0.28,0.02,0.5,0.02,0.69,0.02c0.34,0,0.59-0.02,0.87-0.04l0.24-0.02
		c0.54-0.05,0.78-0.1,1.05-0.16l0.19-0.04c0.43-0.09,0.72-0.16,0.95-0.23c0.06-0.02,0.11-0.04,0.17-0.06l19.56-7.67
		c5.71-2.14,11.93-4.35,18.43-6.03c5.54-1.47,11.63-2.74,19.19-4.02c12.86-2.1,22.74-3.03,32.03-3.03c2.38,0,4.73,0.07,6.99,0.2
		c5.29,0.32,10.49,0.98,15.5,1.98c-4.33,1.48-8.79,3.04-13.2,5.16l-0.34,0.17c-1.6,0.81-3.25,1.65-5.1,3.21
		c-0.02,0.02-0.12,0.1-0.14,0.12c-0.47,0.43-1.1,1.01-1.75,2.09c-0.54,0.94-0.83,1.86-0.89,2.87c-0.11,1.31,0.39,2.92,1.25,3.96
		c1.19,1.43,2.25,1.85,2.94,2.13c0,0,0.32,0.13,0.37,0.15c0.82,0.28,1.51,0.42,2.03,0.5c1.37,0.22,2.69,0.31,4.31,0.31
		c0.57,0,1.14-0.01,1.71-0.02c1.92-0.07,3.68-0.18,5.41-0.34c2.67-0.23,5.32-0.59,7.88-0.93l2.41-0.32c3.19-0.42,6.54-0.79,9.98-1.1
		c7.34-0.67,13.88-1,19.99-1.02c0.82-0.01,1.63-0.01,2.43-0.01c5.36,0,11.14,0.19,17.65,0.57c7.13,0.4,13.66,1.02,19.95,1.9
		c7.35,1.03,13.68,2.29,19.35,3.86c2.83,0.77,5.78,1.73,9.29,3.03c2.52,0.94,5.82,2.21,8.87,3.73c3.05,1.53,5.2,3.02,6.56,4.56
		c1.35,1.53,2.06,3.41,2.18,5.74c0.11,2.24-0.35,4.88-1.33,7.62c-0.9,2.52-2.23,5.12-3.94,7.71c-1.59,2.42-3.49,4.78-5.64,7.04
		c-1.03,1.09-2.13,2.16-3.28,3.2c-0.42,0.39-0.82,0.73-1.23,1.08l-0.54,0.46l-1.87,1.57c-4.76,3.94-10.07,7.63-15.76,10.96
		c-5.43,3.18-11.25,6.06-17.3,8.56c-5.71,2.41-11.85,4.56-18.29,6.4C195.79,190.96,178.28,193.37,160.41,193.37z"/>
</g>
</svg>
