<?xml version="1.0" encoding="utf-8"?>
<!-- Generator: Adobe Illustrator 26.0.1, SVG Export Plug-In . SVG Version: 6.00 Build 0)  -->
<svg version="1.1" id="Layer_1" xmlns="http://www.w3.org/2000/svg" xmlns:xlink="http://www.w3.org/1999/xlink" x="0px" y="0px"
	 viewBox="0 0 32 32" style="enable-background:new 0 0 32 32;" xml:space="preserve">
<style type="text/css">
	.st0{fill:#FFFFFF;}
</style>
<path class="st0" d="M32,31.7c-3.33,0-6.2,0-9.55,0c-0.01-0.13-0.02-0.25-0.02-0.37c0-3.94,0-6.88,0-10.82c0-0.21,0.01-0.42,0-0.63
	c-0.03-0.54,0-0.58,0.54-0.58c1.21,0,2.43,0,3.64,0c0.12,0,0.23,0,0.38,0c0.21-1.73,0.43-3.44,0.64-5.18c-1.74,0-3.44,0-5.18,0
	c-0.01-0.14-0.02-0.25-0.02-0.36c0-1.06,0-2.13,0-3.19c0.01-1.45,0.83-2.29,2.28-2.29c1.01,0,2.01,0,3.02-0.01
	c0.02,0,0.04-0.01,0.1-0.03c0-1.6,0-3.2,0-4.87c-0.11,0-0.23,0-0.35,0c-1.4,0-2.81-0.01-4.21,0C20.65,3.4,17.7,5.07,17.26,8.6
	c-0.11,0.88-0.12,1.77-0.15,2.66c-0.02,0.93-0.01,1.87-0.01,2.84c-1.53,0-3.04,0-4.59,0c0,1.75,0,3.46,0,5.2c1.51,0,3.03,0,4.56,0
	c0,4.48,0,7.93,0,12.39c-5.84,0-11.23,0-17.08,0C0,20.74,0,10.97,0,0c10.96,0,21.03,0,32,0C32,10.94,32,20.71,32,31.7z"/>
</svg>
