<?xml version="1.0" encoding="utf-8"?>
<!-- Generator: Adobe Illustrator 26.0.1, SVG Export Plug-In . SVG Version: 6.00 Build 0)  -->
<svg version="1.1" id="Layer_1" xmlns="http://www.w3.org/2000/svg" xmlns:xlink="http://www.w3.org/1999/xlink" x="0px" y="0px"
	 viewBox="0 0 32 32" style="enable-background:new 0 0 32 32;" xml:space="preserve">
<style type="text/css">
	.st0{fill:#FFFFFF;}
</style>
<g>
	<path class="st0" d="M0,32C0,21.05,0,10.97,0,0c10.95,0,21.02,0,32,0c0,10.94,0,21.02,0,32C21.06,32,10.99,32,0,32z M15.81,4.03
		c0-0.01,0-0.02,0-0.04c-1.45,0-2.9,0-4.35,0c-0.93,0-1.84,0.14-2.71,0.49C5.79,5.67,4,8.32,4,11.52c0,2.69,0,5.38,0,8.07
		c0,0.13,0,0.26-0.01,0.39c-0.07,1.65,0.23,3.2,1.16,4.6c1.48,2.21,3.55,3.39,6.2,3.43c3.1,0.05,6.2,0.03,9.29,0
		c3.37-0.03,6.2-2.22,7.1-5.43c0.3-1.06,0.27-2.14,0.26-3.22c-0.02-2.58,0.01-5.17-0.02-7.75c-0.01-0.69-0.08-1.41-0.24-2.08
		c-0.71-2.98-3.46-5.31-6.51-5.46C19.44,3.96,17.62,4.03,15.81,4.03z"/>
	<path class="st0" d="M25.68,16.02c0,1.34,0.04,2.69-0.01,4.03c-0.06,1.89-0.96,3.36-2.44,4.49c-1.01,0.77-2.18,1.15-3.46,1.15
		c-2.57,0-5.14,0.03-7.71-0.02c-1.94-0.04-3.48-0.92-4.63-2.5c-0.81-1.12-1.11-2.37-1.12-3.72c-0.01-2.43-0.06-4.86,0.02-7.29
		C6.41,9.7,7.61,7.9,9.86,6.84c0.82-0.39,1.69-0.53,2.58-0.53c2.41,0,4.82,0,7.22,0c2.48,0,4.65,1.45,5.59,3.74
		c0.34,0.82,0.44,1.69,0.44,2.57c-0.01,1.13,0,2.27,0,3.4C25.69,16.02,25.68,16.02,25.68,16.02z M9.92,15.99
		c0.01,3.37,2.71,6.07,6.04,6.1c3.39,0.03,6.2-2.77,6.14-6.25c-0.05-3.21-2.79-5.92-6.08-5.92C12.64,9.92,9.91,12.63,9.92,15.99z
		 M23.78,9.96C23.8,9,23.07,8.24,22.11,8.22c-0.92-0.02-1.69,0.71-1.72,1.62c-0.03,0.97,0.69,1.75,1.64,1.78
		C22.99,11.64,23.76,10.91,23.78,9.96z"/>
	<path class="st0" d="M19.66,15.99c0.02,2-1.63,3.66-3.65,3.67c-1.99,0.01-3.64-1.62-3.66-3.62c-0.02-2.03,1.62-3.69,3.65-3.7
		C18.01,12.33,19.64,13.95,19.66,15.99z"/>
</g>
</svg>
