<?xml version="1.0" encoding="utf-8"?>
<!-- Generator: Adobe Illustrator 26.0.1, SVG Export Plug-In . SVG Version: 6.00 Build 0)  -->
<svg version="1.1" id="Layer_1" xmlns="http://www.w3.org/2000/svg" xmlns:xlink="http://www.w3.org/1999/xlink" x="0px" y="0px"
	 viewBox="0 0 215 215" style="enable-background:new 0 0 215 215;" xml:space="preserve">
<style type="text/css">
	.st0{fill-rule:evenodd;clip-rule:evenodd;fill:#D7AE35;}
</style>
<g>
	<path class="st0" d="M0.24,114.74l0-0.3c0,0,0.07-0.77,0.83-0.67c0.76,0.1,2.21,0.19,2.21,0.19l1.55-0.89l1.01,1.15
		c0,0,1.94-1.02,4.39-0.94c2.45,0.08,3.42,0.64,3.42,0.64l0.93-0.09l0.09-12.47h1.06v5.3c0,0,2.59,0.67,4.11,2.03
		c1.53,1.36,2.81,5.08,2.81,5.08l191.97,1.44l-191.97,1.44c0,0-1.44,3.34-3.01,4.63c-1.57,1.3-3.92,1.85-3.92,1.85v5.37h-1.15
		l0.01-4.89c-1.06,0.88-2.26,1.42-3.67,1.39c-3.31-0.07-5.97-3.07-6.12-6.8c-0.21-0.03-0.38-0.24-0.37-0.5
		c0-0.25,0.17-0.45,0.38-0.48l0.06,0c0.24,0.01,0.43,0.23,0.42,0.5c0,0.25-0.17,0.46-0.38,0.48c0.51,3.3,3,5.83,6.03,5.89
		c1.4,0.03,2.6-0.5,3.65-1.37v-6.75l-0.96-0.16c0,0-0.98,0.52-3.44,0.5c-2.45-0.02-4.36-1.12-4.36-1.12l-1.04,1.1l-1.52-0.95
		c0,0-1.45,0.03-2.21,0.1C0.29,115.51,0.24,114.74,0.24,114.74L0.24,114.74z"/>
	<polygon class="st0" points="28.86,105.28 28.86,79 32.53,79 38.99,102.22 45.48,79 49.12,79 49.12,105.28 47,105.28 47,80.88 
		40.2,105.28 37.83,105.28 30.98,80.88 30.98,105.28 28.86,105.28 	"/>
	<path class="st0" d="M55.03,94.53c0,3.24,0.37,5.63,1.09,7.18c0.73,1.55,1.86,2.33,3.39,2.33c1.53,0,2.66-0.77,3.39-2.31
		c0.73-1.54,1.09-3.94,1.09-7.2c0-3.25-0.36-5.65-1.09-7.19c-0.73-1.54-1.85-2.31-3.39-2.31c-1.53,0-2.66,0.78-3.39,2.33
		C55.4,88.91,55.03,91.3,55.03,94.53L55.03,94.53z M53.19,94.54c0-3.84,0.51-6.66,1.53-8.45c1.02-1.8,2.62-2.69,4.8-2.69
		c2.18,0,3.79,0.9,4.81,2.69c1.02,1.79,1.53,4.61,1.53,8.46c0,3.84-0.51,6.67-1.54,8.48c-1.03,1.81-2.63,2.71-4.8,2.71
		c-2.17,0-3.76-0.9-4.79-2.71C53.7,101.21,53.19,98.38,53.19,94.54L53.19,94.54z"/>
	<polygon class="st0" points="69.92,105.28 69.92,83.82 71.97,83.82 80.15,102.54 80.15,83.82 81.85,83.82 81.85,105.28 
		79.75,105.28 71.62,86.92 71.62,105.28 69.92,105.28 	"/>
	<polygon class="st0" points="89.59,105.28 89.59,85.54 84.69,85.54 84.69,83.82 96.33,83.82 96.33,85.54 91.46,85.54 91.46,105.28 
		89.59,105.28 	"/>
	<polygon class="st0" points="99.17,105.28 99.17,83.82 109.02,83.82 109.02,85.49 101.11,85.49 101.11,93.24 108.2,93.24 
		108.2,94.89 101.11,94.89 101.11,103.61 109.02,103.61 109.02,105.28 99.17,105.28 	"/>
	<path class="st0" d="M124.68,98.08c-0.17,2.51-0.76,4.42-1.79,5.7c-1.03,1.29-2.46,1.94-4.28,1.94c-2.18,0-3.78-0.9-4.8-2.71
		c-1.02-1.81-1.53-4.63-1.53-8.48c0-3.84,0.51-6.66,1.53-8.45c1.02-1.8,2.62-2.69,4.8-2.69c1.81,0,3.24,0.59,4.29,1.76
		c1.05,1.17,1.6,2.8,1.65,4.88l-1.84,0.01c-0.08-1.59-0.47-2.83-1.18-3.71c-0.71-0.88-1.69-1.32-2.91-1.32
		c-1.52,0-2.65,0.77-3.37,2.31c-0.73,1.54-1.09,3.94-1.09,7.19c0,3.26,0.37,5.66,1.09,7.2c0.73,1.54,1.85,2.31,3.37,2.31
		c1.23,0,2.22-0.52,2.97-1.56c0.74-1.03,1.17-2.51,1.29-4.41H124.68L124.68,98.08z"/>
	<path class="st0" d="M128.72,105.28V83.82h4.21c2.32,0,4.03,0.43,5.12,1.3c1.09,0.87,1.63,2.22,1.63,4.06
		c0,1.37-0.26,2.49-0.79,3.34c-0.53,0.86-1.34,1.49-2.42,1.91c0.96,0.28,1.65,0.76,2.07,1.44c0.43,0.68,0.69,1.77,0.78,3.29
		c0.03,0.45,0.06,1.08,0.09,1.88c0.08,2.25,0.42,3.67,1.01,4.25h-2.08c-0.35-0.41-0.57-1.72-0.65-3.94
		c-0.03-0.61-0.05-1.09-0.07-1.42c-0.1-1.93-0.4-3.18-0.91-3.76c-0.52-0.59-1.45-0.88-2.8-0.88h-3.38v10H128.72L128.72,105.28z
		 M130.54,93.71h1.84c2,0,3.41-0.34,4.25-1.01c0.84-0.67,1.26-1.77,1.26-3.31c0-1.39-0.4-2.4-1.2-3.03
		c-0.8-0.63-2.07-0.95-3.83-0.95h-2.33V93.71L130.54,93.71z"/>
	<polygon class="st0" points="143.97,105.28 143.97,83.82 145.78,83.82 145.78,105.28 143.97,105.28 	"/>
	<path class="st0" d="M149.63,99.18h1.81c0.06,1.54,0.44,2.74,1.15,3.59c0.71,0.85,1.67,1.28,2.89,1.28c1.36,0,2.43-0.38,3.21-1.15
		c0.78-0.77,1.17-1.82,1.17-3.17c0-0.66-0.11-1.22-0.32-1.69c-0.22-0.48-0.57-0.91-1.06-1.3c-0.44-0.38-1.29-0.8-2.55-1.27
		c-0.56-0.21-0.97-0.37-1.25-0.49c-1.67-0.7-2.86-1.51-3.56-2.43c-0.71-0.93-1.06-2.13-1.06-3.59c0-1.61,0.53-2.94,1.59-3.99
		c1.07-1.05,2.43-1.57,4.07-1.57c1.69,0,3.02,0.48,3.99,1.44c0.97,0.96,1.46,2.29,1.46,3.98v0.14h-1.71
		c-0.08-1.25-0.42-2.21-1.05-2.88c-0.62-0.68-1.47-1.01-2.55-1.01c-1.14,0-2.09,0.38-2.83,1.12c-0.74,0.75-1.12,1.7-1.12,2.86
		c0,0.52,0.08,1.01,0.23,1.45c0.16,0.45,0.38,0.85,0.68,1.22c0.5,0.58,1.61,1.2,3.34,1.85c0.31,0.13,0.54,0.22,0.7,0.28
		c1.74,0.69,2.98,1.48,3.72,2.38c0.73,0.9,1.09,2.07,1.09,3.51c0,1.87-0.54,3.34-1.62,4.41c-1.08,1.08-2.56,1.61-4.43,1.61
		c-1.88,0-3.33-0.57-4.36-1.7C150.23,102.91,149.68,101.29,149.63,99.18L149.63,99.18z"/>
	<polygon class="st0" points="168.71,105.28 168.71,85.54 163.81,85.54 163.81,83.82 175.45,83.82 175.45,85.54 170.58,85.54 
		170.58,105.28 168.71,105.28 	"/>
	<path class="st0" d="M179.71,94.53c0,3.24,0.37,5.63,1.09,7.18c0.73,1.55,1.86,2.33,3.39,2.33c1.53,0,2.66-0.77,3.39-2.31
		c0.73-1.54,1.09-3.94,1.09-7.2c0-3.25-0.36-5.65-1.09-7.19c-0.73-1.54-1.85-2.31-3.39-2.31c-1.53,0-2.65,0.78-3.39,2.33
		C180.07,88.91,179.71,91.3,179.71,94.53L179.71,94.53z M177.86,94.54c0-3.84,0.51-6.66,1.53-8.45c1.02-1.8,2.62-2.69,4.8-2.69
		c2.18,0,3.79,0.9,4.81,2.69c1.02,1.79,1.53,4.61,1.53,8.46c0,3.84-0.51,6.67-1.54,8.48c-1.03,1.81-2.63,2.71-4.8,2.71
		c-2.17,0-3.76-0.9-4.79-2.71C178.38,101.21,177.86,98.38,177.86,94.54L177.86,94.54z"/>
	<path class="st0" d="M61,137.31h2.09c1.95,0,3.28-0.45,4.01-1.35c0.72-0.9,1.08-2.64,1.08-5.21c0-2.59-0.36-4.33-1.08-5.24
		c-0.72-0.91-2.06-1.36-4.01-1.36H61V137.31L61,137.31z M59.43,138.47v-15.47h3.76c2.43,0,4.13,0.57,5.12,1.72
		c0.99,1.15,1.49,3.15,1.49,6c0,2.84-0.5,4.85-1.49,6.01c-0.99,1.16-2.7,1.74-5.12,1.74H59.43L59.43,138.47z"/>
	<polygon class="st0" points="72.82,138.47 72.82,123.01 81.1,123.01 81.1,124.21 74.46,124.21 74.46,129.8 80.42,129.8 
		80.42,130.98 74.46,130.98 74.46,137.27 81.1,137.27 81.1,138.47 72.82,138.47 	"/>
	<polygon class="st0" points="83.8,138.47 83.8,123.01 85.25,123.01 85.25,137.31 91.94,137.31 91.94,138.47 83.8,138.47 	"/>
	<polygon class="st0" points="94.17,138.47 94.17,123.01 102.45,123.01 102.45,124.21 95.8,124.21 95.8,129.8 101.77,129.8 
		101.77,130.98 95.8,130.98 95.8,137.27 102.45,137.27 102.45,138.47 94.17,138.47 	"/>
	<path class="st0" d="M116.46,130.81h5.39v7.66h-1.18l-0.16-1.58c-0.47,0.62-1.03,1.08-1.68,1.41c-0.65,0.33-1.36,0.49-2.13,0.49
		c-1.79,0-3.11-0.66-3.97-1.97c-0.86-1.31-1.28-3.34-1.28-6.09c0-2.79,0.44-4.83,1.31-6.12c0.87-1.29,2.24-1.94,4.11-1.94
		c1.43,0,2.57,0.39,3.41,1.17c0.84,0.78,1.33,1.89,1.46,3.34h-1.53c-0.13-1.05-0.5-1.86-1.08-2.44c-0.59-0.57-1.35-0.86-2.29-0.86
		c-1.31,0-2.27,0.55-2.89,1.66c-0.62,1.1-0.93,2.84-0.93,5.19c0,2.35,0.31,4.07,0.92,5.18c0.61,1.11,1.55,1.67,2.83,1.67
		c1.23,0,2.16-0.48,2.78-1.44c0.62-0.95,0.93-2.37,0.93-4.25h-4.02V130.81L116.46,130.81z"/>
	<path class="st0" d="M110.45,130.81h-5.39v7.66h1.18l0.17-1.58c0.47,0.62,1.03,1.08,1.68,1.41c0.65,0.33,1.36,0.49,2.13,0.49
		c1.79,0,3.11-0.66,3.97-1.97c0.86-1.31,1.28-3.34,1.28-6.09c0-2.79-0.44-4.83-1.31-6.12c-0.87-1.29-2.24-1.94-4.11-1.94
		c-1.43,0-2.57,0.39-3.41,1.17c-0.84,0.78-1.33,1.89-1.46,3.34h1.53c0.13-1.05,0.5-1.86,1.08-2.44c0.59-0.57,1.35-0.86,2.29-0.86
		c1.31,0,2.27,0.55,2.89,1.66c0.62,1.1,0.93,2.84,0.93,5.19c0,2.35-0.31,4.07-0.92,5.18c-0.61,1.11-1.55,1.67-2.83,1.67
		c-1.23,0-2.16-0.48-2.78-1.44c-0.62-0.95-0.93-2.37-0.93-4.25h4.02V130.81L110.45,130.81z"/>
	<polygon class="st0" points="124.81,138.47 124.81,123.01 133.09,123.01 133.09,124.21 126.44,124.21 126.44,129.8 132.41,129.8 
		132.41,130.98 126.44,130.98 126.44,137.27 133.09,137.27 133.09,138.47 124.81,138.47 	"/>
	<polygon class="st0" points="135.79,138.47 135.79,123.01 137.51,123.01 144.39,136.5 144.39,123.01 145.82,123.01 145.82,138.47 
		144.05,138.47 137.22,125.24 137.22,138.47 135.79,138.47 	"/>
	<path class="st0" d="M150.79,137.31h2.09c1.95,0,3.28-0.45,4-1.35c0.72-0.9,1.08-2.64,1.08-5.21c0-2.59-0.36-4.33-1.08-5.24
		c-0.72-0.91-2.06-1.36-4-1.36h-2.09V137.31L150.79,137.31z M149.21,138.47v-15.47h3.76c2.43,0,4.13,0.57,5.12,1.72
		c0.99,1.15,1.49,3.15,1.49,6c0,2.84-0.5,4.85-1.49,6.01c-0.99,1.16-2.7,1.74-5.12,1.74H149.21L149.21,138.47z"/>
</g>
</svg>
