<?xml version="1.0" encoding="utf-8"?>
<!-- Generator: Adobe Illustrator 26.0.1, SVG Export Plug-In . SVG Version: 6.00 Build 0)  -->
<svg version="1.1" id="Layer_1" xmlns="http://www.w3.org/2000/svg" xmlns:xlink="http://www.w3.org/1999/xlink" x="0px" y="0px"
	 viewBox="0 0 600 105" style="enable-background:new 0 0 600 105;" xml:space="preserve">
<style type="text/css">
	.st0{fill:#FFFFFF;}
	.st1{fill:#D59024;}
</style>
<g>
	<g>
		<g>
			<path class="st0" d="M377.23,33.21c0,0.33,0.09,0.42,0.42,0.42h3.21c0.33,0,0.47,0.13,0.47,0.47v1.56c0,0.33-0.13,0.47-0.47,0.47
				h-3.21c-0.33,0-0.42,0.09-0.42,0.42v3.95c0,0.33,0.09,0.42,0.42,0.42h3.21c0.33,0,0.47,0.13,0.47,0.47v1.56
				c0,0.33-0.13,0.47-0.47,0.47h-5.97c-0.33,0-0.47-0.13-0.47-0.47V27.17c0-0.33,0.13-0.47,0.47-0.47h5.97
				c0.33,0,0.47,0.13,0.47,0.47v1.56c0,0.33-0.13,0.47-0.47,0.47h-3.21c-0.33,0-0.42,0.09-0.42,0.42V33.21z"/>
			<path class="st0" d="M396.91,34.99v7.96c0,0.33-0.13,0.47-0.47,0.47h-1.72c-0.33,0-0.47-0.13-0.47-0.47v-7.56
				c0-1.29-0.71-1.74-1.38-1.72c-0.67,0.02-1.34,0.53-1.34,1.76v7.51c0,0.33-0.13,0.47-0.47,0.47h-1.69c-0.33,0-0.47-0.13-0.47-0.47
				v-7.56c0-1.29-0.74-1.74-1.41-1.72c-0.69,0.02-1.34,0.53-1.34,1.72v7.56c0,0.33-0.13,0.47-0.47,0.47H384
				c-0.33,0-0.47-0.13-0.47-0.47V31.98c0-0.33,0.13-0.47,0.47-0.47h1.25c0.33,0,0.45,0.16,0.51,0.49l0.16,0.69
				c0.45-0.58,1.09-1.14,2.01-1.31c1.23-0.22,2.47,0.33,3.12,1.54c0.51-0.71,1.27-1.34,2.23-1.54
				C395.1,31.05,396.91,32.39,396.91,34.99z"/>
			<path class="st0" d="M407.15,34.99v4.95c0,2.61-1.85,3.94-3.65,3.61c-0.76-0.16-1.36-0.58-1.81-1.05v5.08
				c0,0.33-0.13,0.47-0.47,0.47h-1.69c-0.33,0-0.47-0.13-0.47-0.47v-15.6c0-0.33,0.13-0.47,0.47-0.47h1.25
				c0.33,0,0.45,0.16,0.51,0.49l0.16,0.71c0.47-0.6,1.14-1.16,2.05-1.34C405.3,31.05,407.15,32.39,407.15,34.99z M404.52,35.39
				c0-1.29-0.78-1.74-1.45-1.72c-0.69,0.02-1.38,0.53-1.38,1.72v3.72v0.42c0,1.18,0.69,1.69,1.38,1.72
				c0.67,0.02,1.45-0.42,1.45-1.72V35.39z"/>
			<path class="st0" d="M414.62,31.85v1.67c0,0.33-0.13,0.47-0.47,0.47c-1.31,0-2.3,0.67-2.3,2.27v6.69c0,0.33-0.13,0.47-0.47,0.47
				h-1.69c-0.33,0-0.47-0.13-0.47-0.47V31.98c0-0.33,0.13-0.47,0.47-0.47h1.25c0.33,0,0.45,0.16,0.51,0.49l0.13,0.62
				c0.74-0.89,1.63-1.25,2.56-1.25C414.48,31.38,414.62,31.52,414.62,31.85z"/>
			<path class="st0" d="M423.84,35.8v0.38c0,0.47-0.02,0.74-0.07,1.16c-0.02,0.33-0.13,0.47-0.47,0.47h-4.57
				c-0.18,0-0.22,0.05-0.22,0.22v1.56c0,1.23,0.78,1.67,1.45,1.67s1.09-0.44,1.27-0.96c0.07-0.2,0.18-0.27,0.38-0.27h1.72
				c0.27,0,0.31,0.2,0.29,0.4c-0.27,2.39-2.05,3.19-3.65,3.19c-1.94,0-4.01-1.16-4.01-4.86v-2.59c0-3.7,2.07-4.86,4.01-4.86
				C421.75,31.32,423.84,32.32,423.84,35.8z M420.03,33.54c-0.65,0-1.52,0.45-1.52,1.72v0.49c0,0.18,0.05,0.22,0.22,0.22h2.59
				c0.18,0,0.22-0.05,0.22-0.22v-0.49C421.55,33.99,420.68,33.54,420.03,33.54z"/>
			<path class="st0" d="M425.58,40.43c-0.02-0.2,0.02-0.4,0.29-0.4h1.76c0.2,0,0.33,0.07,0.38,0.27c0.18,0.65,0.58,1.09,1.25,1.09
				c0.62,0,1.16-0.38,1.16-1.07c0.07-1.96-4.48-2.16-4.68-5.57c-0.11-2.07,1.49-3.43,3.45-3.43c1.65,0,3.39,1,3.45,3.19
				c0.02,0.2-0.02,0.4-0.29,0.4h-1.6c-0.2,0-0.33-0.07-0.38-0.27c-0.11-0.49-0.4-1.07-1.07-1.09c-0.62-0.02-1.05,0.45-1.05,0.94
				c-0.04,1.74,4.9,2.25,4.84,5.82c-0.05,2.12-1.78,3.32-3.77,3.32C427.32,43.62,425.87,42.44,425.58,40.43z"/>
			<path class="st0" d="M434.69,39.94c0-3.25,2.63-3.88,5.35-4.19v-0.69c0-1.05-0.65-1.52-1.36-1.52c-0.69,0-1.14,0.45-1.27,1.09
				c-0.05,0.2-0.18,0.27-0.38,0.27h-1.6c-0.27,0-0.29-0.2-0.29-0.4c0.07-2.23,1.83-3.19,3.7-3.19c1.92,0,3.81,1.14,3.81,4.19
				l0.02,5.33c0,1.11,0.09,1.56,0.2,2.14c0.07,0.33-0.11,0.45-0.45,0.45h-1.6c-0.33,0-0.42-0.11-0.51-0.82
				c-0.49,0.54-1.18,0.87-1.89,0.98C436.58,43.88,434.69,42.62,434.69,39.94z M440.04,39.54v-2.21c-1.76,0.27-2.76,0.69-2.72,2.36
				c0.02,1.11,0.69,1.6,1.38,1.56C439.37,41.23,440.04,40.72,440.04,39.54z"/>
			<path class="st0" d="M457.62,27.17v15.78c0,0.33-0.13,0.47-0.47,0.47h-1.27c-0.33,0-0.42-0.16-0.49-0.49l-0.16-0.74
				c-0.47,0.6-1.14,1.18-2.05,1.36c-1.83,0.33-3.66-1-3.66-3.61v-4.95c0-2.61,1.83-3.95,3.66-3.61c0.76,0.16,1.36,0.58,1.8,1.07
				v-5.28c0-0.33,0.13-0.47,0.47-0.47h1.69C457.48,26.7,457.62,26.84,457.62,27.17z M454.99,39.54v-3.72v-0.42
				c0-1.18-0.71-1.69-1.38-1.72c-0.67-0.02-1.45,0.42-1.45,1.72v4.14c0,1.27,0.78,1.74,1.45,1.72
				C454.28,41.23,454.99,40.72,454.99,39.54z"/>
			<path class="st0" d="M467.58,35.8v0.38c0,0.47-0.02,0.74-0.07,1.16c-0.02,0.33-0.13,0.47-0.47,0.47h-4.57
				c-0.18,0-0.22,0.05-0.22,0.22v1.56c0,1.23,0.78,1.67,1.45,1.67s1.09-0.44,1.27-0.96c0.07-0.2,0.18-0.27,0.38-0.27h1.72
				c0.27,0,0.31,0.2,0.29,0.4c-0.27,2.39-2.05,3.19-3.65,3.19c-1.94,0-4.01-1.16-4.01-4.86v-2.59c0-3.7,2.07-4.86,4.01-4.86
				C465.48,31.32,467.58,32.32,467.58,35.8z M463.77,33.54c-0.65,0-1.52,0.45-1.52,1.72v0.49c0,0.18,0.05,0.22,0.22,0.22h2.59
				c0.18,0,0.22-0.05,0.22-0.22v-0.49C465.28,33.99,464.41,33.54,463.77,33.54z"/>
			<path class="st0" d="M482.73,27.17v1.56c0,0.33-0.13,0.47-0.47,0.47h-1.96c-0.33,0-0.42,0.09-0.42,0.42v13.33
				c0,0.33-0.13,0.47-0.47,0.47h-1.85c-0.33,0-0.47-0.13-0.47-0.47V29.62c0-0.33-0.09-0.42-0.42-0.42h-1.96
				c-0.33,0-0.47-0.13-0.47-0.47v-1.56c0-0.33,0.13-0.47,0.47-0.47h7.56C482.59,26.7,482.73,26.84,482.73,27.17z"/>
			<path class="st0" d="M483.51,39.14V35.8c0-3.28,2.14-4.48,4.03-4.48c1.92,0,4.06,1.2,4.06,4.48v3.34c0,3.28-2.14,4.48-4.06,4.48
				C485.65,43.62,483.51,42.41,483.51,39.14z M487.54,33.68c-0.65,0-1.4,0.42-1.4,1.72v4.14c0,1.27,0.76,1.72,1.4,1.72
				c0.65,0,1.43-0.44,1.43-1.72v-4.14C488.97,34.1,488.19,33.68,487.54,33.68z"/>
			<path class="st0" d="M499.06,31.85v1.67c0,0.33-0.13,0.47-0.47,0.47c-1.31,0-2.3,0.67-2.3,2.27v6.69c0,0.33-0.13,0.47-0.47,0.47
				h-1.69c-0.33,0-0.47-0.13-0.47-0.47V31.98c0-0.33,0.13-0.47,0.47-0.47h1.25c0.33,0,0.45,0.16,0.51,0.49l0.13,0.62
				c0.74-0.89,1.63-1.25,2.56-1.25C498.93,31.38,499.06,31.52,499.06,31.85z"/>
			<path class="st0" d="M505.9,31.85v1.67c0,0.33-0.13,0.47-0.47,0.47c-1.31,0-2.3,0.67-2.3,2.27v6.69c0,0.33-0.13,0.47-0.47,0.47
				h-1.69c-0.33,0-0.47-0.13-0.47-0.47V31.98c0-0.33,0.13-0.47,0.47-0.47h1.25c0.33,0,0.45,0.16,0.51,0.49l0.13,0.62
				c0.74-0.89,1.63-1.25,2.56-1.25C505.77,31.38,505.9,31.52,505.9,31.85z"/>
			<path class="st0" d="M515.13,35.8v0.38c0,0.47-0.02,0.74-0.07,1.16c-0.02,0.33-0.13,0.47-0.47,0.47h-4.57
				c-0.18,0-0.22,0.05-0.22,0.22v1.56c0,1.23,0.78,1.67,1.45,1.67s1.09-0.44,1.27-0.96c0.07-0.2,0.18-0.27,0.38-0.27h1.72
				c0.27,0,0.31,0.2,0.29,0.4c-0.27,2.39-2.05,3.19-3.65,3.19c-1.94,0-4.01-1.16-4.01-4.86v-2.59c0-3.7,2.07-4.86,4.01-4.86
				C513.03,31.32,515.13,32.32,515.13,35.8z M511.31,33.54c-0.65,0-1.52,0.45-1.52,1.72v0.49c0,0.18,0.05,0.22,0.22,0.22h2.59
				c0.18,0,0.22-0.05,0.22-0.22v-0.49C512.83,33.99,511.96,33.54,511.31,33.54z"/>
			<path class="st0" d="M517.91,42.95v-8.96c0-0.27-0.07-0.33-0.33-0.33h-0.42c-0.33,0-0.47-0.13-0.47-0.47v-1.2
				c0-0.33,0.13-0.47,0.47-0.47h0.44c0.27,0,0.33-0.07,0.33-0.29V30c0-2.3,1.38-3.3,3.99-3.3c0.33,0,0.47,0.13,0.47,0.47v1.32
				c0,0.33-0.13,0.47-0.47,0.47c-0.91,0-1.43,0.38-1.43,1.05v1.23c0,0.2,0.07,0.29,0.29,0.29h1.14c0.33,0,0.47,0.13,0.47,0.47v1.2
				c0,0.33-0.13,0.47-0.47,0.47h-1.03c-0.27,0-0.36,0.07-0.36,0.33v8.96c0,0.33-0.13,0.47-0.47,0.47h-1.69
				C518.04,43.42,517.91,43.28,517.91,42.95z"/>
			<path class="st0" d="M523.92,39.94c0-3.25,2.63-3.88,5.35-4.19v-0.69c0-1.05-0.65-1.52-1.36-1.52c-0.69,0-1.14,0.45-1.27,1.09
				c-0.05,0.2-0.18,0.27-0.38,0.27h-1.6c-0.27,0-0.29-0.2-0.29-0.4c0.07-2.23,1.83-3.19,3.7-3.19c1.92,0,3.81,1.14,3.81,4.19
				l0.02,5.33c0,1.11,0.09,1.56,0.2,2.14c0.07,0.33-0.11,0.45-0.45,0.45h-1.6c-0.33,0-0.42-0.11-0.51-0.82
				c-0.49,0.54-1.18,0.87-1.89,0.98C525.82,43.88,523.92,42.62,523.92,39.94z M529.27,39.54v-2.21c-1.76,0.27-2.76,0.69-2.72,2.36
				c0.02,1.11,0.69,1.6,1.38,1.56C528.6,41.23,529.27,40.72,529.27,39.54z"/>
			<path class="st0" d="M541.35,40.43c-0.27,2.39-2.03,3.19-3.65,3.19c-2.03,0-3.95-1.16-3.95-4.48V35.8c0-3.32,1.92-4.48,3.95-4.48
				c1.63,0,3.39,0.8,3.65,3.19c0.02,0.2-0.02,0.4-0.29,0.4h-1.65c-0.2,0-0.31-0.07-0.38-0.27c-0.18-0.54-0.58-0.96-1.25-0.96
				c-0.67,0-1.4,0.44-1.4,1.67v4.24c0,1.23,0.73,1.67,1.4,1.67c0.67,0,1.09-0.44,1.25-0.96c0.07-0.2,0.18-0.27,0.38-0.27h1.65
				C541.33,40.03,541.37,40.23,541.35,40.43z"/>
			<path class="st0" d="M550.91,40.43c-0.27,2.39-2.03,3.19-3.65,3.19c-2.03,0-3.95-1.16-3.95-4.48V35.8c0-3.32,1.92-4.48,3.95-4.48
				c1.63,0,3.39,0.8,3.65,3.19c0.02,0.2-0.02,0.4-0.29,0.4h-1.65c-0.2,0-0.31-0.07-0.38-0.27c-0.18-0.54-0.58-0.96-1.25-0.96
				c-0.67,0-1.4,0.44-1.4,1.67v4.24c0,1.23,0.73,1.67,1.4,1.67c0.67,0,1.09-0.44,1.25-0.96c0.07-0.2,0.18-0.27,0.38-0.27h1.65
				C550.88,40.03,550.93,40.23,550.91,40.43z"/>
			<path class="st0" d="M552.64,27.57c0-0.89,0.73-1.63,1.65-1.63c0.89,0,1.61,0.74,1.61,1.63c0,0.89-0.71,1.63-1.61,1.63
				C553.38,29.2,552.64,28.46,552.64,27.57z M555.61,31.98v10.97c0,0.33-0.13,0.47-0.47,0.47h-1.69c-0.33,0-0.47-0.13-0.47-0.47
				V31.98c0-0.33,0.13-0.47,0.47-0.47h1.69C555.47,31.52,555.61,31.65,555.61,31.98z"/>
			<path class="st0" d="M557.66,39.14V35.8c0-3.28,2.14-4.48,4.03-4.48c1.92,0,4.06,1.2,4.06,4.48v3.34c0,3.28-2.14,4.48-4.06,4.48
				C559.79,43.62,557.66,42.41,557.66,39.14z M562.34,25.3c0.25-0.25,0.42-0.25,0.67,0l0.85,0.89c0.24,0.25,0.24,0.4,0,0.65
				l-2.92,2.76c-0.24,0.24-0.44,0.22-0.67,0l-0.89-0.87c-0.22-0.22-0.22-0.44,0-0.67L562.34,25.3z M561.69,33.68
				c-0.65,0-1.4,0.42-1.4,1.72v4.14c0,1.27,0.76,1.72,1.4,1.72c0.65,0,1.43-0.44,1.43-1.72v-4.14
				C563.12,34.1,562.34,33.68,561.69,33.68z"/>
			<path class="st0" d="M575.91,34.99v7.96c0,0.33-0.13,0.47-0.47,0.47h-1.69c-0.33,0-0.47-0.13-0.47-0.47v-7.56
				c0-1.29-0.78-1.74-1.45-1.72c-0.69,0.02-1.38,0.53-1.38,1.72v7.56c0,0.33-0.13,0.47-0.47,0.47h-1.69c-0.33,0-0.47-0.13-0.47-0.47
				V31.98c0-0.33,0.13-0.47,0.47-0.47h1.25c0.33,0,0.45,0.16,0.51,0.49l0.16,0.71c0.47-0.6,1.14-1.16,2.05-1.34
				C574.06,31.05,575.91,32.39,575.91,34.99z"/>
		</g>
		<g>
			<path class="st0" d="M377.18,73.94v-1.43c0-0.33,0.13-0.45,0.47-0.47c0.71-0.07,1.43-0.2,1.69-1.07
				c0.45-1.45,0.45-1.63,0.22-2.29l-3.14-10.36c-0.07-0.29,0.04-0.44,0.29-0.44h1.85c0.29,0,0.45,0.16,0.51,0.44l1.8,6.8
				c0.05,0.16,0.22,0.16,0.27,0l1.76-6.8c0.09-0.29,0.22-0.44,0.51-0.44h1.85c0.25,0,0.4,0.16,0.29,0.44l-4.28,13.88
				c-0.54,1.76-2.16,2.21-3.63,2.21C377.31,74.41,377.18,74.25,377.18,73.94z"/>
			<path class="st0" d="M391.79,64.6v-6.37c0-3.3,1.54-5.37,4.57-5.37c2.83,0,4.3,1.89,4.39,4.21c0,0.22-0.02,0.4-0.29,0.4h-2.03
				c-0.25,0-0.36-0.09-0.38-0.31c-0.16-0.91-0.67-1.69-1.69-1.69c-1.2,0-1.76,1.11-1.76,2.76v6.37c0,1.65,0.56,2.76,1.76,2.76
				c1.03,0,1.54-0.78,1.69-1.69c0.02-0.22,0.13-0.31,0.38-0.31h2.03c0.27,0,0.29,0.18,0.29,0.4c-0.09,2.32-1.56,4.21-4.39,4.21
				C393.33,69.97,391.79,67.9,391.79,64.6z"/>
			<path class="st0" d="M402.82,65.49v-3.34c0-3.28,2.14-4.48,4.03-4.48c1.92,0,4.06,1.2,4.06,4.48v3.34c0,3.28-2.14,4.48-4.06,4.48
				C404.96,69.97,402.82,68.77,402.82,65.49z M406.86,60.04c-0.65,0-1.4,0.42-1.4,1.72v4.14c0,1.27,0.76,1.72,1.4,1.72
				c0.65,0,1.43-0.44,1.43-1.72v-4.14C408.29,60.46,407.5,60.04,406.86,60.04z"/>
			<path class="st0" d="M426.36,61.35v7.96c0,0.33-0.13,0.47-0.47,0.47h-1.72c-0.33,0-0.47-0.13-0.47-0.47v-7.56
				c0-1.29-0.71-1.74-1.38-1.72c-0.67,0.02-1.34,0.53-1.34,1.76v7.51c0,0.33-0.13,0.47-0.47,0.47h-1.69c-0.33,0-0.47-0.13-0.47-0.47
				v-7.56c0-1.29-0.74-1.74-1.41-1.72c-0.69,0.02-1.34,0.53-1.34,1.72v7.56c0,0.33-0.13,0.47-0.47,0.47h-1.69
				c-0.33,0-0.47-0.13-0.47-0.47V58.34c0-0.33,0.13-0.47,0.47-0.47h1.25c0.33,0,0.45,0.16,0.51,0.49l0.16,0.69
				c0.45-0.58,1.09-1.14,2.01-1.31c1.23-0.22,2.47,0.33,3.12,1.54c0.51-0.71,1.27-1.34,2.23-1.54
				C424.55,57.4,426.36,58.74,426.36,61.35z"/>
			<path class="st0" d="M436.29,62.15v0.38c0,0.47-0.02,0.74-0.07,1.16c-0.02,0.33-0.13,0.47-0.47,0.47h-4.57
				c-0.18,0-0.22,0.05-0.22,0.22v1.56c0,1.23,0.78,1.67,1.45,1.67s1.09-0.44,1.27-0.96c0.07-0.2,0.18-0.27,0.38-0.27h1.72
				c0.27,0,0.31,0.2,0.29,0.4c-0.27,2.39-2.05,3.19-3.65,3.19c-1.94,0-4.01-1.16-4.01-4.86v-2.59c0-3.7,2.07-4.86,4.01-4.86
				C434.2,57.67,436.29,58.68,436.29,62.15z M432.48,59.9c-0.65,0-1.52,0.45-1.52,1.72v0.49c0,0.18,0.05,0.22,0.22,0.22h2.59
				c0.18,0,0.22-0.05,0.22-0.22v-0.49C434,60.35,433.13,59.9,432.48,59.9z"/>
			<path class="st0" d="M443.76,58.21v1.67c0,0.33-0.13,0.47-0.47,0.47c-1.31,0-2.3,0.67-2.3,2.27v6.69c0,0.33-0.13,0.47-0.47,0.47
				h-1.69c-0.33,0-0.47-0.13-0.47-0.47V58.34c0-0.33,0.13-0.47,0.47-0.47h1.25c0.33,0,0.45,0.16,0.51,0.49l0.13,0.62
				c0.74-0.89,1.63-1.25,2.56-1.25C443.62,57.74,443.76,57.87,443.76,58.21z"/>
			<path class="st0" d="M452.69,66.79c-0.27,2.39-2.03,3.19-3.65,3.19c-2.03,0-3.95-1.16-3.95-4.48v-3.34
				c0-3.32,1.92-4.48,3.95-4.48c1.63,0,3.39,0.8,3.65,3.19c0.02,0.2-0.02,0.4-0.29,0.4h-1.65c-0.2,0-0.31-0.07-0.38-0.27
				c-0.18-0.54-0.58-0.96-1.25-0.96c-0.67,0-1.4,0.44-1.4,1.67v4.24c0,1.23,0.73,1.67,1.4,1.67c0.67,0,1.09-0.44,1.25-0.96
				c0.07-0.2,0.18-0.27,0.38-0.27h1.65C452.67,66.39,452.71,66.59,452.69,66.79z"/>
			<path class="st0" d="M454.43,53.93c0-0.89,0.73-1.63,1.65-1.63c0.89,0,1.61,0.74,1.61,1.63c0,0.89-0.71,1.63-1.61,1.63
				C455.16,55.56,454.43,54.82,454.43,53.93z M457.39,58.34v10.97c0,0.33-0.13,0.47-0.47,0.47h-1.69c-0.33,0-0.47-0.13-0.47-0.47
				V58.34c0-0.33,0.13-0.47,0.47-0.47h1.69C457.26,57.87,457.39,58.01,457.39,58.34z"/>
			<path class="st0" d="M459.44,66.3c0-3.25,2.63-3.88,5.35-4.19v-0.69c0-1.05-0.65-1.52-1.36-1.52c-0.69,0-1.14,0.45-1.27,1.09
				c-0.05,0.2-0.18,0.27-0.38,0.27h-1.6c-0.27,0-0.29-0.2-0.29-0.4c0.07-2.23,1.83-3.19,3.7-3.19c1.92,0,3.81,1.14,3.81,4.19
				l0.02,5.33c0,1.11,0.09,1.56,0.2,2.14c0.07,0.33-0.11,0.45-0.45,0.45h-1.6c-0.33,0-0.42-0.11-0.51-0.82
				c-0.49,0.54-1.18,0.87-1.89,0.98C461.33,70.24,459.44,68.97,459.44,66.3z M464.79,65.9v-2.21c-1.76,0.27-2.76,0.69-2.72,2.36
				c0.02,1.11,0.69,1.6,1.38,1.56C464.12,67.59,464.79,67.08,464.79,65.9z"/>
			<path class="st0" d="M473.68,67.99v1.32c0,0.33-0.13,0.47-0.47,0.47c-2.76,0-3.83-1.05-3.83-3.9V53.53
				c0-0.33,0.13-0.47,0.47-0.47h1.69c0.33,0,0.47,0.13,0.47,0.47v12.59c0,1,0.54,1.38,1.2,1.4
				C473.54,67.55,473.68,67.66,473.68,67.99z"/>
			<path class="st0" d="M475.01,53.93c0-0.89,0.73-1.63,1.65-1.63c0.89,0,1.61,0.74,1.61,1.63c0,0.89-0.71,1.63-1.61,1.63
				C475.75,55.56,475.01,54.82,475.01,53.93z M477.98,58.34v10.97c0,0.33-0.13,0.47-0.47,0.47h-1.69c-0.33,0-0.47-0.13-0.47-0.47
				V58.34c0-0.33,0.13-0.47,0.47-0.47h1.69C477.84,57.87,477.98,58.01,477.98,58.34z"/>
			<path class="st0" d="M479.71,68.1c0-0.2,0.05-0.36,0.16-0.56l3.81-7.27c0.07-0.09,0.02-0.2-0.09-0.2h-3.41
				c-0.33,0-0.47-0.13-0.47-0.47v-1.27c0-0.33,0.13-0.47,0.47-0.47h5.97c0.36,0,0.47,0.13,0.47,0.47v1.18c0,0.2-0.02,0.38-0.16,0.58
				l-3.81,7.27c-0.05,0.09-0.02,0.2,0.11,0.2h3.39c0.33,0,0.47,0.13,0.47,0.47v1.27c0,0.33-0.13,0.47-0.47,0.47h-5.97
				c-0.36,0-0.47-0.13-0.47-0.47V68.1z"/>
			<path class="st0" d="M488.27,66.3c0-3.25,2.63-3.88,5.35-4.19v-0.69c0-1.05-0.65-1.52-1.36-1.52c-0.69,0-1.14,0.45-1.27,1.09
				c-0.05,0.2-0.18,0.27-0.38,0.27h-1.6c-0.27,0-0.29-0.2-0.29-0.4c0.07-2.23,1.83-3.19,3.7-3.19c1.92,0,3.81,1.14,3.81,4.19
				l0.02,5.33c0,1.11,0.09,1.56,0.2,2.14c0.07,0.33-0.11,0.45-0.45,0.45h-1.6c-0.33,0-0.42-0.11-0.51-0.82
				c-0.49,0.54-1.18,0.87-1.89,0.98C490.16,70.24,488.27,68.97,488.27,66.3z M493.62,65.9v-2.21c-1.76,0.27-2.76,0.69-2.72,2.36
				c0.02,1.11,0.69,1.6,1.38,1.56C492.95,67.59,493.62,67.08,493.62,65.9z"/>
			<path class="st0" d="M505.7,66.79c-0.27,2.39-2.03,3.19-3.65,3.19c-2.03,0-3.95-1.16-3.95-4.48v-3.34c0-3.32,1.92-4.48,3.95-4.48
				c1.63,0,3.39,0.8,3.65,3.19c0.02,0.2-0.02,0.4-0.29,0.4h-1.65c-0.2,0-0.31-0.07-0.38-0.27c-0.18-0.54-0.58-0.96-1.25-0.96
				c-0.67,0-1.4,0.44-1.4,1.67v4.24c0,1.23,0.73,1.67,1.4,1.67c0.67,0,1.09-0.44,1.25-0.96c0.07-0.2,0.18-0.27,0.38-0.27h1.65
				C505.67,66.39,505.72,66.59,505.7,66.79z"/>
			<path class="st0" d="M507.43,53.93c0-0.89,0.73-1.63,1.65-1.63c0.89,0,1.61,0.74,1.61,1.63c0,0.89-0.71,1.63-1.61,1.63
				C508.17,55.56,507.43,54.82,507.43,53.93z M510.4,58.34v10.97c0,0.33-0.13,0.47-0.47,0.47h-1.69c-0.33,0-0.47-0.13-0.47-0.47
				V58.34c0-0.33,0.13-0.47,0.47-0.47h1.69C510.26,57.87,510.4,58.01,510.4,58.34z"/>
			<path class="st0" d="M512.44,65.49v-3.34c0-3.28,2.14-4.48,4.03-4.48c1.92,0,4.06,1.2,4.06,4.48v3.34c0,3.28-2.14,4.48-4.06,4.48
				C514.58,69.97,512.44,68.77,512.44,65.49z M517.12,51.66c0.25-0.25,0.42-0.25,0.67,0l0.85,0.89c0.24,0.25,0.24,0.4,0,0.65
				l-2.92,2.76c-0.24,0.24-0.44,0.22-0.67,0l-0.89-0.87c-0.22-0.22-0.22-0.44,0-0.67L517.12,51.66z M516.48,60.04
				c-0.65,0-1.4,0.42-1.4,1.72v4.14c0,1.27,0.76,1.72,1.4,1.72c0.65,0,1.43-0.44,1.43-1.72v-4.14
				C517.91,60.46,517.12,60.04,516.48,60.04z"/>
			<path class="st0" d="M530.69,61.35v7.96c0,0.33-0.13,0.47-0.47,0.47h-1.69c-0.33,0-0.47-0.13-0.47-0.47v-7.56
				c0-1.29-0.78-1.74-1.45-1.72c-0.69,0.02-1.38,0.53-1.38,1.72v7.56c0,0.33-0.13,0.47-0.47,0.47h-1.69c-0.33,0-0.47-0.13-0.47-0.47
				V58.34c0-0.33,0.13-0.47,0.47-0.47h1.25c0.33,0,0.45,0.16,0.51,0.49l0.16,0.71c0.47-0.6,1.14-1.16,2.05-1.34
				C528.84,57.4,530.69,58.74,530.69,61.35z"/>
			<path class="st0" d="M545.87,53.53v15.78c0,0.33-0.13,0.47-0.47,0.47h-1.27c-0.33,0-0.42-0.16-0.49-0.49l-0.16-0.74
				c-0.47,0.6-1.14,1.18-2.05,1.36c-1.83,0.33-3.65-1-3.65-3.61v-4.95c0-2.61,1.83-3.95,3.65-3.61c0.76,0.16,1.36,0.58,1.81,1.07
				v-5.28c0-0.33,0.13-0.47,0.47-0.47h1.69C545.73,53.06,545.87,53.19,545.87,53.53z M543.24,65.9v-3.72v-0.42
				c0-1.18-0.71-1.69-1.38-1.72c-0.67-0.02-1.45,0.42-1.45,1.72v4.14c0,1.27,0.78,1.74,1.45,1.72
				C542.53,67.59,543.24,67.08,543.24,65.9z"/>
			<path class="st0" d="M555.83,62.15v0.38c0,0.47-0.02,0.74-0.07,1.16c-0.02,0.33-0.13,0.47-0.47,0.47h-4.57
				c-0.18,0-0.22,0.05-0.22,0.22v1.56c0,1.23,0.78,1.67,1.45,1.67s1.09-0.44,1.27-0.96c0.07-0.2,0.18-0.27,0.38-0.27h1.72
				c0.27,0,0.31,0.2,0.29,0.4c-0.27,2.39-2.05,3.19-3.65,3.19c-1.94,0-4.01-1.16-4.01-4.86v-2.59c0-3.7,2.07-4.86,4.01-4.86
				C553.73,57.67,555.83,58.68,555.83,62.15z M552.02,59.9c-0.65,0-1.52,0.45-1.52,1.72v0.49c0,0.18,0.05,0.22,0.22,0.22h2.59
				c0.18,0,0.22-0.05,0.22-0.22v-0.49C553.53,60.35,552.66,59.9,552.02,59.9z"/>
			<path class="st0" d="M562.91,64.6v-6.37c0-3.3,1.54-5.37,4.57-5.37c2.83,0,4.3,1.89,4.39,4.21c0,0.22-0.02,0.4-0.29,0.4h-2.03
				c-0.24,0-0.36-0.09-0.38-0.31c-0.16-0.91-0.67-1.69-1.69-1.69c-1.2,0-1.76,1.11-1.76,2.76v6.37c0,1.65,0.56,2.76,1.76,2.76
				c1.03,0,1.54-0.78,1.69-1.69c0.02-0.22,0.13-0.31,0.38-0.31h2.03c0.27,0,0.29,0.18,0.29,0.4c-0.09,2.32-1.56,4.21-4.39,4.21
				C564.45,69.97,562.91,67.9,562.91,64.6z"/>
			<path class="st0" d="M573.94,66.3c0-3.25,2.63-3.88,5.35-4.19v-0.69c0-1.05-0.65-1.52-1.36-1.52c-0.69,0-1.14,0.45-1.27,1.09
				c-0.05,0.2-0.18,0.27-0.38,0.27h-1.6c-0.27,0-0.29-0.2-0.29-0.4c0.07-2.23,1.83-3.19,3.7-3.19c1.92,0,3.81,1.14,3.81,4.19
				l0.02,5.33c0,1.11,0.09,1.56,0.2,2.14c0.07,0.33-0.11,0.45-0.45,0.45h-1.6c-0.33,0-0.42-0.11-0.51-0.82
				c-0.49,0.54-1.18,0.87-1.89,0.98C575.83,70.24,573.94,68.97,573.94,66.3z M579.29,65.9v-2.21c-1.76,0.27-2.76,0.69-2.72,2.36
				c0.02,1.11,0.69,1.6,1.38,1.56C578.62,67.59,579.29,67.08,579.29,65.9z"/>
			<path class="st0" d="M584.59,69.31v-8.96c0-0.27-0.07-0.33-0.33-0.33h-0.42c-0.33,0-0.47-0.13-0.47-0.47v-1.2
				c0-0.33,0.13-0.47,0.47-0.47h0.44c0.27,0,0.33-0.07,0.33-0.29v-1.23c0-2.3,1.38-3.3,3.99-3.3c0.33,0,0.47,0.13,0.47,0.47v1.32
				c0,0.33-0.13,0.47-0.47,0.47c-0.91,0-1.43,0.38-1.43,1.05v1.23c0,0.2,0.07,0.29,0.29,0.29h1.14c0.33,0,0.47,0.13,0.47,0.47v1.2
				c0,0.33-0.13,0.47-0.47,0.47h-1.03c-0.27,0-0.36,0.07-0.36,0.33v8.96c0,0.33-0.13,0.47-0.47,0.47h-1.69
				C584.72,69.77,584.59,69.64,584.59,69.31z"/>
			<path class="st0" d="M598.49,62.15v0.38c0,0.47-0.02,0.74-0.07,1.16c-0.02,0.33-0.13,0.47-0.47,0.47h-4.57
				c-0.18,0-0.22,0.05-0.22,0.22v1.56c0,1.23,0.78,1.67,1.45,1.67s1.09-0.44,1.27-0.96c0.07-0.2,0.18-0.27,0.38-0.27h1.72
				c0.27,0,0.31,0.2,0.29,0.4c-0.27,2.39-2.05,3.19-3.65,3.19c-1.94,0-4.01-1.16-4.01-4.86v-2.59c0-3.7,2.07-4.86,4.01-4.86
				C596.4,57.67,598.49,58.68,598.49,62.15z M595.28,51.66c0.25-0.25,0.42-0.25,0.67,0l0.85,0.89c0.24,0.25,0.24,0.4,0,0.65
				l-2.92,2.76c-0.24,0.24-0.44,0.22-0.67,0l-0.89-0.87c-0.22-0.22-0.22-0.44,0-0.67L595.28,51.66z M594.68,59.9
				c-0.65,0-1.52,0.45-1.52,1.72v0.49c0,0.18,0.05,0.22,0.22,0.22h2.59c0.18,0,0.22-0.05,0.22-0.22v-0.49
				C596.2,60.35,595.33,59.9,594.68,59.9z"/>
		</g>
	</g>
	<g>
		<g>
			<g>
				<path class="st0" d="M155.99,36.4c0.29-0.55,0.66-0.98,1.11-1.26c0.45-0.29,1-0.45,1.69-0.45c1.13,0.01,1.86,0.43,2.41,1.09
					c0.54,0.66,0.87,1.58,1.02,2.51l0,0c0.02,0.17,0.05,0.32,0.11,0.47c0.09,0.23,0.27,0.44,0.5,0.55c0.23,0.11,0.47,0.15,0.73,0.15
					h5.92c0.18,0,0.35-0.03,0.5-0.09c0.23-0.09,0.42-0.28,0.52-0.48c0.1-0.2,0.12-0.41,0.12-0.61c0-0.08-0.01-0.16-0.01-0.23h0
					c-0.06-3.07-1.05-5.93-3.03-8.03c-1.98-2.1-4.93-3.41-8.8-3.4c-4.14-0.01-7.27,1.43-9.31,3.98c-2.04,2.54-3,6.13-3.01,10.4
					v13.79c0,4.27,0.96,7.86,3.01,10.4c2.04,2.55,5.17,3.99,9.31,3.98c3.87,0,6.82-1.3,8.8-3.41c1.98-2.1,2.97-4.96,3.03-8.03h0
					c0.01-0.08,0.01-0.15,0.01-0.23c0-0.26-0.04-0.56-0.25-0.81c-0.1-0.12-0.24-0.22-0.39-0.28c-0.16-0.06-0.32-0.09-0.5-0.09h-5.92
					c-0.18,0-0.34,0.02-0.5,0.06c-0.24,0.06-0.47,0.21-0.62,0.42c-0.14,0.2-0.2,0.44-0.23,0.69l0,0c-0.15,0.93-0.48,1.85-1.02,2.51
					c-0.55,0.66-1.28,1.09-2.41,1.09c-0.69,0-1.24-0.16-1.69-0.45c-0.67-0.43-1.17-1.17-1.49-2.18c-0.32-1.01-0.47-2.27-0.47-3.67
					V40.99C155.14,39.13,155.4,37.5,155.99,36.4z"/>
				<path class="st0" d="M198.97,27.3c-0.27-0.15-0.58-0.2-0.93-0.2h-5.59c-0.23,0-0.44,0.02-0.64,0.08
					c-0.3,0.08-0.57,0.28-0.72,0.56c-0.15,0.27-0.2,0.58-0.2,0.93v16.78v9.34c0,1.86-0.25,3.49-0.82,4.6
					c-0.29,0.55-0.65,0.97-1.09,1.26c-0.45,0.29-0.99,0.45-1.68,0.45c-0.69,0-1.24-0.16-1.69-0.45c-0.67-0.43-1.17-1.17-1.49-2.18
					c-0.32-1.01-0.47-2.27-0.47-3.67v-6.19V28.67c0-0.23-0.02-0.44-0.08-0.64c-0.08-0.3-0.28-0.57-0.56-0.72
					c-0.27-0.15-0.58-0.2-0.93-0.2h-5.54c-0.23,0-0.44,0.02-0.64,0.08c-0.3,0.08-0.57,0.28-0.72,0.56c-0.15,0.27-0.2,0.58-0.2,0.93
					V45.5v9.28c0,4.27,0.96,7.86,3.01,10.4c2.04,2.55,5.17,3.99,9.31,3.98c4.11,0.01,7.24-1.43,9.29-3.98
					c2.05-2.54,3.03-6.13,3.03-10.4v-5.86V28.67c0-0.23-0.02-0.44-0.08-0.64C199.44,27.73,199.24,27.46,198.97,27.3z"/>
				<path class="st0" d="M223.06,46.86c2.11-1.63,3.9-4.64,3.9-8.41v-0.65c0-2.93-1.06-5.6-2.89-7.54
					c-1.83-1.94-4.45-3.15-7.52-3.15h-10.8c-0.23,0-0.44,0.02-0.64,0.08c-0.3,0.08-0.57,0.28-0.72,0.56
					c-0.15,0.27-0.2,0.58-0.2,0.93v38.44c0,0.23,0.02,0.44,0.08,0.64c0.08,0.3,0.28,0.57,0.56,0.72c0.27,0.15,0.58,0.2,0.93,0.2
					h10.97c3.44,0,6.25-1.22,8.19-3.27c1.94-2.04,2.99-4.88,2.99-8.07v-0.81c0-2.21-0.5-4.3-1.43-6.04
					C225.64,48.95,224.49,47.69,223.06,46.86z M218.46,39.31c0,1.25-0.36,2.19-0.9,2.81c-0.55,0.62-1.28,0.94-2.15,0.95h-1.95
					c-0.18,0-0.32-0.01-0.4-0.03c-0.06-0.02-0.09-0.03-0.11-0.04c-0.02-0.02-0.03-0.02-0.05-0.1c-0.02-0.08-0.04-0.22-0.04-0.43
					v-6.73c0-0.24,0.01-0.43,0.04-0.55c0.02-0.09,0.04-0.14,0.06-0.17c0.03-0.04,0.02-0.04,0.09-0.06c0.07-0.02,0.21-0.04,0.42-0.04
					h1.95c0.9,0,1.63,0.33,2.17,0.95c0.54,0.62,0.88,1.55,0.88,2.81V39.31z M212.85,51.47c0-0.18,0.01-0.32,0.03-0.4
					c0.02-0.06,0.03-0.09,0.04-0.11c0.02-0.02,0.02-0.03,0.1-0.05c0.08-0.02,0.22-0.04,0.43-0.04h2.01c1.13,0,2.03,0.38,2.69,1.11
					c0.65,0.73,1.06,1.85,1.07,3.41v0.98c0,1.52-0.42,2.65-1.09,3.39c-0.66,0.74-1.58,1.12-2.67,1.13h-2.01
					c-0.18,0-0.32-0.01-0.4-0.03c-0.06-0.02-0.09-0.03-0.11-0.04c-0.02-0.02-0.03-0.02-0.05-0.1c-0.02-0.08-0.04-0.22-0.04-0.43
					V51.47z"/>
				<path class="st0" d="M256.87,67.06l-9.18-38.55l0,0c-0.06-0.25-0.13-0.47-0.24-0.67c-0.15-0.29-0.41-0.52-0.7-0.62
					c-0.29-0.11-0.59-0.13-0.94-0.13h-4.4c-0.23,0-0.44,0.01-0.64,0.05c-0.3,0.05-0.6,0.19-0.81,0.43
					c-0.21,0.25-0.33,0.55-0.43,0.93l0,0l-9.17,38.55l0,0c-0.04,0.17-0.07,0.33-0.07,0.48c0,0.18,0.03,0.36,0.11,0.51
					c0.11,0.24,0.32,0.41,0.53,0.49c0.21,0.09,0.44,0.12,0.66,0.12h5.7c0.2,0,0.39-0.01,0.57-0.06c0.28-0.06,0.55-0.22,0.74-0.46
					c0.19-0.24,0.32-0.53,0.41-0.89l0-0.01l1.03-4.66c0.04-0.14,0.07-0.24,0.1-0.29l0.05-0.07c0.02-0.01,0.04-0.03,0.12-0.05
					c0.08-0.02,0.22-0.03,0.4-0.03h5.81c0.17,0,0.29,0.01,0.37,0.02c0.06,0.01,0.1,0.02,0.12,0.03c0.03,0.02,0.03,0.02,0.07,0.07
					c0.03,0.05,0.07,0.15,0.11,0.31l1.03,4.66l0,0.01c0.06,0.24,0.13,0.45,0.23,0.64c0.15,0.28,0.37,0.5,0.64,0.62
					c0.27,0.12,0.55,0.15,0.84,0.15h5.7c0.3,0,0.6-0.05,0.86-0.23c0.13-0.09,0.25-0.22,0.32-0.38c0.08-0.16,0.11-0.33,0.11-0.51
					C256.94,67.39,256.91,67.23,256.87,67.06L256.87,67.06z M243.64,43.55l2.13,10.7l0,0.05l-0.01,0.06l0,0l-0.01,0h-4.23l-0.03,0
					l0.01-0.05l0-0.02L243.64,43.55z"/>
				<path class="st0" d="M268.91,36.4c0.29-0.55,0.66-0.98,1.11-1.26c0.45-0.29,1-0.45,1.69-0.45c1.13,0.01,1.86,0.43,2.41,1.09
					c0.54,0.66,0.87,1.58,1.02,2.51l0,0c0.02,0.17,0.05,0.32,0.11,0.47c0.09,0.23,0.27,0.44,0.5,0.55c0.23,0.11,0.47,0.15,0.73,0.15
					h5.92c0.18,0,0.35-0.03,0.5-0.09c0.23-0.09,0.42-0.28,0.52-0.48c0.1-0.2,0.12-0.41,0.12-0.61c0-0.08-0.01-0.16-0.01-0.23h0
					c-0.06-3.07-1.05-5.93-3.03-8.03c-1.98-2.1-4.93-3.41-8.8-3.4c-4.14-0.01-7.27,1.43-9.31,3.98c-2.04,2.54-3,6.13-3.01,10.4
					v13.79c0,4.27,0.96,7.86,3.01,10.4c2.04,2.55,5.17,3.99,9.31,3.98c3.87,0,6.82-1.3,8.8-3.41c1.98-2.1,2.97-4.96,3.03-8.03h0
					c0.01-0.08,0.01-0.15,0.01-0.23c0-0.26-0.04-0.56-0.25-0.81c-0.1-0.12-0.24-0.22-0.39-0.28c-0.16-0.06-0.32-0.09-0.5-0.09h-5.92
					c-0.18,0-0.34,0.02-0.5,0.06c-0.24,0.06-0.47,0.21-0.62,0.42c-0.14,0.2-0.2,0.44-0.23,0.69l0,0c-0.15,0.93-0.48,1.85-1.02,2.51
					c-0.55,0.66-1.28,1.09-2.41,1.09c-0.69,0-1.24-0.16-1.69-0.45c-0.67-0.43-1.17-1.17-1.49-2.18c-0.32-1.01-0.47-2.27-0.47-3.67
					V40.99C268.06,39.13,268.33,37.5,268.91,36.4z"/>
				<path class="st0" d="M312.57,67.06l-9.17-38.55l0,0c-0.06-0.25-0.13-0.47-0.24-0.67c-0.15-0.29-0.41-0.52-0.7-0.62
					c-0.29-0.11-0.59-0.13-0.94-0.13h-4.4c-0.23,0-0.44,0.01-0.64,0.05c-0.3,0.05-0.6,0.19-0.81,0.43
					c-0.21,0.25-0.34,0.55-0.43,0.93l0,0l-9.17,38.55l0,0c-0.04,0.17-0.07,0.33-0.07,0.48c0,0.18,0.03,0.36,0.11,0.51
					c0.11,0.24,0.32,0.41,0.53,0.49c0.21,0.09,0.44,0.12,0.66,0.12h5.7c0.2,0,0.39-0.01,0.57-0.06c0.28-0.06,0.55-0.22,0.74-0.46
					c0.19-0.24,0.31-0.53,0.41-0.89l0,0l1.03-4.67c0.04-0.14,0.07-0.24,0.1-0.29l0.05-0.07c0.02-0.01,0.04-0.03,0.12-0.05
					c0.08-0.02,0.22-0.03,0.4-0.03h5.81c0.17,0,0.29,0.01,0.37,0.02c0.06,0.01,0.1,0.02,0.12,0.03c0.03,0.02,0.03,0.02,0.07,0.07
					c0.03,0.05,0.07,0.15,0.11,0.31l1.03,4.66l0,0.01c0.06,0.24,0.13,0.45,0.23,0.64c0.15,0.28,0.37,0.5,0.64,0.62
					c0.27,0.12,0.55,0.15,0.84,0.15h5.7c0.3,0,0.6-0.05,0.86-0.23c0.13-0.09,0.25-0.22,0.32-0.38c0.08-0.16,0.11-0.33,0.11-0.51
					C312.64,67.39,312.62,67.23,312.57,67.06L312.57,67.06z M299.35,43.55l2.13,10.7l0,0.05l-0.01,0.06l0,0l-0.01,0h-4.24l-0.03,0
					l0.01-0.05l0-0.02L299.35,43.55z"/>
				<path class="st0" d="M334.1,27.3c-0.27-0.15-0.58-0.2-0.93-0.2h-15.69c-0.23,0-0.44,0.02-0.64,0.08
					c-0.3,0.08-0.57,0.28-0.72,0.56c-0.15,0.27-0.2,0.58-0.2,0.93v38.44c0,0.23,0.02,0.44,0.08,0.64c0.08,0.3,0.28,0.57,0.56,0.72
					c0.27,0.15,0.58,0.2,0.93,0.2h5.54c0.23,0,0.44-0.02,0.64-0.08c0.3-0.08,0.57-0.28,0.72-0.56c0.15-0.27,0.2-0.58,0.2-0.93V52.07
					c0-0.18,0.01-0.32,0.03-0.4c0.02-0.06,0.03-0.09,0.04-0.11c0.02-0.02,0.02-0.03,0.1-0.05c0.08-0.02,0.22-0.04,0.43-0.04h5.27
					c0.23,0,0.44-0.02,0.64-0.08c0.3-0.08,0.57-0.28,0.72-0.56c0.15-0.27,0.2-0.58,0.2-0.93v-4.67c0-0.23-0.02-0.44-0.08-0.64
					c-0.08-0.3-0.28-0.57-0.56-0.72c-0.27-0.15-0.58-0.2-0.93-0.2h-5.27c-0.18,0-0.32-0.01-0.4-0.03c-0.06-0.02-0.09-0.03-0.11-0.04
					c-0.02-0.02-0.03-0.02-0.05-0.1c-0.02-0.08-0.04-0.22-0.04-0.43v-7.55c0-0.18,0.01-0.32,0.03-0.4c0.02-0.06,0.03-0.09,0.04-0.11
					c0.02-0.02,0.02-0.03,0.1-0.05c0.08-0.02,0.22-0.04,0.43-0.04h7.98c0.23,0,0.44-0.02,0.64-0.08c0.3-0.08,0.57-0.28,0.72-0.56
					c0.15-0.27,0.2-0.58,0.2-0.93v-4.67c0-0.23-0.02-0.44-0.08-0.64C334.57,27.73,334.37,27.46,334.1,27.3z"/>
				<polygon class="st0" points="340.58,21.64 340.58,21.64 340.58,21.64 				"/>
				<path class="st0" d="M342.38,24.24L342.38,24.24c0.16,0.24,0.31,0.45,0.5,0.6c0.19,0.16,0.44,0.27,0.7,0.27
					c0.32,0,0.6-0.14,0.9-0.32l0.01,0l9.84-6.63l0,0c0.22-0.15,0.4-0.29,0.55-0.47c0.15-0.17,0.26-0.41,0.26-0.66
					c0-0.17-0.04-0.33-0.11-0.49c-0.06-0.16-0.15-0.31-0.26-0.48l0,0l-1.74-2.61l0,0c-0.16-0.23-0.31-0.42-0.5-0.58
					c-0.18-0.15-0.43-0.27-0.69-0.27c-0.33,0-0.61,0.15-0.92,0.35l0,0l-9.83,6.57l0,0c-0.23,0.16-0.42,0.31-0.58,0.5
					c-0.15,0.18-0.27,0.43-0.27,0.69c0,0.33,0.15,0.62,0.36,0.92L342.38,24.24z"/>
				<path class="st0" d="M347.1,35.11c0.02-0.06,0.03-0.09,0.04-0.11c0.02-0.02,0.02-0.03,0.1-0.05c0.08-0.02,0.22-0.04,0.43-0.04
					h7.82c0.23,0,0.44-0.02,0.64-0.08c0.3-0.08,0.57-0.28,0.72-0.56c0.15-0.27,0.2-0.58,0.2-0.93v-4.67c0-0.23-0.02-0.44-0.08-0.64
					c-0.08-0.3-0.28-0.57-0.56-0.72c-0.27-0.15-0.58-0.2-0.93-0.2h-15.53c-0.23,0-0.44,0.02-0.64,0.08
					c-0.3,0.08-0.57,0.28-0.72,0.56c-0.15,0.27-0.2,0.58-0.2,0.93v38.44c0,0.23,0.02,0.44,0.08,0.64c0.08,0.3,0.28,0.57,0.56,0.72
					c0.27,0.15,0.58,0.2,0.93,0.2h15.53c0.23,0,0.44-0.02,0.64-0.08c0.3-0.08,0.57-0.28,0.72-0.56c0.15-0.27,0.2-0.58,0.2-0.93
					v-4.67c0-0.23-0.02-0.44-0.08-0.64c-0.08-0.3-0.28-0.57-0.56-0.72c-0.27-0.15-0.58-0.2-0.93-0.2h-7.82
					c-0.18,0-0.32-0.01-0.4-0.03c-0.06-0.02-0.09-0.03-0.11-0.04c-0.02-0.02-0.03-0.02-0.06-0.1c-0.02-0.08-0.04-0.22-0.04-0.43
					v-8.2c0-0.18,0.01-0.32,0.03-0.4c0.02-0.06,0.03-0.09,0.04-0.11c0.02-0.02,0.02-0.03,0.1-0.05c0.08-0.02,0.22-0.04,0.43-0.04
					h7.82c0.23,0,0.44-0.02,0.64-0.08c0.3-0.08,0.57-0.28,0.72-0.56c0.15-0.27,0.2-0.58,0.2-0.93v-4.67c0-0.23-0.02-0.44-0.08-0.64
					c-0.08-0.3-0.28-0.57-0.56-0.72c-0.27-0.15-0.58-0.2-0.93-0.2h-7.82c-0.18,0-0.32-0.01-0.4-0.03c-0.06-0.02-0.09-0.03-0.11-0.04
					c-0.02-0.02-0.03-0.02-0.06-0.1c-0.02-0.08-0.04-0.22-0.04-0.43v-7.55C347.06,35.33,347.07,35.19,347.1,35.11z"/>
			</g>
		</g>
		<g>
			<g>
				<path class="st1" d="M148.16,104.32V81.98c0-0.47,0.19-0.66,0.66-0.66h0.85c0.47,0,0.63,0.32,0.72,0.66l4.89,18.23
					c0.06,0.19,0.32,0.19,0.38,0l4.92-18.23c0.1-0.35,0.25-0.66,0.73-0.66h0.82c0.47,0,0.66,0.19,0.66,0.66v22.33
					c0,0.47-0.19,0.66-0.66,0.66h-1.04c-0.47,0-0.66-0.19-0.66-0.66V90.59c0-0.28-0.32-0.32-0.38-0.03l-3.63,13.78
					c-0.13,0.51-0.32,0.63-0.82,0.63h-0.22c-0.5,0-0.69-0.13-0.82-0.63l-3.63-13.78c-0.06-0.28-0.38-0.25-0.38,0.03v13.72
					c0,0.47-0.19,0.66-0.66,0.66h-1.07C148.35,104.98,148.16,104.79,148.16,104.32z"/>
				<path class="st1" d="M170.3,81.95c0.09-0.54,0.32-0.63,0.82-0.63H172c0.51,0,0.69,0.09,0.82,0.63l4.73,22.39
					c0.09,0.47-0.13,0.63-0.47,0.63h-1.17c-0.41,0-0.6-0.16-0.69-0.63l-0.98-4.64c-0.09-0.38-0.22-0.44-0.63-0.44h-4.1
					c-0.41,0-0.57,0.06-0.63,0.44l-0.98,4.64c-0.09,0.47-0.28,0.63-0.69,0.63h-1.17c-0.35,0-0.57-0.16-0.47-0.63L170.3,81.95z
					 M169.67,97.16h3.79c0.19,0,0.28-0.09,0.25-0.35l-1.95-10.12c-0.06-0.22-0.35-0.22-0.38,0l-1.95,10.12
					C169.35,97.06,169.51,97.16,169.67,97.16z"/>
				<path class="st1" d="M182.69,91.07c0,0.47,0.13,0.6,0.6,0.6h4.64c0.47,0,0.66,0.19,0.66,0.66v0.79c0,0.47-0.19,0.66-0.66,0.66
					h-4.64c-0.47,0-0.6,0.13-0.6,0.6v7.89c0,0.47,0.13,0.6,0.6,0.6h4.64c0.47,0,0.66,0.19,0.66,0.66v0.79
					c0,0.47-0.19,0.66-0.66,0.66h-6.97c-0.47,0-0.66-0.19-0.66-0.66V81.98c0-0.47,0.19-0.66,0.66-0.66h6.97
					c0.47,0,0.66,0.19,0.66,0.66v0.79c0,0.47-0.19,0.66-0.66,0.66h-4.64c-0.47,0-0.6,0.13-0.6,0.6V91.07z"/>
				<path class="st1" d="M197.29,105.23c-3.15,0-5.49-2.37-5.61-5.3c0-0.28,0.03-0.57,0.41-0.57h1.26c0.35,0,0.54,0.13,0.57,0.44
					c0.22,1.73,1.48,3.28,3.41,3.28c1.83,0,3.15-1.39,3.19-3.34c0.09-4.89-8.42-8.04-8.42-13.69c0-2.84,2.11-4.98,4.98-4.98
					c2.9,0,4.76,2.18,4.98,4.7c0.03,0.32-0.03,0.57-0.41,0.57h-1.29c-0.35,0-0.47-0.09-0.54-0.41c-0.28-1.54-1.23-2.68-2.68-2.68
					c-1.51,0-2.68,1.2-2.65,2.74c0.13,3.97,8.42,7.6,8.42,13.59C202.9,102.99,200.22,105.23,197.29,105.23z"/>
				<path class="st1" d="M214.91,81.98v0.79c0,0.47-0.19,0.66-0.66,0.66h-2.68c-0.47,0-0.6,0.13-0.6,0.6v20.28
					c0,0.47-0.19,0.66-0.66,0.66h-1.07c-0.47,0-0.66-0.19-0.66-0.66V84.03c0-0.47-0.13-0.6-0.6-0.6h-2.68
					c-0.47,0-0.66-0.19-0.66-0.66v-0.79c0-0.47,0.19-0.66,0.66-0.66h8.96C214.72,81.32,214.91,81.51,214.91,81.98z"/>
				<path class="st1" d="M228.22,104.98h-1.36c-0.38,0-0.6-0.13-0.72-0.44l-3.53-9.15h-0.06h-1.86c-0.47,0-0.6,0.13-0.6,0.6v8.33
					c0,0.47-0.19,0.66-0.66,0.66h-1.07c-0.47,0-0.66-0.19-0.66-0.66V81.98c0-0.47,0.19-0.66,0.66-0.66h4.19c3,0,5.14,2.08,5.14,5.93
					v2.21c0,2.78-1.1,4.6-2.84,5.46l3.72,9.43C228.72,104.72,228.56,104.98,228.22,104.98z M220.68,93.21h1.73
					c1.45,0,2.9-1.07,2.9-3.69v-2.37c0-2.62-1.45-3.72-2.9-3.72h-1.73c-0.47,0-0.6,0.13-0.6,0.6v8.58
					C220.08,93.09,220.21,93.21,220.68,93.21z"/>
				<path class="st1" d="M231.02,99.08V87.22c0-3.97,2.02-6.15,5.27-6.15c3.22,0,5.24,2.18,5.24,6.15v11.86
					c0,3.97-2.02,6.15-5.24,6.15C233.04,105.23,231.02,103.05,231.02,99.08z M239.16,99.08V87.22c0-2.65-1.29-3.91-2.87-3.91
					c-1.58,0-2.87,1.26-2.87,3.91v11.86c0,2.65,1.29,3.91,2.87,3.91C237.86,102.99,239.16,101.73,239.16,99.08z"/>
				<path class="st1" d="M250.22,105.23c-3.15,0-5.49-2.37-5.61-5.3c0-0.28,0.03-0.57,0.41-0.57h1.26c0.35,0,0.54,0.13,0.57,0.44
					c0.22,1.73,1.48,3.28,3.41,3.28c1.83,0,3.15-1.39,3.19-3.34c0.09-4.89-8.42-8.04-8.42-13.69c0-2.84,2.11-4.98,4.98-4.98
					c2.9,0,4.76,2.18,4.98,4.7c0.03,0.32-0.03,0.57-0.41,0.57h-1.29c-0.35,0-0.47-0.09-0.54-0.41c-0.28-1.54-1.23-2.68-2.68-2.68
					c-1.51,0-2.68,1.2-2.65,2.74c0.13,3.97,8.42,7.6,8.42,13.59C255.84,102.99,253.16,105.23,250.22,105.23z"/>
				<path class="st1" d="M276.8,87.76v10.79c0,4.26-2.02,6.43-5.8,6.43h-4.16c-0.47,0-0.66-0.19-0.66-0.66V81.98
					c0-0.47,0.19-0.66,0.66-0.66H271C274.78,81.32,276.8,83.5,276.8,87.76z M274.44,87.6c0-2.9-1.29-4.16-3.53-4.16h-1.73
					c-0.47,0-0.6,0.13-0.6,0.6v18.23c0,0.47,0.13,0.6,0.6,0.6h1.73c2.24,0,3.53-1.26,3.53-4.16V87.6z"/>
				<path class="st1" d="M282.73,91.07c0,0.47,0.13,0.6,0.6,0.6h4.64c0.47,0,0.66,0.19,0.66,0.66v0.79c0,0.47-0.19,0.66-0.66,0.66
					h-4.64c-0.47,0-0.6,0.13-0.6,0.6v7.89c0,0.47,0.13,0.6,0.6,0.6h4.64c0.47,0,0.66,0.19,0.66,0.66v0.79
					c0,0.47-0.19,0.66-0.66,0.66h-6.97c-0.47,0-0.66-0.19-0.66-0.66V81.98c0-0.47,0.19-0.66,0.66-0.66h6.97
					c0.47,0,0.66,0.19,0.66,0.66v0.79c0,0.47-0.19,0.66-0.66,0.66h-4.64c-0.47,0-0.6,0.13-0.6,0.6V91.07z"/>
				<path class="st1" d="M300.51,103.53v0.79c0,0.47-0.19,0.66-0.66,0.66h-7.06c-0.47,0-0.66-0.19-0.66-0.66V81.98
					c0-0.47,0.19-0.66,0.66-0.66h1.07c0.47,0,0.66,0.19,0.66,0.66v20.28c0,0.47,0.13,0.6,0.6,0.6h4.73
					C300.32,102.86,300.51,103.05,300.51,103.53z"/>
				<path class="st1" d="M309.81,99.08V87.22c0-3.97,2.02-6.15,5.27-6.15c3,0,4.79,1.96,5.05,4.76c0.03,0.28-0.03,0.57-0.41,0.57
					h-1.32c-0.35,0-0.47-0.1-0.54-0.41c-0.28-1.58-1.29-2.68-2.74-2.68c-1.61,0-2.9,1.26-2.9,3.91v11.86c0,2.65,1.29,3.91,2.9,3.91
					c1.45,0,2.46-1.1,2.74-2.68c0.06-0.32,0.19-0.41,0.54-0.41h1.32c0.38,0,0.44,0.28,0.41,0.57c-0.25,2.81-2.05,4.76-5.05,4.76
					C311.82,105.23,309.81,103.05,309.81,99.08z"/>
				<path class="st1" d="M327.12,81.95c0.09-0.54,0.32-0.63,0.82-0.63h0.88c0.51,0,0.69,0.09,0.82,0.63l4.73,22.39
					c0.09,0.47-0.13,0.63-0.47,0.63h-1.17c-0.41,0-0.6-0.16-0.69-0.63l-0.98-4.64c-0.09-0.38-0.22-0.44-0.63-0.44h-4.1
					c-0.41,0-0.57,0.06-0.63,0.44l-0.98,4.64c-0.09,0.47-0.28,0.63-0.69,0.63h-1.17c-0.35,0-0.57-0.16-0.47-0.63L327.12,81.95z
					 M326.48,97.16h3.79c0.19,0,0.28-0.09,0.25-0.35l-1.95-10.12c-0.06-0.22-0.35-0.22-0.38,0l-1.95,10.12
					C326.17,97.06,326.33,97.16,326.48,97.16z"/>
				<path class="st1" d="M345.44,81.98v0.79c0,0.47-0.19,0.66-0.66,0.66h-4.67c-0.47,0-0.6,0.13-0.6,0.6v7.03
					c0,0.47,0.13,0.6,0.6,0.6h3.09c0.47,0,0.66,0.19,0.66,0.66v0.79c0,0.47-0.19,0.66-0.66,0.66h-3.09c-0.47,0-0.6,0.13-0.6,0.6
					v9.94c0,0.47-0.19,0.66-0.66,0.66h-1.07c-0.47,0-0.66-0.19-0.66-0.66V81.98c0-0.47,0.19-0.66,0.66-0.66h7
					C345.25,81.32,345.44,81.51,345.44,81.98z"/>
				<path class="st1" d="M350.6,91.07c0,0.47,0.13,0.6,0.6,0.6h4.64c0.47,0,0.66,0.19,0.66,0.66v0.79c0,0.47-0.19,0.66-0.66,0.66
					h-4.64c-0.47,0-0.6,0.13-0.6,0.6v7.89c0,0.47,0.13,0.6,0.6,0.6h4.64c0.47,0,0.66,0.19,0.66,0.66v0.79
					c0,0.47-0.19,0.66-0.66,0.66h-6.97c-0.47,0-0.66-0.19-0.66-0.66V81.98c0-0.47,0.19-0.66,0.66-0.66h6.97
					c0.47,0,0.66,0.19,0.66,0.66v0.79c0,0.47-0.19,0.66-0.66,0.66h-4.64c-0.47,0-0.6,0.13-0.6,0.6V91.07z M355.33,76.18l-4.79,3.19
					c-0.41,0.28-0.6,0.19-0.88-0.22l-0.35-0.5c-0.28-0.41-0.19-0.6,0.22-0.88l4.79-3.19c0.41-0.28,0.6-0.19,0.88,0.22l0.35,0.51
					C355.84,75.71,355.74,75.9,355.33,76.18z"/>
			</g>
		</g>
		<path class="st0" d="M131.8,58.32c-0.1-0.93-0.34-1.87-0.73-2.76c-0.4-0.9-0.97-1.72-1.63-2.41c-1.34-1.36-2.89-2.17-4.38-2.85
			c-5.93-2.48-12.13-3.87-18.35-4.54c-6.22-0.62-12.41-0.98-18.65-0.88c-3.11,0.06-6.23,0.21-9.33,0.47
			c-1.55,0.13-3.1,0.29-4.64,0.46c-1.55,0.17-3.06,0.36-4.56,0.46c-0.75,0.05-1.5,0.09-2.23,0.09c-0.27,0-0.55-0.01-0.82-0.02
			c0.15-0.07,0.3-0.14,0.45-0.21c1.32-0.58,2.75-1.06,4.2-1.52c1.45-0.46,2.92-0.87,4.43-1.32c0.76-0.23,1.52-0.46,2.34-0.79
			c0.42-0.19,0.82-0.32,1.44-0.81c0.16-0.14,0.35-0.31,0.55-0.66c0.1-0.19,0.2-0.42,0.24-0.71c0.04-0.29,0.01-0.62-0.07-0.88
			c-0.19-0.55-0.46-0.8-0.65-0.97c-0.2-0.17-0.37-0.28-0.51-0.37c-0.57-0.33-1.03-0.46-1.38-0.59l-1.13-0.39
			c-0.75-0.26-1.52-0.48-2.27-0.72c-3.06-0.88-6.2-1.55-9.38-1.94c-5.24-0.64-10.48-0.54-15.65-0.15c3.69-0.83,7.43-1.44,11.21-1.84
			c5.95-0.61,11.98-0.8,17.97-0.32c6,0.44,11.96,1.51,17.79,3.21c2.91,0.84,5.79,1.84,8.63,2.96c2.84,1.13,5.62,2.41,8.42,3.72
			c1.41,0.65,2.79,1.32,4.27,1.92c1.51,0.61,3.13,0.99,4.77,1.02c1.64,0.04,3.29-0.26,4.79-0.95c1.49-0.69,2.83-1.81,3.63-3.29
			c1.49-2.97,1.38-6.38,0.45-9.38c-0.46-1.51-1.11-2.96-1.93-4.3c-0.81-1.34-1.74-2.58-2.81-3.77l0,0c0,0-0.01-0.01-0.01-0.01
			c0,0,0,0-0.01-0.01l0,0c-2.04-2.34-4.29-4.49-6.71-6.42c-2.41-1.97-5.01-3.7-7.68-5.29c-2.68-1.59-5.48-2.97-8.33-4.22
			c-2.86-1.23-5.8-2.31-8.78-3.24C82.8,0.48,70.05-0.8,57.41,0.49C51.1,1.17,44.8,2.47,38.74,4.63c-3.04,1.06-6.01,2.33-8.91,3.79
			c-2.88,1.5-5.69,3.17-8.34,5.12c-5.29,3.87-10.07,8.72-13.52,14.61c-1.72,2.94-3.1,6.12-3.98,9.48C3.1,40.98,2.7,44.48,2.83,47.96
			c0.24,6.99,2.72,13.78,6.51,19.4c3.8,5.66,8.77,10.27,14.23,13.94c10.95,7.35,23.65,11.24,36.38,12.59
			c6.38,0.66,12.81,0.69,19.18,0.07c6.36-0.64,12.68-1.87,18.76-3.9c6.08-2,11.95-4.72,17.32-8.26c2.68-1.77,5.25-3.74,7.62-5.92
			l0.87-0.81c0.29-0.28,0.6-0.57,0.88-0.87c0.58-0.59,1.14-1.2,1.68-1.83c1.07-1.26,2.05-2.62,2.9-4.07c0.85-1.45,1.57-3,2.06-4.67
			C131.71,61.97,131.99,60.18,131.8,58.32z M71.93,86.58c-3.75,0-7.55-0.24-11.28-0.71c-5.87-0.75-11.56-2.11-16.92-4.04
			c-5.63-2.02-10.76-4.64-15.24-7.79c-4.94-3.5-8.86-7.43-11.65-11.68c-3.07-4.61-4.81-9.72-5.03-14.77
			c-0.27-5.06,1.01-10.29,3.7-15.11c2.47-4.45,6.13-8.61,10.89-12.37c2.16-1.71,4.54-3.32,7.09-4.79c2.52-1.47,5.13-2.78,7.76-3.89
			c5.48-2.29,11.14-4,16.84-5.05c5.44-1.03,10.98-1.55,16.46-1.55c0.43,0,0.85,0,1.28,0.01c3,0.04,6.01,0.24,8.95,0.58
			c2.9,0.35,5.88,0.89,8.84,1.59c5.95,1.39,11.6,3.52,16.8,6.35c5.57,3.05,10.3,6.77,14.06,11.06c0.02,0.02,0.03,0.03,0.05,0.05
			c2.13,2.45,3.57,4.94,4.26,7.39c0.41,1.44,0.58,2.83,0.52,4.13c-0.07,1.48-0.42,2.79-0.99,3.79c-0.57,0.98-1.55,1.8-2.76,2.31
			c-0.93,0.4-1.97,0.6-3.11,0.6c-0.23,0-0.46-0.01-0.69-0.02c-1.29-0.09-2.58-0.44-3.83-1.04c-1.04-0.51-2.14-1.12-3.2-1.7
			l-0.77-0.43c-4.53-2.52-10.54-5.73-16.91-8.14c-6.07-2.31-12.26-3.96-18.39-4.9c-4.69-0.7-9.43-1.06-14.1-1.06
			c-1.67,0-3.35,0.05-5,0.14c-3.03,0.16-6.25,0.5-9.56,1.02c-3.19,0.53-6.36,1.23-9.43,2.09c-6.22,1.75-12.23,4.23-17.88,7.35
			l-2.07,1.17l-2.05,1.19c-0.44,0.26-0.85,0.52-1.25,0.8c-0.45,0.33-0.94,0.69-1.52,1.29l-0.1,0.11c-0.28,0.31-0.63,0.71-1,1.45
			c-0.11,0.23-0.21,0.48-0.29,0.73c-0.1,0.32-0.16,0.65-0.2,0.96c-0.03,0.33-0.04,0.72,0.02,1.15c0.05,0.38,0.14,0.75,0.27,1.08
			c0.13,0.35,0.28,0.61,0.42,0.85c0.16,0.25,0.29,0.43,0.46,0.63c0.28,0.31,0.52,0.55,0.87,0.8c0.42,0.3,0.85,0.51,1.28,0.65
			c0.48,0.16,0.85,0.2,1.18,0.23c0.13,0.01,0.23,0.01,0.31,0.01c0.15,0,0.27-0.01,0.39-0.02l0.11-0.01
			c0.25-0.02,0.35-0.05,0.48-0.07l0.08-0.02c0.19-0.04,0.33-0.07,0.43-0.1c0.03-0.01,0.05-0.02,0.07-0.03l8.84-3.47
			c2.58-0.97,5.39-1.97,8.33-2.72c2.5-0.66,5.26-1.24,8.67-1.81c5.81-0.95,10.28-1.37,14.47-1.37c1.07,0,2.14,0.03,3.16,0.09
			c2.39,0.14,4.74,0.44,7.01,0.9c-1.96,0.67-3.97,1.37-5.96,2.33l-0.15,0.08c-0.72,0.37-1.47,0.75-2.3,1.45
			c-0.01,0.01-0.05,0.05-0.06,0.06c-0.21,0.19-0.5,0.46-0.79,0.94c-0.25,0.42-0.37,0.84-0.4,1.3c-0.05,0.59,0.18,1.32,0.56,1.79
			c0.54,0.65,1.01,0.83,1.33,0.96c0,0,0.14,0.06,0.17,0.07c0.37,0.13,0.68,0.19,0.92,0.23c0.62,0.1,1.22,0.14,1.95,0.14
			c0.26,0,0.52-0.01,0.77-0.01c0.87-0.03,1.66-0.08,2.44-0.15c1.21-0.1,2.4-0.26,3.56-0.42l1.09-0.14c1.44-0.19,2.96-0.36,4.51-0.5
			c3.31-0.3,6.27-0.45,9.03-0.46c0.37,0,0.73-0.01,1.1-0.01c2.42,0,5.03,0.08,7.98,0.26c3.22,0.18,6.17,0.46,9.01,0.86
			c3.32,0.47,6.18,1.04,8.74,1.75c1.28,0.35,2.61,0.78,4.2,1.37c1.14,0.42,2.63,1,4.01,1.68c1.38,0.69,2.35,1.37,2.97,2.06
			c0.61,0.69,0.93,1.54,0.99,2.59c0.05,1.01-0.16,2.21-0.6,3.44c-0.41,1.14-1.01,2.31-1.78,3.48c-0.72,1.09-1.58,2.16-2.55,3.18
			c-0.46,0.49-0.96,0.98-1.48,1.45c-0.19,0.18-0.37,0.33-0.55,0.49l-0.24,0.21l-0.85,0.71c-2.15,1.78-4.55,3.45-7.12,4.95
			c-2.45,1.43-5.08,2.74-7.82,3.87c-2.58,1.09-5.36,2.06-8.26,2.89C87.92,85.49,80,86.58,71.93,86.58z"/>
	</g>
</g>
</svg>
