<?xml version="1.0" encoding="utf-8"?>
<!-- Generator: Adobe Illustrator 26.0.1, SVG Export Plug-In . SVG Version: 6.00 Build 0)  -->
<svg version="1.1" id="Layer_1" xmlns="http://www.w3.org/2000/svg" xmlns:xlink="http://www.w3.org/1999/xlink" x="0px" y="0px"
	 viewBox="0 0 215 215" style="enable-background:new 0 0 215 215;" xml:space="preserve">
<style type="text/css">
	.st0{fill:#FFFFFF;}
	.st1{fill-rule:evenodd;clip-rule:evenodd;fill:#D7AE35;}
</style>
<g>
	<path class="st0" d="M32,166.75c0.06,0,0.22,0,0.49,0.01c0.27,0.01,0.51,0.01,0.72,0.01c0.16,0,0.48,0,0.96-0.01
		c0.48-0.01,0.88-0.01,1.19-0.01l-0.28-0.71c-0.04-0.12-0.15-0.39-0.33-0.83c-0.18-0.43-0.53-1.26-1.04-2.48L32,166.75L32,166.75z
		 M29.02,171.79c1-2.21,1.9-4.24,2.71-6.07c0.8-1.83,1.55-3.57,2.24-5.21h0.31c0.74,1.9,1.5,3.78,2.28,5.66
		c0.77,1.88,1.56,3.75,2.36,5.61c-0.14-0.02-0.27-0.04-0.4-0.06c-0.13-0.01-0.25-0.02-0.38-0.02c-0.13,0-0.25,0.01-0.39,0.02
		c-0.13,0.01-0.28,0.03-0.43,0.06c-0.19-0.59-0.4-1.19-0.62-1.81c-0.23-0.62-0.47-1.24-0.74-1.87l-0.27-0.65
		c-0.23-0.01-0.49-0.02-0.75-0.02c-0.27-0.01-0.67-0.01-1.21-0.01c-0.55,0-0.97,0-1.24,0.01c-0.27,0.01-0.52,0.01-0.75,0.02
		c-0.25,0.59-0.51,1.24-0.78,1.93c-0.26,0.69-0.55,1.49-0.87,2.4c-0.09-0.03-0.18-0.05-0.27-0.06c-0.09-0.01-0.18-0.02-0.27-0.02
		c-0.08,0-0.16,0.01-0.25,0.02C29.2,171.75,29.11,171.76,29.02,171.79L29.02,171.79z M48.31,171.79c0.03-1.33,0.05-2.63,0.07-3.9
		c0.02-1.27,0.02-2.5,0.02-3.7v-2.71h-0.43c-0.64,0-1.2,0.02-1.7,0.05c-0.49,0.03-0.91,0.08-1.25,0.15
		c0.01-0.11,0.02-0.19,0.02-0.26c0.01-0.07,0.01-0.13,0.01-0.19c0-0.06,0-0.13-0.01-0.21c-0.01-0.08-0.01-0.18-0.02-0.3
		c0.61,0.02,1.23,0.03,1.87,0.03c0.63,0.01,1.29,0.01,1.96,0.01c0.68,0,1.38-0.01,2.08-0.01c0.71-0.01,1.43-0.02,2.18-0.03
		c-0.01,0.05-0.02,0.1-0.02,0.17c-0.01,0.06-0.01,0.16-0.01,0.3c0,0.13,0,0.23,0.01,0.3c0.01,0.06,0.01,0.13,0.02,0.19
		c-0.36-0.07-0.78-0.12-1.24-0.15c-0.46-0.03-0.99-0.05-1.6-0.05l-0.47,0.01c-0.03,0.46-0.05,0.98-0.06,1.56
		c-0.01,0.58-0.02,1.27-0.02,2.07c0,1.03,0.01,2.1,0.02,3.22c0.02,1.12,0.04,2.27,0.07,3.46c-0.12-0.02-0.24-0.03-0.36-0.04
		c-0.12-0.01-0.24-0.01-0.37-0.01c-0.12,0-0.25,0-0.38,0.01C48.58,171.76,48.45,171.78,48.31,171.79L48.31,171.79z M60.58,171.79
		c0.2-0.89,0.42-2.18,0.67-3.88c0.25-1.7,0.58-4.16,0.98-7.39h0.27c0.95,1.92,1.78,3.57,2.48,4.96c0.71,1.39,1.38,2.67,2.02,3.84
		c0.7-1.25,1.43-2.59,2.2-4.02c0.77-1.43,1.62-3.02,2.53-4.77h0.21c0.15,1.42,0.32,3.01,0.51,4.75c0.19,1.74,0.44,3.92,0.75,6.52
		c-0.13-0.03-0.25-0.05-0.37-0.06c-0.12-0.01-0.24-0.02-0.35-0.02c-0.11,0-0.23,0.01-0.34,0.02s-0.24,0.03-0.37,0.06
		c-0.14-1.9-0.28-3.56-0.43-5c-0.15-1.43-0.29-2.46-0.41-3.08c-0.99,1.68-1.85,3.24-2.58,4.67c-0.73,1.43-1.24,2.56-1.53,3.4h-0.22
		c-0.12-0.42-0.3-0.89-0.53-1.41c-0.23-0.52-0.57-1.18-1-1.98l-2.49-4.67c-0.25,1.74-0.44,3.3-0.57,4.7
		c-0.14,1.39-0.21,2.52-0.22,3.37c-0.1-0.03-0.21-0.05-0.3-0.06c-0.1-0.01-0.19-0.02-0.29-0.02c-0.09,0-0.19,0.01-0.3,0.02
		C60.82,171.75,60.7,171.76,60.58,171.79L60.58,171.79z M87.21,171.4c1.37,0,2.43-0.45,3.18-1.33c0.74-0.89,1.11-2.16,1.11-3.8
		c0-1.68-0.37-2.95-1.09-3.82c-0.73-0.87-1.8-1.3-3.2-1.3c-1.38,0-2.45,0.45-3.19,1.35c-0.75,0.9-1.12,2.18-1.12,3.83
		c0,1.64,0.37,2.89,1.11,3.76C84.76,170.97,85.83,171.4,87.21,171.4L87.21,171.4z M87.21,172.02c-1.83,0-3.27-0.51-4.33-1.54
		c-1.05-1.03-1.58-2.42-1.58-4.19c0-1.75,0.54-3.14,1.61-4.19c1.07-1.04,2.51-1.57,4.3-1.57c1.81,0,3.25,0.52,4.3,1.55
		c1.05,1.03,1.58,2.44,1.58,4.2c0,1.71-0.54,3.1-1.62,4.15C90.4,171.49,88.98,172.02,87.21,172.02L87.21,172.02z M101.03,171.14
		c0.09-0.29,0.17-0.57,0.23-0.86c0.06-0.29,0.1-0.58,0.12-0.86c0.23,0.61,0.58,1.08,1.05,1.42c0.47,0.34,1,0.51,1.59,0.51
		c0.69,0,1.25-0.22,1.67-0.65c0.42-0.43,0.63-1.01,0.63-1.73c0-0.5-0.12-0.9-0.36-1.21c-0.24-0.31-0.66-0.58-1.26-0.83l-1.3-0.55
		c-0.74-0.31-1.28-0.68-1.62-1.11c-0.34-0.43-0.51-0.97-0.51-1.61c0-0.92,0.31-1.67,0.94-2.25c0.62-0.58,1.44-0.87,2.44-0.87
		c0.43,0,0.85,0.05,1.24,0.15c0.4,0.1,0.79,0.25,1.19,0.45c-0.08,0.17-0.16,0.36-0.23,0.57c-0.08,0.2-0.15,0.43-0.22,0.68
		c-0.28-0.42-0.61-0.73-0.98-0.94c-0.37-0.21-0.78-0.31-1.24-0.31c-0.59,0-1.06,0.18-1.4,0.54c-0.35,0.36-0.52,0.85-0.52,1.47
		c0,0.45,0.12,0.83,0.37,1.14c0.25,0.3,0.67,0.58,1.25,0.84l1.3,0.57c0.76,0.33,1.3,0.71,1.63,1.15c0.33,0.44,0.49,0.99,0.49,1.67
		c0,1.05-0.35,1.9-1.05,2.54c-0.7,0.64-1.62,0.96-2.77,0.96c-0.53,0-1.02-0.07-1.47-0.22C101.79,171.63,101.39,171.42,101.03,171.14
		L101.03,171.14z M117.58,166.13c0.08,0.01,0.17,0.01,0.27,0.01c0.1,0,0.25,0,0.45,0c1.15,0,2.01-0.21,2.58-0.62
		c0.57-0.42,0.86-1.05,0.86-1.88c0-0.84-0.24-1.44-0.72-1.81c-0.48-0.37-1.27-0.55-2.37-0.55c-0.21,0-0.52,0.02-0.94,0.05
		l-0.04,0.01c0,0.34-0.02,0.88-0.05,1.63c-0.03,0.74-0.05,1.31-0.05,1.71L117.58,166.13L117.58,166.13z M116.2,171.79
		c0.03-0.89,0.05-1.8,0.07-2.72c0.02-0.92,0.03-1.86,0.03-2.8c0-0.99-0.01-1.95-0.03-2.87c-0.02-0.92-0.04-1.82-0.08-2.69
		c0.14,0.02,0.27,0.03,0.4,0.05c0.13,0.01,0.26,0.02,0.39,0.02c0.25,0,0.67-0.02,1.26-0.06c0.59-0.03,1.06-0.05,1.41-0.05
		c1.14,0,2.02,0.25,2.65,0.74c0.62,0.49,0.93,1.19,0.93,2.09c0,1.05-0.38,1.86-1.15,2.42c-0.77,0.57-1.86,0.85-3.29,0.85
		c-0.15,0-0.32,0-0.53-0.01c-0.21-0.01-0.44-0.02-0.7-0.04l-0.01,2.32c0,0.33,0.01,0.73,0.02,1.18c0.02,0.45,0.04,0.97,0.07,1.56
		c-0.18-0.02-0.31-0.04-0.41-0.05c-0.09-0.01-0.18-0.01-0.26-0.01c-0.12,0-0.25,0.01-0.38,0.02
		C116.49,171.75,116.35,171.76,116.2,171.79L116.2,171.79z M131.61,171.79c0.05-0.76,0.08-1.62,0.11-2.57
		c0.02-0.96,0.03-2.09,0.03-3.39c0-1.35-0.01-2.41-0.03-3.16c-0.02-0.75-0.06-1.4-0.12-1.95c0.14,0.02,0.27,0.03,0.39,0.05
		c0.13,0.01,0.26,0.02,0.4,0.02c0.14,0,0.26-0.01,0.39-0.02c0.13-0.01,0.25-0.02,0.36-0.05c-0.04,0.29-0.07,0.69-0.09,1.19
		c-0.02,0.51-0.02,1.48-0.02,2.92v0.63c0.39,0.01,0.81,0.01,1.26,0.01c0.46,0,1.14,0,2.05,0c0.9,0,1.58,0,2.04,0
		c0.46,0,0.87-0.01,1.26-0.01v-0.63c0-0.76-0.01-1.48-0.03-2.16c-0.02-0.68-0.06-1.33-0.11-1.96c0.11,0.02,0.23,0.03,0.35,0.05
		c0.13,0.01,0.26,0.02,0.41,0.02c0.15,0,0.29-0.01,0.42-0.02c0.13-0.01,0.26-0.02,0.38-0.05c-0.05,0.66-0.09,1.38-0.11,2.15
		c-0.02,0.77-0.03,1.76-0.03,2.95c0,1.04,0.01,2.05,0.03,3.04c0.02,0.99,0.06,1.96,0.11,2.92c-0.13-0.02-0.26-0.03-0.39-0.05
		c-0.14-0.01-0.28-0.02-0.42-0.02c-0.14,0-0.27,0.01-0.4,0.02c-0.13,0.01-0.24,0.02-0.35,0.05c0.05-0.66,0.08-1.4,0.11-2.23
		c0.02-0.82,0.03-1.7,0.03-2.61v-0.76c-0.55-0.02-1.1-0.04-1.65-0.05c-0.55-0.01-1.1-0.01-1.65-0.01c-0.55,0-1.1,0.01-1.65,0.01
		c-0.55,0.01-1.1,0.02-1.66,0.04v0.77c0,1.74,0.01,2.9,0.02,3.49c0.02,0.59,0.04,1.04,0.09,1.35c-0.13-0.02-0.26-0.03-0.39-0.05
		c-0.13-0.01-0.27-0.02-0.42-0.02c-0.13,0-0.26,0.01-0.39,0.02C131.83,171.76,131.71,171.77,131.61,171.79L131.61,171.79z
		 M150.45,171.79c0.05-0.68,0.09-1.47,0.11-2.38c0.02-0.91,0.03-2,0.03-3.27c0-1.17-0.01-2.19-0.03-3.07
		c-0.02-0.87-0.06-1.65-0.11-2.34c0.22,0.01,0.47,0.02,0.74,0.02c0.26,0.01,0.68,0.01,1.24,0.01c0.73,0,1.38,0,1.95-0.01
		c0.57-0.01,1.15-0.01,1.73-0.02c0,0.05,0,0.12-0.01,0.23c-0.01,0.1-0.01,0.19-0.01,0.25c0,0.05,0,0.12,0.01,0.23
		c0.01,0.11,0.01,0.18,0.01,0.24c-0.61-0.05-1.23-0.09-1.87-0.12c-0.64-0.03-1.28-0.04-1.94-0.04h-0.38
		c-0.01,0.63-0.01,1.23-0.01,1.8c0,0.57,0,1.11,0,1.62v0.65h0.28c0.49,0,1.02-0.01,1.61-0.03c0.59-0.02,1.21-0.05,1.88-0.09
		c-0.01,0.12-0.02,0.21-0.02,0.29c0,0.07-0.01,0.14-0.01,0.21c0,0.06,0,0.12,0.01,0.19c0.01,0.07,0.01,0.16,0.02,0.26
		c-0.26-0.05-0.58-0.08-0.96-0.1c-0.38-0.02-1.07-0.03-2.07-0.03h-0.74v0.77c0,0.92,0,1.67,0,2.25c0,0.58,0.01,1.15,0.01,1.7h0.4
		c0.46,0,1.02-0.02,1.68-0.05c0.66-0.03,1.38-0.08,2.16-0.13c0,0.05,0,0.13-0.01,0.24c-0.01,0.11-0.01,0.19-0.01,0.25
		c0,0.05,0,0.14,0.01,0.24c0.01,0.11,0.01,0.19,0.01,0.24c-0.3-0.01-0.64-0.02-1.02-0.02c-0.37-0.01-0.95-0.01-1.73-0.01
		c-0.8,0-1.4,0-1.81,0.01C151.19,171.77,150.81,171.78,150.45,171.79L150.45,171.79z M166.42,165.87c0.07,0.01,0.14,0.02,0.22,0.02
		c0.07,0,0.18,0,0.31,0c1.2,0,2.1-0.2,2.69-0.59c0.59-0.39,0.89-0.99,0.89-1.79c0-0.73-0.23-1.27-0.69-1.64
		c-0.46-0.37-1.15-0.55-2.06-0.55c-0.17,0-0.5,0.02-0.98,0.05c-0.12,0.01-0.21,0.01-0.27,0.01c-0.03,0.24-0.05,0.5-0.07,0.77
		c-0.02,0.27-0.02,0.57-0.02,0.89v0.71V165.87L166.42,165.87z M165.01,171.79c0.03-0.57,0.05-1.22,0.07-1.95
		c0.02-0.73,0.02-1.92,0.02-3.57c0-1.4-0.01-2.52-0.02-3.37c-0.02-0.84-0.04-1.57-0.08-2.18c0.04,0.01,0.09,0.01,0.16,0.01
		c0.29,0.02,0.49,0.02,0.58,0.02c0.2,0,0.58-0.01,1.15-0.03c0.57-0.02,1.04-0.03,1.41-0.03c1.21,0,2.11,0.22,2.71,0.65
		c0.6,0.43,0.89,1.09,0.89,1.97c0,0.76-0.28,1.41-0.83,1.93c-0.56,0.52-1.35,0.88-2.37,1.07c0.76,1.02,2.11,2.75,4.05,5.17
		c0.11,0.14,0.19,0.24,0.24,0.31c-0.18-0.03-0.34-0.05-0.5-0.06c-0.16-0.01-0.31-0.02-0.46-0.02c-0.15,0-0.29,0.01-0.45,0.02
		c-0.15,0.01-0.31,0.03-0.48,0.06c-0.41-0.61-0.78-1.14-1.1-1.59c-0.32-0.45-0.62-0.86-0.9-1.23l-1.75-2.27
		c-0.09-0.13-0.18-0.22-0.28-0.27c-0.1-0.06-0.22-0.08-0.35-0.08c-0.06,0-0.15,0.01-0.26,0.02c-0.02,0.01-0.03,0.01-0.04,0.01v2.97
		c0,0.36,0.01,0.75,0.02,1.15c0.02,0.41,0.03,0.84,0.06,1.29c-0.14-0.03-0.27-0.05-0.39-0.06c-0.12-0.01-0.24-0.02-0.35-0.02
		c-0.12,0-0.24,0.01-0.36,0.02C165.28,171.75,165.14,171.76,165.01,171.79L165.01,171.79z M181.07,171.79
		c0.05-0.68,0.09-1.47,0.11-2.38c0.02-0.91,0.03-2,0.03-3.27c0-1.17-0.01-2.19-0.03-3.07c-0.02-0.87-0.06-1.65-0.11-2.34
		c0.22,0.01,0.47,0.02,0.74,0.02c0.26,0.01,0.68,0.01,1.24,0.01c0.73,0,1.38,0,1.95-0.01s1.15-0.01,1.73-0.02
		c0,0.05,0,0.12-0.01,0.23c-0.01,0.1-0.01,0.19-0.01,0.25c0,0.05,0,0.12,0.01,0.23c0.01,0.11,0.01,0.18,0.01,0.24
		c-0.61-0.05-1.23-0.09-1.87-0.12c-0.64-0.03-1.28-0.04-1.94-0.04h-0.38c-0.01,0.63-0.01,1.23-0.01,1.8c0,0.57,0,1.11,0,1.62v0.65
		h0.28c0.49,0,1.02-0.01,1.61-0.03c0.59-0.02,1.21-0.05,1.88-0.09c-0.01,0.12-0.02,0.21-0.02,0.29c-0.01,0.07-0.01,0.14-0.01,0.21
		c0,0.06,0,0.12,0.01,0.19c0.01,0.07,0.01,0.16,0.02,0.26c-0.26-0.05-0.58-0.08-0.96-0.1c-0.38-0.02-1.07-0.03-2.07-0.03h-0.74v0.77
		c0,0.92,0,1.67,0,2.25c0,0.58,0.01,1.15,0.01,1.7h0.4c0.46,0,1.02-0.02,1.68-0.05c0.66-0.03,1.38-0.08,2.16-0.13
		c0,0.05,0,0.13-0.01,0.24c-0.01,0.11-0.01,0.19-0.01,0.25c0,0.05,0,0.14,0.01,0.24c0.01,0.11,0.01,0.19,0.01,0.24
		c-0.3-0.01-0.64-0.02-1.02-0.02c-0.37-0.01-0.95-0.01-1.73-0.01c-0.8,0-1.4,0-1.81,0.01C181.82,171.77,181.44,171.78,181.07,171.79
		L181.07,171.79z"/>
	<g>
		<path class="st1" d="M70.75,134.86c3.29,0,6.14,1.53,7.53,3.75l-4.32,1.35c-0.64-1.19-1.88-2-3.29-2c-2.07,0-3.76,1.75-3.76,3.89
			c0,2.14,1.69,3.89,3.76,3.89c1.45,0,2.71-0.86,3.34-2.11l4.24,1.12c-1.4,2.2-4.24,3.71-7.51,3.71c-4.64,0-8.43-3.05-8.43-6.8
			C62.32,137.91,66.1,134.86,70.75,134.86L70.75,134.86z M87.71,134.86c4.64,0,8.43,3.05,8.43,6.8c0,3.75-3.79,6.8-8.43,6.8
			c-4.64,0-8.43-3.05-8.43-6.8C79.28,137.91,83.06,134.86,87.71,134.86L87.71,134.86z M87.63,137.95c2.07,0,3.76,1.75,3.76,3.89
			c0,2.14-1.69,3.89-3.76,3.89c-2.07,0-3.76-1.75-3.76-3.89C83.87,139.7,85.56,137.95,87.63,137.95L87.63,137.95z M97.75,135.27
			h4.48v4.41h5.54v-4.41h4.48v12.55h-4.48v-4.67h-5.54v4.67h-4.48V135.27L97.75,135.27z M114.7,135.27h4.29v12.55h-4.29V135.27
			L114.7,135.27z M121.47,135.27h2.91h1.38h6.2v0.02c0.12-0.02,0.25-0.02,0.37-0.02c1.56,0,2.83,1.25,2.83,2.78
			c0,1.44-1.11,2.62-2.53,2.77c1.72,0.25,3.06,1.72,3.06,3.48c0,1.93-1.6,3.51-3.57,3.52l0,0h-0.01h-6.35h-2.5h-1.79V135.27
			L121.47,135.27z M125.76,138.01v2.1h3.69c0.56-0.07,1.25-0.4,1.25-1.06c0-0.54-0.43-0.99-0.97-1.03v0h-0.07h-0.15
			c0-0.01,0-0.01,0-0.01H125.76L125.76,138.01z M125.76,142.58v2.21h2.81h1.5h0.07v0c0.58-0.04,1.05-0.52,1.05-1.1
			c0-0.58-0.46-1.06-1.05-1.1v0h-0.07H129H125.76L125.76,142.58z M141.62,135.27l-5.44,12.55h4.59l0.77-2.05h5.3l0.81,2.05h4.48
			l-5.55-12.55H141.62L141.62,135.27z M142.64,142.84l1.48-3.94l1.55,3.94H142.64L142.64,142.84z"/>
		<path class="st1" d="M63,43.36h2.99v2.78H63V43.36L63,43.36z M69.21,43.36h2.99v2.78h-2.99V43.36L69.21,43.36z M75.42,43.36h2.99
			v2.78h-2.99V43.36L75.42,43.36z M81.63,43.36h2.99v2.78h-2.99V43.36L81.63,43.36z M87.84,43.36h2.99v2.78h-2.99V43.36L87.84,43.36
			z M94.05,43.36h2.99v2.78h-2.99V43.36L94.05,43.36z M100.26,43.36h2.99v2.78h-2.99V43.36L100.26,43.36z M106.47,43.36h2.99v2.78
			h-2.99V43.36L106.47,43.36z M112.68,43.36h2.99v2.78h-2.99V43.36L112.68,43.36z M118.89,43.36h2.99v2.78h-2.99V43.36L118.89,43.36
			z M125.09,43.36h2.99v2.78h-2.99V43.36L125.09,43.36z M131.3,43.36h2.99v2.78h-2.99V43.36L131.3,43.36z M137.51,43.36h2.99v2.78
			h-2.99V43.36L137.51,43.36z M143.72,43.36h2.99v2.78h-2.99V43.36L143.72,43.36z M149.93,43.36h2.99v2.78h-2.99V43.36L149.93,43.36
			z M63,49.47h2.99v2.78H63V49.47L63,49.47z M69.21,49.47h2.99v2.78h-2.99V49.47L69.21,49.47z M75.42,49.47h2.99v2.78h-2.99V49.47
			L75.42,49.47z M81.63,49.47h2.99v2.78h-2.99V49.47L81.63,49.47z M87.84,49.47h2.99v2.78h-2.99V49.47L87.84,49.47z M94.05,49.47
			h2.99v2.78h-2.99V49.47L94.05,49.47z M100.26,49.47h2.99v2.78h-2.99V49.47L100.26,49.47z M106.47,49.47h2.99v2.78h-2.99V49.47
			L106.47,49.47z M112.68,49.47h2.99v2.78h-2.99V49.47L112.68,49.47z M118.89,49.47h2.99v2.78h-2.99V49.47L118.89,49.47z
			 M125.09,49.47h2.99v2.78h-2.99V49.47L125.09,49.47z M131.3,49.47h2.99v2.78h-2.99V49.47L131.3,49.47z M137.51,49.47h2.99v2.78
			h-2.99V49.47L137.51,49.47z M143.72,49.47h2.99v2.78h-2.99V49.47L143.72,49.47z M149.93,49.47h2.99v2.78h-2.99V49.47L149.93,49.47
			z M63,55.57h2.99v2.78H63V55.57L63,55.57z M69.21,55.57h2.99v2.78h-2.99V55.57L69.21,55.57z M75.42,55.57h2.99v2.78h-2.99V55.57
			L75.42,55.57z M81.63,55.57h2.99v2.78h-2.99V55.57L81.63,55.57z M87.84,55.57h2.99v2.78h-2.99V55.57L87.84,55.57z M94.05,55.57
			h2.99v2.78h-2.99V55.57L94.05,55.57z M100.26,55.57h2.99v2.78h-2.99V55.57L100.26,55.57z M106.47,55.57h2.99v2.78h-2.99V55.57
			L106.47,55.57z M112.68,55.57h2.99v2.78h-2.99V55.57L112.68,55.57z M118.89,55.57h2.99v2.78h-2.99V55.57L118.89,55.57z
			 M125.09,55.57h2.99v2.78h-2.99V55.57L125.09,55.57z M131.3,55.57h2.99v2.78h-2.99V55.57L131.3,55.57z M137.51,55.57h2.99v2.78
			h-2.99V55.57L137.51,55.57z M143.72,55.57h2.99v2.78h-2.99V55.57L143.72,55.57z M149.93,55.57h2.99v2.78h-2.99V55.57L149.93,55.57
			z M63,61.68h2.99v2.78H63V61.68L63,61.68z M69.21,61.68h2.99v2.78h-2.99V61.68L69.21,61.68z M75.42,61.68h2.99v2.78h-2.99V61.68
			L75.42,61.68z M81.63,61.68h2.99v2.78h-2.99V61.68L81.63,61.68z M87.84,61.68h2.99v2.78h-2.99V61.68L87.84,61.68z M94.05,61.68
			h2.99v2.78h-2.99V61.68L94.05,61.68z M100.26,61.68h2.99v2.78h-2.99V61.68L100.26,61.68z M106.47,61.68h2.99v2.78h-2.99V61.68
			L106.47,61.68z M112.68,61.68h2.99v2.78h-2.99V61.68L112.68,61.68z M118.89,61.68h2.99v2.78h-2.99V61.68L118.89,61.68z
			 M125.09,61.68h2.99v2.78h-2.99V61.68L125.09,61.68z M131.3,61.68h2.99v2.78h-2.99V61.68L131.3,61.68z M137.51,61.68h2.99v2.78
			h-2.99V61.68L137.51,61.68z M143.72,61.68h2.99v2.78h-2.99V61.68L143.72,61.68z M149.93,61.68h2.99v2.78h-2.99V61.68L149.93,61.68
			z M63,67.79h2.99v2.78H63V67.79L63,67.79z M69.21,67.79h2.99v2.78h-2.99V67.79L69.21,67.79z M75.42,67.79h2.99v2.78h-2.99V67.79
			L75.42,67.79z M81.63,67.79h2.99v2.78h-2.99V67.79L81.63,67.79z M87.84,67.79h2.99v2.78h-2.99V67.79L87.84,67.79z M94.05,67.79
			h2.99v2.78h-2.99V67.79L94.05,67.79z M100.26,67.79h2.99v2.78h-2.99V67.79L100.26,67.79z M106.47,67.79h2.99v2.78h-2.99V67.79
			L106.47,67.79z M112.68,67.79h2.99v2.78h-2.99V67.79L112.68,67.79z M118.89,67.79h2.99v2.78h-2.99V67.79L118.89,67.79z
			 M125.09,67.79h2.99v2.78h-2.99V67.79L125.09,67.79z M131.3,67.79h2.99v2.78h-2.99V67.79L131.3,67.79z M137.51,67.79h2.99v2.78
			h-2.99V67.79L137.51,67.79z M143.72,67.79h2.99v2.78h-2.99V67.79L143.72,67.79z M149.93,67.79h2.99v2.78h-2.99V67.79L149.93,67.79
			z M63,73.89h2.99v2.78H63V73.89L63,73.89z M69.21,73.89h2.99v2.78h-2.99V73.89L69.21,73.89z M75.42,73.89h2.99v2.78h-2.99V73.89
			L75.42,73.89z M81.63,73.89h2.99v2.78h-2.99V73.89L81.63,73.89z M87.84,73.89h2.99v2.78h-2.99V73.89L87.84,73.89z M94.05,73.89
			h2.99v2.78h-2.99V73.89L94.05,73.89z M100.26,73.89h2.99v2.78h-2.99V73.89L100.26,73.89z M106.47,73.89h2.99v2.78h-2.99V73.89
			L106.47,73.89z M112.68,73.89h2.99v2.78h-2.99V73.89L112.68,73.89z M118.89,73.89h2.99v2.78h-2.99V73.89L118.89,73.89z
			 M125.09,73.89h2.99v2.78h-2.99V73.89L125.09,73.89z M131.3,73.89h2.99v2.78h-2.99V73.89L131.3,73.89z M137.51,73.89h2.99v2.78
			h-2.99V73.89L137.51,73.89z M143.72,73.89h2.99v2.78h-2.99V73.89L143.72,73.89z M149.93,73.89h2.99v2.78h-2.99V73.89L149.93,73.89
			z M63,80h2.99v2.78H63V80L63,80z M69.21,80h2.99v2.78h-2.99V80L69.21,80z M75.42,80h2.99v2.78h-2.99V80L75.42,80z M81.63,80h2.99
			v2.78h-2.99V80L81.63,80z M87.84,80h2.99v2.78h-2.99V80L87.84,80z M94.05,80h2.99v2.78h-2.99V80L94.05,80z M100.26,80h2.99v2.78
			h-2.99V80L100.26,80z M106.47,80h2.99v2.78h-2.99V80L106.47,80z M112.68,80h2.99v2.78h-2.99V80L112.68,80z M118.89,80h2.99v2.78
			h-2.99V80L118.89,80z M125.09,80h2.99v2.78h-2.99V80L125.09,80z M131.3,80h2.99v2.78h-2.99V80L131.3,80z M137.51,80h2.99v2.78
			h-2.99V80L137.51,80z M143.72,80h2.99v2.78h-2.99V80L143.72,80z M149.93,80h2.99v2.78h-2.99V80L149.93,80z M63,86.1h2.99v2.78H63
			V86.1L63,86.1z M69.21,86.1h2.99v2.78h-2.99V86.1L69.21,86.1z M75.42,86.1h2.99v2.78h-2.99V86.1L75.42,86.1z M81.63,86.1h2.99
			v2.78h-2.99V86.1L81.63,86.1z M87.84,86.1h2.99v2.78h-2.99V86.1L87.84,86.1z M94.05,86.1h2.99v2.78h-2.99V86.1L94.05,86.1z
			 M100.26,86.1h2.99v2.78h-2.99V86.1L100.26,86.1z M106.47,86.1h2.99v2.78h-2.99V86.1L106.47,86.1z M112.68,86.1h2.99v2.78h-2.99
			V86.1L112.68,86.1z M118.89,86.1h2.99v2.78h-2.99V86.1L118.89,86.1z M125.09,86.1h2.99v2.78h-2.99V86.1L125.09,86.1z M131.3,86.1
			h2.99v2.78h-2.99V86.1L131.3,86.1z M137.51,86.1h2.99v2.78h-2.99V86.1L137.51,86.1z M143.72,86.1h2.99v2.78h-2.99V86.1
			L143.72,86.1z M149.93,86.1h2.99v2.78h-2.99V86.1L149.93,86.1z M63,92.21h2.99v2.78H63V92.21L63,92.21z M69.21,92.21h2.99v2.78
			h-2.99V92.21L69.21,92.21z M75.42,92.21h2.99v2.78h-2.99V92.21L75.42,92.21z M81.63,92.21h2.99v2.78h-2.99V92.21L81.63,92.21z
			 M87.84,92.21h2.99v2.78h-2.99V92.21L87.84,92.21z M94.05,92.21h2.99v2.78h-2.99V92.21L94.05,92.21z M100.26,92.21h2.99v2.78
			h-2.99V92.21L100.26,92.21z M106.47,92.21h2.99v2.78h-2.99V92.21L106.47,92.21z M112.68,92.21h2.99v2.78h-2.99V92.21L112.68,92.21
			z M118.89,92.21h2.99v2.78h-2.99V92.21L118.89,92.21z M125.09,92.21h2.99v2.78h-2.99V92.21L125.09,92.21z M131.3,92.21h2.99v2.78
			h-2.99V92.21L131.3,92.21z M137.51,92.21h2.99v2.78h-2.99V92.21L137.51,92.21z M143.72,92.21h2.99v2.78h-2.99V92.21L143.72,92.21z
			 M149.93,92.21h2.99v2.78h-2.99V92.21L149.93,92.21z M63,98.32h2.99v2.78H63V98.32L63,98.32z M69.21,98.32h2.99v2.78h-2.99V98.32
			L69.21,98.32z M75.42,98.32h2.99v2.78h-2.99V98.32L75.42,98.32z M81.63,98.32h2.99v2.78h-2.99V98.32L81.63,98.32z M87.84,98.32
			h2.99v2.78h-2.99V98.32L87.84,98.32z M94.05,98.32h2.99v2.78h-2.99V98.32L94.05,98.32z M100.26,98.32h2.99v2.78h-2.99V98.32
			L100.26,98.32z M106.47,98.32h2.99v2.78h-2.99V98.32L106.47,98.32z M112.68,98.32h2.99v2.78h-2.99V98.32L112.68,98.32z
			 M118.89,98.32h2.99v2.78h-2.99V98.32L118.89,98.32z M125.09,98.32h2.99v2.78h-2.99V98.32L125.09,98.32z M131.3,98.32h2.99v2.78
			h-2.99V98.32L131.3,98.32z M137.51,98.32h2.99v2.78h-2.99V98.32L137.51,98.32z M143.72,98.32h2.99v2.78h-2.99V98.32L143.72,98.32z
			 M149.93,98.32h2.99v2.78h-2.99V98.32L149.93,98.32z M63,104.42h2.99v2.78H63V104.42L63,104.42z M69.21,104.42h2.99v2.78h-2.99
			V104.42L69.21,104.42z M75.42,104.42h2.99v2.78h-2.99V104.42L75.42,104.42z M81.63,104.42h2.99v2.78h-2.99V104.42L81.63,104.42z
			 M87.84,104.42h2.99v2.78h-2.99V104.42L87.84,104.42z M94.05,104.42h2.99v2.78h-2.99V104.42L94.05,104.42z M100.26,104.42h2.99
			v2.78h-2.99V104.42L100.26,104.42z M106.47,104.42h2.99v2.78h-2.99V104.42L106.47,104.42z M112.68,104.42h2.99v2.78h-2.99V104.42
			L112.68,104.42z M118.89,104.42h2.99v2.78h-2.99V104.42L118.89,104.42z M125.09,104.42h2.99v2.78h-2.99V104.42L125.09,104.42z
			 M131.3,104.42h2.99v2.78h-2.99V104.42L131.3,104.42z M137.51,104.42h2.99v2.78h-2.99V104.42L137.51,104.42z M143.72,104.42h2.99
			v2.78h-2.99V104.42L143.72,104.42z M149.93,104.42h2.99v2.78h-2.99V104.42L149.93,104.42z M63,110.53h2.99v2.78H63V110.53
			L63,110.53z M69.21,110.53h2.99v2.78h-2.99V110.53L69.21,110.53z M75.42,110.53h2.99v2.78h-2.99V110.53L75.42,110.53z
			 M81.63,110.53h2.99v2.78h-2.99V110.53L81.63,110.53z M87.84,110.53h2.99v2.78h-2.99V110.53L87.84,110.53z M94.05,110.53h2.99
			v2.78h-2.99V110.53L94.05,110.53z M100.26,110.53h2.99v2.78h-2.99V110.53L100.26,110.53z M106.47,110.53h2.99v2.78h-2.99V110.53
			L106.47,110.53z M112.68,110.53h2.99v2.78h-2.99V110.53L112.68,110.53z M118.89,110.53h2.99v2.78h-2.99V110.53L118.89,110.53z
			 M125.09,110.53h2.99v2.78h-2.99V110.53L125.09,110.53z M131.3,110.53h2.99v2.78h-2.99V110.53L131.3,110.53z M137.51,110.53h2.99
			v2.78h-2.99V110.53L137.51,110.53z M143.72,110.53h2.99v2.78h-2.99V110.53L143.72,110.53z M149.93,110.53h2.99v2.78h-2.99V110.53
			L149.93,110.53z M63,116.64h2.99v2.78H63V116.64L63,116.64z M69.21,116.64h2.99v2.78h-2.99V116.64L69.21,116.64z M75.42,116.64
			h2.99v2.78h-2.99V116.64L75.42,116.64z M81.63,116.64h2.99v2.78h-2.99V116.64L81.63,116.64z M87.84,116.64h2.99v2.78h-2.99V116.64
			L87.84,116.64z M94.05,116.64h2.99v2.78h-2.99V116.64L94.05,116.64z M100.26,116.64h2.99v2.78h-2.99V116.64L100.26,116.64z
			 M106.47,116.64h2.99v2.78h-2.99V116.64L106.47,116.64z M112.68,116.64h2.99v2.78h-2.99V116.64L112.68,116.64z M118.89,116.64
			h2.99v2.78h-2.99V116.64L118.89,116.64z M125.09,116.64h2.99v2.78h-2.99V116.64L125.09,116.64z M131.3,116.64h2.99v2.78h-2.99
			V116.64L131.3,116.64z M137.51,116.64h2.99v2.78h-2.99V116.64L137.51,116.64z M143.72,116.64h2.99v2.78h-2.99V116.64
			L143.72,116.64z M149.93,116.64h2.99v2.78h-2.99V116.64L149.93,116.64z M63,122.74h2.99v2.78H63V122.74L63,122.74z M69.21,122.74
			h2.99v2.78h-2.99V122.74L69.21,122.74z M75.42,122.74h2.99v2.78h-2.99V122.74L75.42,122.74z M81.63,122.74h2.99v2.78h-2.99V122.74
			L81.63,122.74z M87.84,122.74h2.99v2.78h-2.99V122.74L87.84,122.74z M94.05,122.74h2.99v2.78h-2.99V122.74L94.05,122.74z
			 M100.26,122.74h2.99v2.78h-2.99V122.74L100.26,122.74z M106.47,122.74h2.99v2.78h-2.99V122.74L106.47,122.74z M112.68,122.74
			h2.99v2.78h-2.99V122.74L112.68,122.74z M118.89,122.74h2.99v2.78h-2.99V122.74L118.89,122.74z M125.09,122.74h2.99v2.78h-2.99
			V122.74L125.09,122.74z M131.3,122.74h2.99v2.78h-2.99V122.74L131.3,122.74z M137.51,122.74h2.99v2.78h-2.99V122.74L137.51,122.74
			z M143.72,122.74h2.99v2.78h-2.99V122.74L143.72,122.74z M149.93,122.74h2.99v2.78h-2.99V122.74L149.93,122.74z"/>
	</g>
</g>
</svg>
