<?xml version="1.0" encoding="utf-8"?>
<!-- Generator: Adobe Illustrator 26.0.1, SVG Export Plug-In . SVG Version: 6.00 Build 0)  -->
<svg version="1.1" id="Layer_1" xmlns="http://www.w3.org/2000/svg" xmlns:xlink="http://www.w3.org/1999/xlink" x="0px" y="0px"
	 viewBox="0 0 32 32" style="enable-background:new 0 0 32 32;" xml:space="preserve">
<style type="text/css">
	.st0{fill:#FFFFFF;}
</style>
<path class="st0" d="M0,32C0,21.04,0,10.97,0,0c10.96,0,21.03,0,32,0c0,10.95,0,21.03,0,32C21.05,32,10.99,32,0,32z M4.88,13.17
	c0.17,2.48,1.45,4.08,3.83,4.83c-0.01,0.03-0.02,0.06-0.02,0.09c-0.67,0-1.34,0-2.06,0c0.81,2.1,2.32,3.2,4.52,3.48
	c-2.13,1.62-4.47,2.24-7.06,2.05c0.1,0.1,0.2,0.18,0.31,0.24c2.67,1.56,5.55,2.15,8.62,1.87c2.69-0.25,5.13-1.15,7.22-2.87
	c3.6-2.97,5.37-6.83,5.37-11.49c0-0.21,0.06-0.34,0.22-0.47c0.4-0.33,0.79-0.66,1.15-1.03C27.34,9.5,27.66,9.07,28,8.66
	c-0.02-0.03-0.04-0.05-0.06-0.08c-0.28,0.1-0.56,0.2-0.84,0.29c-0.28,0.09-0.56,0.17-0.84,0.23c-0.28,0.06-0.57,0.11-0.85,0.16
	c1.1-0.9,1.77-1.79,1.96-2.67c-0.09,0.04-0.17,0.09-0.26,0.12c-0.84,0.32-1.67,0.64-2.51,0.96c-0.22,0.08-0.38,0.03-0.55-0.14
	c-2.57-2.46-6.89-1.4-8.06,1.96c-0.31,0.89-0.35,1.8-0.16,2.78c-4.15-0.29-7.52-2.03-10.23-5.19c-1.19,2.62-0.69,4.79,1.45,6.6
	C7.02,13.71,7,13.74,6.98,13.77C6.3,13.57,5.61,13.38,4.88,13.17z"/>
</svg>
