<?xml version="1.0" encoding="utf-8"?>
<!-- Generator: Adobe Illustrator 26.0.1, SVG Export Plug-In . SVG Version: 6.00 Build 0)  -->
<svg version="1.1" id="Layer_1" xmlns="http://www.w3.org/2000/svg" xmlns:xlink="http://www.w3.org/1999/xlink" x="0px" y="0px"
	 viewBox="0 0 225 67" style="enable-background:new 0 0 225 67;" xml:space="preserve">
<style type="text/css">
	.st0{fill:#FFFFFF;}
	.st1{fill:#D59024;}
</style>
<g>
	<g>
		<g>
			<path class="st0" d="M97.37,23.31c0.19-0.35,0.42-0.62,0.7-0.8c0.29-0.18,0.63-0.29,1.07-0.29c0.72,0,1.18,0.27,1.53,0.69
				c0.34,0.42,0.55,1.01,0.65,1.6l0,0c0.01,0.11,0.03,0.2,0.07,0.3c0.06,0.15,0.17,0.28,0.32,0.35c0.14,0.07,0.3,0.09,0.46,0.09
				h3.76c0.11,0,0.22-0.02,0.32-0.05c0.15-0.06,0.27-0.17,0.33-0.3c0.06-0.13,0.08-0.26,0.08-0.39c0-0.05,0-0.1-0.01-0.15h0
				c-0.04-1.95-0.67-3.77-1.92-5.1c-1.26-1.33-3.13-2.16-5.59-2.16c-2.63,0-4.61,0.91-5.91,2.53c-1.3,1.61-1.91,3.89-1.91,6.6v8.75
				c0,2.71,0.61,4.99,1.91,6.6c1.3,1.62,3.28,2.53,5.91,2.53c2.45,0,4.33-0.83,5.59-2.16c1.26-1.33,1.89-3.15,1.92-5.1h0
				c0-0.05,0.01-0.1,0.01-0.15c0-0.17-0.03-0.35-0.16-0.51c-0.06-0.08-0.15-0.14-0.25-0.18c-0.1-0.04-0.21-0.05-0.32-0.05h-3.76
				c-0.11,0-0.22,0.01-0.32,0.04c-0.15,0.04-0.3,0.13-0.39,0.27c-0.09,0.13-0.13,0.28-0.15,0.44l0,0c-0.1,0.59-0.3,1.18-0.65,1.6
				c-0.35,0.42-0.81,0.69-1.53,0.69c-0.44,0-0.79-0.1-1.07-0.29c-0.43-0.27-0.74-0.74-0.95-1.39c-0.2-0.64-0.3-1.44-0.3-2.33v-8.75
				C96.83,25.04,96.99,24.01,97.37,23.31z"/>
			<path class="st0" d="M124.65,17.54c-0.17-0.1-0.37-0.13-0.59-0.13h-3.55c-0.15,0-0.28,0.01-0.41,0.05
				c-0.19,0.05-0.36,0.18-0.46,0.35c-0.1,0.17-0.13,0.37-0.13,0.59v10.65v5.93c0,1.18-0.16,2.22-0.52,2.92
				c-0.18,0.35-0.41,0.62-0.69,0.8c-0.28,0.18-0.63,0.28-1.07,0.29c-0.44,0-0.79-0.1-1.07-0.29c-0.43-0.27-0.74-0.74-0.95-1.39
				c-0.2-0.64-0.3-1.44-0.3-2.33v-3.93V18.4c0-0.15-0.01-0.28-0.05-0.41c-0.05-0.19-0.18-0.36-0.35-0.46
				c-0.17-0.1-0.37-0.13-0.59-0.13h-3.52c-0.15,0-0.28,0.01-0.41,0.05c-0.19,0.05-0.36,0.18-0.46,0.35
				c-0.1,0.17-0.13,0.37-0.13,0.59v10.68v5.89c0,2.71,0.61,4.99,1.91,6.6c1.3,1.62,3.28,2.53,5.91,2.53c2.61,0,4.6-0.91,5.9-2.53
				c1.3-1.61,1.92-3.89,1.92-6.6v-3.72V18.4c0-0.15-0.01-0.28-0.05-0.41C124.95,17.8,124.83,17.63,124.65,17.54z"/>
			<path class="st0" d="M139.95,29.95c1.34-1.03,2.48-2.95,2.48-5.34v-0.41c0-1.86-0.67-3.55-1.84-4.79c-1.16-1.23-2.83-2-4.78-2
				h-6.86c-0.15,0-0.28,0.01-0.41,0.05c-0.19,0.05-0.36,0.18-0.46,0.35c-0.1,0.17-0.13,0.37-0.13,0.59v24.4
				c0,0.15,0.01,0.28,0.05,0.41c0.05,0.19,0.18,0.36,0.35,0.46c0.17,0.1,0.37,0.13,0.59,0.13h6.96c2.18,0,3.97-0.78,5.2-2.07
				c1.23-1.3,1.9-3.1,1.9-5.12v-0.52c0-1.4-0.32-2.73-0.91-3.84C141.58,31.28,140.85,30.47,139.95,29.95z M137.02,25.16
				c0,0.79-0.23,1.39-0.57,1.78c-0.35,0.39-0.81,0.6-1.36,0.6h-1.24c-0.12,0-0.2-0.01-0.26-0.02c-0.04-0.01-0.06-0.02-0.07-0.03
				c-0.01-0.01-0.02-0.01-0.03-0.06c-0.02-0.05-0.03-0.14-0.03-0.27v-4.27c0-0.15,0.01-0.27,0.02-0.35
				c0.01-0.06,0.03-0.09,0.04-0.11c0.02-0.02,0.01-0.02,0.06-0.04c0.04-0.02,0.13-0.03,0.27-0.03h1.24c0.57,0,1.04,0.21,1.38,0.6
				c0.34,0.39,0.56,0.99,0.56,1.78V25.16z M133.46,32.88c0-0.12,0.01-0.2,0.02-0.26c0.01-0.04,0.02-0.06,0.03-0.07
				c0.01-0.01,0.01-0.02,0.06-0.03c0.05-0.02,0.14-0.03,0.27-0.03h1.28c0.71,0,1.29,0.24,1.71,0.7c0.41,0.46,0.68,1.18,0.68,2.16
				v0.62c0,0.97-0.27,1.68-0.69,2.15c-0.42,0.47-1,0.71-1.69,0.72h-1.28c-0.12,0-0.2-0.01-0.26-0.02c-0.04-0.01-0.06-0.02-0.07-0.03
				c-0.01-0.01-0.02-0.01-0.03-0.06c-0.02-0.05-0.03-0.14-0.03-0.27V32.88z"/>
			<path class="st0" d="M161.41,42.77l-5.82-24.47l0,0c-0.04-0.16-0.09-0.3-0.15-0.42c-0.1-0.18-0.26-0.33-0.45-0.39
				c-0.18-0.07-0.38-0.08-0.6-0.08h-2.79c-0.15,0-0.28,0.01-0.41,0.03c-0.19,0.03-0.38,0.12-0.52,0.28
				c-0.14,0.16-0.21,0.35-0.27,0.59l0,0l-5.82,24.47l0,0c-0.03,0.11-0.04,0.21-0.04,0.31c0,0.11,0.02,0.23,0.07,0.33
				c0.07,0.15,0.2,0.26,0.34,0.31c0.14,0.06,0.28,0.08,0.42,0.08h3.62c0.13,0,0.25-0.01,0.36-0.04c0.18-0.04,0.35-0.14,0.47-0.29
				c0.12-0.15,0.2-0.34,0.26-0.57l0,0l0.65-2.96c0.02-0.09,0.05-0.15,0.06-0.19l0.03-0.04c0.01-0.01,0.02-0.02,0.08-0.03
				c0.05-0.01,0.14-0.02,0.26-0.02h3.69c0.1,0,0.18,0,0.24,0.01c0.04,0.01,0.06,0.01,0.08,0.02c0.02,0.01,0.02,0.01,0.04,0.04
				c0.02,0.03,0.05,0.1,0.07,0.2l0.65,2.96l0,0c0.04,0.15,0.09,0.29,0.15,0.4c0.09,0.18,0.24,0.32,0.4,0.39
				c0.17,0.08,0.35,0.1,0.54,0.1h3.62c0.19,0,0.38-0.03,0.55-0.15c0.08-0.06,0.16-0.14,0.2-0.24c0.05-0.1,0.07-0.21,0.07-0.33
				C161.45,42.98,161.43,42.88,161.41,42.77L161.41,42.77z M153.01,27.85l1.35,6.79l0,0.03l0,0.04l0,0l-0.01,0h-2.69l-0.02,0
				l0.01-0.03l0-0.01L153.01,27.85z"/>
			<path class="st0" d="M169.05,23.31c0.19-0.35,0.42-0.62,0.7-0.8c0.29-0.18,0.63-0.29,1.07-0.29c0.72,0,1.18,0.27,1.53,0.69
				c0.34,0.42,0.55,1.01,0.65,1.6l0,0c0.01,0.11,0.03,0.2,0.07,0.3c0.06,0.15,0.17,0.28,0.32,0.35c0.14,0.07,0.3,0.09,0.46,0.09
				h3.76c0.11,0,0.22-0.02,0.32-0.05c0.15-0.06,0.27-0.17,0.33-0.3c0.06-0.13,0.08-0.26,0.08-0.39c0-0.05,0-0.1-0.01-0.15h0
				c-0.04-1.95-0.67-3.77-1.92-5.1c-1.26-1.33-3.13-2.16-5.59-2.16c-2.63,0-4.61,0.91-5.91,2.53c-1.3,1.61-1.91,3.89-1.91,6.6v8.75
				c0,2.71,0.61,4.99,1.91,6.6c1.3,1.62,3.28,2.53,5.91,2.53c2.45,0,4.33-0.83,5.59-2.16c1.26-1.33,1.89-3.15,1.92-5.1h0
				c0-0.05,0.01-0.1,0.01-0.15c0-0.17-0.03-0.35-0.16-0.51c-0.06-0.08-0.15-0.14-0.25-0.18c-0.1-0.04-0.21-0.05-0.32-0.05h-3.76
				c-0.11,0-0.22,0.01-0.32,0.04c-0.15,0.04-0.3,0.13-0.39,0.27c-0.09,0.13-0.13,0.28-0.15,0.44l0,0c-0.1,0.59-0.3,1.18-0.65,1.6
				c-0.35,0.42-0.81,0.69-1.53,0.69c-0.44,0-0.79-0.1-1.07-0.29c-0.43-0.27-0.74-0.74-0.95-1.39c-0.2-0.64-0.3-1.44-0.3-2.33v-8.75
				C168.51,25.04,168.68,24.01,169.05,23.31z"/>
			<path class="st0" d="M196.77,42.77l-5.82-24.47l0,0c-0.04-0.16-0.09-0.3-0.15-0.42c-0.1-0.18-0.26-0.33-0.45-0.39
				c-0.18-0.07-0.38-0.08-0.6-0.08h-2.79c-0.15,0-0.28,0.01-0.41,0.03c-0.19,0.03-0.38,0.12-0.52,0.28
				c-0.14,0.16-0.21,0.35-0.27,0.59l0,0l-5.82,24.47l0,0c-0.03,0.11-0.04,0.21-0.04,0.31c0,0.11,0.02,0.23,0.07,0.33
				c0.07,0.15,0.2,0.26,0.34,0.31c0.14,0.06,0.28,0.08,0.42,0.08h3.62c0.13,0,0.25-0.01,0.36-0.04c0.18-0.04,0.35-0.14,0.47-0.29
				c0.12-0.15,0.2-0.34,0.26-0.57l0,0l0.65-2.96c0.02-0.09,0.05-0.15,0.06-0.19l0.03-0.04c0.01-0.01,0.02-0.02,0.08-0.03
				c0.05-0.01,0.14-0.02,0.26-0.02h3.69c0.11,0,0.19,0,0.24,0.01c0.04,0.01,0.06,0.01,0.08,0.02c0.02,0.01,0.02,0.01,0.04,0.04
				c0.02,0.03,0.05,0.1,0.07,0.2l0.65,2.96l0,0.01c0.04,0.15,0.09,0.29,0.15,0.4c0.09,0.18,0.24,0.32,0.4,0.39
				c0.17,0.08,0.35,0.1,0.54,0.1h3.62c0.19,0,0.38-0.03,0.55-0.15c0.08-0.06,0.16-0.14,0.2-0.24c0.05-0.1,0.07-0.21,0.07-0.33
				C196.81,42.98,196.79,42.88,196.77,42.77L196.77,42.77z M188.37,27.85l1.35,6.79l0,0.03l0,0.04l0,0l-0.01,0h-2.69l-0.02,0
				l0.01-0.03l0-0.01L188.37,27.85z"/>
			<path class="st0" d="M210.43,17.54c-0.17-0.1-0.37-0.13-0.59-0.13h-9.96c-0.15,0-0.28,0.01-0.41,0.05
				c-0.19,0.05-0.36,0.18-0.46,0.35c-0.1,0.17-0.13,0.37-0.13,0.59v24.4c0,0.15,0.01,0.28,0.05,0.41c0.05,0.19,0.18,0.36,0.35,0.46
				c0.17,0.1,0.37,0.13,0.59,0.13h3.52c0.15,0,0.28-0.01,0.41-0.05c0.19-0.05,0.36-0.18,0.46-0.35c0.1-0.17,0.13-0.37,0.13-0.59
				v-9.55c0-0.12,0.01-0.2,0.02-0.26c0.01-0.04,0.02-0.06,0.03-0.07c0.01-0.01,0.01-0.02,0.06-0.03c0.05-0.02,0.14-0.03,0.27-0.03
				h3.34c0.15,0,0.28-0.01,0.41-0.05c0.19-0.05,0.36-0.18,0.46-0.35c0.1-0.17,0.13-0.37,0.13-0.59v-2.96c0-0.15-0.01-0.28-0.05-0.41
				c-0.05-0.19-0.18-0.36-0.35-0.46c-0.17-0.1-0.37-0.13-0.59-0.13h-3.34c-0.12,0-0.2-0.01-0.26-0.02
				c-0.04-0.01-0.06-0.02-0.07-0.03c-0.01-0.01-0.02-0.01-0.03-0.06c-0.02-0.05-0.03-0.14-0.03-0.27v-4.79
				c0-0.12,0.01-0.2,0.02-0.26c0.01-0.04,0.02-0.06,0.03-0.07c0.01-0.01,0.01-0.02,0.06-0.03c0.05-0.02,0.14-0.03,0.27-0.03h5.07
				c0.15,0,0.28-0.01,0.41-0.05c0.19-0.05,0.36-0.18,0.46-0.35c0.1-0.17,0.13-0.37,0.13-0.59V18.4c0-0.15-0.01-0.28-0.05-0.41
				C210.73,17.8,210.61,17.63,210.43,17.54z"/>
			<polygon class="st0" points="214.55,13.94 214.55,13.94 214.55,13.94 			"/>
			<path class="st0" d="M215.68,15.59L215.68,15.59c0.1,0.16,0.2,0.28,0.32,0.38c0.12,0.1,0.28,0.17,0.44,0.17
				c0.21,0,0.38-0.09,0.57-0.2l0,0l6.24-4.21l0,0c0.14-0.1,0.26-0.19,0.35-0.3c0.09-0.11,0.16-0.26,0.16-0.42
				c0-0.11-0.03-0.21-0.07-0.31c-0.04-0.1-0.1-0.2-0.16-0.3l0,0l-1.11-1.66l0,0c-0.1-0.15-0.2-0.27-0.32-0.37
				c-0.12-0.1-0.27-0.17-0.44-0.17c-0.21,0-0.39,0.09-0.58,0.22l0,0l-6.24,4.17l0,0c-0.15,0.1-0.27,0.2-0.37,0.32
				c-0.1,0.12-0.17,0.27-0.17,0.44c0,0.21,0.09,0.39,0.23,0.59L215.68,15.59z"/>
			<path class="st0" d="M218.68,22.49c0.01-0.04,0.02-0.06,0.03-0.07c0.01-0.01,0.01-0.02,0.06-0.03c0.05-0.02,0.14-0.03,0.27-0.03
				h4.96c0.15,0,0.28-0.01,0.41-0.05c0.19-0.05,0.36-0.18,0.46-0.35c0.1-0.17,0.13-0.37,0.13-0.59V18.4c0-0.15-0.01-0.28-0.05-0.41
				c-0.05-0.19-0.18-0.36-0.35-0.46c-0.17-0.1-0.37-0.13-0.59-0.13h-9.86c-0.15,0-0.28,0.01-0.41,0.05
				c-0.19,0.05-0.36,0.18-0.46,0.35c-0.1,0.17-0.13,0.37-0.13,0.59v24.4c0,0.15,0.01,0.28,0.05,0.41c0.05,0.19,0.18,0.36,0.35,0.46
				c0.17,0.1,0.37,0.13,0.59,0.13h9.86c0.15,0,0.28-0.01,0.41-0.05c0.19-0.05,0.36-0.18,0.46-0.35c0.1-0.17,0.13-0.37,0.13-0.59
				v-2.96c0-0.15-0.01-0.28-0.05-0.41c-0.05-0.19-0.18-0.36-0.35-0.46c-0.17-0.1-0.37-0.13-0.59-0.13h-4.96
				c-0.12,0-0.2-0.01-0.26-0.02c-0.04-0.01-0.06-0.02-0.07-0.03c-0.01-0.01-0.02-0.01-0.03-0.06c-0.02-0.05-0.03-0.14-0.03-0.27
				v-5.2c0-0.12,0.01-0.2,0.02-0.26c0.01-0.04,0.02-0.06,0.03-0.07c0.01-0.01,0.01-0.02,0.06-0.03c0.05-0.02,0.14-0.03,0.27-0.03
				h4.96c0.15,0,0.28-0.01,0.41-0.05c0.19-0.05,0.36-0.18,0.46-0.35c0.1-0.17,0.13-0.37,0.13-0.59v-2.96c0-0.15-0.01-0.28-0.05-0.41
				c-0.05-0.19-0.18-0.36-0.35-0.46c-0.17-0.1-0.37-0.13-0.59-0.13h-4.96c-0.12,0-0.2-0.01-0.26-0.02
				c-0.04-0.01-0.06-0.02-0.07-0.03c-0.01-0.01-0.02-0.01-0.03-0.06c-0.02-0.05-0.03-0.14-0.03-0.27v-4.79
				C218.66,22.63,218.67,22.54,218.68,22.49z"/>
		</g>
	</g>
	<g>
		<path class="st1" d="M92.4,66.42V52.25c0-0.3,0.12-0.42,0.42-0.42h0.54c0.3,0,0.4,0.2,0.46,0.42l3.1,11.57
			c0.04,0.12,0.2,0.12,0.24,0l3.12-11.57c0.06-0.22,0.16-0.42,0.46-0.42h0.52c0.3,0,0.42,0.12,0.42,0.42v14.18
			c0,0.3-0.12,0.42-0.42,0.42h-0.66c-0.3,0-0.42-0.12-0.42-0.42v-8.71c0-0.18-0.2-0.2-0.24-0.02l-2.3,8.75
			c-0.08,0.32-0.2,0.4-0.52,0.4h-0.14c-0.32,0-0.44-0.08-0.52-0.4l-2.3-8.75c-0.04-0.18-0.24-0.16-0.24,0.02v8.71
			c0,0.3-0.12,0.42-0.42,0.42h-0.68C92.52,66.84,92.4,66.72,92.4,66.42z"/>
		<path class="st1" d="M106.45,52.23c0.06-0.34,0.2-0.4,0.52-0.4h0.56c0.32,0,0.44,0.06,0.52,0.4l3,14.22c0.06,0.3-0.08,0.4-0.3,0.4
			h-0.74c-0.26,0-0.38-0.1-0.44-0.4l-0.62-2.94c-0.06-0.24-0.14-0.28-0.4-0.28h-2.6c-0.26,0-0.36,0.04-0.4,0.28l-0.62,2.94
			c-0.06,0.3-0.18,0.4-0.44,0.4h-0.74c-0.22,0-0.36-0.1-0.3-0.4L106.45,52.23z M106.05,61.88h2.4c0.12,0,0.18-0.06,0.16-0.22
			l-1.24-6.43c-0.04-0.14-0.22-0.14-0.24,0l-1.24,6.43C105.85,61.82,105.95,61.88,106.05,61.88z"/>
		<path class="st1" d="M114.32,58.01c0,0.3,0.08,0.38,0.38,0.38h2.94c0.3,0,0.42,0.12,0.42,0.42v0.5c0,0.3-0.12,0.42-0.42,0.42
			h-2.94c-0.3,0-0.38,0.08-0.38,0.38v5.01c0,0.3,0.08,0.38,0.38,0.38h2.94c0.3,0,0.42,0.12,0.42,0.42v0.5c0,0.3-0.12,0.42-0.42,0.42
			h-4.42c-0.3,0-0.42-0.12-0.42-0.42V52.25c0-0.3,0.12-0.42,0.42-0.42h4.42c0.3,0,0.42,0.12,0.42,0.42v0.5
			c0,0.3-0.12,0.42-0.42,0.42h-2.94c-0.3,0-0.38,0.08-0.38,0.38V58.01z"/>
		<path class="st1" d="M123.58,67c-2,0-3.48-1.5-3.56-3.36c0-0.18,0.02-0.36,0.26-0.36h0.8c0.22,0,0.34,0.08,0.36,0.28
			c0.14,1.1,0.94,2.08,2.16,2.08c1.16,0,2-0.88,2.02-2.12c0.06-3.1-5.35-5.11-5.35-8.69c0-1.8,1.34-3.16,3.16-3.16
			c1.84,0,3.02,1.38,3.16,2.98c0.02,0.2-0.02,0.36-0.26,0.36h-0.82c-0.22,0-0.3-0.06-0.34-0.26c-0.18-0.98-0.78-1.7-1.7-1.7
			c-0.96,0-1.7,0.76-1.68,1.74c0.08,2.52,5.35,4.83,5.35,8.63C127.15,65.58,125.45,67,123.58,67z"/>
		<path class="st1" d="M134.77,52.25v0.5c0,0.3-0.12,0.42-0.42,0.42h-1.7c-0.3,0-0.38,0.08-0.38,0.38v12.87
			c0,0.3-0.12,0.42-0.42,0.42h-0.68c-0.3,0-0.42-0.12-0.42-0.42V53.55c0-0.3-0.08-0.38-0.38-0.38h-1.7c-0.3,0-0.42-0.12-0.42-0.42
			v-0.5c0-0.3,0.12-0.42,0.42-0.42h5.69C134.65,51.83,134.77,51.95,134.77,52.25z"/>
		<path class="st1" d="M143.22,66.84h-0.86c-0.24,0-0.38-0.08-0.46-0.28l-2.24-5.81h-0.04h-1.18c-0.3,0-0.38,0.08-0.38,0.38v5.29
			c0,0.3-0.12,0.42-0.42,0.42h-0.68c-0.3,0-0.42-0.12-0.42-0.42V52.25c0-0.3,0.12-0.42,0.42-0.42h2.66c1.9,0,3.26,1.32,3.26,3.76
			v1.4c0,1.76-0.7,2.92-1.8,3.46l2.36,5.99C143.54,66.68,143.44,66.84,143.22,66.84z M138.43,59.37h1.1c0.92,0,1.84-0.68,1.84-2.34
			v-1.5c0-1.66-0.92-2.36-1.84-2.36h-1.1c-0.3,0-0.38,0.08-0.38,0.38v5.45C138.05,59.29,138.13,59.37,138.43,59.37z"/>
		<path class="st1" d="M145,63.1v-7.53c0-2.52,1.28-3.9,3.34-3.9c2.04,0,3.32,1.38,3.32,3.9v7.53c0,2.52-1.28,3.9-3.32,3.9
			C146.28,67,145,65.62,145,63.1z M150.16,63.1v-7.53c0-1.68-0.82-2.48-1.82-2.48c-1,0-1.82,0.8-1.82,2.48v7.53
			c0,1.68,0.82,2.48,1.82,2.48C149.34,65.58,150.16,64.78,150.16,63.1z"/>
		<path class="st1" d="M157.19,67c-2,0-3.48-1.5-3.56-3.36c0-0.18,0.02-0.36,0.26-0.36h0.8c0.22,0,0.34,0.08,0.36,0.28
			c0.14,1.1,0.94,2.08,2.16,2.08c1.16,0,2-0.88,2.02-2.12c0.06-3.1-5.35-5.11-5.35-8.69c0-1.8,1.34-3.16,3.16-3.16
			c1.84,0,3.02,1.38,3.16,2.98c0.02,0.2-0.02,0.36-0.26,0.36h-0.82c-0.22,0-0.3-0.06-0.34-0.26c-0.18-0.98-0.78-1.7-1.7-1.7
			c-0.96,0-1.7,0.76-1.68,1.74c0.08,2.52,5.35,4.83,5.35,8.63C160.75,65.58,159.05,67,157.19,67z"/>
		<path class="st1" d="M174.06,55.91v6.85c0,2.7-1.28,4.08-3.68,4.08h-2.64c-0.3,0-0.42-0.12-0.42-0.42V52.25
			c0-0.3,0.12-0.42,0.42-0.42h2.64C172.78,51.83,174.06,53.21,174.06,55.91z M172.56,55.81c0-1.84-0.82-2.64-2.24-2.64h-1.1
			c-0.3,0-0.38,0.08-0.38,0.38v11.57c0,0.3,0.08,0.38,0.38,0.38h1.1c1.42,0,2.24-0.8,2.24-2.64V55.81z"/>
		<path class="st1" d="M177.82,58.01c0,0.3,0.08,0.38,0.38,0.38h2.94c0.3,0,0.42,0.12,0.42,0.42v0.5c0,0.3-0.12,0.42-0.42,0.42
			h-2.94c-0.3,0-0.38,0.08-0.38,0.38v5.01c0,0.3,0.08,0.38,0.38,0.38h2.94c0.3,0,0.42,0.12,0.42,0.42v0.5c0,0.3-0.12,0.42-0.42,0.42
			h-4.42c-0.3,0-0.42-0.12-0.42-0.42V52.25c0-0.3,0.12-0.42,0.42-0.42h4.42c0.3,0,0.42,0.12,0.42,0.42v0.5
			c0,0.3-0.12,0.42-0.42,0.42h-2.94c-0.3,0-0.38,0.08-0.38,0.38V58.01z"/>
		<path class="st1" d="M189.11,65.92v0.5c0,0.3-0.12,0.42-0.42,0.42h-4.48c-0.3,0-0.42-0.12-0.42-0.42V52.25
			c0-0.3,0.12-0.42,0.42-0.42h0.68c0.3,0,0.42,0.12,0.42,0.42v12.87c0,0.3,0.08,0.38,0.38,0.38h3
			C188.99,65.5,189.11,65.62,189.11,65.92z"/>
		<path class="st1" d="M195.01,63.1v-7.53c0-2.52,1.28-3.9,3.34-3.9c1.9,0,3.04,1.24,3.2,3.02c0.02,0.18-0.02,0.36-0.26,0.36h-0.84
			c-0.22,0-0.3-0.06-0.34-0.26c-0.18-1-0.82-1.7-1.74-1.7c-1.02,0-1.84,0.8-1.84,2.48v7.53c0,1.68,0.82,2.48,1.84,2.48
			c0.92,0,1.56-0.7,1.74-1.7c0.04-0.2,0.12-0.26,0.34-0.26h0.84c0.24,0,0.28,0.18,0.26,0.36c-0.16,1.78-1.3,3.02-3.2,3.02
			C196.29,67,195.01,65.62,195.01,63.1z"/>
		<path class="st1" d="M206,52.23c0.06-0.34,0.2-0.4,0.52-0.4h0.56c0.32,0,0.44,0.06,0.52,0.4l3,14.22c0.06,0.3-0.08,0.4-0.3,0.4
			h-0.74c-0.26,0-0.38-0.1-0.44-0.4l-0.62-2.94c-0.06-0.24-0.14-0.28-0.4-0.28h-2.6c-0.26,0-0.36,0.04-0.4,0.28l-0.62,2.94
			c-0.06,0.3-0.18,0.4-0.44,0.4h-0.74c-0.22,0-0.36-0.1-0.3-0.4L206,52.23z M205.6,61.88h2.4c0.12,0,0.18-0.06,0.16-0.22l-1.24-6.43
			c-0.04-0.14-0.22-0.14-0.24,0l-1.24,6.43C205.4,61.82,205.5,61.88,205.6,61.88z"/>
		<path class="st1" d="M217.63,52.25v0.5c0,0.3-0.12,0.42-0.42,0.42h-2.96c-0.3,0-0.38,0.08-0.38,0.38v4.47
			c0,0.3,0.08,0.38,0.38,0.38h1.96c0.3,0,0.42,0.12,0.42,0.42v0.5c0,0.3-0.12,0.42-0.42,0.42h-1.96c-0.3,0-0.38,0.08-0.38,0.38v6.31
			c0,0.3-0.12,0.42-0.42,0.42h-0.68c-0.3,0-0.42-0.12-0.42-0.42V52.25c0-0.3,0.12-0.42,0.42-0.42h4.44
			C217.51,51.83,217.63,51.95,217.63,52.25z"/>
		<path class="st1" d="M220.91,58.01c0,0.3,0.08,0.38,0.38,0.38h2.94c0.3,0,0.42,0.12,0.42,0.42v0.5c0,0.3-0.12,0.42-0.42,0.42
			h-2.94c-0.3,0-0.38,0.08-0.38,0.38v5.01c0,0.3,0.08,0.38,0.38,0.38h2.94c0.3,0,0.42,0.12,0.42,0.42v0.5c0,0.3-0.12,0.42-0.42,0.42
			h-4.42c-0.3,0-0.42-0.12-0.42-0.42V52.25c0-0.3,0.12-0.42,0.42-0.42h4.42c0.3,0,0.42,0.12,0.42,0.42v0.5
			c0,0.3-0.12,0.42-0.42,0.42h-2.94c-0.3,0-0.38,0.08-0.38,0.38V58.01z M223.91,48.56l-3.04,2.02c-0.26,0.18-0.38,0.12-0.56-0.14
			l-0.22-0.32c-0.18-0.26-0.12-0.38,0.14-0.56l3.04-2.02c0.26-0.18,0.38-0.12,0.56,0.14l0.22,0.32
			C224.23,48.26,224.17,48.38,223.91,48.56z"/>
	</g>
	<path class="st0" d="M82.01,37.22c-0.06-0.59-0.21-1.19-0.47-1.75c-0.25-0.57-0.62-1.09-1.03-1.53c-0.85-0.86-1.84-1.38-2.78-1.81
		c-3.76-1.57-7.7-2.46-11.65-2.88c-3.95-0.39-7.88-0.62-11.84-0.56c-1.98,0.04-3.95,0.13-5.92,0.3c-0.98,0.08-1.97,0.19-2.95,0.29
		c-0.99,0.11-1.94,0.23-2.89,0.29c-0.48,0.03-0.95,0.06-1.42,0.06c-0.17,0-0.35-0.01-0.52-0.01c0.1-0.05,0.19-0.09,0.29-0.13
		c0.84-0.37,1.75-0.67,2.67-0.96c0.92-0.29,1.86-0.56,2.81-0.84c0.48-0.15,0.96-0.29,1.48-0.5c0.27-0.12,0.52-0.2,0.92-0.51
		c0.1-0.09,0.22-0.19,0.35-0.42c0.07-0.12,0.13-0.26,0.15-0.45c0.03-0.18,0.01-0.39-0.05-0.56c-0.12-0.35-0.29-0.51-0.41-0.62
		c-0.12-0.11-0.23-0.18-0.32-0.23c-0.36-0.21-0.65-0.29-0.87-0.37l-0.71-0.25c-0.48-0.17-0.96-0.3-1.44-0.46
		c-1.94-0.56-3.94-0.98-5.95-1.23c-3.32-0.41-6.65-0.34-9.93-0.09c2.34-0.53,4.72-0.92,7.12-1.17c3.78-0.39,7.61-0.51,11.41-0.2
		c3.81,0.28,7.59,0.96,11.29,2.04c1.85,0.54,3.68,1.17,5.48,1.88c1.8,0.72,3.57,1.53,5.34,2.36c0.89,0.41,1.77,0.84,2.71,1.22
		c0.96,0.38,1.99,0.63,3.03,0.65c1.04,0.03,2.09-0.17,3.04-0.61c0.95-0.43,1.8-1.15,2.3-2.09c0.95-1.89,0.87-4.05,0.29-5.95
		c-0.29-0.96-0.71-1.88-1.22-2.73c-0.51-0.85-1.11-1.64-1.78-2.4l0,0c0,0-0.01-0.01-0.01-0.01c0,0,0,0,0,0l0,0
		c-1.29-1.49-2.72-2.85-4.26-4.08c-1.53-1.25-3.18-2.35-4.87-3.36c-1.7-1.01-3.48-1.88-5.29-2.68C62.26,4.08,60.4,3.4,58.5,2.81
		c-7.6-2.3-15.69-3.12-23.71-2.29c-4.01,0.43-8,1.26-11.85,2.63c-1.93,0.67-3.82,1.48-5.66,2.4c-1.83,0.95-3.61,2.02-5.3,3.25
		c-3.36,2.46-6.39,5.53-8.58,9.27c-1.09,1.86-1.97,3.89-2.53,6.02c-0.56,2.13-0.81,4.35-0.73,6.56c0.15,4.44,1.73,8.75,4.13,12.31
		c2.41,3.59,5.57,6.52,9.03,8.85c6.95,4.67,15.01,7.14,23.09,7.99c4.05,0.42,8.13,0.44,12.17,0.05c4.04-0.41,8.05-1.19,11.91-2.48
		c3.86-1.27,7.59-3,11-5.25c1.7-1.12,3.33-2.37,4.83-3.76l0.55-0.51c0.18-0.18,0.38-0.36,0.56-0.55c0.37-0.37,0.73-0.76,1.07-1.16
		c0.68-0.8,1.3-1.66,1.84-2.59c0.54-0.92,0.99-1.91,1.31-2.96C81.96,39.54,82.13,38.41,82.01,37.22z M44.01,55.16
		c-2.38,0-4.79-0.15-7.16-0.45c-3.72-0.48-7.34-1.34-10.74-2.57c-3.58-1.28-6.83-2.94-9.67-4.95c-3.14-2.22-5.63-4.72-7.4-7.42
		c-1.95-2.93-3.05-6.17-3.19-9.37c-0.17-3.21,0.64-6.53,2.35-9.59c1.57-2.82,3.89-5.46,6.91-7.85c1.37-1.08,2.88-2.11,4.5-3.04
		c1.6-0.94,3.26-1.77,4.92-2.47C28,6,31.6,4.92,35.21,4.24c3.45-0.65,6.97-0.98,10.45-0.98c0.27,0,0.54,0,0.81,0.01
		c1.9,0.03,3.82,0.15,5.68,0.37C54,3.86,55.89,4.2,57.77,4.65c3.77,0.88,7.36,2.24,10.66,4.03c3.54,1.94,6.54,4.3,8.93,7.02
		c0.01,0.01,0.02,0.02,0.03,0.03c1.35,1.56,2.26,3.14,2.7,4.69c0.26,0.91,0.37,1.79,0.33,2.62c-0.05,0.94-0.26,1.77-0.63,2.41
		c-0.36,0.62-0.98,1.15-1.75,1.47c-0.59,0.25-1.25,0.38-1.97,0.38c-0.15,0-0.29-0.01-0.44-0.02c-0.82-0.06-1.63-0.28-2.43-0.66
		c-0.66-0.33-1.36-0.71-2.03-1.08l-0.49-0.27c-2.87-1.6-6.69-3.63-10.73-5.17c-3.85-1.47-7.78-2.52-11.67-3.11
		c-2.98-0.45-5.99-0.67-8.95-0.67c-1.06,0-2.13,0.03-3.18,0.09c-1.92,0.1-3.97,0.32-6.07,0.65c-2.03,0.33-4.04,0.78-5.99,1.32
		c-3.95,1.11-7.77,2.68-11.35,4.67l-1.31,0.74l-1.3,0.76c-0.28,0.17-0.54,0.33-0.79,0.51c-0.29,0.21-0.59,0.44-0.96,0.82l-0.06,0.07
		c-0.18,0.2-0.4,0.45-0.63,0.92c-0.07,0.14-0.13,0.3-0.18,0.46c-0.06,0.2-0.1,0.41-0.13,0.61c-0.02,0.21-0.03,0.46,0.01,0.73
		c0.03,0.24,0.09,0.47,0.17,0.69c0.08,0.22,0.18,0.39,0.26,0.54c0.1,0.16,0.19,0.27,0.29,0.4c0.18,0.2,0.33,0.35,0.55,0.51
		C8.93,31,9.2,31.13,9.47,31.22c0.31,0.1,0.54,0.13,0.75,0.14c0.08,0.01,0.14,0.01,0.2,0.01c0.1,0,0.17-0.01,0.25-0.01l0.07-0.01
		c0.16-0.02,0.23-0.03,0.3-0.04l0.05-0.01c0.12-0.02,0.21-0.05,0.27-0.07c0.02,0,0.03-0.01,0.05-0.02l5.61-2.2
		c1.64-0.61,3.42-1.25,5.28-1.73c1.59-0.42,3.34-0.79,5.5-1.15c3.69-0.6,6.52-0.87,9.19-0.87c0.68,0,1.36,0.02,2.01,0.06
		c1.52,0.09,3.01,0.28,4.45,0.57c-1.24,0.42-2.52,0.87-3.79,1.48l-0.1,0.05c-0.46,0.23-0.93,0.47-1.46,0.92
		c-0.01,0.01-0.03,0.03-0.04,0.04c-0.13,0.12-0.32,0.29-0.5,0.6c-0.16,0.27-0.24,0.53-0.25,0.82c-0.03,0.37,0.11,0.84,0.36,1.14
		c0.34,0.41,0.64,0.53,0.84,0.61c0,0,0.09,0.04,0.1,0.04c0.23,0.08,0.43,0.12,0.58,0.14c0.39,0.06,0.77,0.09,1.24,0.09
		c0.16,0,0.33,0,0.49-0.01c0.55-0.02,1.05-0.05,1.55-0.1c0.77-0.07,1.53-0.17,2.26-0.27l0.69-0.09c0.91-0.12,1.88-0.23,2.86-0.32
		c2.1-0.19,3.98-0.29,5.73-0.29c0.24,0,0.47,0,0.7,0c1.54,0,3.19,0.05,5.06,0.16c2.05,0.11,3.92,0.29,5.72,0.54
		c2.11,0.3,3.92,0.66,5.55,1.11c0.81,0.22,1.66,0.5,2.67,0.87c0.72,0.27,1.67,0.64,2.54,1.07c0.88,0.44,1.49,0.87,1.88,1.31
		c0.39,0.44,0.59,0.98,0.63,1.65c0.03,0.64-0.1,1.4-0.38,2.19c-0.26,0.72-0.64,1.47-1.13,2.21c-0.46,0.69-1,1.37-1.62,2.02
		c-0.29,0.31-0.61,0.62-0.94,0.92c-0.12,0.11-0.23,0.21-0.35,0.31l-0.15,0.13l-0.54,0.45c-1.37,1.13-2.89,2.19-4.52,3.14
		c-1.56,0.91-3.23,1.74-4.96,2.46c-1.64,0.69-3.4,1.31-5.25,1.84C54.16,54.47,49.13,55.16,44.01,55.16z"/>
</g>
</svg>
