<?xml version="1.0" encoding="utf-8"?>
<!-- Generator: Adobe Illustrator 26.0.1, SVG Export Plug-In . SVG Version: 6.00 Build 0)  -->
<svg version="1.1" id="Layer_1" xmlns="http://www.w3.org/2000/svg" xmlns:xlink="http://www.w3.org/1999/xlink" x="0px" y="0px"
	 viewBox="0 0 153 53" style="enable-background:new 0 0 153 53;" xml:space="preserve">
<style type="text/css">
	.st0{fill:#FFFFFF;}
	.st1{fill-rule:evenodd;clip-rule:evenodd;fill:#FFFFFF;}
</style>
<g>
	<path class="st0" d="M2.69,46.91h6.13l-0.01-9.25l8.95-5.43l8.71,5.45v9.23h6.48V17.64L17.82,8.9L2.69,17.64V46.91z M10.15,49.59H0
		V16.1L17.82,5.8L35.63,16.1v33.49H23.79V39.16l-6.05-3.79l-6.26,3.79l0.01,10.43H10.15z"/>
	<path class="st0" d="M46.2,11.9c0,2.92,0.22,5.05,3.57,5.05c0.75-0.06,1.52-0.38,1.93-1.52h0.03v1.25h1.53v-5.88h-3.4v1.61h1.42
		c0.04,1.65-0.34,2.89-1.51,2.89c-1.4,0-1.47-1.47-1.47-2.38V9.89c0-0.84-0.13-2.76,1.47-2.76c1.39,0.06,1.46,0.94,1.49,2.04h2.04
		c-0.01-0.43,0-0.89-0.1-1.33c-0.47-1.9-1.68-2.35-3.43-2.36c-3.27,0-3.49,2.07-3.57,4.86V11.9z M56.82,8.46H55v8.23h1.9v-4.76
		c0.03-1.21,0.83-1.47,1.88-1.37V8.32c-0.28,0.01-0.64-0.02-1.18,0.43c-0.28,0.23-0.51,0.57-0.75,1.17h-0.03V8.46z M63.28,16.69
		h1.81V8.46h-1.9v5.34c0,0.64,0.01,1.65-0.88,1.65c-0.25,0-0.42-0.09-0.59-0.26c-0.2-0.32-0.19-0.73-0.19-1.1V8.46h-1.9v6.31
		c0,1.37,0.34,2.14,1.84,2.14c0.92-0.01,1.47-0.47,1.76-1.44h0.03V16.69z M68.65,11.52c-0.02-0.65,0-1.82,0.89-1.82
		c0.89,0,0.8,0.78,0.86,1.59v2.74c-0.05,0.79-0.25,1.42-0.83,1.42c-0.62,0-0.92-0.51-0.92-1.46V11.52z M68.65,8.46h-1.9v10.98h1.81
		v-3.59h0.03c0.47,0.83,0.99,1.02,1.74,1.06c1.6,0,1.92-1.43,1.97-2.74v-2.98c-0.05-2.26-0.75-2.92-1.97-2.94
		c-0.79-0.02-1.3,0.28-1.65,1.08h-0.03V8.46z M75.69,11.26c0-0.77,0-1.56,1.01-1.56c0.95,0,0.95,0.79,0.95,1.56v2.75
		c0,1-0.07,1.44-0.95,1.44c-0.92,0-1.01-0.44-1.01-1.44V11.26z M76.7,16.91c2.45,0.04,2.86-1.18,2.85-4.04
		c-0.01-2.82-0.03-4.63-2.85-4.63c-2.86,0-2.89,1.81-2.91,4.63C73.78,15.73,74.21,16.95,76.7,16.91L76.7,16.91z M90.47,16.69v-1.6
		h-3.7v-3.37h3.41v-1.6h-3.41V7.35h3.7v-1.6h-5.75v10.94H90.47z M93.76,8.46h-1.9v8.23h1.9v-5.41c0-0.91,0.04-1.56,0.93-1.58
		c0.88-0.01,0.94,0.6,0.94,1.33v5.66h1.9v-5.41c0-0.97,0.15-1.54,0.96-1.58c0.83-0.04,0.91,0.69,0.91,1.43v5.56h1.9v-6.7
		c0-0.88-0.61-1.75-2.01-1.75c-0.94,0-1.53,0.35-1.9,1.06h-0.03c-0.12-0.78-1.05-1.08-1.75-1.06c-0.61,0.02-1.39,0.16-1.81,1.06
		h-0.02V8.46z M104.8,11.52c-0.02-0.65,0-1.82,0.89-1.82c0.89,0,0.8,0.78,0.86,1.59v2.74c-0.05,0.79-0.25,1.42-0.83,1.42
		c-0.62,0-0.92-0.51-0.92-1.46V11.52z M104.8,8.46h-1.9v10.98h1.81v-3.59h0.03c0.47,0.83,0.99,1.02,1.74,1.06
		c1.6,0,1.92-1.43,1.97-2.74v-2.98c-0.05-2.26-0.75-2.92-1.97-2.94c-0.79-0.02-1.3,0.28-1.65,1.08h-0.03V8.46z M111.87,8.46h-1.82
		v8.23h1.9v-4.76c0.03-1.21,0.83-1.47,1.88-1.37V8.32c-0.28,0.01-0.64-0.02-1.18,0.43c-0.28,0.23-0.51,0.57-0.75,1.17h-0.03V8.46z
		 M114.62,13.45c-0.04,2.42,0.85,3.46,3.04,3.46c1.94,0,2.7-1.17,2.63-3h-1.9c0.03,1.03-0.17,1.55-0.88,1.55
		c-0.57,0-0.97-0.21-0.99-1.29v-1.2h3.79v-1.11c0-2.25-0.28-3.62-2.92-3.62c-1.87,0-2.86,1.11-2.77,3.05V13.45z M116.52,11.51v-0.34
		c0-0.75-0.04-1.47,0.91-1.47c0.76,0,0.98,0.26,0.99,1.1v0.72H116.52z M121.38,13.98c-0.22,2.51,1.66,2.93,2.67,2.93
		c2.63,0,2.98-1.49,2.82-2.92c-0.06-0.55-0.82-1.34-1.3-1.62l-1.54-1.05c-0.37-0.25-0.72-0.47-0.72-0.95c0-0.47,0.35-0.67,0.8-0.67
		c0.65,0,0.92,0.35,0.88,1.27h1.9c0.04-1.77-0.8-2.73-2.64-2.73c-1.82,0-2.83,0.73-2.83,2c0,1.19,0.61,1.95,1.56,2.6l1.03,0.72
		c0.37,0.24,0.91,0.51,0.94,0.97c0.13,0.53-0.25,0.92-0.79,0.92c-0.43,0-1.02,0.04-0.88-1.47H121.38z M133.67,16.69
		c-0.1-0.38-0.16-0.76-0.16-1.15v-4.86c0.03-1.08-0.13-2.44-2.71-2.44c-2.38,0-2.89,1.1-2.88,2.66h1.81
		c-0.02-0.75,0.13-1.2,0.99-1.2c0.51,0,0.8,0.06,0.89,0.42c0.16,0.67-0.13,1.04-0.93,1.37c-1.49,0.62-2.82,1.07-2.82,2.95
		c0,1.7,0.67,2.47,2.2,2.47c0.32,0,0.63-0.1,0.91-0.28c0.29-0.18,0.54-0.45,0.76-0.79h0.03c-0.03,0.29-0.01,0.58,0.12,0.84H133.67z
		 M131.62,13.25c-0.04,0.78,0.16,2.2-0.96,2.2c-0.7,0-0.89-0.42-0.89-1.05c0-0.35,0.05-0.76,0.32-0.99c0.5-0.41,1.06-0.73,1.53-1.05
		V13.25z M137.06,8.46h-1.82v8.23h1.9v-4.76c0.03-1.21,0.83-1.47,1.88-1.37V8.32c-0.28,0.01-0.64-0.02-1.18,0.43
		c-0.28,0.23-0.51,0.57-0.75,1.17h-0.03V8.46z M142.01,16.69V8.46h-1.9v8.23H142.01z M142.01,7.47V5.75h-1.9v1.72H142.01z
		 M149.33,16.69c-0.1-0.38-0.16-0.76-0.16-1.15v-4.86c0.02-1.08-0.13-2.44-2.72-2.44c-2.38,0-2.89,1.1-2.88,2.66h1.81
		c-0.01-0.75,0.13-1.2,0.99-1.2c0.51,0,0.8,0.06,0.89,0.42c0.16,0.67-0.13,1.04-0.94,1.37c-1.49,0.62-2.82,1.07-2.82,2.95
		c0,1.7,0.67,2.47,2.2,2.47c0.32,0,0.62-0.1,0.91-0.28c0.29-0.18,0.54-0.45,0.76-0.79h0.02c-0.02,0.29-0.01,0.58,0.12,0.84H149.33z
		 M147.28,13.25c-0.05,0.78,0.16,2.2-0.97,2.2c-0.7,0-0.89-0.42-0.89-1.05c0-0.35,0.04-0.76,0.32-0.99c0.5-0.41,1.06-0.73,1.54-1.05
		V13.25z M153,16.69V5.75h-1.9v10.94H153z"/>
	<path class="st0" d="M49.82,30.61c0,0.95-0.31,1.46-0.92,1.46c-0.58,0-0.79-0.63-0.83-1.42v-2.74c0.06-0.81-0.03-1.59,0.86-1.59
		c0.89,0,0.92,1.17,0.89,1.82V30.61z M49.82,33.31h1.9V22.36h-1.9v2.82c0,0.25,0.02,0.48,0.06,0.73h-0.03
		c-0.38-0.78-0.89-1.06-1.7-1.05c-1.22,0.03-1.94,0.65-1.98,2.92v2.97c0.04,1.32,0.38,2.77,1.98,2.77c0.75-0.04,1.27-0.26,1.63-1.1
		h0.03V33.31z M53.28,30.07c-0.04,2.42,0.84,3.46,3.04,3.46c1.94,0,2.7-1.17,2.63-3h-1.9c0.03,1.03-0.17,1.55-0.88,1.55
		c-0.57,0-0.98-0.21-0.99-1.29v-1.2h3.79v-1.11c0-2.25-0.28-3.62-2.92-3.62c-1.87,0-2.86,1.11-2.77,3.05V30.07z M55.18,28.13v-0.34
		c0-0.75-0.04-1.47,0.91-1.47c0.76,0,0.98,0.26,0.99,1.1v0.72H55.18z M66.24,33.31V22.36h-1.9v10.94H66.24z M73.56,33.31
		c-0.1-0.38-0.17-0.76-0.17-1.15V27.3c0.03-1.08-0.13-2.44-2.71-2.44c-2.38,0-2.89,1.1-2.88,2.66h1.81c-0.02-0.75,0.13-1.2,0.99-1.2
		c0.51,0,0.8,0.06,0.89,0.42c0.17,0.67-0.13,1.04-0.93,1.38c-1.49,0.61-2.82,1.06-2.82,2.94c0,1.7,0.67,2.47,2.21,2.47
		c0.32,0,0.62-0.1,0.9-0.28c0.29-0.18,0.54-0.45,0.76-0.79h0.03c-0.03,0.29-0.01,0.59,0.12,0.84H73.56z M71.5,29.87
		c-0.04,0.78,0.17,2.2-0.96,2.2c-0.7,0-0.89-0.42-0.89-1.05c0-0.35,0.05-0.76,0.32-0.99c0.5-0.41,1.06-0.73,1.53-1.05V29.87z
		 M80.95,33.31V22.36h-2.04v10.94H80.95z M84.56,25.08h-1.9v8.23h1.9v-5.32c-0.03-0.88,0.21-1.55,0.93-1.52
		c0.72,0.03,0.8,0.56,0.8,1.36v5.48h1.9v-6.35c0.06-1.47-0.81-2.1-1.9-2.1c-0.43,0-1.29,0.12-1.71,1.06h-0.02V25.08z M93.31,30.61
		c0,0.95-0.31,1.46-0.92,1.46c-0.58,0-0.78-0.63-0.83-1.42v-2.74c0.06-0.81-0.02-1.59,0.86-1.59c0.89,0,0.92,1.17,0.89,1.82V30.61z
		 M93.31,33.31h1.9V22.36h-1.9v2.82c0,0.25,0.01,0.48,0.06,0.73h-0.03c-0.38-0.78-0.89-1.06-1.69-1.05
		c-1.23,0.03-1.94,0.65-1.99,2.92v2.97c0.05,1.32,0.38,2.77,1.99,2.77c0.74-0.04,1.27-0.26,1.63-1.1h0.03V33.31z M100.47,33.31h1.81
		v-8.23h-1.9v5.34c0,0.64,0.01,1.65-0.88,1.65c-0.25,0-0.42-0.09-0.59-0.26c-0.2-0.32-0.19-0.73-0.19-1.1v-5.63h-1.9v6.3
		c0,1.37,0.34,2.14,1.84,2.14c0.92-0.01,1.47-0.47,1.76-1.44h0.03V33.31z M103.53,30.59c-0.22,2.51,1.66,2.93,2.67,2.93
		c2.63,0,2.97-1.49,2.82-2.92c-0.06-0.55-0.82-1.34-1.3-1.62l-1.55-1.05c-0.37-0.25-0.72-0.47-0.72-0.95c0-0.47,0.35-0.67,0.8-0.67
		c0.65,0,0.92,0.35,0.88,1.27h1.9c0.04-1.77-0.8-2.73-2.64-2.73c-1.82,0-2.83,0.73-2.83,2c0,1.19,0.61,1.95,1.56,2.6l1.03,0.72
		c0.37,0.24,0.91,0.51,0.94,0.98c0.13,0.52-0.24,0.92-0.79,0.92c-0.43,0-1.02,0.04-0.88-1.47H103.53z M113.07,31.85
		c-0.23,0.03-0.76,0.07-0.8-0.28v-5.11h0.8v-1.38h-0.8v-2.26h-1.91v2.26h-0.76v1.38h0.77v5.58c0,1.53,1.58,1.43,2.7,1.3V31.85z
		 M115.97,25.08h-1.82v8.23h1.9v-4.76c0.03-1.21,0.83-1.47,1.88-1.37v-2.25c-0.28,0.01-0.64-0.02-1.18,0.43
		c-0.28,0.23-0.51,0.57-0.75,1.17h-0.03V25.08z M120.92,33.31v-8.23h-1.9v8.23H120.92z M120.92,24.08v-1.72h-1.9v1.72H120.92z
		 M128.24,33.31c-0.1-0.38-0.17-0.76-0.17-1.15V27.3c0.03-1.08-0.13-2.44-2.71-2.44c-2.38,0-2.89,1.1-2.88,2.66h1.81
		c-0.02-0.75,0.13-1.2,0.99-1.2c0.51,0,0.8,0.06,0.89,0.42c0.17,0.67-0.13,1.04-0.93,1.38c-1.49,0.61-2.82,1.06-2.82,2.94
		c0,1.7,0.67,2.47,2.2,2.47c0.32,0,0.62-0.1,0.91-0.28c0.29-0.18,0.54-0.45,0.76-0.79h0.02c-0.02,0.29-0.01,0.59,0.12,0.84H128.24z
		 M126.18,29.87c-0.04,0.78,0.17,2.2-0.96,2.2c-0.7,0-0.89-0.42-0.89-1.05c0-0.35,0.04-0.76,0.32-0.99c0.5-0.41,1.06-0.73,1.53-1.05
		V29.87z"/>
	<path class="st0" d="M47.72,49.76l0.54-2.77h2.39l0.54,2.77h2.19L50.9,38.81h-2.76l-2.61,10.94H47.72z M49.19,42.27
		c0.1-0.51,0.14-1,0.2-1.52c0.01-0.24,0.04-0.5,0.07-0.73h0.03c0.02,0.23,0.06,0.48,0.07,0.73c0.06,0.51,0.1,1.01,0.2,1.52
		l0.56,3.11h-1.76L49.19,42.27z M57.75,44.59v2.47c0,0.95-0.31,1.46-0.92,1.46c-0.58,0-0.78-0.63-0.83-1.42v-2.74
		c0.06-0.81-0.03-1.59,0.86-1.59C57.75,42.77,57.77,43.94,57.75,44.59L57.75,44.59z M54.19,50.68c0.1,1.38,1.14,1.85,2.39,1.85
		c2.59,0,3.07-1.34,3.07-3.02v-7.99h-1.9v0.85h-0.03c-0.26-0.75-0.79-1.08-1.65-1.06c-1.22,0.02-1.92,0.67-1.96,2.93v2.97
		c0.04,1.32,0.36,2.76,1.96,2.76c0.82-0.04,1.36-0.29,1.74-1.08l0.03,0.02v0.95c0,0.64-0.15,1.29-0.95,1.29
		c-0.23,0-0.44-0.02-0.58-0.12c-0.13-0.07-0.22-0.19-0.22-0.36H54.19z M63.13,41.52h-1.82v8.23h1.9V45
		c0.03-1.21,0.83-1.47,1.88-1.37v-2.25c-0.28,0.01-0.64-0.02-1.18,0.43c-0.28,0.23-0.51,0.57-0.75,1.17h-0.03V41.52z M67.78,44.33
		c0-0.77,0-1.56,1.01-1.56c0.95,0,0.95,0.79,0.95,1.56v2.75c0,1-0.07,1.44-0.95,1.44c-0.92,0-1.01-0.44-1.01-1.44V44.33z
		 M68.79,49.98c2.45,0.04,2.86-1.18,2.85-4.04c-0.02-2.82-0.03-4.63-2.85-4.63c-2.86,0-2.89,1.81-2.91,4.63
		C65.87,48.8,66.29,50.02,68.79,49.98L68.79,49.98z M78.64,49.76c-0.1-0.38-0.16-0.76-0.16-1.15v-4.86
		c0.03-1.08-0.13-2.44-2.72-2.44c-2.37,0-2.89,1.1-2.87,2.66h1.81c-0.01-0.75,0.13-1.2,0.99-1.2c0.51,0,0.81,0.06,0.89,0.42
		c0.16,0.67-0.13,1.04-0.94,1.37c-1.49,0.62-2.82,1.07-2.82,2.95c0,1.7,0.67,2.47,2.2,2.47c0.32,0,0.63-0.1,0.91-0.28
		c0.29-0.18,0.54-0.45,0.76-0.79h0.03c-0.03,0.29-0.02,0.58,0.12,0.84H78.64z M76.59,46.32c-0.04,0.78,0.16,2.2-0.96,2.2
		c-0.7,0-0.89-0.42-0.89-1.05c0-0.35,0.04-0.76,0.32-0.99c0.5-0.41,1.06-0.73,1.53-1.05V46.32z M82.31,49.76V38.81h-1.9v10.94H82.31
		z M86.18,49.76v-8.23h-1.9v8.23H86.18z M86.18,40.53v-1.72h-1.9v1.72H86.18z M89.93,41.52h-1.9v8.23h1.9v-5.41
		c0-0.91,0.05-1.56,0.94-1.58c0.88-0.01,0.94,0.6,0.94,1.33v5.66h1.9v-5.41c0-0.97,0.15-1.54,0.96-1.58
		c0.83-0.04,0.91,0.69,0.91,1.43v5.56h1.9v-6.7c0-0.88-0.61-1.75-2.01-1.75c-0.94,0-1.54,0.35-1.9,1.06h-0.03
		c-0.12-0.78-1.05-1.08-1.75-1.06c-0.61,0.02-1.39,0.16-1.81,1.06h-0.03V41.52z M99.02,46.52c-0.04,2.42,0.85,3.46,3.04,3.46
		c1.95,0,2.71-1.17,2.63-3h-1.9c0.02,1.03-0.18,1.55-0.88,1.55c-0.57,0-0.98-0.21-1-1.29v-1.2h3.79v-1.11
		c0-2.25-0.28-3.62-2.92-3.62c-1.87,0-2.86,1.11-2.77,3.05V46.52z M100.91,44.58v-0.34c0-0.75-0.04-1.47,0.91-1.47
		c0.76,0,0.98,0.26,0.99,1.1v0.72H100.91z M108.14,41.52h-1.9v8.23h1.9v-5.32c-0.02-0.88,0.22-1.55,0.94-1.52
		c0.72,0.03,0.8,0.56,0.8,1.36v5.48h1.9v-6.35c0.06-1.47-0.81-2.1-1.9-2.1c-0.43,0-1.29,0.12-1.71,1.06h-0.03V41.52z M116.15,48.3
		c-0.23,0.03-0.76,0.07-0.8-0.28v-5.11h0.8v-1.39h-0.8v-2.26h-1.92v2.26h-0.76v1.39h0.78v5.58c0,1.53,1.57,1.43,2.7,1.3V48.3z
		 M122.76,49.76c-0.1-0.38-0.16-0.76-0.16-1.15v-4.86c0.02-1.08-0.13-2.44-2.72-2.44c-2.38,0-2.89,1.1-2.88,2.66h1.81
		c-0.01-0.75,0.13-1.2,0.99-1.2c0.51,0,0.8,0.06,0.89,0.42c0.16,0.67-0.13,1.04-0.94,1.37c-1.49,0.62-2.82,1.07-2.82,2.95
		c0,1.7,0.67,2.47,2.2,2.47c0.32,0,0.62-0.1,0.91-0.28c0.29-0.18,0.54-0.45,0.76-0.79h0.02c-0.02,0.29-0.01,0.58,0.12,0.84H122.76z
		 M120.7,46.32c-0.05,0.78,0.16,2.2-0.97,2.2c-0.7,0-0.89-0.42-0.89-1.05c0-0.35,0.04-0.76,0.32-0.99c0.5-0.41,1.06-0.73,1.54-1.05
		V46.32z M126.15,41.52h-1.82v8.23h1.9V45c0.02-1.21,0.83-1.47,1.88-1.37v-2.25c-0.28,0.01-0.64-0.02-1.18,0.43
		c-0.28,0.23-0.51,0.57-0.75,1.17h-0.02V41.52z M131.1,49.76v-8.23h-1.9v8.23H131.1z M131.1,40.53v-1.72h-1.9v1.72H131.1z
		 M138.42,49.76c-0.1-0.38-0.16-0.76-0.16-1.15v-4.86c0.03-1.08-0.13-2.44-2.72-2.44c-2.37,0-2.89,1.1-2.87,2.66h1.81
		c-0.01-0.75,0.13-1.2,0.99-1.2c0.51,0,0.81,0.06,0.89,0.42c0.16,0.67-0.13,1.04-0.94,1.37c-1.49,0.62-2.82,1.07-2.82,2.95
		c0,1.7,0.67,2.47,2.2,2.47c0.32,0,0.63-0.1,0.91-0.28c0.29-0.18,0.54-0.45,0.76-0.79h0.03c-0.03,0.29-0.02,0.58,0.12,0.84H138.42z
		 M136.36,46.32c-0.04,0.78,0.16,2.2-0.96,2.2c-0.7,0-0.89-0.42-0.89-1.05c0-0.35,0.04-0.76,0.32-0.99c0.5-0.41,1.06-0.73,1.53-1.05
		V46.32z"/>
	<rect x="23.57" y="0.89" class="st1" width="12" height="3.13"/>
	<polygon class="st1" points="23.57,5.79 35.57,5.79 35.57,12.89 	"/>
	<path class="st1" d="M17.74,41.62c1.57,0.01,2.85,1.84,2.85,4.09c0,1.48-0.55,2.78-1.38,3.5c0.01-0.16,0.02-0.32,0.02-0.48
		c-0.01-1.03-0.32-2.11-1-3.27C17.54,44.11,17.56,42.8,17.74,41.62L17.74,41.62z M18.1,49.77c-0.12,0.02-0.25,0.03-0.37,0.03
		c-1.58,0-2.86-1.83-2.86-4.09c0-1.74,0.75-3.22,1.82-3.81c-0.14,1.22-0.09,2.59,0.66,4.04l0.01,0.02c0.59,1.01,0.87,1.92,0.87,2.77
		C18.23,49.08,18.18,49.43,18.1,49.77L18.1,49.77z"/>
	<path class="st0" d="M14.54,30.93c-1.33,0.39-2.86,0.6-4.39,0.63c-1.47,0.02-2.95-0.13-4.24-0.47v-1.74
		c1.22,0.39,2.71,0.56,4.2,0.54c1.58-0.03,3.15-0.28,4.42-0.72V30.93z"/>
	<path class="st0" d="M14.54,27.24c-1.33,0.39-2.86,0.6-4.39,0.62c-1.47,0.02-2.95-0.12-4.24-0.46v-1.74
		c1.22,0.39,2.71,0.56,4.2,0.53c1.58-0.02,3.15-0.28,4.42-0.72V27.24z"/>
	<path class="st0" d="M14.54,23.48c-1.33,0.39-2.86,0.6-4.39,0.62c-1.47,0.02-2.95-0.12-4.24-0.46V21.9
		c1.22,0.39,2.71,0.56,4.2,0.53c1.58-0.02,3.15-0.28,4.42-0.72V23.48z"/>
	<path class="st1" d="M5.95,21.17c2.67-1.02,5.45-1.2,8.41,0C14.19,17.12,6.39,17.01,5.95,21.17L5.95,21.17z"/>
	<path class="st0" d="M24.09,30.1h2.94v-8.52c-0.28-0.21-0.54-0.37-0.8-0.47c-0.27-0.11-0.53-0.16-0.77-0.16
		c-0.23,0.01-0.47,0.06-0.7,0.17c-0.22,0.1-0.44,0.25-0.67,0.44V30.1z M27.56,19.57v0.34c0.13,0.08,0.26,0.17,0.39,0.26
		c0.15,0.12,0.31,0.24,0.47,0.38l0.29,0.26v10.96h-6.29V20.84l0.24-0.24c0.15-0.15,0.31-0.28,0.46-0.41c0.13-0.1,0.26-0.2,0.39-0.29
		v-0.31c-0.17-0.04-0.33-0.12-0.45-0.24c-0.16-0.16-0.26-0.38-0.26-0.62v-0.09c0-0.24,0.1-0.46,0.26-0.62l0,0
		c0.16-0.16,0.38-0.26,0.62-0.26h3.65c0.24,0,0.46,0.1,0.62,0.26c0.16,0.16,0.26,0.38,0.26,0.62v0.09c0,0.24-0.1,0.46-0.26,0.62
		C27.85,19.45,27.71,19.53,27.56,19.57L27.56,19.57z"/>
</g>
</svg>
