<?xml version="1.0" encoding="utf-8"?>
<!-- Generator: Adobe Illustrator 26.0.1, SVG Export Plug-In . SVG Version: 6.00 Build 0)  -->
<svg version="1.1" id="Layer_1" xmlns="http://www.w3.org/2000/svg" xmlns:xlink="http://www.w3.org/1999/xlink" x="0px" y="0px"
	 viewBox="0 0 215 215" style="enable-background:new 0 0 215 215;" xml:space="preserve">
<style type="text/css">
	.st0{fill-rule:evenodd;clip-rule:evenodd;fill:#FFFFFF;}
	.st1{fill:#FFFFFF;}
	.st2{fill-rule:evenodd;clip-rule:evenodd;fill:#EA1D28;}
</style>
<g>
	<g>
		<g>
			<path class="st0" d="M33.22,126.51c-1.97,0.02-4.27-1.57-4.12-4.2l1.11-32.84c-2.06-0.24-3.1-0.22-5.02-0.69
				c-2.08-1.1-3.44-5.98-0.03-7.66c5.81-0.44,11.25-0.22,16.75-0.07c2.95,1.39,2.68,6.24,0.08,7.66c-1.91,0.5-2.64,0.42-4.7,0.68
				l0,32.88C37.47,124.89,35.13,126.47,33.22,126.51z"/>
			<path class="st1" d="M33.19,129.21c-1.84,0-3.69-0.8-4.99-2.15c-1.26-1.32-1.9-3.06-1.8-4.9l1.03-30.26
				c-0.87-0.09-1.75-0.22-2.89-0.51l-0.32-0.08l-0.29-0.15c-2.1-1.11-3.59-3.92-3.55-6.69c0.04-2.58,1.35-4.68,3.59-5.78l0.47-0.23
				l0.52-0.04c5.37-0.41,10.46-0.26,15.38-0.12l2.21,0.06l0.51,0.24c2.22,1.05,3.59,3.27,3.66,5.95c0.08,2.78-1.27,5.34-3.45,6.52
				l-0.29,0.16l-0.32,0.08c-1.13,0.3-1.92,0.42-2.69,0.5l0,30.36c0.09,1.76-0.5,3.43-1.69,4.73c-1.28,1.4-3.16,2.26-5.02,2.31
				l-0.03,0C33.23,129.21,33.21,129.21,33.19,129.21z M26.34,86.27c0.91,0.2,1.6,0.26,2.58,0.35c0.48,0.04,1,0.09,1.6,0.16L33,87.07
				l-1.2,35.33c-0.02,0.41,0.08,0.68,0.31,0.92c0.32,0.33,0.77,0.48,1.08,0.48c0.33-0.01,0.82-0.2,1.14-0.55
				c0.22-0.24,0.3-0.49,0.28-0.82l-0.01-0.18l0-35.25l2.36-0.3c0.71-0.09,1.26-0.14,1.76-0.19c0.81-0.07,1.34-0.12,2.15-0.31
				c0.26-0.28,0.49-0.85,0.47-1.49c0-0.17-0.04-0.66-0.29-0.99l-0.86-0.02c-4.79-0.14-9.32-0.27-14.15,0.06
				c-0.12,0.13-0.21,0.33-0.24,0.66C25.73,85.16,26.07,85.94,26.34,86.27z"/>
		</g>
		<g>
			<path class="st0" d="M48.02,97.72c-2.95,5.92-3.42,12.05-2.83,20.63c0.62,6.08,3.6,5.77,5.46,6.18c2.09,0.21,6.56-1.5,7.54-4.74
				c0.45,2.12,1.93,3.58,4.8,3.79c4.39,0.06,6.56-2.47,8.07-7.95c0.92-3.48,1.38-5.34,2.31-8.82c2.05-4.28,5.16-2.29,4.32,0.95
				c-0.66,3.15-1.29,4.14-1.36,8.16c-0.43,3.92,1.28,6.55,3.3,7.01c4.6,1.46,8.52-1.62,10.09-4.12c1.63,3.95,5.71,6.48,10.75,2.54
				c-0.04,3.57-0.04,6.57,0.47,10.02c0.88,5.69,6.02,8.52,6.02,1.89c-0.07-7.08-0.15-14.16-0.22-21.25
				c-0.23-4.75,1.43-7.97,1.29-12.72c-1.37-2.98-4.57-1.49-6.23-0.02c-9.43-3.42-11.76,3.87-12.64,12.47
				c-0.11,1.59-0.18,3.19-0.29,4.78c-1.07,1.34-4.38,4.15-6.59-0.12c-0.48-1.63-0.6-3.24-0.38-4.93c0.31-3.89,0.99-7.25,2.77-10.43
				c0.67-1.16,0.11-3.29-2.56-2.56c-1.98,0.54-2.94,1.04-5.28,1.12c-0.77-0.05-2.14,0.06-2.04-1.45c0.16-6.02-5.15-6.88-4.66,0.1
				c0.12,5.01-0.12,5.73,0,10.74c0.1,4.42-1.29,7.93-2.93,8.91c-2.21,1.82-5.31,1.07-5.07-2.67c0.31-5.05,1.78-8.48,2.32-13.35
				c-0.02-2.98-3.95-5.32-6.37,0.16c-0.81,3.95-0.65,8.59-0.81,13.11c-0.21,2.25-0.92,4.23-3.41,4.72
				c-1.04-0.07-2.52-0.62-2.73-3.18c-0.43-6.48,1.3-10.24,2.05-16.5C53.42,97.24,51.63,94.22,48.02,97.72L48.02,97.72z M99.6,102.4
				c1.27,0.14,1.78,4.09,1.16,8.8c-0.63,4.71-2.18,8.43-3.44,8.29c-1.27-0.14-1.78-4.09-1.15-8.8
				C96.79,105.99,98.33,102.26,99.6,102.4z"/>
			<path class="st1" d="M105.01,139.81c-3.12,0-6.05-3.44-6.75-8.02c-0.31-2.11-0.45-4.03-0.49-6.04c-1.71,0.45-3.17,0.31-4.28,0.02
				c-1.56-0.41-2.97-1.29-4.13-2.53c-2.68,2.23-6.44,3.54-10.46,2.3c-2.89-0.73-5.5-3.94-5.33-8.86c-1.31,4.57-3.71,9.6-10.43,9.6
				c-0.06,0-0.13,0-0.19,0l-0.16-0.01c-1.92-0.14-3.53-0.74-4.76-1.73c-2.33,1.94-5.49,2.9-7.65,2.68l-0.31-0.05
				c-0.17-0.04-0.36-0.07-0.55-0.1c-2.03-0.33-6.26-1.01-7.01-8.45c-0.58-8.41-0.27-15.34,3.1-22.1l0.21-0.41l0.33-0.32
				c3.07-2.97,5.52-2.47,6.71-1.9c2.07,0.98,3.25,3.53,3.02,6.49c2.36-4.74,5.8-4.44,6.83-4.22c2.56,0.53,4.43,2.94,4.44,5.72
				l0,0.16l-0.02,0.16c-0.26,2.34-0.72,4.34-1.16,6.28c-0.51,2.25-1,4.38-1.15,6.94c-0.02,0.38,0.01,0.61,0.05,0.74
				c0.13-0.03,0.35-0.11,0.61-0.32l0.34-0.24c0.43-0.31,1.69-2.53,1.61-6.52c-0.06-2.56-0.03-4.05,0-5.48
				c0.03-1.43,0.06-2.78,0-5.19c-0.3-4.58,1.49-6.42,2.58-7.11c1.33-0.84,2.96-0.86,4.36-0.07c1.75,0.99,2.85,3.06,3.08,5.66
				c0.96-0.09,1.6-0.28,2.54-0.57c0.43-0.13,0.89-0.27,1.41-0.41c3.14-0.86,4.76,0.73,5.32,1.45c1.1,1.43,1.22,3.47,0.28,5.08
				c-1.36,2.43-2.09,5.22-2.42,9.29l-0.01,0.14c-0.16,1.23-0.09,2.36,0.22,3.54c0.29,0.5,0.49,0.62,0.5,0.62
				c0.13-0.02,0.53-0.25,0.94-0.61c0.03-0.46,0.05-0.92,0.08-1.38c0.05-0.82,0.09-1.63,0.15-2.45c0.58-5.67,1.76-11.75,6.15-14.5
				c2.36-1.48,5.27-1.74,8.69-0.78c1.29-0.84,3.27-1.73,5.39-1.29c1.66,0.35,3.01,1.48,3.79,3.18l0.23,0.5l0.02,0.55
				c0.08,2.62-0.32,4.75-0.7,6.81c-0.36,1.93-0.69,3.75-0.59,5.86l0.22,21.36c-0.01,5.78-3.31,6.48-4.32,6.56
				C105.22,139.8,105.12,139.81,105.01,139.81z M103.22,115.76l-0.06,5.62c-0.04,3.74-0.03,6.43,0.44,9.59
				c0.13,0.86,0.38,1.56,0.65,2.1l-0.22-21.03c-0.13-2.64,0.28-4.86,0.68-7.01c0.29-1.58,0.57-3.08,0.61-4.74
				c-0.39,0.09-1.08,0.41-1.74,0.99l-0.77,0.68c1.33,2.77,0.89,7.52,0.62,9.59c-0.16,1.23-0.47,3.04-1.01,4.82L103.22,115.76z
				 M51.01,121.84c0.07,0,0.14,0,0.22-0.01c-1.43-0.82-2.59-2.38-2.8-4.93c-0.31-4.59,0.36-7.86,1.07-11.32
				c0.36-1.78,0.74-3.62,0.99-5.73c0.02-0.26,0.01-0.49-0.02-0.69c-0.07,0.06-0.15,0.12-0.24,0.2c-2.31,4.85-2.94,10.02-2.34,18.8
				c0.33,3.22,1.05,3.34,2.5,3.57C50.6,121.77,50.81,121.8,51.01,121.84z M79.12,114.12c-0.05,0.53-0.08,1.13-0.09,1.85l-0.02,0.24
				c-0.29,2.64,0.74,3.97,1.21,4.08l0.21,0.06c0.7,0.22,1.37,0.28,1.99,0.23c-0.89-0.55-1.8-1.46-2.56-2.94l-0.19-0.48
				C79.38,116.15,79.2,115.14,79.12,114.12z M91.59,116.27l0.62,1.51c0.49,1.18,1.24,2.09,2.08,2.53c-1.57-2.69-1.1-7.8-0.81-9.97
				c0.31-2.34,1.15-6.82,3.13-9.15c-0.43,0.08-0.81,0.23-1.14,0.44c-2.74,1.72-3.41,8.25-3.63,10.39c-0.05,0.7-0.09,1.49-0.14,2.28
				C91.67,114.95,91.63,115.61,91.59,116.27z M54.79,106.62c0,0.01-0.01,0.03-0.01,0.04c-0.66,3.23-1.23,6.01-0.97,9.83
				c0.02,0.21,0.05,0.37,0.08,0.49c0.29-0.24,0.54-0.76,0.66-2.02c0.04-1.07,0.06-2.15,0.07-3.23
				C54.66,110.05,54.69,108.32,54.79,106.62z M60.65,102.88c-0.41,2.19-0.52,4.66-0.58,7.28c0.2-1,0.41-1.95,0.63-2.89
				c0.41-1.81,0.8-3.52,1.03-5.47c-0.02-0.12-0.07-0.22-0.11-0.29C61.41,101.66,61.05,102.06,60.65,102.88z M78.17,102.22
				c0.98,0.56,1.7,1.49,2.07,2.6c0.32-1.18,0.71-2.27,1.17-3.32C80.45,101.8,79.5,102.07,78.17,102.22z M72.86,100.72
				c0,0.86-0.01,1.58-0.02,2.26c0.54-0.49,1.11-0.82,1.67-1.03c-0.51-0.19-1.02-0.51-1.46-1C72.98,100.88,72.92,100.8,72.86,100.72z
				 M82.31,99.72c0,0.01-0.01,0.02-0.02,0.03C82.3,99.74,82.3,99.73,82.31,99.72z"/>
		</g>
		<g>
			<path class="st0" d="M148.65,120.02c0.71,4.23,1.83,6.23,4.44,5.12c3.26-1.89,5.19-9.9,6.17-13.14
				c-0.15,4.34-0.33,11.77,5.75,12.04c2.56,0.12,4.19-0.23,6.07-4.95c0.56-1.38-0.36-1.93-1.83-0.73c-5.44,4.41-5.45-8.76-3.11-18.2
				c1-3.25-3.17-5.41-5.6,0.07c-2.93,4.83-3.41,13-6.84,16.49c-0.38-6.39,0.59-7.93,1.25-14.38c0.34-3.67-4.4-6.14-6.03-0.53
				c-1.06,3.9-0.96,5.64-0.68,14.28c-0.39,2.19-5.94,5.56-6.74,0.09c-0.41-2.78,2.11-12,2.01-14.14c-0.21-4.19-4.63-4.09-5.99-1.7
				c-2.42,4.21,0.34,9.98-2.36,16.65c-2.48,3.8-6.52,2.03-6.28-1.71c0.31-5.05,1.72-8.22,1.61-13.2c-0.24-3.39-5.25-5.58-6.38,0.16
				c-0.8,3.94-0.65,8.59-0.8,13.11c-0.21,2.25-0.92,4.23-3.41,4.72c-1.04-0.07-2.52-0.62-2.73-3.18c-0.43-6.48,1.3-10.24,2.05-16.5
				c0.76-3.8-3.05-6.39-5.31-2.14c-3.15,6.32-6.91,24.81,2.71,26.92c2.87,0.62,6.64-1.93,7.61-5.18c0.44,2.12,1.93,3.58,4.8,3.79
				c1.75,0.03,3.84,0.6,8.1-4.74C138.56,127.88,147.55,123.53,148.65,120.02z"/>
			<path class="st1" d="M151.79,128.14c-0.94,0-1.68-0.27-2.22-0.56c-0.95-0.52-1.64-1.32-2.16-2.27c-1.8,1.12-3.95,1.76-5.95,1.62
				c-1.21-0.09-3.57-0.58-5.27-2.94c-2.78,2.4-4.88,2.59-6.82,2.5l-0.53-0.02c-1.8-0.13-3.34-0.67-4.54-1.57
				c-2.24,2.25-5.44,3.5-8.24,2.9c-2.98-0.65-5.29-2.53-6.68-5.44c-3.59-7.5-0.33-20.39,2.12-25.32c1.93-3.65,4.89-4.11,6.84-3.41
				c2.4,0.86,3.85,3.38,3.68,6.21c1.2-2.96,3.52-3.95,5.49-3.83c2.97,0.19,5.46,2.77,5.68,5.89l0.01,0.13
				c0.07,3.07-0.39,5.51-0.83,7.87c-0.34,1.8-0.66,3.5-0.78,5.54c-0.04,0.65,0.2,0.93,0.29,0.96c0.09,0.03,0.46-0.1,0.89-0.69
				c1.08-2.83,1.03-5.55,0.98-8.18c-0.05-2.88-0.11-5.85,1.44-8.53c1.3-2.26,4.1-3.46,6.65-2.85c2.46,0.59,4.1,2.65,4.36,5.42
				c0.04-0.15,0.08-0.31,0.12-0.46c1.32-4.54,4.41-5.63,6.67-5.21c2.18,0.41,3.88,2.17,4.47,4.37c0.22-0.45,0.45-0.88,0.69-1.3
				c0.93-2.04,2.16-3.36,3.44-4.08l0.71-0.39l0.29-0.06c1.14-0.38,2.27-0.34,3.26,0.03c2.46,0.92,3.7,3.66,2.89,6.4
				c-1.6,6.49-1.66,12.86-0.98,15.22c2.51-1.9,4.35-0.83,4.87-0.45c1.03,0.77,1.82,2.34,0.95,4.47c-2.31,5.77-4.92,6.8-8.7,6.63
				c-3.33-0.15-5.35-1.74-6.57-3.86c-1.04,2.05-2.29,3.69-3.87,4.6l-0.3,0.15C153.26,128,152.48,128.14,151.79,128.14z
				 M116.59,99.05c-0.09,0.12-0.18,0.27-0.29,0.46c-2.39,4.8-4.46,15.49-2.05,20.51c0.67,1.41,1.61,2.2,2.96,2.5
				c0.29,0.06,0.64,0.04,1-0.06c-1.82-0.64-3.48-2.27-3.73-5.35c-0.31-4.6,0.36-7.87,1.07-11.33c0.36-1.78,0.74-3.61,0.99-5.72
				l0.03-0.21C116.65,99.52,116.63,99.25,116.59,99.05z M151.98,122.32c0.03,0.09,0.07,0.17,0.1,0.23c0.35-0.32,0.7-0.8,1.04-1.39
				L151.98,122.32z M140.1,119.86c0.54,1.59,1.39,1.65,1.75,1.68c0.16,0.01,0.32,0.01,0.48-0.01
				C141.52,121.22,140.73,120.69,140.1,119.86z M161.94,112.46c-0.19,6.35,0.68,8.77,3.19,8.88c0.01,0,0.02,0,0.03,0
				c-0.04-0.02-0.08-0.05-0.11-0.07C162.76,119.83,162.01,116.28,161.94,112.46z M126.58,117.96l0.31,1.47
				c0.15,0.71,0.46,1.48,2.25,1.64C127.95,120.39,127.06,119.29,126.58,117.96z M171.15,120.31L171.15,120.31L171.15,120.31z
				 M150.85,116.8l0.23,1.35l-0.07-1.27c-0.27-4.52,0.1-6.82,0.57-9.72c0.22-1.4,0.48-2.98,0.7-5.09c0.03-0.34-0.08-0.59-0.19-0.74
				c-0.14,0.18-0.36,0.55-0.56,1.24c-0.9,3.31-0.86,4.71-0.6,12.48l0.04,1.24l-0.05,0.28C150.88,116.65,150.87,116.72,150.85,116.8z
				 M120.85,106.82c0,0.01-0.01,0.03-0.01,0.04c-0.66,3.23-1.23,6.02-0.98,9.85c0.02,0.21,0.05,0.37,0.08,0.49
				c0.29-0.24,0.54-0.76,0.66-2.02c0.04-1.07,0.06-2.16,0.07-3.23C120.72,110.25,120.75,108.52,120.85,106.82z M145.36,107.79
				c-0.02,0.1-0.04,0.21-0.06,0.31c-0.48,2.45-1.29,6.55-1.12,7.69c0.04,0.29,0.1,0.49,0.14,0.62c0.38-0.11,0.93-0.49,1.2-0.81
				l-0.01-0.38C145.4,111.93,145.32,109.64,145.36,107.79z M126.02,115.3l0.17,0.81c-0.02-0.33-0.02-0.66,0-1
				c0.15-2.38,0.51-4.32,0.86-6.2c0.42-2.26,0.79-4.21,0.74-6.68c-0.05-0.39-0.34-0.69-0.53-0.79c-0.11,0.14-0.33,0.51-0.49,1.33
				c-0.56,2.75-0.62,5.92-0.68,9.27C126.07,113.13,126.05,114.22,126.02,115.3z M140.46,101.39c-0.23,0-0.5,0.13-0.6,0.3
				c-0.8,1.39-0.76,3.32-0.72,5.75c0.03,1.6,0.06,3.41-0.17,5.36c0.22-1.58,0.58-3.48,1.02-5.74c0.35-1.8,0.84-4.25,0.82-4.89
				c-0.02-0.35-0.11-0.73-0.25-0.77C140.53,101.4,140.5,101.39,140.46,101.39z M162.29,102.66l-0.21,5.94
				c0.25-3.14,0.78-6.05,1.12-7.7c-0.06,0.13-0.13,0.26-0.2,0.41l-0.16,0.31C162.65,101.95,162.47,102.3,162.29,102.66z"/>
		</g>
		<g>
			<path class="st0" d="M182.2,98.43c5.7,0.39,6.22,5.43,5.59,13.19c-0.23,2.83,2.01,0.46,2.94-2.63c0.38-1.25,1.23-0.78,1.19,0.22
				c-0.31,8.63-4.33,7.49-4.73,8.74c-0.77,6.19-4.5,8.1-7.85,7.86c-4.68-0.33-7.1-4.58-7.01-14.55
				C172.43,101.28,176.5,98.04,182.2,98.43L182.2,98.43z M184.39,105.04c-0.47,0.01-0.8,1.58-0.74,3.49
				c0.06,1.91,0.48,3.46,0.94,3.45c0.46-0.01,0.8-1.58,0.74-3.49C185.28,106.57,184.85,105.02,184.39,105.04L184.39,105.04z
				 M180.41,105.15c-5.41,5.03-4.05,15.34-0.79,15.58c2.78,0.17,3.32-2.18,3.51-4.16C180.34,114.86,179.67,110.82,180.41,105.15z"/>
			<path class="st1" d="M179.85,128.52c-0.24,0-0.48-0.01-0.71-0.03c-9.67-0.69-9.55-13.17-9.51-17.27
				c0.06-6.04,1.46-10.24,4.27-12.84c2.16-2,5.02-2.89,8.49-2.65l0,0c2.52,0.17,4.51,1.09,5.91,2.72c1.53,1.78,2.19,4.19,2.35,7.17
				c0.41-0.1,0.82-0.11,1.21-0.04c1.66,0.27,2.82,1.84,2.76,3.72c-0.24,6.68-2.57,8.97-4.94,10.19
				C188.39,126.16,183.81,128.52,179.85,128.52z M179.88,117.31c0.09,0.26,0.18,0.46,0.26,0.62c0.02-0.05,0.05-0.13,0.08-0.25
				C180.1,117.56,179.99,117.44,179.88,117.31z M185.12,114.63l0.87,0.53l-0.02,0.18c0.17-0.12,0.34-0.22,0.5-0.3
				c-0.23-0.16-0.46-0.36-0.66-0.63C185.58,114.51,185.35,114.58,185.12,114.63z M180.79,101.11c-1.36,0.08-2.42,0.49-3.23,1.24
				c-1.21,1.12-2,3.13-2.34,5.89c0.74-1.9,1.85-3.67,3.36-5.07L180.79,101.11z M183.62,101.51l-0.13,0.97
				c0.26-0.09,0.54-0.14,0.82-0.14c0.05,0,0.1,0,0.15,0c-0.08-0.13-0.16-0.25-0.26-0.36C184.08,101.83,183.9,101.66,183.62,101.51z"
				/>
		</g>
		<g>
			<path class="st0" d="M141.54,85.12c2.51-0.07,4.61,1.93,4.69,4.47c0.07,2.53-1.91,4.66-4.42,4.73c-2.51,0.08-4.61-1.93-4.69-4.46
				C137.05,87.32,139.03,85.19,141.54,85.12z"/>
			<path class="st1" d="M141.66,97.02c-1.86,0-3.62-0.71-4.98-2c-1.41-1.34-2.21-3.14-2.27-5.09c-0.12-4.03,3.04-7.4,7.04-7.51l0,0
				c1.94-0.05,3.79,0.65,5.2,2c1.41,1.34,2.21,3.15,2.27,5.09c0.11,4.03-3.04,7.39-7.04,7.51
				C141.81,97.02,141.74,97.02,141.66,97.02z M141.62,87.82c-1.02,0.03-1.83,0.91-1.8,1.96c0.01,0.51,0.23,0.98,0.59,1.33
				c0.36,0.34,0.79,0.52,1.31,0.51c1.02-0.03,1.83-0.91,1.8-1.96c-0.01-0.51-0.23-0.98-0.59-1.33
				C142.57,87.98,142.11,87.8,141.62,87.82L141.62,87.82z"/>
		</g>
		<g>
			<path class="st2" d="M33.38,126.65c-1.97,0.02-4.27-1.57-4.13-4.2l1.12-32.85c-2.06-0.24-3.11-0.22-5.03-0.69
				c-2.08-1.09-3.44-5.98-0.03-7.66c5.81-0.44,11.25-0.22,16.75-0.07c2.95,1.39,2.67,6.24,0.08,7.66c-1.92,0.5-2.64,0.41-4.7,0.68
				l0,32.87C37.62,125.03,35.29,126.61,33.38,126.65z"/>
		</g>
		<g>
			<path class="st2" d="M48.17,97.86c-2.95,5.92-3.42,12.05-2.83,20.63c0.62,6.08,3.6,5.77,5.46,6.18c2.09,0.21,6.57-1.5,7.54-4.74
				c0.44,2.12,1.93,3.58,4.8,3.79c4.39,0.06,6.56-2.47,8.07-7.95c0.93-3.48,1.38-5.34,2.31-8.82c2.05-4.28,5.16-2.28,4.33,0.95
				c-0.66,3.15-1.29,4.14-1.36,8.16c-0.43,3.92,1.28,6.55,3.29,7.01c4.6,1.46,8.52-1.62,10.09-4.12c1.63,3.95,5.72,6.48,10.74,2.54
				c-0.04,3.56-0.05,6.56,0.47,10.02c0.88,5.7,6.02,8.52,6.03,1.89c-0.07-7.08-0.15-14.16-0.22-21.25
				c-0.24-4.76,1.43-7.97,1.29-12.73c-1.37-2.98-4.58-1.49-6.23-0.02c-9.44-3.42-11.76,3.87-12.64,12.47
				c-0.11,1.6-0.18,3.19-0.29,4.78c-1.07,1.34-4.38,4.15-6.59-0.13c-0.48-1.63-0.6-3.24-0.38-4.92c0.31-3.89,0.99-7.25,2.77-10.43
				c0.67-1.16,0.11-3.29-2.56-2.56c-1.98,0.54-2.93,1.04-5.28,1.12c-0.77-0.05-2.14,0.06-2.04-1.45c0.16-6.03-5.16-6.88-4.67,0.1
				c0.12,5.01-0.12,5.73,0,10.74c0.09,4.42-1.29,7.93-2.93,8.91c-2.22,1.82-5.31,1.07-5.07-2.67c0.31-5.05,1.78-8.48,2.33-13.35
				c-0.02-2.98-3.95-5.32-6.38,0.16c-0.81,3.95-0.65,8.6-0.8,13.11c-0.21,2.25-0.92,4.23-3.41,4.72c-1.04-0.07-2.52-0.62-2.73-3.18
				c-0.43-6.48,1.3-10.24,2.05-16.5C53.57,97.38,51.78,94.36,48.17,97.86L48.17,97.86z M99.75,102.54c1.27,0.14,1.78,4.09,1.16,8.8
				c-0.63,4.71-2.18,8.43-3.45,8.29c-1.26-0.14-1.78-4.09-1.15-8.8C96.94,106.13,98.48,102.4,99.75,102.54z"/>
		</g>
		<g>
			<path class="st2" d="M148.8,120.15c0.71,4.24,1.83,6.24,4.44,5.13c3.26-1.88,5.2-9.9,6.17-13.14
				c-0.15,4.33-0.33,11.76,5.75,12.04c2.56,0.12,4.19-0.24,6.08-4.95c0.57-1.38-0.35-1.93-1.83-0.74c-5.44,4.42-5.45-8.76-3.11-18.2
				c1-3.25-3.17-5.41-5.6,0.07c-2.93,4.82-3.41,13-6.84,16.49c-0.38-6.4,0.58-7.94,1.25-14.38c0.34-3.67-4.4-6.14-6.03-0.53
				c-1.06,3.9-0.96,5.65-0.68,14.28c-0.39,2.19-5.94,5.56-6.74,0.09c-0.41-2.78,2.12-12,2.01-14.14c-0.2-4.19-4.62-4.09-5.99-1.7
				c-2.42,4.21,0.34,9.98-2.36,16.65c-2.48,3.8-6.52,2.03-6.28-1.71c0.31-5.05,1.72-8.22,1.61-13.2c-0.24-3.39-5.25-5.58-6.37,0.16
				c-0.81,3.94-0.65,8.59-0.81,13.11c-0.21,2.25-0.92,4.23-3.41,4.72c-1.04-0.07-2.52-0.62-2.73-3.18
				c-0.44-6.48,1.3-10.24,2.05-16.5c0.76-3.8-3.05-6.39-5.31-2.14c-3.15,6.31-6.91,24.81,2.71,26.91c2.86,0.62,6.64-1.93,7.61-5.17
				c0.45,2.11,1.93,3.58,4.8,3.79c1.75,0.02,3.84,0.6,8.1-4.74C138.71,128.02,147.7,123.67,148.8,120.15z"/>
		</g>
		<g>
			<path class="st2" d="M182.35,98.57c5.7,0.39,6.22,5.43,5.59,13.19c-0.23,2.83,2.01,0.46,2.94-2.63c0.38-1.25,1.23-0.78,1.19,0.22
				c-0.31,8.63-4.33,7.49-4.73,8.74c-0.77,6.19-4.5,8.1-7.85,7.86c-4.68-0.34-7.1-4.58-7.01-14.55
				C172.58,101.42,176.65,98.18,182.35,98.57L182.35,98.57z M184.54,105.17c-0.46,0.01-0.8,1.58-0.74,3.5
				c0.06,1.91,0.48,3.46,0.94,3.44c0.46-0.01,0.8-1.58,0.74-3.49C185.43,106.71,185.01,105.16,184.54,105.17L184.54,105.17z
				 M180.56,105.29c-5.41,5.03-4.05,15.34-0.78,15.59c2.78,0.16,3.32-2.18,3.51-4.16C180.5,115.01,179.82,110.96,180.56,105.29z"/>
		</g>
		<g>
			<path class="st2" d="M141.69,85.26c2.51-0.07,4.61,1.93,4.69,4.47c0.07,2.53-1.91,4.66-4.42,4.73c-2.51,0.08-4.61-1.93-4.69-4.46
				C137.2,87.46,139.18,85.33,141.69,85.26z"/>
		</g>
	</g>
	<g>
		<path class="st0" d="M182.96,139.17c0-0.03,0.01-0.04,0.05-0.03c0.52,0.14,0.97,0.21,1.35,0.21c0.22,0,0.42-0.04,0.59-0.12
			c0.22-0.11,0.34-0.26,0.34-0.46c0-0.16-0.05-0.29-0.13-0.4c-0.09-0.11-0.42-0.39-1-0.83c-0.7-0.52-1.04-1.01-1.04-1.47
			c0-0.68,0.51-1.17,1.55-1.47c0.69-0.2,1.47-0.31,2.35-0.31c0.27,0,0.67,0.02,1.21,0.07c0.2,0.01,0.47,0.03,0.81,0.07
			c0.2,0.04,0.49,0.1,0.87,0.18c0.02,0,0.03,0.01,0.04,0.03v0.6c0,0.03-0.02,0.04-0.06,0.03c-0.26-0.08-0.47-0.12-0.62-0.12
			c-0.6,0-0.9,0.21-0.9,0.62c0,0.17,0.13,0.38,0.4,0.62c0.12,0.11,0.28,0.23,0.49,0.38c0.7,0.54,1.06,1.05,1.06,1.53
			c0,0.75-0.57,1.29-1.72,1.62c-0.76,0.24-1.62,0.35-2.59,0.35c-0.88,0-1.66-0.08-2.33-0.24c-0.15-0.04-0.38-0.1-0.69-0.2
			c-0.01-0.01-0.01-0.02-0.01-0.03V139.17L182.96,139.17z M182.66,138.65c0.02,0.02,0.02,0.04-0.01,0.06
			c-1.52,1.07-3.15,1.6-4.89,1.6c-1.16,0-2.11-0.17-2.84-0.5c-1.39-0.62-2.09-1.46-2.09-2.52c0-1.07,0.7-1.92,2.1-2.55
			c0.75-0.34,1.72-0.51,2.93-0.51c1.17,0,2.18,0.23,3.02,0.69c1,0.55,1.57,1.35,1.72,2.41c0.01,0.02,0,0.03-0.03,0.03h-5.49
			c0.09,0.57,0.37,1.02,0.85,1.34c0.44,0.28,0.96,0.43,1.56,0.43c0.84,0,1.75-0.32,2.72-0.96c0.01-0.01,0.02-0.01,0.04,0
			L182.66,138.65L182.66,138.65z M176.97,136.67c-0.01,0.02,0,0.03,0.03,0.03h1.65c0.02,0,0.04-0.01,0.05-0.03
			c0-0.71-0.26-1.34-0.8-1.87c-0.02-0.01-0.04-0.01-0.06,0C177.33,135.28,177.04,135.9,176.97,136.67L176.97,136.67z M178.06,131.5
			c0.01,0,0.02-0.01,0.03-0.02h3.19c0.02,0,0.04,0.01,0.04,0.03c0,0.02-0.01,0.03-0.03,0.05l-3.21,1.75h-1.56
			c-0.06,0-0.07-0.02-0.03-0.06L178.06,131.5L178.06,131.5z M162.74,134.43c0-0.02,0.01-0.04,0.03-0.04h3.93
			c0.02,0.01,0.03,0.02,0.04,0.04v0.35c0.88-0.34,1.74-0.51,2.58-0.51c1.23,0,2.02,0.28,2.38,0.84c0.22,0.31,0.32,0.79,0.32,1.41
			v3.61c-0.01,0.02-0.02,0.03-0.04,0.04h-4.02c-0.02-0.01-0.03-0.02-0.03-0.04v-3.8c0-0.38-0.07-0.64-0.22-0.76
			c-0.11-0.11-0.27-0.16-0.5-0.16c-0.1,0-0.22,0.03-0.38,0.09v4.64c-0.01,0.02-0.03,0.03-0.05,0.04h-4.02
			c-0.02-0.01-0.03-0.02-0.03-0.04V134.43L162.74,134.43z M165.36,131.79c0.15-0.55,0.41-0.81,0.79-0.8v0.01l0.21,0.03l0.19,0.05
			l0.23,0.03l2.15,0.44l0.21-0.75c0-0.02,0.01-0.02,0.03-0.01l0.74,0.15c0.03,0,0.04,0.01,0.03,0.04l-0.38,1.6
			c-0.07,0.31-0.15,0.57-0.25,0.76c-0.1,0.19-0.28,0.29-0.53,0.29c-0.08,0-0.13,0-0.16-0.01c-0.06,0-0.21-0.03-0.46-0.07l-2.27-0.43
			l-0.18,0.57c0,0.02-0.02,0.02-0.05,0.02l-0.76-0.16c-0.02,0-0.03-0.01-0.02-0.04L165.36,131.79L165.36,131.79z M152.96,134.72
			c0-0.02,0.06-0.04,0.18-0.06c0.57-0.12,1.29-0.21,2.16-0.28c0.71-0.07,1.43-0.1,2.18-0.1c2.31,0,3.65,0.27,3.99,0.82
			c0.13,0.19,0.19,0.48,0.19,0.88v4.14c-0.01,0.02-0.02,0.03-0.04,0.04h-3.9c-0.02-0.01-0.03-0.02-0.03-0.04v-0.27
			c-1.01,0.32-1.86,0.49-2.55,0.49c-0.76,0-1.43-0.14-2.02-0.43c-0.76-0.35-1.14-0.87-1.14-1.55c0-0.82,0.48-1.41,1.45-1.8
			c0.69-0.28,1.52-0.43,2.49-0.43c0.64,0,1.18,0.06,1.63,0.18l0.02-0.09v-0.09c0-0.64-0.5-0.96-1.5-0.96
			c-1.33,0-2.43,0.25-3.27,0.74c-0.02,0-0.03-0.01-0.04-0.03L152.96,134.72L152.96,134.72z M156.24,138.12
			c0,0.76,0.45,1.18,1.34,1.26c0.03,0.01,0.04,0,0.04-0.03v-2.49c0-0.03-0.02-0.04-0.04-0.03c-0.38,0.04-0.7,0.16-0.94,0.36
			C156.38,137.45,156.24,137.75,156.24,138.12L156.24,138.12z M145.59,134.43c0-0.02,0.01-0.04,0.03-0.04h0.69l-0.03-1.49
			c0-0.02,0-0.03,0.01-0.03l4.23-1.9c0.04-0.02,0.06-0.01,0.06,0.03v3.39h1.13c0.02,0.01,0.04,0.02,0.05,0.04v0.88
			c-0.01,0.02-0.02,0.03-0.05,0.03h-1.13v3.87c0.32,0.02,0.7-0.03,1.12-0.15c0.04-0.01,0.06,0,0.06,0.03v0.74
			c-0.01,0.02-0.02,0.03-0.03,0.03c-0.95,0.27-1.92,0.41-2.9,0.41c-1.18,0-1.88-0.2-2.11-0.61c-0.21-0.35-0.33-0.65-0.38-0.9
			c-0.03-0.16-0.04-0.48-0.04-0.97l0.02-2.46h-0.69c-0.02,0-0.03-0.01-0.03-0.03V134.43L145.59,134.43z M135.64,134.43
			c0-0.02,0.01-0.04,0.03-0.04h3.93c0.02,0.01,0.03,0.02,0.04,0.04v0.35c0.88-0.34,1.74-0.51,2.58-0.51c1.23,0,2.02,0.28,2.38,0.84
			c0.22,0.31,0.32,0.79,0.32,1.41v3.61c-0.01,0.02-0.02,0.03-0.05,0.04h-4.02c-0.02-0.01-0.03-0.02-0.03-0.04v-3.8
			c0-0.38-0.07-0.64-0.22-0.76c-0.11-0.11-0.28-0.16-0.5-0.16c-0.1,0-0.23,0.03-0.38,0.09v4.64c-0.01,0.02-0.03,0.03-0.04,0.04
			h-4.02c-0.02-0.01-0.03-0.02-0.03-0.04V134.43L135.64,134.43z M125.24,138.66c-0.35-0.44-0.52-0.91-0.52-1.42
			c0-1.05,0.61-1.84,1.84-2.37c0.93-0.41,2-0.62,3.19-0.62c1.19,0,2.24,0.2,3.17,0.6c1.23,0.53,1.85,1.31,1.85,2.34
			c0,0.54-0.18,1.04-0.53,1.49c-0.34,0.41-0.76,0.73-1.28,0.94c-1.05,0.45-2.12,0.68-3.21,0.68c-1.1,0-2.13-0.2-3.08-0.6
			C126.06,139.44,125.59,139.1,125.24,138.66L125.24,138.66z M129.03,138.52c0.15,0.51,0.38,0.95,0.69,1.31
			c0.02,0.02,0.04,0.02,0.06,0c0.57-0.68,0.85-1.54,0.85-2.59c0-1-0.29-1.84-0.85-2.52c-0.02-0.02-0.04-0.02-0.06,0
			c-0.57,0.67-0.85,1.51-0.85,2.52C128.87,137.72,128.92,138.15,129.03,138.52L129.03,138.52z M111.87,134.43
			c0-0.02,0.01-0.04,0.03-0.04h3.93c0.02,0.01,0.04,0.02,0.04,0.04v0.35c0.57-0.34,1.13-0.51,1.66-0.51c0.45,0,0.83,0.17,1.15,0.5
			c0.7-0.34,1.53-0.5,2.49-0.5c0.93,0,1.63,0.17,2.09,0.5c0.26,0.18,0.43,0.37,0.5,0.54c0.1,0.24,0.14,0.68,0.13,1.32v3.49
			c-0.01,0.02-0.03,0.03-0.04,0.04h-4.02c-0.02-0.01-0.03-0.02-0.03-0.04v-4.36c0-0.32-0.15-0.47-0.44-0.47
			c-0.16,0-0.32,0.05-0.47,0.15v4.68c-0.02,0.02-0.04,0.03-0.07,0.04h-1.91c-0.02-0.01-0.03-0.02-0.03-0.04v-4.3
			c0-0.32-0.14-0.49-0.43-0.49c-0.13,0-0.29,0.06-0.48,0.16v4.62c-0.01,0.02-0.03,0.03-0.04,0.04h-4.02
			c-0.02-0.01-0.03-0.02-0.03-0.04V134.43z"/>
	</g>
	<g>
		<path class="st0" d="M127.29,70.6l-2.41,2.72h2.36l4.96-2.72H127.29L127.29,70.6z M134.54,82.14l-0.55-0.69
			c-1.57,1.03-3.05,1.55-4.43,1.55c-1.02,0-1.89-0.25-2.62-0.74c-0.81-0.56-1.28-1.32-1.41-2.29c-0.01-0.05,0-0.07,0.05-0.07h8.89
			c-0.26-1.65-1.18-2.91-2.79-3.77c-1.33-0.71-2.92-1.07-4.77-1.07c-3.54,0-5.97,0.88-7.27,2.64c-0.51,0.7-0.76,1.43-0.76,2.19
			c0,1.67,1.11,3,3.31,3.98c1.18,0.53,2.69,0.79,4.55,0.79C129.53,84.66,132.13,83.82,134.54,82.14L134.54,82.14z M125.46,78.87
			c0.11-1.24,0.58-2.25,1.41-3.03c0.03-0.02,0.06-0.02,0.1,0c0.86,0.86,1.29,1.87,1.29,3.03c-0.02,0.03-0.04,0.05-0.07,0.05h-2.67
			C125.46,78.92,125.44,78.9,125.46,78.87L125.46,78.87z M109.49,74.97l0.03-3.77c2.94-1.84,5.6-2.76,7.98-2.76
			c0.84,0,1.48,0.13,1.92,0.39c0.44,0.26,0.66,0.6,0.66,1.01c0,0.33-0.16,0.6-0.48,0.79c-0.25,0.16-0.56,0.24-0.9,0.24
			c-0.48,0-0.88-0.1-1.22-0.29c-0.21-0.13-0.52-0.41-0.95-0.86c-0.16-0.16-0.26-0.24-0.29-0.24c-0.01,0-0.02,0.02-0.02,0.07v5.77
			c0,0.03,0.02,0.05,0.05,0.05h2.02v1.31h-2.02c-0.03,0.01-0.05,0.04-0.05,0.07v8.79l-6.7,2.1V76.75c-0.02-0.03-0.04-0.06-0.07-0.07
			h-1.03L109.49,74.97L109.49,74.97z M93.5,75.78l-0.31,1.74c1.4-0.76,3.14-1.14,5.24-1.14c1.7,0,2.55,0.56,2.55,1.67l-0.03,0.14
			c0,0.19-0.03,0.28-0.09,0.26c-0.73-0.19-1.62-0.29-2.67-0.29c-1.52,0-2.84,0.22-3.95,0.67c-1.53,0.6-2.29,1.54-2.29,2.81
			c0,1.05,0.6,1.85,1.81,2.4c0.94,0.45,2,0.67,3.17,0.67c1.11,0,2.5-0.26,4.15-0.79c0.06-0.02,0.09,0,0.09,0.05v0.43h6.25
			l-0.05-6.63c0-0.72-0.12-1.2-0.35-1.45c-0.23-0.25-0.72-0.51-1.46-0.76c-0.83-0.29-2.44-0.43-4.84-0.43
			C98.02,75.13,95.61,75.35,93.5,75.78L93.5,75.78z M98.72,81.23c0-0.61,0.21-1.1,0.64-1.48c0.4-0.33,0.91-0.53,1.53-0.6
			c0.05-0.02,0.07,0,0.07,0.05v4.03c0,0.05-0.02,0.07-0.07,0.05C99.44,83.14,98.72,82.46,98.72,81.23L98.72,81.23z M91,82.52
			l-0.52-0.86c-1.24,0.54-2.31,0.81-3.19,0.81c-1.73,0-3.1-0.69-4.1-2.07c-0.89-1.26-1.33-2.78-1.33-4.58c0-1.21,0.21-2.38,0.62-3.5
			c0.46-1.22,1.1-2.22,1.93-2.98c0.05-0.03,0.08-0.03,0.1,0.02c0.43,0.97,1.02,1.76,1.76,2.36c0.83,0.67,1.73,1,2.72,1
			c1.16,0,1.74-0.44,1.74-1.31c0-0.67-0.45-1.28-1.36-1.84c-0.68-0.43-1.44-0.75-2.26-0.95c-0.91-0.22-1.84-0.33-2.81-0.33
			c-2.49,0-4.77,0.73-6.84,2.19c-0.95,0.68-1.72,1.58-2.29,2.69c-0.57,1.11-0.86,2.26-0.86,3.43c0,2.45,0.97,4.44,2.91,5.98
			c1.81,1.45,3.97,2.17,6.48,2.17C86.3,84.76,88.74,84.01,91,82.52z"/>
	</g>
</g>
</svg>
