<?xml version="1.0" encoding="utf-8"?>
<!-- Generator: Adobe Illustrator 26.0.1, SVG Export Plug-In . SVG Version: 6.00 Build 0)  -->
<svg version="1.1" id="Layer_1" xmlns="http://www.w3.org/2000/svg" xmlns:xlink="http://www.w3.org/1999/xlink" x="0px" y="0px"
	 viewBox="0 0 215 215" style="enable-background:new 0 0 215 215;" xml:space="preserve">
<style type="text/css">
	.st0{fill:#FFB71B;}
</style>
<g>
	<path class="st0" d="M142.71,147.56c-4.19,1.49-8.99,2.62-14.1,3.45l0.22-0.18l1-1.32l0.56-1.16l0.39-0.95l0.16-0.99v-0.97v-5.08
		l13.61-14.2l0.43-0.48l0.44-0.83l0.35-0.82l0.31-1.21l0.18-1.48v-1.4l-0.29-1.62l-0.56-1.43l-0.71-1.16l-0.77-0.93l-0.96-0.54
		l-1.03-0.31l-1.29-0.18h-4.88h-0.9l-0.9,0.15l-0.58,0.34l-0.46,0.32l-2.01,2.01v-2.85H86.33v0.17v31.15l0.14,1.51l0.27,1.2
		l0.73,1.61l1.2,1.46l0.38,0.29c-5.35-0.83-10.38-2-14.74-3.55l-16.51-5.85c9.36,11.66,28.06,19.62,49.61,19.62
		c20.86,0,39.04-7.46,48.67-18.5L142.71,147.56z M129.84,121.28l3.62-3.76l0.56-0.35l0.84-0.26l1.74-0.11h2.43l1.39,0.4l0.7,0.51
		l0.52,0.71l0.38,1.16l0.12,1.33l-0.07,0.98l-0.35,1.14l-0.29,0.63l-0.58,0.82l-11.01,11.57V121.28z"/>
	<g>
		<g>
			<path class="st0" d="M120.45,78.7c0-0.25-0.06-0.38-0.19-0.51l-1.91-1.78c-0.13-0.19-0.26-0.38-0.26-0.52
				c0-0.19,0.19-0.25,0.38-0.25h6.13c0.19,0,0.32,0.13,0.32,0.38v31.56c0,0.26,0,0.45,0.13,0.58l1.98,2.23
				c0.13,0.13,0.25,0.32,0.25,0.44c0,0.19-0.13,0.26-0.38,0.26h-8.42c-0.19,0-0.38-0.06-0.38-0.26c0-0.12,0.13-0.32,0.26-0.44
				l1.98-2.23c0.13-0.13,0.13-0.32,0.13-0.58V78.7z"/>
		</g>
		<g>
			<g>
				<g>
					<path class="st0" d="M45.03,97.26c0,8.03,1.08,11.1,4.02,11.1c2.1,0,3.12-1.02,4.46-3c0.13-0.19,0.25-0.32,0.45-0.32
						c0.19,0,0.25,0.13,0.19,0.38c-0.77,3.06-2.74,5.67-5.86,5.67c-5.8,0-8.23-5.74-8.23-20.03c0-9.69,2.81-15.43,7.27-15.43
						c3.69,0,6.88,2.68,6.88,11.99v3.95c0,0.45-0.13,0.77-0.57,0.77h-8.61V97.26z M49.74,89.93v-6.38c0-3.38-0.89-5.17-2.42-5.17
						c-1.66,0-2.3,1.79-2.3,5.17v6.38H49.74z"/>
				</g>
				<g>
					<path class="st0" d="M63.01,107.59c0,0.26,0,0.45,0.12,0.58l1.98,2.23c0.13,0.13,0.25,0.32,0.25,0.44
						c0,0.19-0.12,0.26-0.38,0.26h-8.42c-0.19,0-0.38-0.06-0.38-0.26c0-0.12,0.13-0.32,0.25-0.44l1.97-2.23
						c0.13-0.13,0.13-0.32,0.13-0.58V66.33c0-0.26-0.07-0.38-0.19-0.52l-1.91-1.85c-0.13-0.13-0.25-0.32-0.25-0.44
						c0-0.19,0.19-0.25,0.38-0.25h6.12c0.19,0,0.32,0.13,0.32,0.38V107.59z"/>
				</g>
				<g>
					<path class="st0" d="M86.28,106.76c0,0.83,0.26,1.6,0.83,1.6c0.64,0,1.34-0.32,1.85-1.09c0.13-0.13,0.19-0.25,0.32-0.25
						c0.12,0,0.19,0.13,0.19,0.32c-0.25,1.85-1.72,3.76-3.31,3.76c-1.98,0-3-1.28-3.77-2.42c-1.02,1.15-2.67,2.42-4.4,2.42
						c-2.49,0-5.55-1.59-5.55-10.34c0-7.13,1.08-9.05,8.1-14.67c1.27-1.02,1.27-1.59,1.27-4.21c0-2.8-0.64-3.51-2.67-3.51
						c-1.85,0-4.53,1.47-5.67,2.62c-0.13,0.13-0.32,0.19-0.51,0.19c-0.13,0-0.19-0.13-0.19-0.32c0-0.77,3.64-5.23,7.21-5.23
						c2.29,0,6.31,1.4,6.31,7.97V106.76z M81.81,87.88h-0.12c-3.51,3-4.53,5.23-4.53,11.73c0,7.27,0.71,8.74,2.11,8.74
						c1.4,0,2.55-1.98,2.55-3.77V87.88z"/>
				</g>
				<g>
					<path class="st0" d="M96.6,107.59c0,0.26,0,0.45,0.07,0.58l2.17,2.23c0.19,0.13,0.26,0.32,0.26,0.44
						c0,0.19-0.13,0.26-0.38,0.26h-8.55c-0.25,0-0.38-0.06-0.38-0.26c0-0.12,0.06-0.32,0.26-0.44l1.98-2.23
						c0.13-0.13,0.13-0.32,0.13-0.58V78.7c0-0.25-0.07-0.38-0.26-0.51l-1.85-1.78c-0.19-0.19-0.26-0.38-0.26-0.52
						c0-0.19,0.13-0.25,0.38-0.25h6.12c0.19,0,0.32,0.13,0.32,0.38v2.16h0.13c1.02-1.27,2.1-2.55,3.57-2.55
						c2.11,0,3.44,3.38,3.44,5.42c0,0.33-0.06,0.58-0.31,0.58c-0.26,0-0.38-0.25-0.51-0.58c-0.7-1.72-1.98-2.42-3.32-2.42
						c-1.85,0-3,2.61-3,5.87V107.59z"/>
				</g>
				<g>
					<path class="st0" d="M110.76,107.59c0,0.26,0,0.45,0.06,0.58l2.17,2.23c0.19,0.13,0.25,0.32,0.25,0.44
						c0,0.19-0.12,0.26-0.38,0.26h-8.55c-0.25,0-0.38-0.06-0.38-0.26c0-0.12,0.06-0.32,0.25-0.44l1.98-2.23
						c0.13-0.13,0.13-0.32,0.13-0.58V78.7c0-0.25-0.06-0.38-0.25-0.51l-1.85-1.78c-0.19-0.19-0.25-0.38-0.25-0.52
						c0-0.19,0.13-0.25,0.38-0.25h6.13c0.19,0,0.32,0.13,0.32,0.38v2.16h0.13c1.02-1.27,2.11-2.55,3.57-2.55
						c2.11,0,3.44,3.38,3.44,5.42c0,0.33-0.06,0.58-0.31,0.58c-0.26,0-0.39-0.25-0.51-0.58c-0.7-1.72-1.98-2.42-3.32-2.42
						c-1.85,0-3,2.61-3,5.87V107.59z"/>
				</g>
				<g>
					<path class="st0" d="M134.23,97.26c0,8.03,1.09,11.1,4.02,11.1c2.11,0,3.13-1.02,4.47-3c0.13-0.19,0.25-0.32,0.45-0.32
						c0.19,0,0.25,0.13,0.19,0.38c-0.77,3.06-2.74,5.67-5.87,5.67c-5.81,0-8.23-5.74-8.23-20.03c0-9.69,2.81-15.43,7.27-15.43
						c3.7,0,6.88,2.68,6.88,11.99v3.95c0,0.45-0.13,0.77-0.57,0.77h-8.61V97.26z M138.94,89.93v-6.38c0-3.38-0.89-5.17-2.42-5.17
						c-1.66,0-2.3,1.79-2.3,5.17v6.38H138.94z"/>
				</g>
				<g>
					<path class="st0" d="M152.21,107.59c0,0.26,0,0.45,0.06,0.58l2.17,2.23c0.19,0.13,0.25,0.32,0.25,0.44
						c0,0.19-0.12,0.26-0.38,0.26h-8.55c-0.25,0-0.38-0.06-0.38-0.26c0-0.12,0.07-0.32,0.25-0.44l1.98-2.23
						c0.13-0.13,0.13-0.32,0.13-0.58V78.7c0-0.25-0.06-0.38-0.25-0.51l-1.85-1.78c-0.19-0.19-0.25-0.38-0.25-0.52
						c0-0.19,0.13-0.25,0.38-0.25h6.12c0.2,0,0.32,0.13,0.32,0.38v2.16h0.13c1.02-1.27,2.11-2.55,3.57-2.55
						c2.1,0,3.44,3.38,3.44,5.42c0,0.33-0.06,0.58-0.32,0.58c-0.26,0-0.38-0.25-0.51-0.58c-0.7-1.72-1.98-2.42-3.31-2.42
						c-1.85,0-3,2.61-3,5.87V107.59z"/>
				</g>
				<g>
					<path class="st0" d="M175.48,91.84c0,15.75-3.44,19.26-7.59,19.26c-4.08,0-7.53-3.51-7.53-19.26c0-12.56,3.45-16.2,7.53-16.2
						C172.04,75.64,175.48,79.27,175.48,91.84z M170.51,91.84c0-11.1-0.89-13.46-2.61-13.46c-1.66,0-2.55,2.36-2.55,13.46
						c0,14.34,0.89,16.52,2.55,16.52C169.62,108.36,170.51,106.18,170.51,91.84z"/>
				</g>
			</g>
			<g>
				<g>
					<path class="st0" d="M99.19,54.48c0,0.18-0.07,0.32-0.22,0.32c-0.18,0-0.25-0.18-0.29-0.39c-0.43-3.02-1.47-7.3-3.31-7.3
						c-1.59,0-1.87,3.42-1.87,11.01c0,10.79,0.79,12.37,2.41,12.37c1.98,0,2.73-6.62,2.73-6.94c0-0.18,0.11-0.29,0.29-0.29
						c0.18,0,0.25,0.11,0.25,0.33c0,5.32-0.79,8.71-3.96,8.71c-4.21,0-4.68-8.2-4.68-14.21c0-4.42,0.18-12.77,4.68-12.77
						c0.57,0,1.19,0.32,1.73,0.75c0.22,0.18,0.43,0.22,0.61,0.22c0.18,0,0.44-0.14,0.68-0.43c0.22-0.25,0.5-0.54,0.68-0.54
						c0.22,0,0.25,0.25,0.25,0.61V54.48z"/>
					<path class="st0" d="M108.44,69.84c0,0.47,0.14,0.9,0.46,0.9c0.36,0,0.76-0.18,1.04-0.61c0.07-0.07,0.11-0.14,0.18-0.14
						c0.07,0,0.11,0.08,0.11,0.18c-0.14,1.04-0.97,2.12-1.87,2.12c-1.12,0-1.69-0.72-2.12-1.37c-0.57,0.65-1.51,1.37-2.48,1.37
						c-1.4,0-3.13-0.9-3.13-5.83c0-4.03,0.61-5.1,4.57-8.27c0.72-0.58,0.72-0.9,0.72-2.38c0-1.58-0.36-1.98-1.51-1.98
						c-1.04,0-2.55,0.83-3.2,1.48c-0.07,0.08-0.18,0.11-0.29,0.11c-0.07,0-0.1-0.07-0.1-0.18c0-0.43,2.05-2.95,4.06-2.95
						c1.29,0,3.56,0.79,3.56,4.5V69.84z M105.92,59.19h-0.07c-1.98,1.69-2.55,2.95-2.55,6.62c0,4.1,0.39,4.93,1.18,4.93
						c0.79,0,1.44-1.12,1.44-2.12V59.19z"/>
					<path class="st0" d="M114.26,70.31c0,0.14,0,0.25,0.04,0.32l1.33,1.26c0.07,0.07,0.14,0.18,0.14,0.25
						c0,0.11-0.11,0.15-0.22,0.15h-4.93c-0.14,0-0.21-0.04-0.21-0.15c0-0.07,0.04-0.18,0.14-0.25l1.12-1.26
						c0.07-0.07,0.07-0.18,0.07-0.32V54.48c0-0.22-0.18-0.47-0.33-0.65l-1.08-1.11c-0.22-0.18-0.18-0.43,0-0.43h1.12
						c0.21,0,0.29-0.11,0.29-0.32v-3.02c0-2.48,1.48-3.63,3.17-3.63c1.66,0,2.77,1.69,2.77,3.05c0,0.11-0.07,0.22-0.14,0.22
						c-0.14,0-0.25-0.14-0.36-0.29c-0.58-0.76-1.3-1.44-2.02-1.44c-0.65,0-0.9,0.68-0.9,1.51v3.6c0,0.21,0.04,0.32,0.29,0.32h1.08
						c0.18,0,0.22,0.25,0,0.43l-1.08,1.11c-0.14,0.18-0.29,0.43-0.29,0.65V70.31z"/>
					<path class="st0" d="M119.87,64.48c0,4.53,0.61,6.26,2.27,6.26c1.19,0,1.76-0.58,2.52-1.69c0.07-0.11,0.14-0.18,0.25-0.18
						c0.11,0,0.14,0.07,0.11,0.22c-0.43,1.73-1.54,3.2-3.31,3.2c-3.27,0-4.64-3.24-4.64-11.3c0-5.47,1.59-8.7,4.1-8.7
						c2.08,0,3.88,1.51,3.88,6.76v2.23c0,0.25-0.07,0.43-0.32,0.43h-4.85V64.48z M119.87,50.6l4.07-3.27
						c0.21-0.22,0.43-0.32,0.57-0.14l0.86,1.55c0.11,0.18-0.11,0.29-0.36,0.39l-4.93,1.84L119.87,50.6z M122.53,60.34v-3.6
						c0-1.9-0.5-2.91-1.36-2.91c-0.94,0-1.3,1.01-1.3,2.91v3.6H122.53z"/>
				</g>
			</g>
			<g>
				<path class="st0" d="M125.11,68.27c0.02,1.45-0.94,2.97-2.17,2.99c-1.29,0.02-2.29-1.48-2.31-2.93
					c-0.02-1.51,0.94-2.97,2.23-2.99C124.09,65.33,125.09,66.76,125.11,68.27z"/>
			</g>
		</g>
	</g>
</g>
</svg>
